<svg xmlns="http://www.w3.org/2000/svg" viewBox="0 0 60.65 53.78"><defs><style>.cls-1{isolation:isolate;}.cls-2{fill:#e17061;}.cls-3{mix-blend-mode:multiply;}.cls-4{fill:#f3c7c2;}.cls-5{mix-blend-mode:screen;}.cls-6{fill:#d84836;}.cls-7{fill:#da4d3a;}.cls-8{fill:#f29478;}</style></defs><g class="cls-1"><g id="Layer_1" data-name="Layer 1"><path class="cls-2" d="M60.08,38.27c2.34-1-.59,2.39-2.94,3s-2.28,2.91-4.8,5.2S50.28,51.67,50,54.3c0,0-2.81-.12-3.93-.07s-.23-3.08-1.17-5.07-1.35-.91-1.4,1.2-.36,4.28-1.76,4.33-1-1.2-1.41-2.28-1.17,2.28-2.58,2.28-1.29-3-.53-3.76a4.07,4.07,0,0,0,.7-3.2c0-.09-.11-.07-.2,0l-1.59-.15a2.18,2.18,0,0,0,.74-1.8c-.06-1.2-.41-1.73-1.82-.44a6.67,6.67,0,0,0-.82.91l-1.31-.78c.26,0,1-1.34,1.78-2.09,1.11-1-.12-2.35-.35-5.15,0,0,0-.06,0-.06l1.19-.36c.41,1.51,1,3.35,1.36.66s1.24-2.51,0-3.85c-1-1.08-.23-1.2-.61-1.53l1.41,0c.23.26.55.23.92-.28A4.43,4.43,0,0,0,39,32.1l1.16.36a3.71,3.71,0,0,0-.22,2.18c.22,1.49.45,3.14.88,3.52l-1.1,1c-.31,0-.64.4-1.11,1.18-1,1.54-.81,2.51,0,4.1s1.85,4.57,2.15,2.3c.39-2.88.74-4.31.32-5.64L42.57,41a4.18,4.18,0,0,0,.74,1.38c1.41,1.94,2.87,6,3.22,3.82A20,20,0,0,0,47,42.24l1.69,0c0,1.39.27,2.58.69,2.91.88.68,1.58-3.48,1.88-5.25s1.51-.8,1.11,1.09,2.16.39,2.34-1.43,2.11-4.85,2.76-5-.18,1.2-.47,3.08S57.73,39.29,60.08,38.27Z" transform="translate(-0.35 -1)"/><path class="cls-2" d="M56.38,21c.76.57-3.4,5.3-4.1,6.9s-.65,2.79-.12,3.42,2.46-1.31,3.05-.52-3.81,4.74-5.39,7a8.23,8.23,0,0,0-1.16,4.51l-1.69,0a1.91,1.91,0,0,0-.73-1.5c-1-.82-1.19-2.23-.21-2s.33-1.81-.26-3.06a.67.67,0,0,0-.12-.2l1.66-.07c.38.57.67.33,1.23-1.44.86-2.68,2-5.64,0-3.91l-1.19,1-1.07-1a.62.62,0,0,0,.31-.14c1.12-.86,5.57-4.45,4.22-5.87S49,22.86,47.69,25l-1.5-.26c.88-1.26,1-1.55-.3-3.37-1.47-2.11-.53-3.37,0-2.34s1.82,2.17,2,.74.88-3.07,1.59-2.85-1,5.36.52,4.5S52,18.3,52,20s.36,3.82,1.29,3.36S55.62,20.42,56.38,21Z" transform="translate(-0.35 -1)"/><path class="cls-2" d="M47.69,25c0,.08-.11.16-.16.25-1.25,2.07-1.9,4.87-1.25,4.87l1.07,1c-1.13,1-1.44,1.5-.76,2.89a14.86,14.86,0,0,0,.72,1.42l-1.66.07c-.6-.85-1.57.6-2.34,2.31-.6,1.33-1.07,2.11-.74,3.18l-1.52.15a3.33,3.33,0,0,0-.32-.76c-.44-.79-.74-1.18-1-1.18l1.1-1c.24.22.54.05.94-.75,1.11-2.22.23-4,1.64-4.16s-.64-4.76-.91-4.34c-1.09,1.74-1.92,2.62-2.33,3.55L39,32.1c.8-1.77.64-4.18-.39-3.19A3.86,3.86,0,0,0,37.8,30l-1.38-.15c.12-.29.27-.63.44-1,1-2.06-.06-3.14-1-4.62-.37-.59-.69.07-.75,1.46l-1.25-.05c0-1-1.83-1.68-2-.73,0,.13-.05.26-.07.37l-1-.06c.17-1-.7-1.68-1.62-2.31-1.67-1.14.41,1.42,0,3.54-.14.72-.39,1.8-.6,2.91l-.93-.18A8.13,8.13,0,0,0,27.38,26c-.4-1.47.21-3.53-.79-5.07-.32-.49-.57.07-.82,1.16l-1.35-.27A10.11,10.11,0,0,1,25,20c.82-1.59-.12-1.59-.59-3s.53-.58,1.76.51.06-2.91,1.35-2.68,0,4.9,0,4.9c1.58,2.17,4,3.19,4.75,2.74s.64-1.88-.35-2.91-2.64-3.25-1.41-3.36,1.58,1.93,2.69,3.19.53-1.65.42-3.08a7.93,7.93,0,0,0-3-5.13C28.54,9.3,28.71,8,29.77,9s2.57,1.71,2.52-.12-3.7-4.22-3.05-5,2.17,1,2.93,2,1.12-1.26,1.57-1.26.19,2.8,0,5.25,1.88,2.05,1.47.05S36,9.47,36.33,7.7s-.41-5.42.59-5.65.94,2.22.78,3.76.62-.17,1.33-1.08-.24-3,.35-3.3.41.85,1,1.71,1-1.71,1.71-1.26-.71,2.8-2.41,4.17S37.09,10,38.15,10.38s2.05-3,2.75-2.51-2.46,5.47-1.93,7.7,1.29,2.34,2.52.63.29-2.17-.06-3.37.47-.62,1.53.4,1.17-1.6,2-2.39.64.34.06,1.31-.42,1.71.82,1.48-3.75,3.59-5,6,1.23.24,2.1-.22.12,3.13,0,5.42,1.46,2.39,2.75.51l.48-.68Zm-8.4,2.24c1,.68,1.38-2.37.85-2.72S38.34,26.52,39.29,27.2Zm-.38-3.76c.94-.47-.06-3-.64-4.56s-1.47-3.24-1.59-2.63c-.52,2.74-.47,4.79.69,5.59S38,23.9,38.91,23.44Zm-.47-10.72c.23-1,.23-1.6-.7-1.37-1.49.36-2.17,2.85-.94,3.36S38.21,13.75,38.44,12.72Z" transform="translate(-0.35 -1)"/><path class="cls-2" d="M36.42,29.84,37.8,30a3.3,3.3,0,0,0-.14,3.1l-1.41,0a2.27,2.27,0,0,0-.5-.3c-1.49-.71-.71,3.29-.3,4.83a1.05,1.05,0,0,1,0,.19l-1.19.36a36.13,36.13,0,0,0-1.51,6.65c0,.47,0,.65.11.65l1.31.78c-1,1.39-1.67,3.11.12,2.38a5.75,5.75,0,0,0,1.78-1l1.59.15a6,6,0,0,1-2.9,2.44c-2.29.74-1.59,1.59-2.17,3.13s-2.82,1.15-5,1-3.7-4.11-5.1-5.47,1,3.36-.07,4.9-5.8.69-7.56.52-1.29-1.78-3.4-4.69-2-1.93-5.5-2.22-3.87-1-3.87-1.37,2.69.12,3.22-.57-1.94-1.88-1.47-2.79,3.23,1.88,4.05.23-1.65-4.34-3.81-6.28S.51,33,1.21,32.62s3.17,3.14,4,2-.93-3.2-2.58-5.25S0,26.75.57,26.07,1.92,27.54,2.8,27.2s-.24-2.28.64-2.79,1,2.68,1.82,5,2.52,2.68,2.58,1.77.7-1.09,1.41-.23S9.07,34.22,10.6,35,12.47,32.57,11,31s-2.11-1.09-1.53-2.28S9,26.12,7.82,25s-.92-2.05,0-1.83A1.06,1.06,0,0,0,9.3,22.13c.07-.86,0-2.74.71-2.74s.52,3,.41,4.9.41,3.77,2.05,4c.71.09,1-.16,1.13-.64l1.37,0a8.63,8.63,0,0,0-.15,2.56c.17,2.54-.53,3.28.29,3.69s1.66-1.57,2-3.28l1.23.08c0,1.61,1.73,4.74,2.16,4.22s.28-1.94,0-2.8a1.76,1.76,0,0,0-.35-.54l1.16-.11c.27.29.54.37.83.08,1-1,1.06-1.54,1.06-3.56,0-1.86-.26-5.16-1.43-4.52l-.57-1h.07a.84.84,0,0,0,.7-1.15l1.37-.15c.72,1,.92,1,1.08.59l1.35.27c-.18.82-.36,1.94-.55,3.12-.43,2.74,0,4.85,1.37,5,.58.06.88-.39,1-1l.93.18c-.42,2.15-.74,4.44-.05,4.62,1.06.29.59-2.45,1.76-4.5s.05-2.86.44-4a1.45,1.45,0,0,0,.07-.26l1,.06c-.21,1.86,1.4,1.84,2,.78a.83.83,0,0,0,.11-.42l1.25.05a17.37,17.37,0,0,0,.22,3.16C35.77,31.59,35.85,31.2,36.42,29.84Zm-2.56.75A2.66,2.66,0,0,0,33.29,28c-1.32-1.2-2.25,2.48-2.5,5.16s.91,4.79,1.73,2.17S33.5,31.36,33.86,30.59ZM30.79,42.66c.49-1.26,1.4-3.9-.44-5.48-1-.86-1.23,5-1.23,7S30.3,43.91,30.79,42.66Zm-1.36,4.62c.45.34,1.61-1.05,1.36-1.92C30.42,44.13,29,46.94,29.43,47.28Zm-2.36-3.2c.17-3.07.59-4.44,0-5.13-.76-.89-1.41,1.54-1.23,3.25S26.89,47.16,27.07,44.08Zm-2.7-4.61c.55-2.52,1.29-6.2.53-6.66s-2.13-.48-2.15,2.21S24,41.07,24.37,39.47Zm-2.75,6.21c1.23,1.31,3.63,4.11,2.93,1.48s-2.17-5.07-2.93-5.64S20.38,44.37,21.62,45.68Zm-2.93-6.1c1.39.72,2.17-1.54,1.64-2.8s-2.23-2.67-2.52-1.93S16.81,38.61,18.69,39.58Zm-1.76,7.19c.82.22,1.46-1.66,1.41-3.08s-.95-4.11-1.65-2.4C16.06,42.83,16.11,46.53,16.93,46.77ZM14.4,44.43c.18-1.77.48-7.93-.52-8-1.83-.22-2.17,2.1-2.47,4a7.13,7.13,0,0,0,1.47,5C13.82,46.88,14.23,46.19,14.4,44.43Z" transform="translate(-0.35 -1)"/><path class="cls-2" d="M24.25,6.44c.83.12.42,1.54-1.16,3.71a6.56,6.56,0,0,0-1.47,5c.06,1.59,1.93-1.25,2.46-.86s-.12,1.32-1.23,2.63-1.29,1.6.29,4l.2.3L22,21.38a1.27,1.27,0,0,0-.7-.78c-.74-.35-1,1.93-.07,1.93l.57,1a1.31,1.31,0,0,0-.33.27c-1.31,1.36-2.61,2-1.89,3.76.51,1.22,1.1,3.25,1.76,4l-1.16.11c-.62-.7-1.81-1.33-1.81-.88l-1.23-.08A9.38,9.38,0,0,0,17.3,29c0-1.54-.18-2.11-1.09-2.51-.55-.24-1,.22-1.24,1.17l-1.37,0a10.61,10.61,0,0,0-.25-2.9,41.22,41.22,0,0,1-.7-7c.11-2.06-2.64-3.88-4.16-5.65s-.18-1.25,1.58.06.94.74,1.06-1.65.28-3.6-1.06-5.2S8.78,2.22,9.42,1.82s1.18,1.72,2,2.23,1-1.83,1.65-2.34,1,1.2.29,2.39-.18,3-.59,5.88,1.82,5.24,3.11,5.42.06-3.25-.82-4.85-.65-4.39,0-4.56.12,2.73,1.11,2.73,1.41-5,2.29-4.73.88,1.31.12,3.19a9.74,9.74,0,0,0-1,6.05c.3,3.43,1.29,4.73,2.35,4.79s1-3.82.7-6.56-.64-5.53,0-5.58,1.06,1.93,1,3.53S23.44,6.33,24.25,6.44ZM18.34,24.35c.77-1.67,1.23-3.36-.59-5.13s-3.58-3.19-3.7-2.56a10,10,0,0,0,1.23,4.72C16.34,23.5,17.8,25.5,18.34,24.35Z" transform="translate(-0.35 -1)"/><g class="cls-3"><path class="cls-4" d="M21.25,50.8c-.12-.76-.67-1.43-1.5-1.21l-.18.07-.07,0a1,1,0,0,1-.22,1.22,1.58,1.58,0,0,1-1.76.18,1.38,1.38,0,0,1-.65-.78.92.92,0,0,1-.31-.16,4.68,4.68,0,0,0-.09.54,1.16,1.16,0,0,0-1.61.18c-1.28.38-.8,3.44,1,2.92a2.22,2.22,0,0,1,.72-.46,1.57,1.57,0,0,0,.21-.24,1.09,1.09,0,0,0,.05.17,1.57,1.57,0,0,1,.31-.08,3.59,3.59,0,0,1,2.61.61l.05-.11c1.33.88,3.34-1.12,2.19-2.32A2.27,2.27,0,0,0,21.25,50.8Z" transform="translate(-0.35 -1)"/><path class="cls-4" d="M14.89,50.29a1.75,1.75,0,0,0-.08-1.7s0-.06-.06-.1a1.14,1.14,0,0,1-1.19,1.17,1.16,1.16,0,0,1-1.2-1.12,1.16,1.16,0,0,0,0,.64A1.7,1.7,0,0,0,13,50.56,1.28,1.28,0,0,0,14.89,50.29Z" transform="translate(-0.35 -1)"/><path class="cls-4" d="M19,46.7a.67.67,0,0,0-.54,1.23,2.32,2.32,0,0,0,.88.19,1.51,1.51,0,0,0,.34.13.71.71,0,0,0,.81-1,1,1,0,0,0-.3-.84.73.73,0,0,0-1.11.14Z" transform="translate(-0.35 -1)"/><path class="cls-4" d="M19.8,45.11a.69.69,0,0,0,0-1.37A.69.69,0,0,0,19.8,45.11Z" transform="translate(-0.35 -1)"/><path class="cls-4" d="M11.45,44.67h0a1.7,1.7,0,0,0-1.42-.45A1.59,1.59,0,0,0,9,46.08a1,1,0,0,0,.44.66,2.13,2.13,0,0,0,.27.46,1.24,1.24,0,0,0,1.85,0,1.6,1.6,0,0,0,.45-.78.94.94,0,0,1-.52.14A1,1,0,0,1,11.45,44.67Z" transform="translate(-0.35 -1)"/><path class="cls-4" d="M7.14,45a.68.68,0,1,0,0,1.36A.68.68,0,0,0,7.14,45Z" transform="translate(-0.35 -1)"/><path class="cls-4" d="M9.6,42.46a1.56,1.56,0,0,0,.79-.27.68.68,0,0,0,.26-.93.73.73,0,0,0-1-.25s-.2.1-.08.08a.71.71,0,0,0-.7.68A.7.7,0,0,0,9.6,42.46Z" transform="translate(-0.35 -1)"/><path class="cls-4" d="M31,50.46a1.46,1.46,0,0,0-.5-.06A4.26,4.26,0,0,0,30,49.27a.8.8,0,0,1-.21.15,1.9,1.9,0,0,1-2.62-.58,2.14,2.14,0,0,1-.21-1.39.65.65,0,0,0-.19,0,2.2,2.2,0,0,0-1.47,1.87,1.92,1.92,0,0,0,.37,1.57.78.78,0,0,1,.76-.47.83.83,0,0,1,.13,1.65l0,.06a1.48,1.48,0,0,0,.42.49,1.71,1.71,0,0,0,1.14,1.51,1.38,1.38,0,0,0,1.54-.32.68.68,0,0,1-.4,0,.9.9,0,0,1-.65-.63.8.8,0,0,1,.56-1,.85.85,0,0,1,.95.4.7.7,0,0,1,.13.62,1,1,0,0,0,1.52-.19A1.61,1.61,0,0,0,31,50.46Z" transform="translate(-0.35 -1)"/><path class="cls-4" d="M26.84,47a.68.68,0,0,0,.25-.94.62.62,0,0,0-.52-.31v0a.6.6,0,0,0-.32-.55l0,0a.71.71,0,0,0-1.21,0,1.36,1.36,0,0,0,.12,1.68A1.48,1.48,0,0,0,26.84,47Z" transform="translate(-0.35 -1)"/><path class="cls-4" d="M27.71,45.45a.65.65,0,0,0,.68-.71.49.49,0,0,0,.09-.22.7.7,0,0,0-.49-.84.77.77,0,0,0-.79.31.63.63,0,0,0-.16.62v0A.66.66,0,0,0,27.71,45.45Z" transform="translate(-0.35 -1)"/><path class="cls-4" d="M32.53,48.69a.64.64,0,0,0-.08-.14.7.7,0,0,0-1.39,0,1.46,1.46,0,0,0-.48,1c-.07.8.8,1.09,1.45.93a.63.63,0,0,0,.48-.78A1.31,1.31,0,0,0,32.53,48.69Z" transform="translate(-0.35 -1)"/><path class="cls-4" d="M31.94,43.74a.69.69,0,0,0,0-1.37A.69.69,0,0,0,31.94,43.74Z" transform="translate(-0.35 -1)"/><path class="cls-4" d="M32.64,37.85a1.51,1.51,0,0,0-.76.71,1.21,1.21,0,0,0-.29,1,1.06,1.06,0,0,0,1.06.71,1.31,1.31,0,0,0,1.11-.63,1.56,1.56,0,0,0-.16-1.57A.74.74,0,0,0,32.64,37.85Z" transform="translate(-0.35 -1)"/><path class="cls-4" d="M40.47,49.27a.73.73,0,0,1,.77.66A2.68,2.68,0,0,1,43.15,48a1.73,1.73,0,0,0-.52-.76.72.72,0,0,0-1.1.14,1.34,1.34,0,0,0-.16,1.21l0,.17a.77.77,0,0,0-.35.08l-.05,0a.75.75,0,0,0-.74,0,1.67,1.67,0,0,0-.84,1.06,1.25,1.25,0,0,0-.57,0A1.06,1.06,0,0,0,38,51.45a1,1,0,0,0-.07.49l-.06,0a1.4,1.4,0,0,0-.58,1.72.71.71,0,0,0,1,.41,2.62,2.62,0,0,0,1-1.24,1.58,1.58,0,0,0,.35-.26,1.72,1.72,0,0,0,.89-.3l.23.14a1.86,1.86,0,0,0,.15.56.78.78,0,0,0,.11.18,2,2,0,0,0,.15.59.76.76,0,0,0,1.08.4,4.1,4.1,0,0,1-1.18-3.58.72.72,0,0,1-.62.3A.81.81,0,0,1,40.47,49.27Z" transform="translate(-0.35 -1)"/><path class="cls-4" d="M42.69,43.69a1.63,1.63,0,0,0-.55.87,1,1,0,0,0,0,1.15.74.74,0,0,0,1,.25,1.63,1.63,0,0,0,.76-2A.72.72,0,0,0,42.69,43.69Z" transform="translate(-0.35 -1)"/><path class="cls-4" d="M50.67,46.24v0c-.05-.46-.59-.93-1.06-.59a3.87,3.87,0,0,0-.37.32,2.61,2.61,0,0,0-.51.59,1.83,1.83,0,0,0-.61,1.34,1.18,1.18,0,0,0-.95-.21.71.71,0,0,0-.65-.14c-1.18.45-1.06,1.64-.34,2.46a1.31,1.31,0,0,0,1,.5l-.06.06a1.38,1.38,0,0,0-.68,1,1.23,1.23,0,0,0,0,.27,2.48,2.48,0,0,0-.2.53,1.47,1.47,0,0,0,.91,1.77c.63.2,1-.25,1.28-.77h0l0,0a.73.73,0,0,0,1,0A1.94,1.94,0,0,0,50,52a1.39,1.39,0,0,1-.7-.05,1.68,1.68,0,0,1-1.12-1.59c-.06-1.06.66-2.69,2-2.56a1.13,1.13,0,0,1,.37.1,2.2,2.2,0,0,0,.57-.47.7.7,0,0,0,0-1A.85.85,0,0,0,50.67,46.24Z" transform="translate(-0.35 -1)"/><path class="cls-4" d="M53.13,42.81a1,1,0,0,0-.16-.05.8.8,0,0,0-.61-.28,1.18,1.18,0,0,1-1.08,1.68l-.19,0c0,.1,0,.2,0,.3a.52.52,0,0,0,.06.15l0,.1a.71.71,0,0,0,.86.48,1.82,1.82,0,0,0,1.4-1.77A.67.67,0,0,0,53.13,42.81Z" transform="translate(-0.35 -1)"/><path class="cls-4" d="M55.68,39.81h-.09a.69.69,0,0,0,0,1.37h.09A.69.69,0,0,0,55.68,39.81Z" transform="translate(-0.35 -1)"/><path class="cls-4" d="M48.55,45.63a1.19,1.19,0,0,0-.29-1.51.75.75,0,0,0-.71,0,.84.84,0,0,0-.4.73.45.45,0,0,0,.09.34v.09C47.24,45.92,48.25,46.27,48.55,45.63Z" transform="translate(-0.35 -1)"/><path class="cls-4" d="M48.49,35.76a1.28,1.28,0,0,1-.37,2.5,1.25,1.25,0,0,1-.91-.36,2,2,0,0,0-.15.88.71.71,0,0,0,.89.66,2.78,2.78,0,0,0,1.67-1.68,2.84,2.84,0,0,0,.52-2.06c0-.46-.58-.93-1.06-.59A1.89,1.89,0,0,0,48.49,35.76Z" transform="translate(-0.35 -1)"/><path class="cls-4" d="M50.49,34.08l.14,0a2,2,0,0,0,.06.55.65.65,0,0,0,.7.48,1,1,0,0,0,.41.22c.93.22,1.19-.91,1.14-1.59a2.21,2.21,0,0,1-1.21-.21c-.73-.35-1.52-1.4-1.18-2.23A2,2,0,0,1,52.08,30a.73.73,0,0,0-.81-.37A1.49,1.49,0,0,0,50.1,31a2.67,2.67,0,0,0-.22,2.77A.72.72,0,0,0,50.49,34.08Z" transform="translate(-0.35 -1)"/><path class="cls-4" d="M50.83,28.66a.78.78,0,0,0,.78-.28.68.68,0,0,0,0-1.29,1,1,0,0,0-1.22.73A.7.7,0,0,0,50.83,28.66Z" transform="translate(-0.35 -1)"/><path class="cls-4" d="M25.08,33.13a1.74,1.74,0,0,0,0,1.6,2.16,2.16,0,0,1,2.24,1.69,1.17,1.17,0,0,1-.83,1.43,1.31,1.31,0,0,1-.48,0,.7.7,0,0,0,.7.2l.3-.14a.84.84,0,0,0,.66,0,1.55,1.55,0,0,0,.83-.75A1.44,1.44,0,0,0,28.4,35l-.08,0a1.52,1.52,0,0,0-.48-.41.77.77,0,0,0-.31-.11,1.43,1.43,0,0,1-.43.07,1.09,1.09,0,0,1,0-2.18,1.23,1.23,0,0,1,.35.05A1.11,1.11,0,0,0,26,31.77,1.07,1.07,0,0,0,25.24,33,.69.69,0,0,0,25.08,33.13Z" transform="translate(-0.35 -1)"/><path class="cls-4" d="M29.65,36a.69.69,0,0,0,0-1.37A.69.69,0,0,0,29.65,36Z" transform="translate(-0.35 -1)"/><path class="cls-4" d="M25,42.29s0-.06,0-.09a1.92,1.92,0,0,0,.07-.92.91.91,0,0,0-1.12-.65h0a.7.7,0,0,0-.94-.23,1.32,1.32,0,0,0-.62,1.41,1.65,1.65,0,0,0,.84,1,1.48,1.48,0,0,0,.95.13h.15A.71.71,0,0,0,25,42.29Zm-.71-1a.71.71,0,0,1,0,1.42A.71.71,0,0,1,24.28,41.32Z" transform="translate(-0.35 -1)"/><path class="cls-4" d="M20.7,38.53c0,.08.06.16.08.23a.71.71,0,0,0,.5.77.72.72,0,0,0,.36,0,.67.67,0,0,0,.8-.65,1.64,1.64,0,0,0-.19-.78.68.68,0,0,0-.55-.33C21.22,37.54,20.5,37.9,20.7,38.53Z" transform="translate(-0.35 -1)"/><path class="cls-4" d="M25.34,30.57v.09a.68.68,0,0,0-.25-.94.72.72,0,0,0-1,.25,1,1,0,0,0-.19.6C23.9,31.45,25.31,31.45,25.34,30.57Z" transform="translate(-0.35 -1)"/><path class="cls-4" d="M15,39.44a.94.94,0,0,0,1.44.46.82.82,0,0,0,.75-.51,1.41,1.41,0,0,0-.27-1.48,1.71,1.71,0,0,0-.39-.74,2.67,2.67,0,0,0-.49-.76.72.72,0,0,0-.85-.1,1.29,1.29,0,0,0-.68.92s0,.05,0,.07a1.47,1.47,0,0,1,1.37.56.94.94,0,0,1,0,1.32A1.07,1.07,0,0,1,15,39.44Z" transform="translate(-0.35 -1)"/><path class="cls-4" d="M16.19,35.87a.69.69,0,0,0,0-1.37A.69.69,0,0,0,16.19,35.87Z" transform="translate(-0.35 -1)"/><path class="cls-4" d="M12.71,34.25c0,.09,0,.18.08.26a.72.72,0,0,0,1.18.31A1.94,1.94,0,0,0,14.48,33a1,1,0,0,1-.75.3,1,1,0,0,1,0-2.06h.08a2.65,2.65,0,0,0-.37-.57.72.72,0,0,0-1.18.31,3,3,0,0,0,0,2.47,2,2,0,0,0,.14.46A.78.78,0,0,0,12.71,34.25Z" transform="translate(-0.35 -1)"/><path class="cls-4" d="M11.71,29.46a.68.68,0,0,0,.64-.43.68.68,0,0,0-.65-1.17.91.91,0,0,0-.69.91A.7.7,0,0,0,11.71,29.46Z" transform="translate(-0.35 -1)"/><path class="cls-4" d="M10.71,39.22a3,3,0,0,0,.22-1.36.76.76,0,0,1-.54.21.75.75,0,0,1,0-1.49.76.76,0,0,1,.27.05,3,3,0,0,0-.15-.31A1.56,1.56,0,0,0,9,35.48a3,3,0,0,0-.26-.36c-.83-.89-1.86-.36-2.48.56a1.25,1.25,0,0,0-1.7.86,3.28,3.28,0,0,1,3.88,1.28,1.37,1.37,0,0,1,0,1.93l-.16.12a1,1,0,0,0,.25,0l.25-.08A1.26,1.26,0,0,0,10.71,39.22Z" transform="translate(-0.35 -1)"/><path class="cls-4" d="M8,34a.85.85,0,0,0,.81-.17.82.82,0,0,0,.2-.33s0,0,0,0A.68.68,0,0,0,9,32.57a.66.66,0,0,0-.26-.16.67.67,0,0,0-.31-.19.73.73,0,0,0-.87.48,1.39,1.39,0,0,0,0,.61A.7.7,0,0,0,8,34Z" transform="translate(-0.35 -1)"/><path class="cls-4" d="M5.64,31.59a.68.68,0,1,0,0-1.36A.68.68,0,1,0,5.64,31.59Z" transform="translate(-0.35 -1)"/><path class="cls-4" d="M45.17,30.26,45,30.15a1.08,1.08,0,0,1-.54-1.23,1.1,1.1,0,0,1,1.32-.73.25.25,0,0,1,.12,0,1.51,1.51,0,0,0-.61-.8,1.24,1.24,0,0,0-1.72.48.63.63,0,0,0,0,.71,1.21,1.21,0,0,0,0,.19,1.21,1.21,0,0,0,0,1.51.76.76,0,0,0,.79.31A1.25,1.25,0,0,0,45.17,30.26Z" transform="translate(-0.35 -1)"/><path class="cls-4" d="M42.31,27.15a.69.69,0,0,0,0,1.37A.69.69,0,0,0,42.31,27.15Z" transform="translate(-0.35 -1)"/><path class="cls-4" d="M40.47,22.53a.53.53,0,0,0,.26.53,1.67,1.67,0,0,0-.06,1.1.7.7,0,0,0,.67.51l.19,0a.7.7,0,0,0,1.4-.05,7.25,7.25,0,0,0,0-1.23.68.68,0,0,1-.42.14.71.71,0,0,1,0-1.42.53.53,0,0,1,.12,0,1.9,1.9,0,0,0-1.08-1.17.68.68,0,0,0-.68.17,1.46,1.46,0,0,0-.36,1.26A1,1,0,0,0,40.47,22.53Z" transform="translate(-0.35 -1)"/><path class="cls-4" d="M52.78,25.35a.69.69,0,0,0,0-1.37A.69.69,0,0,0,52.78,25.35Z" transform="translate(-0.35 -1)"/><path class="cls-4" d="M47.94,23.37a1.39,1.39,0,0,0,.69-.86,1.33,1.33,0,0,0-.51-1.77.7.7,0,0,0-.71,0,1.33,1.33,0,0,0-.35.36,1,1,0,0,1-.23,1.62,1.36,1.36,0,0,0,.15.41A.72.72,0,0,0,47.94,23.37Z" transform="translate(-0.35 -1)"/><path class="cls-4" d="M46.44,26.38a.69.69,0,0,0,0-1.37A.69.69,0,0,0,46.44,26.38Z" transform="translate(-0.35 -1)"/><path class="cls-4" d="M45.83,33.05a.71.71,0,0,0-1.41,0v.08a.71.71,0,0,0,1.41,0Z" transform="translate(-0.35 -1)"/><path class="cls-4" d="M42.35,38.65a.71.71,0,0,0-.83-.12,1,1,0,0,0-.61.66A1.56,1.56,0,0,0,41,40a.68.68,0,0,0,1,.4.66.66,0,0,0,.73-.49,1.53,1.53,0,0,0,0-.3.31.31,0,0,0,.05-.12A.69.69,0,0,0,42.35,38.65Z" transform="translate(-0.35 -1)"/><path class="cls-4" d="M36,22.32h.09a1.26,1.26,0,0,1,1.26,1.23,1.21,1.21,0,0,1-.56,1,1.62,1.62,0,0,0,.1.18c.47.76,1.69.07,1.21-.69-.13-.21-.47-.59-.35-.85a.74.74,0,0,0-.76-1c0-.13,0-.25,0-.35s0,0,0-.08a1.05,1.05,0,0,1-.94.17,1.39,1.39,0,0,1-.35-.16A1,1,0,0,1,35,20.53a1.14,1.14,0,0,1,1-.78.85.85,0,0,0-1-.25,1.05,1.05,0,0,0-.64.56,1.64,1.64,0,0,0-1.6,1.63,1.68,1.68,0,0,0,2,1.46A1.28,1.28,0,0,1,36,22.32Z" transform="translate(-0.35 -1)"/><path class="cls-4" d="M34.14,17a.9.9,0,0,1-.28.13,1.11,1.11,0,0,0,.32.51,1.09,1.09,0,0,0,1.69-.55,1.51,1.51,0,0,0-2.09-2,.64.64,0,0,0-.33.49l.12-.05a.83.83,0,0,1,1,.55A.82.82,0,0,1,34.14,17Z" transform="translate(-0.35 -1)"/><path class="cls-4" d="M34.75,13.8v-.17a.71.71,0,0,0-1.41,0v.17A.71.71,0,0,0,34.75,13.8Z" transform="translate(-0.35 -1)"/><path class="cls-4" d="M36.57,11.44a1,1,0,0,0,.68-.83l-.21,0a1.32,1.32,0,0,1-1.31-1.69,1.45,1.45,0,0,0-.23,2.16A1.06,1.06,0,0,0,36.57,11.44Z" transform="translate(-0.35 -1)"/><path class="cls-4" d="M13.93,24.61a.93.93,0,0,0,.51,1c.76.44,1.59-.28,1.71-1v0h-.06a3,3,0,0,1-1.82-1.12.61.61,0,0,0-.28.4,1.21,1.21,0,0,1-.29.68A.72.72,0,0,0,13.93,24.61Z" transform="translate(-0.35 -1)"/><path class="cls-4" d="M13.29,18.85a.69.69,0,0,0,0-1.37A.69.69,0,0,0,13.29,18.85Z" transform="translate(-0.35 -1)"/><path class="cls-4" d="M13.64,15.17v-.26a.7.7,0,0,0-1.4,0v.26A.7.7,0,0,0,13.64,15.17Z" transform="translate(-0.35 -1)"/><path class="cls-4" d="M18.24,19.79a.54.54,0,0,0,.08.21,1.11,1.11,0,0,1,2-.11.83.83,0,0,0,.3-.91,1.08,1.08,0,0,0-.84-.67,1.57,1.57,0,0,0-.75.06.89.89,0,0,0-1.2.82A.55.55,0,0,0,18.24,19.79Z" transform="translate(-0.35 -1)"/><path class="cls-4" d="M16.72,18a.69.69,0,0,0,0-1.37A.69.69,0,0,0,16.72,18Z" transform="translate(-0.35 -1)"/><path class="cls-4" d="M18.3,29.79a.73.73,0,0,0,1-.24.67.67,0,0,0-.17-.87.62.62,0,0,0,.09-.34,1.9,1.9,0,0,0-.11-.78.72.72,0,0,0-.49-.47.7.7,0,0,0-.79.31C17.38,28.23,17.32,29.32,18.3,29.79Z" transform="translate(-0.35 -1)"/><path class="cls-4" d="M37.92,37.15a3.52,3.52,0,0,0-.28.59,3.12,3.12,0,0,0-.43,1.73c0,.54.81,1,1.2.48a3.63,3.63,0,0,0,.78-1.89.61.61,0,0,0,0-.3,2.28,2.28,0,0,0,0-.26A.71.71,0,0,0,37.92,37.15Z" transform="translate(-0.35 -1)"/><path class="cls-4" d="M36.74,40.61a.71.71,0,0,0-.85-.11,1.32,1.32,0,0,0-.64.66.49.49,0,0,0-.21.35c0,.06,0,.12,0,.18h0a2.08,2.08,0,0,1-.16.77.68.68,0,0,0,.25.93.63.63,0,0,0,.23.08,1.18,1.18,0,0,0,.46.37.68.68,0,0,0,.82,0h0C38.07,43.44,37.45,41.36,36.74,40.61Z" transform="translate(-0.35 -1)"/><path class="cls-4" d="M38.65,48.33c.64.63,1.64-.34,1-1a.6.6,0,0,1-.08-.08c-.65-.63-1.64.34-1,1Z" transform="translate(-0.35 -1)"/><path class="cls-4" d="M38.3,18.64a1,1,0,0,0,0,.39,1.24,1.24,0,0,0,.89,1.08.59.59,0,0,0,.43,0,.62.62,0,0,0,.52-.53h0a1.64,1.64,0,0,0,.14-.82,1.44,1.44,0,0,0-.75-1.15.73.73,0,0,0-.85.11A1.11,1.11,0,0,0,38.3,18.64Z" transform="translate(-0.35 -1)"/><path class="cls-4" d="M38.18,16.8a.69.69,0,0,0,0-1.37A.69.69,0,0,0,38.18,16.8Z" transform="translate(-0.35 -1)"/><path class="cls-4" d="M43.55,16a.45.45,0,0,0,.12-.06,1.25,1.25,0,0,1,0-2,.63.63,0,0,0-.52.19,1.44,1.44,0,0,0-.44,1.43A.7.7,0,0,0,43.55,16Z" transform="translate(-0.35 -1)"/></g><g class="cls-5"><path class="cls-6" d="M3.3,27.64a1.25,1.25,0,0,0,.07.45.36.36,0,0,0,.52.21,1.12,1.12,0,0,0,.49-1.51.79.79,0,0,1-.32.06.67.67,0,0,1-.7-.58v.19a.33.33,0,0,0,.07.21,1.11,1.11,0,0,0-.25.73A.35.35,0,0,0,3.3,27.64Z" transform="translate(-0.35 -1)"/><path class="cls-6" d="M2,28.13a.35.35,0,0,0,.5-.42.27.27,0,0,0,.2-.31A.61.61,0,0,0,2,26.8a.34.34,0,0,0-.25.11.34.34,0,0,0-.44.23.76.76,0,0,0,.1.64A1.61,1.61,0,0,0,2,28.13Z" transform="translate(-0.35 -1)"/><path class="cls-6" d="M4.15,29.37a.34.34,0,1,0,0,.69A.34.34,0,0,0,4.15,29.37Z" transform="translate(-0.35 -1)"/><path class="cls-6" d="M9.32,24.48a.91.91,0,0,0,.24-.36.74.74,0,0,1-.31.07.76.76,0,0,1-.79-.72l-.18-.13a.44.44,0,0,0-.28,0l-.07,0a.35.35,0,0,0-.48.12c-.35.68-.17,1.51.77,1.35h0a.9.9,0,0,0,.87-.15A.37.37,0,0,0,9.32,24.48Z" transform="translate(-0.35 -1)"/><path class="cls-6" d="M9.52,21.15a4.68,4.68,0,0,0-.16,1,.32.32,0,0,0-.11.24c0,.07,0,.15,0,.22h0a.74.74,0,0,1,.67.38h0A.34.34,0,0,0,10,22.7c0-.06,0-.12,0-.18a2.39,2.39,0,0,0,.15-1.37C10.14,20.81,9.62,20.85,9.52,21.15Z" transform="translate(-0.35 -1)"/><path class="cls-6" d="M9.44,25.54a.87.87,0,0,0-.16.23.32.32,0,0,0,0,.14c-.34.24-.06.76.27.62a.34.34,0,0,0,.28-.13,1.25,1.25,0,0,0,.12-.08.74.74,0,0,0,.11-.63A.35.35,0,0,0,9.44,25.54Z" transform="translate(-0.35 -1)"/><path class="cls-6" d="M11.61,12.27a.49.49,0,0,1-.52.51.48.48,0,0,1-.42-.22,3.23,3.23,0,0,1-.75-.42c-.2-.13-.4-.27-.58-.41a1.07,1.07,0,0,0-.61-.48.35.35,0,0,0-.35.57c.13.12.28.23.42.35l.06.09a.31.31,0,0,0,.26.16l.39.27h0a1.14,1.14,0,0,0,1.19,1.17.58.58,0,1,1,1-.09.83.83,0,0,0,.44-.31c.26-.39,0-.8-.29-1.1A.3.3,0,0,0,11.61,12.27Z" transform="translate(-0.35 -1)"/><path class="cls-6" d="M12.41,8.25a.79.79,0,0,1,.23,0,.83.83,0,0,0-.4-.6c-.43-.22-.89-.17-1,.34a1.35,1.35,0,0,0,.22,1.06,1.49,1.49,0,0,0,.38,1.1.37.37,0,0,0,.35.08.33.33,0,0,0,.42-.23,1,1,0,0,0,0-.58.64.64,0,0,0,0-.07.71.71,0,0,1-.21,0A.59.59,0,0,1,12.41,8.25Z" transform="translate(-0.35 -1)"/><path class="cls-6" d="M11.94,4.38a1,1,0,0,0-.26.12h0c-.5-.18-.86.44-.9.83a1,1,0,0,0,.84,1.07.41.41,0,1,1,.76-.14,1,1,0,0,0,.3-.34C12.94,5.39,12.86,4.05,11.94,4.38Z" transform="translate(-0.35 -1)"/><path class="cls-6" d="M9.6,4.17a.29.29,0,0,0,.24,0c.19.15.49.13.54-.16a1.2,1.2,0,0,0-.15-.84.78.78,0,0,0-.13-.3.87.87,0,0,0-.5-1,.36.36,0,0,0-.43.06.84.84,0,0,0,0,1.16C9,3.57,9.18,3.87,9.6,4.17Z" transform="translate(-0.35 -1)"/><path class="cls-6" d="M13.47,2.26l-.13,0a.36.36,0,0,0-.56.16v0a.3.3,0,0,0,0,.23v0a1.16,1.16,0,0,0,0,.18.36.36,0,0,0,.7.08A.35.35,0,0,0,13.47,2.26Z" transform="translate(-0.35 -1)"/><path class="cls-6" d="M16.46,9.1a.36.36,0,0,0-.58-.26A.81.81,0,0,0,15.4,8h0l0,0a1.71,1.71,0,0,0-.21-1.55.37.37,0,0,0-.55-.07A1.11,1.11,0,0,0,14.54,8a.38.38,0,0,1,.19.7,1.3,1.3,0,0,0,.59,1.27C16,10.39,16.47,9.7,16.46,9.1Z" transform="translate(-0.35 -1)"/><path class="cls-6" d="M18.24,7.06A1.2,1.2,0,0,0,18,6.72a.36.36,0,0,0-.56.07,1.5,1.5,0,0,0-.11.36.37.37,0,0,0-.24.15,1.06,1.06,0,0,0-.11,1,1.12,1.12,0,0,1-.18.2c-.35.29.15.77.49.49a1.62,1.62,0,0,0,.25-.28,1.29,1.29,0,0,0,.61-.51A.61.61,0,0,1,18.24,7.06Z" transform="translate(-0.35 -1)"/><path class="cls-6" d="M17.91,4.56c-.06.14-.11.29-.17.43a.36.36,0,0,0,.15.46.68.68,0,0,0,.33.35.36.36,0,0,0,.51-.21,1,1,0,0,0-.26-1.1A.37.37,0,0,0,17.91,4.56Z" transform="translate(-0.35 -1)"/><path class="cls-6" d="M16.94,11a.23.23,0,0,0-.12-.12,1,1,0,0,0-.27-.26.35.35,0,0,0-.48.12l-.07.11a.3.3,0,0,0-.41.23,1.15,1.15,0,0,0,.69,1.33.38.38,0,0,0,.43-.06,1.27,1.27,0,0,0,.34-.82v0a.28.28,0,0,0,0-.09A.87.87,0,0,0,16.94,11Z" transform="translate(-0.35 -1)"/><path class="cls-6" d="M3.8,34.77c-.19-.05-.34-.14-.36-.35a.32.32,0,0,0-.18-.27.65.65,0,0,1-.61.36.69.69,0,0,1-.19-1.35.9.9,0,0,0-.35-.52.36.36,0,0,0-.59.15.13.13,0,0,0,0,.06.28.28,0,0,0-.16.38,1.39,1.39,0,0,0,.06.13,2.2,2.2,0,0,0,.45,1.45.55.55,0,0,0,.22.17.94.94,0,0,0,.65.45.36.36,0,0,0,.44-.23,1.41,1.41,0,0,0,.44.23A.34.34,0,0,0,3.8,34.77Z" transform="translate(-0.35 -1)"/><path class="cls-6" d="M21.63,9.71a1.35,1.35,0,0,1-.36-.58.8.8,0,0,0,.09-1.2,1,1,0,0,0-.11-.42,1,1,0,0,0-.1-1.34c.14-.33-.29-.71-.54-.4a1.59,1.59,0,0,0-.36,1A.71.71,0,0,1,20,8.1l-.06,0a1.87,1.87,0,0,0,0,.53.8.8,0,0,0,.65.69,2.06,2.06,0,0,0,.54.89C21.46,10.5,22,10,21.63,9.71Z" transform="translate(-0.35 -1)"/><path class="cls-6" d="M21.74,11.53c0-.24,0-.5-.35-.63a.36.36,0,0,0-.4.16.7.7,0,0,0-.11.65c.08.16.22.18.34.28C21.56,12.27,22,11.81,21.74,11.53Z" transform="translate(-0.35 -1)"/><path class="cls-6" d="M23.69,7.15a.32.32,0,0,0-.28.32,1.33,1.33,0,0,0,0,.2.31.31,0,0,0-.27.31v.2a.39.39,0,0,0-.26,0,.83.83,0,0,0-.45,1.21c-.4.18-.05.75.36.58A1.36,1.36,0,0,0,23,9.86a.51.51,0,0,0,.18-.09,1.59,1.59,0,0,0,.6-1.13,1.6,1.6,0,0,0,.28-.79.35.35,0,0,0,.15-.12A.84.84,0,0,0,24.36,7C24.3,6.63,23.7,6.77,23.69,7.15Z" transform="translate(-0.35 -1)"/><path class="cls-6" d="M23.66,14.41a1,1,0,0,0-.71,1,1.52,1.52,0,0,0-.5.81c-.11.39.43.57.63.29.12.27.59.33.66,0a2.4,2.4,0,0,0,0-.65,1.27,1.27,0,0,0,.33-.55A.33.33,0,0,0,24,15,.35.35,0,0,0,23.66,14.41Z" transform="translate(-0.35 -1)"/><path class="cls-6" d="M21.56,16.8h-.09a.34.34,0,0,0,0,.68h.09A.34.34,0,0,0,21.56,16.8Z" transform="translate(-0.35 -1)"/><path class="cls-6" d="M32.24,6.19a2.6,2.6,0,0,0-1-.93l-.32-.19V5h0a1,1,0,0,0-.1-.41.54.54,0,0,0-.18-.26.36.36,0,0,0-.19-.08,2.51,2.51,0,0,0-.4-.18.35.35,0,0,0-.45.33c.07,1.19,1.61,1.23,2.07,2.14C31.83,6.93,32.44,6.58,32.24,6.19Z" transform="translate(-0.35 -1)"/><path class="cls-6" d="M34,5.07c-.08-.35-.58-.3-.68,0a.51.51,0,0,0,0,.17l-.15.11a.32.32,0,0,0,.16.55.39.39,0,0,0,.37.09A.4.4,0,0,0,34,5.77.57.57,0,0,0,34,5.49a.28.28,0,0,0,0-.13A1.42,1.42,0,0,0,34,5.07Z" transform="translate(-0.35 -1)"/><path class="cls-6" d="M33.17,7.09a.45.45,0,0,0-.2,0L32.9,7a.36.36,0,0,0-.48.13,1,1,0,0,0-.05,1.18,1.13,1.13,0,0,0,.19.19,2.18,2.18,0,0,0,0,.25.36.36,0,0,0,.66.16.33.33,0,0,0,.21-.09A1.07,1.07,0,0,0,33.17,7.09Z" transform="translate(-0.35 -1)"/><path class="cls-6" d="M33.17,10.64a.71.71,0,0,0-.14-.43c-.26-.36-.87,0-.61.34l0,.09C32.48,11.08,33.18,11.08,33.17,10.64Z" transform="translate(-0.35 -1)"/><path class="cls-6" d="M31.16,10.36A.86.86,0,0,1,30,9.07a.38.38,0,0,0-.24,0,.6.6,0,0,0-.06-.11c-.15-.41-.83-.23-.67.18a1.68,1.68,0,0,0,.41.65.79.79,0,0,0,.79.76l.06.13a.36.36,0,0,0,.29.16l.21.16c.33.3.83-.18.49-.48Z" transform="translate(-0.35 -1)"/><path class="cls-6" d="M32.9,11.06a.35.35,0,0,0,0,.69A.35.35,0,1,0,32.9,11.06Z" transform="translate(-0.35 -1)"/><path class="cls-6" d="M37.48,2.91V2.77a.33.33,0,0,0-.14-.26.35.35,0,0,0-.61-.34A1,1,0,0,0,36.6,3a1.6,1.6,0,0,0-.09.65,1.84,1.84,0,0,0-.1.52,1.69,1.69,0,0,0,.15,1.67.36.36,0,0,0,.64-.08,1.93,1.93,0,0,0,.08-.46s0,0,.06-.06a1.92,1.92,0,0,0,.18-1,1.29,1.29,0,0,0,.12-1.17A.38.38,0,0,0,37.48,2.91Z" transform="translate(-0.35 -1)"/><path class="cls-6" d="M36.61,7.57a.49.49,0,0,0-.22.37,2.55,2.55,0,0,0,.13.39s0,0,0,.05h0a.31.31,0,0,0,.05.1h0l.08.05.06,0h.1c.56,0,.5-.59.3-.94A.36.36,0,0,0,36.61,7.57Z" transform="translate(-0.35 -1)"/><path class="cls-6" d="M39.16,4.91c.06.29.33.39.6.42a.33.33,0,0,0,.34-.25c0-.06,0-.11,0-.17h0a1.16,1.16,0,0,0,.75-.7c.17-.46-.18-.9-.52-1.17A.35.35,0,0,0,39.94,3a1.48,1.48,0,0,0-.69,1,.71.71,0,0,0,0,.74A.33.33,0,0,0,39.16,4.91Z" transform="translate(-0.35 -1)"/><path class="cls-6" d="M39.76,2.08V1.73a.34.34,0,0,0-.47-.31c-.23,0-.49.13-.39.41s0,.42.33.55A.36.36,0,0,0,39.76,2.08Z" transform="translate(-0.35 -1)"/><path class="cls-6" d="M42,2.94a1.1,1.1,0,0,1,0-.18.43.43,0,0,0,0-.29.36.36,0,0,0-.64.09h0a1.62,1.62,0,0,0,0,.19.22.22,0,0,0,0,.08s0,.06,0,.1C41.24,3.38,41.94,3.38,42,2.94Z" transform="translate(-0.35 -1)"/><path class="cls-6" d="M40.89,8.06a.36.36,0,0,0-.51-.2,2,2,0,0,0-.76,1,1.13,1.13,0,0,0-.47,1,.35.35,0,0,0,.44.33,1,1,0,0,0,.29-.18.33.33,0,0,0,.4-.23,1.5,1.5,0,0,0,0-.2.44.44,0,0,0,.15-.08,1.36,1.36,0,0,0,.24-.24A.28.28,0,0,0,41,8.93c0-.13.11-.22.1-.37A.39.39,0,0,0,41,8.28,1,1,0,0,0,40.89,8.06Z" transform="translate(-0.35 -1)"/><path class="cls-6" d="M42.52,12.54a1.16,1.16,0,0,0-.05-.28.36.36,0,0,0-.64-.09l0,.09a.41.41,0,0,0-.36.16.28.28,0,0,0-.13.41s0,.08,0,.11c-.09.25.12.41.33.41l.06.11a.31.31,0,0,0,.22.14.47.47,0,0,0,.1.1.36.36,0,0,0,.49,0C42.8,13.36,42.92,12.8,42.52,12.54Z" transform="translate(-0.35 -1)"/><path class="cls-6" d="M45.27,14.41l.08-.05a.74.74,0,0,0,.39-.09c.39-.19.08-.72-.3-.61a.33.33,0,0,0-.32,0l-.25.19c-.18,0-.29.13-.4.27a.34.34,0,0,0,.4.5h0A.36.36,0,0,0,45.27,14.41Z" transform="translate(-0.35 -1)"/><path class="cls-6" d="M48.83,17.32a1.4,1.4,0,0,0-.43,1.39.36.36,0,0,0,.51.43l.05,0a.36.36,0,0,0,.29-.43.54.54,0,0,0-.07-.13.31.31,0,0,0,.15-.2,2.55,2.55,0,0,0,.1-.77A.36.36,0,0,0,48.83,17.32Z" transform="translate(-0.35 -1)"/><path class="cls-6" d="M48.73,20.13a.35.35,0,0,0,0,.69A.35.35,0,0,0,48.73,20.13Z" transform="translate(-0.35 -1)"/><path class="cls-6" d="M45.49,18.86l-.08.09a.29.29,0,0,0-.27.24,1.5,1.5,0,0,0,0,.37,1.65,1.65,0,0,0,0,.66.31.31,0,0,0,.37.24.37.37,0,0,0,.23,0,1,1,0,0,0,.31-1.5A.38.38,0,0,0,45.49,18.86Z" transform="translate(-0.35 -1)"/><path class="cls-6" d="M51.68,21.14a.32.32,0,0,0,.39-.32,4.22,4.22,0,0,1,.08-.94c.08-.36-.47-.63-.64-.26a.2.2,0,0,0,0,.08h0l0,.12a.66.66,0,0,1-.58,1l-.07,0s0,0,0,.07a.57.57,0,0,0-.08.13c-.14.35-.25.66.09.93a.36.36,0,0,0,.55-.07,1.56,1.56,0,0,0,.25-.54A.91.91,0,0,0,51.68,21.14Z" transform="translate(-0.35 -1)"/><path class="cls-6" d="M56.21,21.5a.36.36,0,0,0-.41-.32.38.38,0,0,0-.46.24.73.73,0,0,0-.08.09.32.32,0,0,0-.24.16l0,0-.1.05a2.1,2.1,0,0,0-.55.71,1,1,0,0,0,.36,1.66.27.27,0,0,0,.38-.15,2.64,2.64,0,0,1-.13-.46l-.05,0,0,0a4.21,4.21,0,0,1,0-.51,1,1,0,0,1,1-1,1,1,0,0,1,.25,0A1.89,1.89,0,0,0,56.21,21.5Z" transform="translate(-0.35 -1)"/><path class="cls-6" d="M54.68,30.58a.33.33,0,0,0-.41,0,1,1,0,0,0-.35.06,1.5,1.5,0,0,0-.48.3.76.76,0,0,0-.3.36.7.7,0,0,0,0,.38.78.78,0,0,0,.21.52.46.46,0,0,0,.36.2.56.56,0,0,0,.76,0,.27.27,0,0,0,.11-.15.8.8,0,0,0,.33-.35.13.13,0,0,1,0-.06.89.89,0,0,0,0-1.1A.38.38,0,0,0,54.68,30.58Z" transform="translate(-0.35 -1)"/><path class="cls-6" d="M51.9,32.28a.34.34,0,1,0,0,.68A.34.34,0,0,0,51.9,32.28Z" transform="translate(-0.35 -1)"/><path class="cls-6" d="M57.11,35.43l-.09,0h0a.37.37,0,0,0-.18,0c-.7.18-.78.85-.69,1.45,0,.22.34.3.52.2a1.28,1.28,0,0,0,.6-1.41A.26.26,0,0,0,57.11,35.43Z" transform="translate(-0.35 -1)"/><path class="cls-6" d="M59.35,39a.31.31,0,0,0-.42-.27c-.29.09-.84.34-.87.71l-.05,0c-.19.25.13.58.4.51l.13-.06.13,0a.37.37,0,0,0,.29-.21.52.52,0,0,0,.1-.11l.14,0A.33.33,0,0,0,59.35,39Z" transform="translate(-0.35 -1)"/></g><path class="cls-7" d="M11.57,35a.75.75,0,0,1-.7.22,1.46,1.46,0,0,1-.64-.36,2.15,2.15,0,0,1-.6-1.3,13.57,13.57,0,0,1-.11-1.42A1.72,1.72,0,0,0,9,30.83a1,1,0,0,0-.58-.34.47.47,0,0,0-.48.36,1.28,1.28,0,0,0-.06.34.63.63,0,0,1-.13.36A.68.68,0,0,1,7,31.7a2.47,2.47,0,0,1-1.15-.91,4.93,4.93,0,0,1-.68-1.28,22.62,22.62,0,0,1-.7-2.78c-.1-.46-.2-.93-.32-1.38a3.46,3.46,0,0,0-.25-.66.64.64,0,0,0-.22-.24.31.31,0,0,0-.29.05.79.79,0,0,0-.28.59,2.74,2.74,0,0,0,0,.7,5.69,5.69,0,0,1,0,.72.81.81,0,0,1-.25.68c-1.17.52-1.47-1.5-2.36-1.08l0-.05a.37.37,0,0,1,.36-.18.89.89,0,0,1,.38.17c.21.16.38.33.56.49a2.25,2.25,0,0,0,.53.39c.18.09.29,0,.35,0a.66.66,0,0,0,.07-.4c0-.2-.06-.43-.09-.67A3.25,3.25,0,0,1,2.65,25a1.21,1.21,0,0,1,.47-1l0,0,.1-.06a.66.66,0,0,1,.2-.07A.75.75,0,0,1,4,24a1.18,1.18,0,0,1,.48.46,3.3,3.3,0,0,1,.32.78c.15.48.25.95.36,1.42a21.27,21.27,0,0,0,.75,2.67,4.56,4.56,0,0,0,.55,1.13,1.87,1.87,0,0,0,.8.69c.14,0,.15,0,.06.07s0,.1,0,0a1.83,1.83,0,0,1,.11-.48,1.12,1.12,0,0,1,.36-.53,1,1,0,0,1,.75-.21,1.53,1.53,0,0,1,.92.54,4.26,4.26,0,0,1,.28.35,2,2,0,0,1,.18.45,3.92,3.92,0,0,1,.09.8c0,.5,0,1,0,1.41a1.89,1.89,0,0,0,.39,1.19c.28.3.74.59,1.13.25Z" transform="translate(-0.35 -1)"/><path class="cls-8" d="M10,19.45c-.21,0-.33.18-.4.36a2.28,2.28,0,0,0-.15.57c-.06.4-.07.8-.09,1.2a3,3,0,0,1-.18,1.21,1,1,0,0,1-1.08.54,3.36,3.36,0,0,0-.6-.07.39.39,0,0,0-.39.31,1.43,1.43,0,0,0,.39,1.06,15.8,15.8,0,0,1,1.62,1.84,3.22,3.22,0,0,1,.48,1.13,1.79,1.79,0,0,1-.18,1.22,1.57,1.57,0,0,0-.18.54c0,.18.18.3.34.42a7.92,7.92,0,0,1,1,.76,3.83,3.83,0,0,1,1.28,2.06A4.08,4.08,0,0,1,12,33.81a2,2,0,0,1-.4,1.15l-.05-.05a2.79,2.79,0,0,0,0-2.23,3.49,3.49,0,0,0-.5-1,4.45,4.45,0,0,0-.79-.77c-.31-.24-.61-.43-1-.67A2.62,2.62,0,0,1,8.92,30a.89.89,0,0,1-.28-.63,2,2,0,0,1,.22-.82,1.09,1.09,0,0,0,.1-.82,2.57,2.57,0,0,0-.42-.89A6.91,6.91,0,0,0,7.87,26l-.4-.42A6.06,6.06,0,0,1,7,25a2.9,2.9,0,0,1-.37-.65,1.47,1.47,0,0,1-.11-.91,1,1,0,0,1,.35-.55,1.05,1.05,0,0,1,.59-.22,1,1,0,0,1,.25,0l.13,0,.08,0,.24.06c.3.05.46,0,.62-.21a2.62,2.62,0,0,0,.22-1,10.87,10.87,0,0,1,.23-1.22,2.75,2.75,0,0,1,.23-.6c.09-.19.3-.41.54-.37Z" transform="translate(-0.35 -1)"/><path class="cls-7" d="M13.37,28.18a1,1,0,0,1-.68.19,2.35,2.35,0,0,1-.69-.14,2.13,2.13,0,0,1-1.06-.9,5.11,5.11,0,0,1-.6-2.65c.05-.92.12-1.81.14-2.72a12.35,12.35,0,0,0,0-1.36,3.74,3.74,0,0,0-.09-.66c-.06-.2-.13-.47-.35-.49v-.07a.42.42,0,0,1,.38.17,1.86,1.86,0,0,1,.19.33,4.72,4.72,0,0,1,.24.69c.1.47.15.93.21,1.4a20.61,20.61,0,0,1,0,2.72,5.53,5.53,0,0,0,.38,2.36,1.87,1.87,0,0,0,.71.84,2,2,0,0,0,.57.25,1,1,0,0,0,.63,0Z" transform="translate(-0.35 -1)"/><path class="cls-8" d="M11.4,4.1A7.88,7.88,0,0,1,10,2.17c-.11-.15-.25-.32-.43-.33s-.32.17-.41.32a1.67,1.67,0,0,0-.12,1.12c.22,1.59,1.93,2.5,2.11,4.17s-.15,3.13.06,4.68a3.94,3.94,0,0,1,0,.6.21.21,0,0,1-.1.18.26.26,0,0,1-.2,0,2.26,2.26,0,0,1-.26-.16l-1-.7c-.32-.23-.65-.45-1-.65a4.32,4.32,0,0,0-.53-.26A.94.94,0,0,0,8,11.05c-.08,0-.06,0,0,.11A7.64,7.64,0,0,0,9.39,13c.56.56,1.15,1.1,1.7,1.67a7,7,0,0,1,1.39,1.93,2.75,2.75,0,0,1,.23,1.17,11.22,11.22,0,0,0,0,1.16,45.8,45.8,0,0,0,.52,4.66l.34,2.33a8.91,8.91,0,0,1,.12,1.17,1.39,1.39,0,0,1-.31,1.12l0-.05a1.32,1.32,0,0,0,.19-1.07,11.29,11.29,0,0,0-.19-1.14l-.47-2.31a42,42,0,0,1-.71-4.69c0-.39,0-.83,0-1.21a2.16,2.16,0,0,0-.21-.91,6.24,6.24,0,0,0-1.29-1.73c-.54-.55-1.13-1.08-1.71-1.64-.29-.27-.59-.58-.86-.88l-.41-.49a2.73,2.73,0,0,1-.4-.69.74.74,0,0,1,.4-.94A.87.87,0,0,1,8,10.36a1.65,1.65,0,0,1,.53.12,5.11,5.11,0,0,1,.62.31,10.08,10.08,0,0,1,1.05.7l.95.71.16.11,0,0h-.08a.59.59,0,0,0-.21,0,.55.55,0,0,0-.2.15l-.06.08,0,0c0,.08,0,.06,0,.08a3.54,3.54,0,0,0,0-.48c-.18-1.65.2-3.26,0-4.66a3.92,3.92,0,0,0-.86-1.92A4.89,4.89,0,0,1,8.7,3.34,2.07,2.07,0,0,1,8.92,2a1.18,1.18,0,0,1,.26-.29.64.64,0,0,1,.44-.15.9.9,0,0,1,.6.46c.23.36.38.71.56,1.06a2.85,2.85,0,0,0,.66.94Z" transform="translate(-0.35 -1)"/><path class="cls-7" d="M15.87,15.45a3.49,3.49,0,0,1-1.94-1.34A5.73,5.73,0,0,1,12.84,12a5.44,5.44,0,0,1-.09-2.34,20.09,20.09,0,0,0,.13-2.33A15.34,15.34,0,0,1,13,5a3,3,0,0,1,.42-1.1,2.89,2.89,0,0,0,.28-1.11,1.46,1.46,0,0,0-.27-1.07c-.14-.12-.33,0-.44.15a2.46,2.46,0,0,0-.28.5c-.16.36-.27.74-.43,1.1A2.22,2.22,0,0,1,12,4a.5.5,0,0,1-.27.17.42.42,0,0,1-.31-.07l0-.06a.29.29,0,0,0,.41-.14,1.77,1.77,0,0,0,.21-.51c.1-.36.18-.75.3-1.14a2.14,2.14,0,0,1,.29-.62,1.08,1.08,0,0,1,.14-.15A.73.73,0,0,1,13,1.32a.67.67,0,0,1,.69.06,1.33,1.33,0,0,1,.45.75,2.76,2.76,0,0,1,.08.69A3,3,0,0,1,14,4.16a3.8,3.8,0,0,0-.23.49,2.21,2.21,0,0,0-.11.46,16.56,16.56,0,0,0,0,2.25,19.71,19.71,0,0,1-.19,2.4,5.28,5.28,0,0,0-.11,1.08,6.42,6.42,0,0,0,.1,1.05,5.31,5.31,0,0,0,.84,2,3.61,3.61,0,0,0,1.66,1.5Z" transform="translate(-0.35 -1)"/><path class="cls-8" d="M18.45,4.05c-.19-.06-.32.15-.41.31a5,5,0,0,0-.23.53c-.13.37-.23.75-.34,1.13a13.23,13.23,0,0,1-.73,2.26,1.22,1.22,0,0,1-.4.48.5.5,0,0,1-.6-.19,2.68,2.68,0,0,1-.31-1.16,7.08,7.08,0,0,0-.17-1.15.25.25,0,0,0-.13-.19.24.24,0,0,0-.19.09,1.5,1.5,0,0,0-.24.51,6.06,6.06,0,0,0,.72,4.51,13.86,13.86,0,0,1,.84,2.22,5.87,5.87,0,0,1,.21,1.17,1.55,1.55,0,0,1-.07.6.54.54,0,0,1-.21.24.58.58,0,0,1-.32,0v-.06c.45,0,.41-.47.36-.81a6.14,6.14,0,0,0-.34-1.08,14.78,14.78,0,0,0-1-2.1l-.29-.49a3.49,3.49,0,0,1-.3-.58A5.69,5.69,0,0,1,14,9.08a6.29,6.29,0,0,1,0-2.59,1.92,1.92,0,0,1,.39-.77l.13-.12a1.14,1.14,0,0,1,.23-.13h0l.1,0H15a.68.68,0,0,1,.34,0,.77.77,0,0,1,.45.34,1.12,1.12,0,0,1,.12.27,7.14,7.14,0,0,1,.17,1.3,2.55,2.55,0,0,0,.17.88s0,0,0,0h0c-.05,0-.09,0-.1,0s.11-.08.18-.21a13.64,13.64,0,0,0,.86-2.11c.15-.37.3-.74.48-1.11a4.17,4.17,0,0,1,.31-.54A1,1,0,0,1,18.13,4,.32.32,0,0,1,18.47,4Z" transform="translate(-0.35 -1)"/><path class="cls-7" d="M19.92,18.08a2,2,0,0,1-1.51-1.18,7.16,7.16,0,0,1-.63-1.84,18.45,18.45,0,0,1-.35-3.85,7.89,7.89,0,0,1,.28-1.93,17.33,17.33,0,0,1,.7-1.81A9.27,9.27,0,0,0,19,5.65a2.18,2.18,0,0,0,0-1,.85.85,0,0,0-.6-.65l0-.07a1.06,1.06,0,0,1,.49.21,1.13,1.13,0,0,1,.32.46,2.78,2.78,0,0,1,.11,1.06,11.22,11.22,0,0,1-.47,2c-.19.63-.45,1.21-.57,1.78a8,8,0,0,0-.22,1.78c0,.61,0,1.23,0,1.86s.08,1.25.15,1.86a8.1,8.1,0,0,0,.42,1.78A1.82,1.82,0,0,0,19.93,18Z" transform="translate(-0.35 -1)"/><path class="cls-8" d="M24.26,6.5c-.21,0-.37.19-.51.34a4.91,4.91,0,0,0-.4.53c-.25.36-.47.74-.7,1.12a11.32,11.32,0,0,1-.72,1.13l-.11.13s-.14.11-.22,0a.67.67,0,0,1-.05-.36c0-.21,0-.43,0-.65A5.9,5.9,0,0,0,21,6.23c-.1-.17-.3-.34-.45-.24a.91.91,0,0,0-.2.55,8.18,8.18,0,0,0,0,1.31c.09,1.75.37,3.49.46,5.24a23.25,23.25,0,0,1,0,2.64A8.24,8.24,0,0,1,20.66,17a2,2,0,0,1-.21.63.6.6,0,0,1-.53.41V18a.5.5,0,0,0,.39-.41,3,3,0,0,0,.13-.61,9.09,9.09,0,0,0,0-1.28c0-.86-.09-1.73-.19-2.59-.2-1.71-.47-3.45-.62-5.24a9.68,9.68,0,0,1,0-1.41,2.26,2.26,0,0,1,.09-.42,1.06,1.06,0,0,1,.42-.6.82.82,0,0,1,.19-.09l.07,0h0l.09,0h.17a1,1,0,0,1,.42.15,1.48,1.48,0,0,1,.39.43A4.42,4.42,0,0,1,22,7.36a6.4,6.4,0,0,1,.08,1.38c0,.23,0,.48-.05.69v.13s0,.08-.06-.08a.38.38,0,0,0-.22-.13.35.35,0,0,0-.2,0l-.06,0,.07-.06c.25-.28.5-.67.76-1s.53-.72.82-1.07c.15-.17.3-.34.47-.5s.37-.34.64-.31Z" transform="translate(-0.35 -1)"/><path class="cls-7" d="M24.4,22a.33.33,0,0,1-.12.15.2.2,0,0,1-.2,0,1.34,1.34,0,0,1-.29-.23c-.15-.18-.29-.37-.43-.56-.27-.39-.53-.78-.77-1.18a5.15,5.15,0,0,1-.6-1.28,1.32,1.32,0,0,1,0-.71,2,2,0,0,1,.33-.64A19.91,19.91,0,0,0,24,15.3a1.23,1.23,0,0,0,.18-.63.36.36,0,0,0-.13-.26l-.06,0H24a.48.48,0,0,0-.15,0,7.29,7.29,0,0,0-1.09.87,2.52,2.52,0,0,1-.59.42.36.36,0,0,1-.41,0,.53.53,0,0,1-.14-.36,13.08,13.08,0,0,1,0-1.4,5.76,5.76,0,0,1,.79-2.68c.46-.83,1.09-1.54,1.56-2.35a7.6,7.6,0,0,0,.61-1.25A2,2,0,0,0,24.63,7a.42.42,0,0,0-.37-.46V6.43a.53.53,0,0,1,.36.15A.7.7,0,0,1,24.8,7a2.34,2.34,0,0,1-.07.75,7.92,7.92,0,0,1-.51,1.36c-.22.43-.47.84-.72,1.24a11.9,11.9,0,0,0-.68,1.18,5.78,5.78,0,0,0-.63,2.45c0,.22,0,.44,0,.66v.35c0,.1,0,.25,0,.3s.07.1-.06-.05a.48.48,0,0,0-.29-.11h-.05a2.31,2.31,0,0,0,.42-.32l.54-.46a3.39,3.39,0,0,1,.73-.49,1,1,0,0,1,.4-.1.79.79,0,0,1,.4.09l0,0,.09.06h0l0,0a1,1,0,0,1,.35.69,1.79,1.79,0,0,1-.27,1,9.06,9.06,0,0,1-.9,1.21c-.3.38-.64.72-.92,1a1,1,0,0,0-.33.94A4.59,4.59,0,0,0,22.91,20c.2.42.42.83.64,1.24.12.2.24.4.37.58s.28.41.42.15Z" transform="translate(-0.35 -1)"/><path class="cls-8" d="M29.27,3.92c-.13.16,0,.38.05.56a6.15,6.15,0,0,0,.37.52c.27.33.57.65.86,1A9.37,9.37,0,0,1,32.1,8a2.08,2.08,0,0,1,.21,1.27.91.91,0,0,1-.28.59.83.83,0,0,1-.67.09,3.56,3.56,0,0,1-1.16-.6c-.18-.13-.35-.27-.51-.4s-.36-.28-.54-.25-.08.35,0,.52a2.46,2.46,0,0,0,.3.55,7,7,0,0,0,.83,1,15.83,15.83,0,0,1,1.81,1.85,8,8,0,0,1,1.28,2.23,5.37,5.37,0,0,1,.31,1.24c0,.43.09.85.15,1.27s.1.85.13,1.28a4.56,4.56,0,0,1,0,.64,1,1,0,0,1-.07.33.24.24,0,0,1-.34.14,3.14,3.14,0,0,1-.87-1c-.23-.37-.43-.75-.63-1.12a5.1,5.1,0,0,0-.71-1.05,1,1,0,0,0-.53-.29.64.64,0,0,0-.55.1.61.61,0,0,0,0,.55,3.53,3.53,0,0,0,.25.57,8.17,8.17,0,0,0,.71,1.06c.48.69,1.24,1.22,1.53,2.07a2.11,2.11,0,0,1,.08,1.29,1,1,0,0,1-.39.55,1,1,0,0,1-.66.17,5.24,5.24,0,0,1-2.4-1,8.58,8.58,0,0,1-1.83-1.83l0,0v0c.18-.69.34-1.39.45-2.09A6.88,6.88,0,0,0,28,15.53a1.24,1.24,0,0,0-.2-.47.48.48,0,0,0-.45-.16c-.16,0-.26.18-.32.34a1.78,1.78,0,0,0-.1.51c0,.35,0,.71-.05,1.07a4.93,4.93,0,0,1-.05.54,1,1,0,0,1-.09.27.24.24,0,0,1-.28.12,1.4,1.4,0,0,1-.46-.32l-.41-.36a5.89,5.89,0,0,0-.87-.64c-.15-.09-.37-.17-.37,0a1.48,1.48,0,0,0,.1.5,3.69,3.69,0,0,0,.48.95,1.86,1.86,0,0,1,.44,1,2.24,2.24,0,0,1-.3,1,13.56,13.56,0,0,0-.68,2l-.06,0a12.26,12.26,0,0,1,.6-2.08,2.13,2.13,0,0,0,.24-1,1.69,1.69,0,0,0-.44-.86,3.75,3.75,0,0,1-.55-1,1.49,1.49,0,0,1-.14-.62.48.48,0,0,1,.12-.29.43.43,0,0,1,.35-.12,1.14,1.14,0,0,1,.37.12,7,7,0,0,1,1,.65l.42.35c.14.12.3.25.31.23a.28.28,0,0,0-.12,0c-.06,0-.07.06-.07.05a.39.39,0,0,0,0-.14,3.7,3.7,0,0,0,0-.49c0-.34,0-.71,0-1.09a2.58,2.58,0,0,1,.12-.63,1.1,1.1,0,0,1,.2-.36.83.83,0,0,1,.47-.28.88.88,0,0,1,.28,0l.1,0,.13,0a1.11,1.11,0,0,1,.41.28,1.63,1.63,0,0,1,.31.68,7.08,7.08,0,0,1,0,2.3,17.9,17.9,0,0,1-.42,2.16L28,19.45a7.78,7.78,0,0,0,1.71,1.68,4.47,4.47,0,0,0,2.07.9H32L32,22c-.06,0,0,0,0,0a.43.43,0,0,0,.14-.23,1.41,1.41,0,0,0-.08-.89,2.66,2.66,0,0,0-.58-.88c-.29-.3-.6-.66-.88-1a9.46,9.46,0,0,1-.77-1.14,3.3,3.3,0,0,1-.3-.71,1.67,1.67,0,0,1-.08-.49,1.07,1.07,0,0,1,.28-.7,1.14,1.14,0,0,1,.34-.23l.2-.07h.11a1.45,1.45,0,0,1,.55,0,1.71,1.71,0,0,1,.87.48,4.62,4.62,0,0,1,.82,1.21c.21.38.4.75.61,1.09a3.5,3.5,0,0,0,.32.47l.09.12.09.09s.11.1.07.07l-.1,0a.49.49,0,0,0-.23,0,.82.82,0,0,0-.16.12.15.15,0,0,0,0,.06s0-.06,0-.13a5.22,5.22,0,0,0,0-.56c0-.4-.07-.81-.12-1.23l-.07-.64-.06-.63A5,5,0,0,0,32.79,15,8,8,0,0,0,31.63,13a11.72,11.72,0,0,0-.81-.93c-.27-.3-.6-.58-.92-.91A7.37,7.37,0,0,1,29,10.05a4,4,0,0,1-.34-.65A1.63,1.63,0,0,1,28.61,9a.64.64,0,0,1,0-.32A.59.59,0,0,1,29,8.31a.84.84,0,0,1,.61.1,1.48,1.48,0,0,1,.33.24l.48.4a3.29,3.29,0,0,0,1,.56.48.48,0,0,0,.35,0A.55.55,0,0,0,32,9.24a1.83,1.83,0,0,0-.13-1.1,9.12,9.12,0,0,0-1.44-2.06c-.27-.33-.55-.66-.82-1a5,5,0,0,1-.35-.54c-.09-.19-.19-.46,0-.65Z" transform="translate(-0.35 -1)"/><path class="cls-7" d="M34.67,11.6a.67.67,0,0,1-.75-.4,2.13,2.13,0,0,1-.21-.85c0-.58.06-1.15.09-1.72a28,28,0,0,0,.11-3.42c0-.24-.08-.69-.29-.42a4.76,4.76,0,0,0-.42.74A3.73,3.73,0,0,1,33,5.9a.61.61,0,0,1-.37.29A.46.46,0,0,1,32.18,6l-.27-.34a11.83,11.83,0,0,0-1.18-1.27,3.18,3.18,0,0,0-.7-.5.6.6,0,0,0-.76,0l-.05,0a.54.54,0,0,1,.41-.28,1.24,1.24,0,0,1,.51.07,3.53,3.53,0,0,1,.84.44,11.12,11.12,0,0,1,1.35,1.2l.29.3.05,0a.22.22,0,0,0-.17,0c-.16.05-.09,0,0,0a2.2,2.2,0,0,0,.16-.31l.18-.39a2.54,2.54,0,0,1,.31-.5,1.28,1.28,0,0,1,.2-.18.83.83,0,0,1,.26-.11h.21a.63.63,0,0,1,.35.1.6.6,0,0,1,.13.09l.08.08a.63.63,0,0,1,.09.14.66.66,0,0,1,.06.12,2.84,2.84,0,0,1,.13.58,17.47,17.47,0,0,1-.26,3.52c-.07.56-.21,1.16-.27,1.66a1.93,1.93,0,0,0,0,.76.57.57,0,0,0,.53.45Z" transform="translate(-0.35 -1)"/><path class="cls-8" d="M42.13,1.93c-.25-.16-.47.11-.6.32s-.25.47-.38.7a1.36,1.36,0,0,1-.25.34.3.3,0,0,1-.21.08.35.35,0,0,1-.21-.1,2.31,2.31,0,0,1-.41-.71,7.41,7.41,0,0,1-.24-.76.85.85,0,0,0-.17-.33c-.08-.07-.23,0-.31.07a1.11,1.11,0,0,0-.11.73l.09.79a2.83,2.83,0,0,1-.17,1.6c-.32.45-.6.89-.89,1.35a4,4,0,0,1-.24.33.66.66,0,0,1-.17.16.14.14,0,0,1-.17,0,.21.21,0,0,1,0-.12,3.6,3.6,0,0,1,0-.81,14.08,14.08,0,0,0,0-1.59,3.79,3.79,0,0,0-.27-1.54.44.44,0,0,0-.6-.24.92.92,0,0,0-.33.63A18.73,18.73,0,0,0,36.46,6a12.37,12.37,0,0,1-.05,1.61,2.07,2.07,0,0,1-.24.78,1,1,0,0,1-.69.43c-.28.06-.32.37-.29.62s.08.52.11.79a1.81,1.81,0,0,1-.07.8.87.87,0,0,1-.56.59l0-.06a.77.77,0,0,0,.42-.58,1.64,1.64,0,0,0,0-.73c0-.24-.14-.5-.18-.79a1.21,1.21,0,0,1,0-.5.74.74,0,0,1,.46-.48c.33-.11.37-.14.45-.3A1.78,1.78,0,0,0,36,7.53a13.36,13.36,0,0,0,0-1.54c0-.52-.09-1-.1-1.6a7.72,7.72,0,0,1,.07-1.71,2.31,2.31,0,0,1,.15-.5,1.14,1.14,0,0,1,.17-.3s.1-.1.15-.15a1.28,1.28,0,0,1,.26-.16,1.11,1.11,0,0,1,.86,0A1.21,1.21,0,0,1,38,2.1a4.23,4.23,0,0,1,.38,1.83,15.25,15.25,0,0,1-.08,1.66,5.46,5.46,0,0,0-.05.65.06.06,0,0,1,0,0l0-.06-.06-.08A.65.65,0,0,0,38,5.94a.53.53,0,0,0-.23-.06l-.18,0-.07,0c-.12.08,0,0,0,0l.2-.27L38.18,5l.24-.35.21-.29a2.63,2.63,0,0,0,.15-1.25l0-.82a3.78,3.78,0,0,1,0-.46A1,1,0,0,1,39,1.21c.12-.1,0,0,.17-.11A.54.54,0,0,1,39.37,1a.59.59,0,0,1,.56.11.93.93,0,0,1,.29.53c.08.29.13.53.2.76a1.83,1.83,0,0,0,.28.63s0,0,0,0,0,0,0,0a.8.8,0,0,0,.22-.25c.15-.21.28-.45.45-.68a1.31,1.31,0,0,1,.32-.3.41.41,0,0,1,.45,0Z" transform="translate(-0.35 -1)"/><path class="cls-7" d="M40,17.42a.88.88,0,0,1-.6-.48,3.4,3.4,0,0,1-.31-.71,3.54,3.54,0,0,1-.22-1.51,11.67,11.67,0,0,1,.79-3c.36-.95.78-1.89,1.11-2.85A3.11,3.11,0,0,0,41,8.19c0-.13,0-.23-.12-.27a.31.31,0,0,0-.28.1,7.43,7.43,0,0,0-.89,1.23,3.38,3.38,0,0,1-1,1.17.63.63,0,0,1-.78-.16,1.09,1.09,0,0,1-.2-.77A5.14,5.14,0,0,1,39,6.74a9.48,9.48,0,0,1,1.14-1.06,9.28,9.28,0,0,0,1-1.12A7.61,7.61,0,0,0,42,3.29a3,3,0,0,0,.27-.7c0-.23.06-.53-.16-.66l0-.06a.71.71,0,0,1,.28.75,2.84,2.84,0,0,1-.22.77,8.14,8.14,0,0,1-.76,1.39,11,11,0,0,1-1,1.23,9.38,9.38,0,0,0-1,1.07,7.45,7.45,0,0,0-.74,1.2,3.22,3.22,0,0,0-.36,1.24c0,.18,0,.33.07.33h0l.06,0h0l0,0h0s-.07,0,0,0a1.32,1.32,0,0,0,.35-.36,6.75,6.75,0,0,0,.4-.59l.43-.65a3.59,3.59,0,0,1,.61-.72,1.6,1.6,0,0,1,.34-.2.79.79,0,0,1,.29-.05.6.6,0,0,1,.22,0,.58.58,0,0,1,.16,0l0,0h0l.08,0,0,0,.08.07a.69.69,0,0,1,.18.28A.87.87,0,0,1,41.6,8a.48.48,0,0,1,0,.17,3.34,3.34,0,0,1-.2.9c-.38,1-.78,1.93-1.2,2.85a11.47,11.47,0,0,0-.94,2.79,2.32,2.32,0,0,0,0,.69,6.52,6.52,0,0,0,.12.73,4.1,4.1,0,0,0,.23.7.82.82,0,0,0,.48.5Z" transform="translate(-0.35 -1)"/><path class="cls-8" d="M45.54,10.68c0-.11-.19,0-.29,0A2.35,2.35,0,0,0,45,11a2.53,2.53,0,0,0-.4.65c-.22.47-.36,1-.6,1.44a1.41,1.41,0,0,1-.23.33.45.45,0,0,1-.41.14c-.3-.07-.46-.32-.65-.48s-.39-.35-.6-.5a2.27,2.27,0,0,0-.32-.22c-.1-.06-.25-.11-.29-.06s0,.19,0,.31a2.93,2.93,0,0,0,.1.37,4.76,4.76,0,0,0,.3.7,2,2,0,0,1,.26,1.53,4.22,4.22,0,0,1-.79,1.36,4.85,4.85,0,0,1-.54.57,1,1,0,0,1-.74.31v-.06c.49-.13.74-.62,1-1A3.59,3.59,0,0,0,41.57,15a1.56,1.56,0,0,0-.33-1.11,5.93,5.93,0,0,1-.36-.79,3.19,3.19,0,0,1-.12-.45,1.35,1.35,0,0,1,0-.31.78.78,0,0,1,.25-.62.85.85,0,0,1,.49-.19.83.83,0,0,1,.31,0,1.39,1.39,0,0,1,.32.14,3.46,3.46,0,0,1,.4.27,6.87,6.87,0,0,1,.62.57l.27.28c0,.06.11.09,0,.08a.2.2,0,0,0-.13,0,.66.66,0,0,0,.16-.17c.24-.37.46-.88.75-1.34a3.18,3.18,0,0,1,.57-.66,2.3,2.3,0,0,1,.37-.23,1.28,1.28,0,0,1,.23-.06.36.36,0,0,1,.14,0,.16.16,0,0,1,.07.11Z" transform="translate(-0.35 -1)"/><path class="cls-7" d="M43.8,26.74a.88.88,0,0,1-.62-.44,2,2,0,0,1-.24-.73,7.63,7.63,0,0,1,0-1.51c.09-1,.22-2,.3-3a4.24,4.24,0,0,0-.05-1.47c-.08-.26-.34,0-.55.09l-.62.43a4.76,4.76,0,0,1-1.36.76.24.24,0,0,1-.24-.09.29.29,0,0,1,0-.22,1.52,1.52,0,0,1,.11-.38,5.34,5.34,0,0,1,.33-.68,13.66,13.66,0,0,1,1.91-2.38c.7-.73,1.43-1.44,2.15-2.15a10.75,10.75,0,0,0,1-1.11.71.71,0,0,0,.08-.15s0,0-.07,0-.25,0-.38,0a.9.9,0,0,1-.75-.23.82.82,0,0,1-.08-.76,3.29,3.29,0,0,1,.33-.68,4.27,4.27,0,0,0,.33-.68,1.24,1.24,0,0,0,.12-.7l.07,0a2.52,2.52,0,0,1-.32,1.52,2.73,2.73,0,0,0-.24.65c0,.22,0,.41.08.45a.61.61,0,0,0,.43.06l.16,0,.23,0a.52.52,0,0,1,.33.08.39.39,0,0,1,.19.28.52.52,0,0,1,0,.21,1.06,1.06,0,0,1-.14.3,10,10,0,0,1-1,1.23c-.67.77-1.41,1.46-2.07,2.2a13.42,13.42,0,0,0-1.76,2.28c-.11.2-.23.42-.31.6a2.27,2.27,0,0,0-.08.22s0,0-.06-.21a.59.59,0,0,0-.28-.2.38.38,0,0,0-.14,0l.15-.06.29-.16c.21-.12.41-.26.62-.4l.66-.43c.12-.07.21-.13.41-.23a.84.84,0,0,1,.67,0,.78.78,0,0,1,.37.42,2.36,2.36,0,0,1,.12,1c0,.27,0,.52-.08.78-.14,1-.33,2-.48,3a7.33,7.33,0,0,0-.17,1.44c0,.45.14,1,.64,1.13Z" transform="translate(-0.35 -1)"/><path class="cls-8" d="M49.46,16.94c-.36-.1-.63.26-.8.53a4.42,4.42,0,0,0-.43,1,6.18,6.18,0,0,0-.25,1c0,.18,0,.35-.09.53a.62.62,0,0,1-.34.45.71.71,0,0,1-.57-.11,2,2,0,0,1-.43-.34,3.7,3.7,0,0,1-.66-.87.88.88,0,0,0-.31-.39c-.14-.08-.28,0-.33.18a1.63,1.63,0,0,0,0,1,6.13,6.13,0,0,0,1,1.87,4.87,4.87,0,0,1,.52.95,1.39,1.39,0,0,1,0,1.08,15.57,15.57,0,0,1-1.19,1.8,4,4,0,0,1-.76.78,1.52,1.52,0,0,1-1,.34v-.07a2.21,2.21,0,0,0,1.49-1.26,13.5,13.5,0,0,0,1-1.79.89.89,0,0,0-.08-.67,6,6,0,0,0-.51-.82c-.19-.27-.41-.56-.62-.91a4.7,4.7,0,0,1-.49-1.12,2.22,2.22,0,0,1,0-1.44,1.07,1.07,0,0,1,.42-.49.9.9,0,0,1,.87,0,1.37,1.37,0,0,1,.57.66,3.26,3.26,0,0,0,.51.76,1.87,1.87,0,0,0,.31.27c.09.07.16.07.07.09s0,0,0-.07.07-.3.12-.47a6.41,6.41,0,0,1,.36-1.07,5.21,5.21,0,0,1,.59-1,2,2,0,0,1,.42-.4.6.6,0,0,1,.6-.08Z" transform="translate(-0.35 -1)"/><path class="cls-7" d="M49.33,45.21a2.47,2.47,0,0,1-.58-1.39,9.39,9.39,0,0,1-.13-1.5,10.1,10.1,0,0,1,.42-3A5.48,5.48,0,0,1,49.65,38a13.85,13.85,0,0,1,.93-1.21c.66-.78,1.35-1.52,2-2.27s1.37-1.5,2-2.3a6.9,6.9,0,0,0,.42-.63.91.91,0,0,0,.17-.65.52.52,0,0,0-.62-.18,3.16,3.16,0,0,0-.7.27l-.69.34a1.8,1.8,0,0,1-.78.2.51.51,0,0,1-.35-.23,2.37,2.37,0,0,1-.19-.35,2.46,2.46,0,0,1-.16-.75,5.53,5.53,0,0,1,.84-2.9C53.63,25.58,55,24,56,22.3a5.94,5.94,0,0,0,.33-.67c.08-.21.19-.51,0-.61s-.45,0-.65.17a4.35,4.35,0,0,0-.55.5l-1,1.13a4.87,4.87,0,0,1-.58.52,1.09,1.09,0,0,1-.36.17.5.5,0,0,1-.41-.1A2.44,2.44,0,0,1,52.11,22a9.43,9.43,0,0,1-.16-1.5v-.75a.82.82,0,0,0-.06-.32.88.88,0,0,0-.21.24,7.77,7.77,0,0,1-.94,1.2,3.56,3.56,0,0,1-.6.49,1.12,1.12,0,0,1-.37.16.32.32,0,0,1-.35-.19,3.51,3.51,0,0,1-.06-1.51l.19-1.5c0-.25.06-.49.07-.74s0-.25,0-.37-.05-.26-.14-.29l0-.07c.16.06.18.23.21.35a2.33,2.33,0,0,1,0,.38c0,.26,0,.51,0,.76l-.13,1.5c0,.25,0,.49,0,.73a1.4,1.4,0,0,0,.11.63c0,.06,0,0,0,0a.18.18,0,0,0,.09,0A.75.75,0,0,0,50,21.1a2.47,2.47,0,0,0,.51-.46,7.17,7.17,0,0,0,.86-1.18l.13-.18.11-.11a.46.46,0,0,1,.46-.11.59.59,0,0,1,.17.1l.06.09a.26.26,0,0,1,.06.12.68.68,0,0,1,0,.15c0,.09,0,.16,0,.23l0,.75a9.47,9.47,0,0,0,.19,1.43,4.24,4.24,0,0,0,.2.66,1,1,0,0,0,.25.4s0,0,0,0,0,0,0,0l0,0h0l.1-.07a4,4,0,0,0,.48-.46c.32-.36.65-.75,1-1.14a6,6,0,0,1,.63-.58,1.86,1.86,0,0,1,.49-.27,1,1,0,0,1,.86.07l0,0,.07,0,.07.06a.91.91,0,0,1,.18.27.87.87,0,0,1,0,.43,1.57,1.57,0,0,1-.13.51,4.76,4.76,0,0,1-.37.75c-1.06,1.81-2.37,3.38-3.4,5a5,5,0,0,0-.77,2.52,1.78,1.78,0,0,0,.11.54l.05.11a.79.79,0,0,0,.06.1l0,.07c0-.05,0,0-.06-.06a.22.22,0,0,0-.1,0,1.23,1.23,0,0,0,.42-.14l.69-.32a4.25,4.25,0,0,1,.84-.31,1.39,1.39,0,0,1,.65,0,1.12,1.12,0,0,1,.4.19l.1.1,0,0,.07.08.08.13a1.09,1.09,0,0,1,0,.77,2.89,2.89,0,0,1-.2.43,7.55,7.55,0,0,1-.47.69A25.34,25.34,0,0,1,53,34.82c-.71.74-1.42,1.46-2.09,2.2A13.31,13.31,0,0,0,50,38.16a5.62,5.62,0,0,0-.62,1.28,9.92,9.92,0,0,0-.54,2.88,10.47,10.47,0,0,0,.06,1.48,2.43,2.43,0,0,0,.47,1.36Z" transform="translate(-0.35 -1)"/><path class="cls-8" d="M57.45,34.67a2.49,2.49,0,0,0-.86.82c-.24.33-.46.67-.67,1a11.23,11.23,0,0,0-1,2.21,7.47,7.47,0,0,0-.24,1.18A2.74,2.74,0,0,1,54.15,41a3,3,0,0,1-.95.82,1,1,0,0,1-.65.11.52.52,0,0,1-.32-.56,8.45,8.45,0,0,0,.13-1.2,1.39,1.39,0,0,0-.4-1c-.15-.12-.33,0-.44.13a1.69,1.69,0,0,0-.21.54L51.1,41c-.15.79-.3,1.59-.51,2.37a9.88,9.88,0,0,1-.39,1.16,2.54,2.54,0,0,1-.29.54.72.72,0,0,1-.25.21.32.32,0,0,1-.33-.06l0-.06c.19.11.32,0,.41-.18a3.08,3.08,0,0,0,.21-.53,9,9,0,0,0,.24-1.17c.14-.78.25-1.58.33-2.37,0-.42.08-.78.16-1.23a2.3,2.3,0,0,1,.28-.76,1.11,1.11,0,0,1,.51-.41.89.89,0,0,1,.82.11,1.48,1.48,0,0,1,.56.79,3.52,3.52,0,0,1,.14.75,4.34,4.34,0,0,1,0,.72l0,.31a.76.76,0,0,0,0,.19c0,.06,0,.07,0,0a.31.31,0,0,0-.16-.13c-.12,0,0,0,.14-.06a2.19,2.19,0,0,0,.74-.61,2.22,2.22,0,0,0,.46-.85s0-.18,0-.24,0-.23.05-.34.13-.43.2-.64a10.85,10.85,0,0,1,1.2-2.23,10.56,10.56,0,0,1,.8-1,2.23,2.23,0,0,1,1-.75Z" transform="translate(-0.35 -1)"/><path class="cls-7" d="M50,54.31c0-1.21-.08-2.42,0-3.66A7.32,7.32,0,0,1,51.14,47a7.82,7.82,0,0,1,.63-.77c.25-.25.45-.43.64-.64a10.18,10.18,0,0,0,1.07-1.38c.32-.49.61-1,1-1.55a4.82,4.82,0,0,1,1.4-1.54,3.72,3.72,0,0,1,1-.44l.41-.11a2.5,2.5,0,0,0,.38-.15,7.09,7.09,0,0,0,1.46-.88A6.3,6.3,0,0,0,60.3,38.4c.06-.08.11-.23.1-.15a.39.39,0,0,0,.07.22.4.4,0,0,0,.22.15c.08,0,0,0,0,0a5.35,5.35,0,0,0-.77.26,9.6,9.6,0,0,1-1.88.57,1.9,1.9,0,0,1-.59,0,1,1,0,0,1-.65-.35A1.52,1.52,0,0,1,56.61,38a10.15,10.15,0,0,1,.52-1.8l.33-.86a3.45,3.45,0,0,0,.14-.42c0-.14,0-.26-.15-.24v-.06a.21.21,0,0,1,.24.07.34.34,0,0,1,0,.24,1.64,1.64,0,0,1-.1.45l-.26.88A10.71,10.71,0,0,0,57,38a1.21,1.21,0,0,0,.15.84c.18.23.53.21.82.15a9.08,9.08,0,0,0,1.75-.61,4.87,4.87,0,0,1,.88-.34.69.69,0,0,1,.25,0,.23.23,0,0,1,.17.23,1.09,1.09,0,0,1-.19.44,6.55,6.55,0,0,1-1.3,1.33,7.71,7.71,0,0,1-1.57,1,12.57,12.57,0,0,0-1.72.68A4.17,4.17,0,0,0,55,43c-.33.51-.64,1-1,1.55A11.33,11.33,0,0,1,52.86,46a13.11,13.11,0,0,0-1.27,1.32,6.83,6.83,0,0,0-1.28,3.35c-.16,1.2-.14,2.42-.28,3.63Z" transform="translate(-0.35 -1)"/><path class="cls-7" d="M46.07,54.22a2.67,2.67,0,0,1,1-.47,3.83,3.83,0,0,1,1-.11,4.08,4.08,0,0,1,1,.15,2.87,2.87,0,0,1,1,.49v.07l-2,0c-.65,0-1.31,0-2,0Z" transform="translate(-0.35 -1)"/><path class="cls-8" d="M44.06,48.09a.6.6,0,0,1,.5.14,2.38,2.38,0,0,1,.38.32,3.52,3.52,0,0,1,.55.76A4.71,4.71,0,0,1,46,51.09a9,9,0,0,1,0,1.73c0,.28-.07.55-.08.8s-.07.47.22.6v.07a.47.47,0,0,1-.41-.18,1.12,1.12,0,0,1-.17-.41,5,5,0,0,1-.11-.85c0-.57,0-1.14-.1-1.7A6.17,6.17,0,0,0,45,49.5a5.4,5.4,0,0,0-.36-.77c-.14-.23-.29-.53-.56-.57Z" transform="translate(-0.35 -1)"/><path class="cls-7" d="M37,54.21a.84.84,0,0,0,.75.31,1.07,1.07,0,0,0,.63-.46,11,11,0,0,0,.88-1.61,2.49,2.49,0,0,1,.33-.5.73.73,0,0,1,.22-.17.75.75,0,0,1,.24-.09.76.76,0,0,1,.34,0,.65.65,0,0,1,.23.15.83.83,0,0,1,.11.13.94.94,0,0,1,.12.2,5.58,5.58,0,0,1,.29,1,2.3,2.3,0,0,0,.18.72.14.14,0,0,0,.07.08.74.74,0,0,0,.22,0,.83.83,0,0,0,.26,0,.53.53,0,0,0,.21-.11,1.69,1.69,0,0,0,.38-.55,8.17,8.17,0,0,0,.47-1.69c.12-.6.17-1.22.27-1.87a8.42,8.42,0,0,1,.24-1,2.14,2.14,0,0,1,.2-.47c.09-.14.21-.33.42-.33v.07c-.14,0-.23.18-.28.32a2.3,2.3,0,0,0-.12.45,6,6,0,0,0-.1.94c0,.63,0,1.27-.1,1.91a7.1,7.1,0,0,1-.4,1.87,2.21,2.21,0,0,1-.54.82,1.31,1.31,0,0,1-1,.3.94.94,0,0,1-.87-.48,3.16,3.16,0,0,1-.23-.94,3.45,3.45,0,0,0-.21-.91c-.06-.16-.14-.23-.26-.09a2.6,2.6,0,0,0-.27.38,8.14,8.14,0,0,1-1.1,1.58,1.24,1.24,0,0,1-.87.43.93.93,0,0,1-.83-.49Z" transform="translate(-0.35 -1)"/><path class="cls-8" d="M38,47.74a1.64,1.64,0,0,1,.39.87,3.63,3.63,0,0,1,0,.93,3,3,0,0,1-.71,1.84,1.56,1.56,0,0,0-.29.51,6.78,6.78,0,0,0-.22.72,5.14,5.14,0,0,0-.18,1.6l-.06,0a3.07,3.07,0,0,1-.31-1.68,3,3,0,0,1,.52-1.64,3.21,3.21,0,0,0,.71-1.5,3.46,3.46,0,0,0,0-1.66Z" transform="translate(-0.35 -1)"/><path class="cls-7" d="M27.66,54.34C28.82,54.17,30,54.18,31,54a1.36,1.36,0,0,0,1-.65,6,6,0,0,0,.34-1.45,2.61,2.61,0,0,1,.37-1,2.46,2.46,0,0,1,.85-.74,12.74,12.74,0,0,1,1.67-.59,4.2,4.2,0,0,0,1.33-.82,6.53,6.53,0,0,0,.63-.55l.31-.31a1.24,1.24,0,0,1,.18-.14.3.3,0,0,1,.15,0,.13.13,0,0,1,.11.1l-.06,0c0-.12-.18.07-.25.16l-.25.34q-.26.34-.54.66a4.81,4.81,0,0,1-1.36,1c-.52.28-1.1.38-1.58.68a1.67,1.67,0,0,0-.61.54A2.07,2.07,0,0,0,33,52a5.64,5.64,0,0,1-.45,1.64,1.93,1.93,0,0,1-1.47.87,18.17,18.17,0,0,1-3.46-.07Z" transform="translate(-0.35 -1)"/><path class="cls-8" d="M22.59,48.87a4.89,4.89,0,0,1,1.55,1.29c.43.49.79,1,1.15,1.51s.69,1,1,1.49a3.73,3.73,0,0,0,1.33,1.18v.07a2.83,2.83,0,0,1-1.72-.87,10.17,10.17,0,0,1-1.23-1.48c-.36-.53-.69-1.08-1-1.61a10.6,10.6,0,0,0-1.13-1.53Z" transform="translate(-0.35 -1)"/><path class="cls-7" d="M14,53.9a1.65,1.65,0,0,0,.83.21l.93,0,1.84,0c.61,0,1.22,0,1.81,0a8.15,8.15,0,0,0,1.68-.19,2.61,2.61,0,0,0,.67-.24,1.29,1.29,0,0,0,.21-.17.52.52,0,0,0,.07-.11l.06-.1a4.07,4.07,0,0,0,.12-1.53c0-.57-.12-1.16-.2-1.76,0-.3-.06-.6-.07-.92a2.18,2.18,0,0,1,0-.25.49.49,0,0,1,0-.15.24.24,0,0,1,.18-.17c.19,0,.21.1.28.15l.15.19-.05.05c-.11-.09-.24-.23-.35-.23s0,.25,0,.38c0,.29.12.58.2.87.14.58.29,1.17.38,1.77a3.83,3.83,0,0,1,0,1.81,1.84,1.84,0,0,1-1.46,1.07,12.15,12.15,0,0,1-3.71.07l-1.84-.21-.92-.12a1.51,1.51,0,0,1-.84-.38Z" transform="translate(-0.35 -1)"/><path class="cls-8" d="M.6,26.11a.57.57,0,0,0,0,.74,3.66,3.66,0,0,0,.51.68c.37.43.76.85,1.13,1.28.73.89,1.45,1.77,2.13,2.69A8.8,8.8,0,0,1,5.21,33a1.74,1.74,0,0,1,.06,1.67.59.59,0,0,1-.37.26.89.89,0,0,1-.46,0,3.17,3.17,0,0,1-.76-.43c-.46-.35-.88-.74-1.32-1.11a5.48,5.48,0,0,0-.68-.51.79.79,0,0,0-.37-.13.25.25,0,0,0-.21.25,1.53,1.53,0,0,0,.31.75,8,8,0,0,0,.52.67,26.45,26.45,0,0,0,2.44,2.41,22.3,22.3,0,0,1,2.39,2.47,8.68,8.68,0,0,1,1,1.42,3.28,3.28,0,0,1,.46,1.65,1.6,1.6,0,0,1-.27.82,1,1,0,0,1-.81.4A4.6,4.6,0,0,1,5.44,43a7.83,7.83,0,0,0-.79-.34c-.25-.09-.59-.16-.68.09a.73.73,0,0,0,.17.73,4.84,4.84,0,0,0,.56.64c.19.21.4.41.58.64a1,1,0,0,1,.22.39.45.45,0,0,1-.12.44,1.59,1.59,0,0,1-.84.3,6.58,6.58,0,0,1-.88.05H2.79a1.93,1.93,0,0,0-.42,0,.27.27,0,0,0-.15.06.37.37,0,0,0,0,.17,1,1,0,0,0,.58.54,4.53,4.53,0,0,0,.81.27,17.29,17.29,0,0,0,3.44.41c.58,0,1.16,0,1.75,0a2.34,2.34,0,0,1,.86.19,2.61,2.61,0,0,1,.7.52,11.5,11.5,0,0,1,1.09,1.33,14.56,14.56,0,0,1,.93,1.43c.28.5.53,1,.76,1.53A4.55,4.55,0,0,0,14,53.9l-.05.05A5,5,0,0,1,13,52.49,15.06,15.06,0,0,0,12.21,51a13.14,13.14,0,0,0-1-1.37,12.34,12.34,0,0,0-1.11-1.25,1.77,1.77,0,0,0-1.33-.55c-.53,0-1.14,0-1.73,0a18.82,18.82,0,0,1-3.56-.34,5,5,0,0,1-.93-.3,1.54,1.54,0,0,1-.9-.86,1.42,1.42,0,0,1,0-.2v-.11a.28.28,0,0,1,0-.09.87.87,0,0,1,.05-.19A.78.78,0,0,1,2,45.46a.87.87,0,0,1,.21-.06,4.08,4.08,0,0,1,.53-.06h.88c.28,0,.56,0,.8,0l.34-.07c.08,0,.18-.1.12-.05l0,0H5l0,0h0a.08.08,0,0,0,0,.05.1.1,0,0,0,0,.07,1.71,1.71,0,0,0-.11-.17,5.74,5.74,0,0,0-.55-.58,6.57,6.57,0,0,1-.63-.71,2.26,2.26,0,0,1-.28-.54,1.46,1.46,0,0,1,0-.38,1.19,1.19,0,0,1,.09-.41.84.84,0,0,1,.37-.43.87.87,0,0,1,.5-.14,1.76,1.76,0,0,1,.64.11,8,8,0,0,1,.86.36,4,4,0,0,0,1.38.45.24.24,0,0,0,.22-.09.88.88,0,0,0,.16-.5,2.81,2.81,0,0,0-.37-1.31,9,9,0,0,0-.89-1.32,21.84,21.84,0,0,0-2.3-2.42,26.29,26.29,0,0,1-2.47-2.48A7.17,7.17,0,0,1,.9,34a3,3,0,0,1-.24-.44,1.31,1.31,0,0,1-.15-.64.87.87,0,0,1,.2-.51.86.86,0,0,1,.14-.13l.07,0a1.1,1.1,0,0,1,.32-.11,1.21,1.21,0,0,1,.73.21,5.3,5.3,0,0,1,.75.59c.44.39.85.78,1.27,1.12a2.66,2.66,0,0,0,.62.38.33.33,0,0,0,.19,0s0,0,0,0,.11-.11.07-.07a1.35,1.35,0,0,0,0-1.26A8.46,8.46,0,0,0,4,31.71c-.61-.93-1.31-1.86-2-2.76-.34-.45-.71-.88-1.07-1.33a4.61,4.61,0,0,1-.5-.72.82.82,0,0,1-.11-.44.7.7,0,0,1,.2-.4Z" transform="translate(-0.35 -1)"/><path class="cls-7" d="M13.88,36.44a1.45,1.45,0,0,0-1.31.48,3.35,3.35,0,0,0-.65,1.29,11.21,11.21,0,0,0-.31,1.42,11.93,11.93,0,0,0-.17,1.45,5.86,5.86,0,0,0,.63,2.8,12.27,12.27,0,0,0,.71,1.28,6.49,6.49,0,0,0,.41.61.88.88,0,0,0,.55.42v.07a1,1,0,0,1-.73-.35c-.2-.18-.37-.38-.54-.56a11.59,11.59,0,0,1-.88-1.25,5.52,5.52,0,0,1-.85-3.05A12.82,12.82,0,0,1,11,39.53a8.78,8.78,0,0,1,.43-1.47,3.47,3.47,0,0,1,.9-1.38,1.62,1.62,0,0,1,1.6-.31Z" transform="translate(-0.35 -1)"/><path class="cls-8" d="M13.73,46.19c.2-.07.2-.28.24-.47a4.1,4.1,0,0,0,0-.61c0-.41,0-.83,0-1.25,0-.84,0-1.69,0-2.53s.05-1.68.1-2.52c0-.42,0-.84,0-1.25,0-.21,0-.41,0-.61s0-.41-.2-.51v-.07c.26.06.34.32.42.51a3.3,3.3,0,0,1,.15.62,9.28,9.28,0,0,1,.14,1.28c.06.85.06,1.71.05,2.56s-.07,1.71-.14,2.56a11.16,11.16,0,0,1-.15,1.28,3.35,3.35,0,0,1-.17.62c-.07.19-.19.45-.45.46Z" transform="translate(-0.35 -1)"/><path class="cls-7" d="M17.24,40.8c-.27,0-.4.3-.5.52a4.32,4.32,0,0,0-.22.78,8.71,8.71,0,0,0-.17,1.61,9.74,9.74,0,0,0,0,1.62,4.24,4.24,0,0,0,.15.79c.07.25.17.54.41.63l0,.07a.65.65,0,0,1-.46-.22,2.12,2.12,0,0,1-.29-.38,3.92,3.92,0,0,1-.34-.83,5.87,5.87,0,0,1-.19-1.71A5.52,5.52,0,0,1,16,42a3.19,3.19,0,0,1,.41-.8,2.31,2.31,0,0,1,.34-.36A1,1,0,0,1,17,40.7a.36.36,0,0,1,.26,0Z" transform="translate(-0.35 -1)"/><path class="cls-8" d="M16.94,46.75c.31-.06.37-.29.46-.52a4.82,4.82,0,0,0,.18-.75,11.86,11.86,0,0,0,.13-1.55,14.73,14.73,0,0,0-.1-1.58c0-.27-.06-.54-.11-.81a1.32,1.32,0,0,0-.26-.74v-.07c.33.1.45.41.59.66a6.21,6.21,0,0,1,.3.82,6.3,6.3,0,0,1,.27,1.72,5.28,5.28,0,0,1-.31,1.72,3.23,3.23,0,0,1-.39.79.76.76,0,0,1-.78.38Z" transform="translate(-0.35 -1)"/><path class="cls-7" d="M16.2,26.57a.67.67,0,0,0-.85.34,3,3,0,0,0-.36,1,8.85,8.85,0,0,0-.12,2.06,13.26,13.26,0,0,1,0,2.09l-.11,1a1.38,1.38,0,0,0,0,.5.62.62,0,0,0,.34.35l0,.06a.69.69,0,0,1-.53-.33,1.58,1.58,0,0,1-.18-.6c0-.38-.06-.72-.07-1.06s0-.67-.07-1l-.08-1a6.17,6.17,0,0,1,.28-2.2A3,3,0,0,1,15,26.72a1.2,1.2,0,0,1,.58-.36.64.64,0,0,1,.61.15Z" transform="translate(-0.35 -1)"/><path class="cls-8" d="M15.13,33.92c.4,0,.52-.26.66-.55a7.18,7.18,0,0,0,.31-1c.16-.67.32-1.35.43-2a12.77,12.77,0,0,0,.25-2,1.8,1.8,0,0,0-.58-1.77l0-.06a1.6,1.6,0,0,1,.86.72,2.84,2.84,0,0,1,.25,1.07,8,8,0,0,1-.11,2.19,11.14,11.14,0,0,1-.6,2.12,4.17,4.17,0,0,1-.53,1,1.21,1.21,0,0,1-.42.39.64.64,0,0,1-.57,0Z" transform="translate(-0.35 -1)"/><path class="cls-7" d="M17.85,34.88a6.27,6.27,0,0,0-.33,2.54,3.24,3.24,0,0,0,.31,1.23,2.06,2.06,0,0,0,.88.92l0,.06a1.73,1.73,0,0,1-1.34-.73,2.85,2.85,0,0,1-.51-1.43A3.54,3.54,0,0,1,17,36.06a2.64,2.64,0,0,1,.77-1.2Z" transform="translate(-0.35 -1)"/><path class="cls-8" d="M18.71,39.57c.74.08.93-.37,1.08-.85a3.18,3.18,0,0,0,0-1.5A5,5,0,0,0,19,35.8a7.35,7.35,0,0,0-.56-.67,1.31,1.31,0,0,0-.31-.27.22.22,0,0,0-.32,0l-.07,0a.37.37,0,0,1,.43-.23,1.41,1.41,0,0,1,.47.19,4.07,4.07,0,0,1,.76.61,4.17,4.17,0,0,1,1,1.62,2.93,2.93,0,0,1-.2,1.89,1.56,1.56,0,0,1-.64.73,1,1,0,0,1-1,0Z" transform="translate(-0.35 -1)"/><path class="cls-8" d="M20.47,35a4.36,4.36,0,0,0-.21-1.33c-.12-.42-.22-.85-.36-1.24a3.19,3.19,0,0,0-.62-.88c-.15-.16-.3-.33-.46-.48l-.24-.22-.1-.07s-.07,0-.1,0h-.07a.16.16,0,0,1,.12-.17.34.34,0,0,1,.2,0,1.45,1.45,0,0,1,.35.12,4,4,0,0,1,.63.37,2.62,2.62,0,0,1,1,1.1,5.78,5.78,0,0,1,.24,1.42,2.28,2.28,0,0,1-.28,1.4Z" transform="translate(-0.35 -1)"/><path class="cls-7" d="M18.38,30.76A4.18,4.18,0,0,0,18.61,32a8.23,8.23,0,0,0,.46,1.16,9.63,9.63,0,0,0,.58,1.1,5.74,5.74,0,0,0,.36.5,1.45,1.45,0,0,0,.22.21c.09.06.19.09.24,0l.06,0a.22.22,0,0,1-.19.15.62.62,0,0,1-.24,0,2.06,2.06,0,0,1-.37-.16,3.12,3.12,0,0,1-.55-.46,3.88,3.88,0,0,1-.75-1.11,3.93,3.93,0,0,1-.36-1.28,2.27,2.27,0,0,1,.24-1.36Z" transform="translate(-0.35 -1)"/><path class="cls-7" d="M14.09,16.68a6.67,6.67,0,0,0,.3,2.21A13.16,13.16,0,0,0,15.18,21a17.34,17.34,0,0,0,1.07,2,9.82,9.82,0,0,0,.66.93,2.36,2.36,0,0,0,.85.72l0,.06a2.1,2.1,0,0,1-1.12-.56,6.2,6.2,0,0,1-.84-.86,10.1,10.1,0,0,1-1.24-2A8.56,8.56,0,0,1,13.85,19,4.43,4.43,0,0,1,14,16.67Z" transform="translate(-0.35 -1)"/><path class="cls-8" d="M17.76,24.65a.36.36,0,0,0,.39-.32c.05-.21.1-.44.14-.66a7.52,7.52,0,0,0,.19-1.27,3.19,3.19,0,0,0-.68-2.17,8,8,0,0,0-.86-.95c-.31-.34-.64-.65-.94-1s-.62-.67-.95-1a5.38,5.38,0,0,0-.49-.47,2,2,0,0,0-.25-.18c-.09,0-.16-.07-.22,0H14c0-.15.2-.21.31-.17a1.4,1.4,0,0,1,.34.13,4.56,4.56,0,0,1,.59.38c.38.27.74.57,1.09.87s.7.62,1,.94a7.72,7.72,0,0,1,1,1A3.44,3.44,0,0,1,19,22.47a6,6,0,0,1-.39,1.33c-.09.22-.18.43-.28.64a.69.69,0,0,1-.25.26.48.48,0,0,1-.37,0Z" transform="translate(-0.35 -1)"/><path class="cls-7" d="M22.31,23.58a.48.48,0,0,0-.6,0,5.38,5.38,0,0,0-.49.47c-.32.32-.66.63-1,1a2.86,2.86,0,0,0-.74,1.09,1.82,1.82,0,0,0,.07,1.28c.35.84.62,1.7,1,2.54a9.08,9.08,0,0,0,.58,1.22,1.6,1.6,0,0,0,.44.49.44.44,0,0,0,.58-.08l0,.05a.62.62,0,0,1-.29.26.57.57,0,0,1-.46,0,1.93,1.93,0,0,1-.62-.49A8,8,0,0,1,20,30.16c-.45-.83-.74-1.66-1.11-2.5a2.47,2.47,0,0,1,0-1.72,3.28,3.28,0,0,1,1-1.27c.37-.31.75-.57,1.12-.84.19-.11.37-.27.62-.39a.8.8,0,0,1,.41-.1.52.52,0,0,1,.36.18Z" transform="translate(-0.35 -1)"/><path class="cls-8" d="M22.13,31.59a5.88,5.88,0,0,0,.41-1,3.13,3.13,0,0,0,.1-.92l-.07-2.06,0-2.06c0-.35,0-.69,0-1a2.19,2.19,0,0,0-.21-1l0-.06a1.82,1.82,0,0,1,.53.94,7.85,7.85,0,0,1,.22,1.05,19.1,19.1,0,0,1,.17,2.13,17.08,17.08,0,0,1-.08,2.14,2.66,2.66,0,0,1-.33,1,4,4,0,0,1-.68.84Z" transform="translate(-0.35 -1)"/><path class="cls-7" d="M21.26,20.65c-.21-.1-.39.08-.46.28a1.71,1.71,0,0,0-.11.63,1.33,1.33,0,0,0,.1.63.46.46,0,0,0,.48.32v.07a.5.5,0,0,1-.52.16,1,1,0,0,1-.48-.32,1.39,1.39,0,0,1,0-1.71,1,1,0,0,1,.47-.33c.21-.08.52,0,.53.2Z" transform="translate(-0.35 -1)"/><path class="cls-8" d="M21.27,22.51a.7.7,0,0,0,.18-.56c0-.11,0-.18-.06-.27s0-.21,0-.37a2.89,2.89,0,0,0-.12-.66l0-.06a1.28,1.28,0,0,1,.8,1,1,1,0,0,1-.2.66.89.89,0,0,1-.61.3Z" transform="translate(-0.35 -1)"/><path class="cls-8" d="M24.54,48.22c.06-.12,0-.26-.07-.39a3.11,3.11,0,0,0-.2-.41l-.41-.83c-.28-.55-.53-1.1-.78-1.65s-.5-1.1-.73-1.67-.44-1.13-.75-1.7l0-.06A6.05,6.05,0,0,1,22.83,43a16.65,16.65,0,0,1,.89,1.67,17.72,17.72,0,0,1,.67,1.76c.09.3.17.6.25.91a3.54,3.54,0,0,1,.07.47.49.49,0,0,1-.12.46Z" transform="translate(-0.35 -1)"/><path class="cls-7" d="M21.6,41.57a.26.26,0,0,0-.42.08,1.41,1.41,0,0,0-.2.49,3.92,3.92,0,0,0-.1,1.08,4.36,4.36,0,0,0,.53,2.07,5.4,5.4,0,0,0,.69.84l.75.81c.26.27.52.53.79.78a4.58,4.58,0,0,0,.43.34c.15.1.33.22.48.16l0,.06c-.21.15-.46,0-.64,0s-.37-.18-.55-.27a8,8,0,0,1-.94-.68c-.3-.23-.56-.5-.84-.75s-.26-.26-.39-.39a2.8,2.8,0,0,1-.42-.53,4.12,4.12,0,0,1-.47-2.41,3.7,3.7,0,0,1,.28-1.17,1.9,1.9,0,0,1,.37-.55.6.6,0,0,1,.36-.16.39.39,0,0,1,.3.16Z" transform="translate(-0.35 -1)"/><path class="cls-7" d="M23.86,32.66a1.13,1.13,0,0,0-.72.61,2.88,2.88,0,0,0-.27.92,7.87,7.87,0,0,0,0,1.94,13.78,13.78,0,0,0,.34,1.92c.09.32.18.63.3.94a2.35,2.35,0,0,0,.47.83l0,0a2,2,0,0,1-.78-.75,5.85,5.85,0,0,1-.48-.93,7.67,7.67,0,0,1-.51-2,5.71,5.71,0,0,1,.14-2.09,3,3,0,0,1,.49-1,1.25,1.25,0,0,1,1-.51Z" transform="translate(-0.35 -1)"/><path class="cls-8" d="M24,39.82c.11,0,.14,0,.14,0a1.15,1.15,0,0,0,0-.21V39c0-.36,0-.72.05-1.08,0-.71.15-1.41.24-2.1s.22-1.38.3-2a4.11,4.11,0,0,0,0-.73,1.4,1.4,0,0,0-.88-.44v-.07a1.46,1.46,0,0,1,1.08.19.79.79,0,0,1,.29.48,3.33,3.33,0,0,1,.07.54A12.88,12.88,0,0,1,25.13,36c-.11.7-.25,1.41-.4,2.11l-.22,1c-.05.18-.08.35-.13.53a.6.6,0,0,1-.13.25.22.22,0,0,1-.3,0Z" transform="translate(-0.35 -1)"/><path class="cls-7" d="M27.05,39a.37.37,0,0,0-.37-.17.6.6,0,0,0-.3.29,3.14,3.14,0,0,0-.31.84,6.76,6.76,0,0,0-.18,1.79,10.06,10.06,0,0,0,.22,1.8,5.9,5.9,0,0,0,.55,1.71l-.06,0a3.68,3.68,0,0,1-1-1.64,6.17,6.17,0,0,1-.39-1.89,5.16,5.16,0,0,1,.35-1.94,2.84,2.84,0,0,1,.53-.89.92.92,0,0,1,.56-.33.46.46,0,0,1,.48.34Z" transform="translate(-0.35 -1)"/><path class="cls-8" d="M26.65,45.26c.07.06.16,0,.1,0s0-.06,0-.13,0-.25,0-.39-.08-.53-.11-.82a8.77,8.77,0,0,1,0-1.7,14.2,14.2,0,0,1,.27-1.65c.06-.27.13-.53.18-.79a1.7,1.7,0,0,0,0-.78l.05,0a2.4,2.4,0,0,1,.32,1.65c0,.56-.09,1.12-.13,1.68s-.11,1.11-.15,1.67a8,8,0,0,1-.09.84,2.1,2.1,0,0,1-.09.42.37.37,0,0,1-.14.19c-.11.05-.19,0-.22-.1Z" transform="translate(-0.35 -1)"/><path class="cls-7" d="M26.59,30.28a1.51,1.51,0,0,1-1.34-.63,3.43,3.43,0,0,1-.61-1.35,7.78,7.78,0,0,1-.09-2.8,21.22,21.22,0,0,1,.57-2.63c.14-.44.28-.87.46-1.3a4,4,0,0,1,.36-.63.67.67,0,0,1,.36-.28c.24,0,.29.18.33.27l-.06,0c-.06-.09-.14-.18-.23-.16s-.14.14-.19.23a3.52,3.52,0,0,0-.22.62c-.11.43-.19.86-.27,1.3-.15.87-.28,1.75-.41,2.63a9.66,9.66,0,0,0-.06,2.63,3.56,3.56,0,0,0,.38,1.25,1.37,1.37,0,0,0,1,.74Z" transform="translate(-0.35 -1)"/><path class="cls-8" d="M26.63,20.93a4.68,4.68,0,0,1,.63,2.42,17,17,0,0,0,.14,2.48,9.38,9.38,0,0,1,.33,2.48,4.43,4.43,0,0,1-.17,1.25,1.34,1.34,0,0,1-.34.54.77.77,0,0,1-.63.18v-.07c.45-.08.56-.41.6-.77a4.77,4.77,0,0,0,0-1.13c-.06-.39-.1-.78-.19-1.17l-.12-.57L26.71,26a9.82,9.82,0,0,1,0-2.6A6.93,6.93,0,0,0,26.57,21Z" transform="translate(-0.35 -1)"/><path class="cls-8" d="M28.49,34a.36.36,0,0,0,.36-.07.79.79,0,0,0,.2-.33,5.06,5.06,0,0,0,.19-.79c.1-.53.18-1.07.31-1.6a7,7,0,0,1,.55-1.55,4.45,4.45,0,0,0,.58-1.5,4.34,4.34,0,0,0-.1-1.6,2.32,2.32,0,0,1,0-.83,2.25,2.25,0,0,0,.15-.79,2,2,0,0,0-.81-1.34c-.21-.18-.43-.34-.65-.5a1.87,1.87,0,0,0-.7-.38l0-.07a1.67,1.67,0,0,1,.85.26c.26.13.51.26.77.42a2.41,2.41,0,0,1,1.1,1.58,1.63,1.63,0,0,1,0,.54,1.15,1.15,0,0,1-.06.25.68.68,0,0,0,0,.14,1.7,1.7,0,0,0,.06.61,4.74,4.74,0,0,1,.15,1.81,4.67,4.67,0,0,1-.28.92,4.11,4.11,0,0,1-.21.42c-.06.12-.14.25-.2.35a7.19,7.19,0,0,0-.6,1.38c-.17.5-.31,1-.48,1.55a6,6,0,0,1-.34.8A1.08,1.08,0,0,1,29,34a.49.49,0,0,1-.48,0Z" transform="translate(-0.35 -1)"/><path class="cls-7" d="M28.55,22.7c-.08,0,0,.19,0,.29s.06.23.1.35l.24.69a7,7,0,0,1,.33,1.44,4.23,4.23,0,0,1-.11,1.46l-.29,1.44c-.21.95-.4,1.91-.55,2.87a14.22,14.22,0,0,0-.14,1.45,4.35,4.35,0,0,0,0,.72c0,.23.11.5.33.57l0,.07a.54.54,0,0,1-.36-.23,1.26,1.26,0,0,1-.18-.37,4.29,4.29,0,0,1-.18-.77,12.73,12.73,0,0,1,0-1.51,17.93,17.93,0,0,1,.4-2.94l.33-1.42a4.34,4.34,0,0,0,.21-1.29,9.58,9.58,0,0,0-.13-1.38l-.11-.73c0-.13,0-.25,0-.38a1.48,1.48,0,0,1,0-.21.26.26,0,0,1,0-.11.15.15,0,0,1,.11-.08Z" transform="translate(-0.35 -1)"/><path class="cls-7" d="M32.8,24.59a.83.83,0,0,0-.8.11.67.67,0,0,0-.14.38,3,3,0,0,0,0,.42,1.52,1.52,0,0,0,.11.82.74.74,0,0,0,.65.46v.07a.88.88,0,0,1-1.15-.29,1.73,1.73,0,0,1-.32-1.1,3.15,3.15,0,0,1,.1-.5l0-.1a1.07,1.07,0,0,1,.07-.19.91.91,0,0,1,.28-.34.87.87,0,0,1,.74-.15.83.83,0,0,1,.47.34Z" transform="translate(-0.35 -1)"/><path class="cls-8" d="M32.58,26.78a1.17,1.17,0,0,0,.78-.3,1.27,1.27,0,0,0,.43-.7.89.89,0,0,0-.27-.74,1.69,1.69,0,0,0-.72-.45l0-.07a1.21,1.21,0,0,1,1.1.15,1.28,1.28,0,0,1,.44.48,1.35,1.35,0,0,1,.13.73,1.37,1.37,0,0,1-.3.63,1.46,1.46,0,0,1-.47.38,1,1,0,0,1-1.14,0Z" transform="translate(-0.35 -1)"/><path class="cls-7" d="M33.27,28.07a.71.71,0,0,0-.56-.21.84.84,0,0,0-.49.34,3.89,3.89,0,0,0-.57,1.11,14.47,14.47,0,0,0-.59,2.44,13,13,0,0,0-.25,2.49A6.48,6.48,0,0,0,31,35.48a1.66,1.66,0,0,0,.59,1l0,.07a1,1,0,0,1-.58-.42,3.1,3.1,0,0,1-.35-.61,5,5,0,0,1-.35-1.3,9.2,9.2,0,0,1,.1-2.63,10,10,0,0,1,.77-2.51,3.92,3.92,0,0,1,.8-1.15,1.17,1.17,0,0,1,.75-.34.74.74,0,0,1,.63.39Z" transform="translate(-0.35 -1)"/><path class="cls-8" d="M31.56,36.52a.4.4,0,0,0,.47-.19,1.92,1.92,0,0,0,.29-.5,11,11,0,0,0,.35-1.11c.22-.75.41-1.51.59-2.27.1-.38.19-.76.3-1.14a4.63,4.63,0,0,1,.19-.56,1.81,1.81,0,0,0,.18-.54,2.72,2.72,0,0,0-.67-2.14l.05-.05a2.16,2.16,0,0,1,.87.95,2.71,2.71,0,0,1,.3,1.32L34,32.61a17,17,0,0,1-.74,2.26,9.4,9.4,0,0,1-.55,1.1,2.3,2.3,0,0,1-.44.51.9.9,0,0,1-.32.17.43.43,0,0,1-.36-.06Z" transform="translate(-0.35 -1)"/><path class="cls-7" d="M29.4,45c-.11.06-.26-.05-.31-.14a.87.87,0,0,1-.14-.27A4.12,4.12,0,0,1,28.8,44,10.07,10.07,0,0,1,28.64,43a13.77,13.77,0,0,1,0-2.13A11.06,11.06,0,0,1,29,38.72a5.35,5.35,0,0,1,.41-1,2.33,2.33,0,0,1,.36-.5.55.55,0,0,1,.33-.17.3.3,0,0,1,.3.17l-.05,0c-.13-.14-.3-.07-.38.08a1.63,1.63,0,0,0-.2.47,7.26,7.26,0,0,0-.22,1c-.1.69-.16,1.38-.21,2.08s-.09,1.39-.12,2.09l0,1.05a4.43,4.43,0,0,0,0,.52c0,.15,0,.39.21.38Z" transform="translate(-0.35 -1)"/><path class="cls-8" d="M30.38,37.18A3.18,3.18,0,0,1,31.45,39a5.37,5.37,0,0,1-.1,2.15,12,12,0,0,1-.73,2c-.15.33-.31.65-.49,1a4.53,4.53,0,0,1-.3.46.86.86,0,0,1-.43.36v-.06a2.82,2.82,0,0,0,.42-.93l.31-1c.19-.67.4-1.33.54-2a7.39,7.39,0,0,0,.24-1.9,3.92,3.92,0,0,0-.57-1.9Z" transform="translate(-0.35 -1)"/><path class="cls-8" d="M29.45,47.27c.18.12.41,0,.56-.16a2,2,0,0,0,.42-.51,1.58,1.58,0,0,0,.33-1.21l.07,0a.89.89,0,0,1,.42.8A1.39,1.39,0,0,1,31,47a1.47,1.47,0,0,1-.65.55,1.26,1.26,0,0,1-.49.1.73.73,0,0,1-.29-.07c-.09,0-.18-.15-.18-.22Z" transform="translate(-0.35 -1)"/><path class="cls-7" d="M30.76,45.39c0-.12-.1-.24-.2-.27s-.22.05-.31.13a2.54,2.54,0,0,0-.44.63,3.6,3.6,0,0,0-.32.69c-.07.23-.17.53,0,.7l-.05.06c-.23,0-.32-.28-.38-.43a1.42,1.42,0,0,1-.07-.49,2,2,0,0,1,.23-.86,1.82,1.82,0,0,1,.69-.69.84.84,0,0,1,.78-.09.41.41,0,0,1,.16.6Z" transform="translate(-0.35 -1)"/><path class="cls-8" d="M36.82,14.7a1.07,1.07,0,0,0,.55.09.71.71,0,0,0,.45-.29,2.85,2.85,0,0,0,.4-1c.08-.37.18-.74.25-1.11a2.09,2.09,0,0,0,.06-.56.38.38,0,0,0-.26-.41l0-.07a.45.45,0,0,1,.39.11,1.13,1.13,0,0,1,.22.35,2.11,2.11,0,0,1,.12.67,5.08,5.08,0,0,1-.12,1.18,2.39,2.39,0,0,1-.64,1.21,1.1,1.1,0,0,1-.83.32.93.93,0,0,1-.64-.38Z" transform="translate(-0.35 -1)"/><path class="cls-7" d="M38.28,11.38a1.52,1.52,0,0,0-1.12.32,2.5,2.5,0,0,0-.7.94,2.32,2.32,0,0,0-.23,1.13,1,1,0,0,0,.59.93l0,.07a1,1,0,0,1-.72-.26,1.49,1.49,0,0,1-.39-.69,2.28,2.28,0,0,1,1.15-2.54,1.37,1.37,0,0,1,1.46,0Z" transform="translate(-0.35 -1)"/><path class="cls-7" d="M38.93,23.49c-.15.06-.36.17-.54,0a1.09,1.09,0,0,1-.24-.48,2.35,2.35,0,0,0-.52-.89,3.35,3.35,0,0,0-.4-.33,1.8,1.8,0,0,1-.38-.4,2.85,2.85,0,0,1-.42-1,7,7,0,0,1-.08-2.1,17.79,17.79,0,0,1,.3-2.07h.07a19.64,19.64,0,0,1,.18,2.1,10.32,10.32,0,0,0,.22,1.91,2.42,2.42,0,0,0,.28.77,1.45,1.45,0,0,0,.21.29,3.46,3.46,0,0,1,.43.43,2.36,2.36,0,0,1,.46,1.14c.08.4-.09.57.4.5Z" transform="translate(-0.35 -1)"/><path class="cls-8" d="M36.66,16.27a.24.24,0,0,1,.06-.14.12.12,0,0,1,.16,0,.69.69,0,0,1,.19.19,4,4,0,0,1,.29.43c.17.3.33.61.47.92.29.62.53,1.26.77,1.9a19.31,19.31,0,0,1,.61,2,6,6,0,0,1,.14,1,1,1,0,0,1-.42.93l0-.07a.89.89,0,0,0,.07-.85,8.78,8.78,0,0,0-.3-.91c-.25-.6-.49-1.22-.73-1.85s-.43-1.27-.62-1.91l-.29-1a3.68,3.68,0,0,0-.15-.47.75.75,0,0,0-.09-.2s0,0,0-.05,0,0-.07.06Z" transform="translate(-0.35 -1)"/><path class="cls-8" d="M46.24,30.06c.18,0,.33-.14.49-.25l.47-.38c.3-.25.61-.51.91-.78A19.25,19.25,0,0,0,49.79,27,4.84,4.84,0,0,0,51,25a1.06,1.06,0,0,0,0-.56,1.34,1.34,0,0,0-.34-.46,2.8,2.8,0,0,0-.95-.69l0-.06a2.38,2.38,0,0,1,1.2.5,3,3,0,0,1,.26.21,1.07,1.07,0,0,1,.25.34,1.47,1.47,0,0,1,.14.81,4.6,4.6,0,0,1-1.21,2.35,11.56,11.56,0,0,1-1.85,1.65,11.38,11.38,0,0,1-1,.66c-.19.1-.37.2-.56.28s-.41.24-.66.14Z" transform="translate(-0.35 -1)"/><path class="cls-7" d="M49.67,23.25a.9.9,0,0,0-.71.53,8.69,8.69,0,0,0-.46.86c-.3.61-.63,1.2-.9,1.79s-.56,1.2-.83,1.81c-.13.31-.27.62-.38.93-.06.15-.11.31-.16.46s-.09.32,0,.43l0,.07C46,30,46,29.81,46,29.64a4.53,4.53,0,0,1,0-.52,6.85,6.85,0,0,1,.22-1,11.89,11.89,0,0,1,.73-2A14.15,14.15,0,0,1,48,24.34a5.22,5.22,0,0,1,.67-.82,1,1,0,0,1,1-.33Z" transform="translate(-0.35 -1)"/><path class="cls-8" d="M47.59,35.67c.12,0,.22-.06.3-.16a2.74,2.74,0,0,0,.19-.34,6.92,6.92,0,0,0,.28-.76l.49-1.54c.17-.51.34-1,.49-1.53a4,4,0,0,0,.24-1.56l.07,0a1.61,1.61,0,0,1,.25.86,4.91,4.91,0,0,1,0,.86,9.5,9.5,0,0,1-.35,1.6,10.76,10.76,0,0,1-.63,1.51,5.3,5.3,0,0,1-.47.73,2.14,2.14,0,0,1-.34.33.73.73,0,0,1-.23.13.27.27,0,0,1-.28,0Z" transform="translate(-0.35 -1)"/><path class="cls-7" d="M49.58,29.78c-.13-.16-.19-.05-.3,0a3.66,3.66,0,0,0-.31.35c-.19.25-.42.54-.65.79-.45.52-1,1-1.29,1.41a.76.76,0,0,0-.18.56,3.1,3.1,0,0,0,.16.82c.11.32.21.67.29,1a3.34,3.34,0,0,0,.29.94l0,.06A2,2,0,0,1,47,34.9L46.51,34a3.05,3.05,0,0,1-.32-1,1.41,1.41,0,0,1,.26-1A9.21,9.21,0,0,1,48,30.56l.79-.67a2,2,0,0,1,.44-.29.5.5,0,0,1,.28,0c.1,0,.17.12.19.2Z" transform="translate(-0.35 -1)"/><path class="cls-8" d="M46.1,46.77c.13.08.24,0,.29-.14a1.8,1.8,0,0,0,.1-.4l.13-.84c.09-.55.17-1.11.23-1.67a7.19,7.19,0,0,0,0-1.67,1.87,1.87,0,0,0-.27-.77,2.53,2.53,0,0,0-.58-.6,2.09,2.09,0,0,1-.7-1.56.48.48,0,0,1,.26-.38.73.73,0,0,1,.46,0,.27.27,0,0,0,.33-.09.66.66,0,0,0,.09-.37,5.5,5.5,0,0,0-.37-1.63c-.1-.27-.2-.53-.32-.78s-.25-.55-.53-.56v-.07c.36,0,.61.31.75.53s.31.5.45.76A5.38,5.38,0,0,1,47,38.27a1.1,1.1,0,0,1-.15.69.77.77,0,0,1-.48.35,1.13,1.13,0,0,1-.45,0h-.08c.09,0,.13-.14.12-.09a1.11,1.11,0,0,0,.15.46,2.11,2.11,0,0,0,.39.5l.13.12.2.19a2.26,2.26,0,0,1,.35.44,2.46,2.46,0,0,1,.34,1,6.65,6.65,0,0,1-.15,1.82A15.65,15.65,0,0,1,47,45.45l-.27.82a1.52,1.52,0,0,1-.18.42.47.47,0,0,1-.21.18.24.24,0,0,1-.26,0Z" transform="translate(-0.35 -1)"/><path class="cls-7" d="M45.26,35.3c-.26.07-.41.31-.56.53a6,6,0,0,0-.36.72c-.22.5-.4,1-.59,1.53s-.43,1.05-.55,1.53a1.91,1.91,0,0,0,0,1.27,4.81,4.81,0,0,0,.72,1.32,12.09,12.09,0,0,1,.81,1.55l.66,1.55a5.29,5.29,0,0,0,.72,1.47l0,.06a2.21,2.21,0,0,1-.58-.64c-.15-.23-.29-.47-.43-.72L44.24,44c-.28-.49-.56-1-.88-1.43a5.55,5.55,0,0,1-.84-1.48,2.55,2.55,0,0,1,0-1.68,16.45,16.45,0,0,1,.67-1.55A14.15,14.15,0,0,1,44,36.37a4.18,4.18,0,0,1,.5-.69,1.11,1.11,0,0,1,.73-.45Z" transform="translate(-0.35 -1)"/><path class="cls-8" d="M40.33,47.59c.18,0,.24-.22.29-.38a3.75,3.75,0,0,0,.09-.57l.15-1.14c.11-.75.22-1.51.28-2.27A5.18,5.18,0,0,0,41,41a6.13,6.13,0,0,0-.52-1,3.83,3.83,0,0,0-.33-.46.56.56,0,0,0-.47-.24V39.2a.69.69,0,0,1,.66.14,3.94,3.94,0,0,1,.47.44,4.89,4.89,0,0,1,.72,1,4.7,4.7,0,0,1,.37,2.48,13.17,13.17,0,0,1-.43,2.3c-.09.37-.21.74-.33,1.11a5.23,5.23,0,0,1-.23.57,1.21,1.21,0,0,1-.18.28c-.07.09-.24.18-.35.11Z" transform="translate(-0.35 -1)"/><path class="cls-7" d="M39.63,39.26c-.37.12-.58.51-.8.83a7.07,7.07,0,0,0-.58,1,2.89,2.89,0,0,0-.07,2.27c.25.75.66,1.45,1,2.18.17.36.33.73.51,1.08a5.29,5.29,0,0,0,.29.52c.11.16.22.35.39.41v.06a1,1,0,0,1-.58-.35,3.8,3.8,0,0,1-.42-.48,9.52,9.52,0,0,1-.68-1c-.22-.34-.39-.69-.59-1a8.23,8.23,0,0,1-.54-1.16,3.72,3.72,0,0,1-.19-1.38,3.06,3.06,0,0,1,.42-1.32,5.12,5.12,0,0,1,.77-1,4,4,0,0,1,.48-.43,1,1,0,0,1,.62-.26Z" transform="translate(-0.35 -1)"/><path class="cls-8" d="M33.51,48.79A2.88,2.88,0,0,0,35,48.33a4.4,4.4,0,0,0,1.24-.89,2,2,0,0,0,.61-1.33,3.74,3.74,0,0,0,0-.75.9.9,0,0,0-.31-.65l0-.06c.34.06.51.4.63.65a2.6,2.6,0,0,1,.22.84,2.25,2.25,0,0,1-.12,1,2.62,2.62,0,0,1-.52.81,3.51,3.51,0,0,1-1.51.91,4.64,4.64,0,0,1-.82.19,1.38,1.38,0,0,1-.89-.14Z" transform="translate(-0.35 -1)"/><path class="cls-7" d="M36.48,44.71a.7.7,0,0,0-.66.13,3.54,3.54,0,0,0-.58.44,7,7,0,0,0-1,1.07,6.72,6.72,0,0,0-.76,1.22,2.45,2.45,0,0,0-.24.67c0,.22,0,.5.24.55l0,.07a.44.44,0,0,1-.44-.21,1,1,0,0,1-.14-.46,2.55,2.55,0,0,1,.09-.84,4.21,4.21,0,0,1,.71-1.4,7.08,7.08,0,0,1,.52-.59,3.69,3.69,0,0,1,.64-.48,3.45,3.45,0,0,1,.75-.35,1.76,1.76,0,0,1,.46-.06.52.52,0,0,1,.42.18Z" transform="translate(-0.35 -1)"/><path class="cls-8" d="M35.82,30.85c0,.06.09,0,.14-.05a1.28,1.28,0,0,0,.11-.2c.07-.15.13-.29.19-.44l.37-.89a4.6,4.6,0,0,0,.56-1.8,3.13,3.13,0,0,0-.48-1.8c-.16-.28-.33-.55-.51-.82l-.26-.41c-.09-.13-.16-.29-.29-.35l0-.06a1,1,0,0,1,.46.29l.37.33a6.15,6.15,0,0,1,.68.76,3.64,3.64,0,0,1,.53.95,3.13,3.13,0,0,1,.18,1.14,3.62,3.62,0,0,1-.27,1.1,6.43,6.43,0,0,1-.49.88q-.26.4-.54.81c-.1.14-.19.27-.31.41a1.84,1.84,0,0,1-.2.19.43.43,0,0,1-.15.09.15.15,0,0,1-.17-.08Z" transform="translate(-0.35 -1)"/><path class="cls-7" d="M35.66,24.09c-.13-.05-.22.11-.27.23a2.21,2.21,0,0,0-.12.42,6.56,6.56,0,0,0-.09.88,13.08,13.08,0,0,0,0,1.77c0,.58.12,1.17.21,1.75a6.76,6.76,0,0,0,.38,1.71l0,0a2.33,2.33,0,0,1-.55-.81,7.58,7.58,0,0,1-.33-.86,8.36,8.36,0,0,1-.36-1.79,7.21,7.21,0,0,1,.09-1.85,4.61,4.61,0,0,1,.28-.92,3.37,3.37,0,0,1,.26-.44.77.77,0,0,1,.21-.19c.07-.06.26-.08.31,0Z" transform="translate(-0.35 -1)"/><path class="cls-7" d="M39.08,28.74c-.22,0-.4.15-.55.31a3.49,3.49,0,0,0-.42.53,4.08,4.08,0,0,0-.54,1.23,4.26,4.26,0,0,0-.16,1.33,2.87,2.87,0,0,0,.12.65c.08.2.21.42.43.45v.06a.5.5,0,0,1-.44-.07,1.19,1.19,0,0,1-.32-.31,2.31,2.31,0,0,1-.33-.74,3.21,3.21,0,0,1,0-1.54,3.33,3.33,0,0,1,.75-1.35,2.44,2.44,0,0,1,.62-.49,1.67,1.67,0,0,1,.38-.17.51.51,0,0,1,.45.05Z" transform="translate(-0.35 -1)"/><path class="cls-8" d="M38,33.24a.71.71,0,0,0,.51-.33,3.87,3.87,0,0,0,.34-.55,5.46,5.46,0,0,0,.43-1.21,6.11,6.11,0,0,0,.2-1.27,3.39,3.39,0,0,0,0-.64c0-.2-.11-.43-.31-.5l0-.06a.53.53,0,0,1,.41.15,1.61,1.61,0,0,1,.24.34,2.38,2.38,0,0,1,.24.71,3.61,3.61,0,0,1-.06,1.43,3.53,3.53,0,0,1-.63,1.29,1.68,1.68,0,0,1-.25.29l-.13.11-.16.13a1.43,1.43,0,0,1-.37.19.53.53,0,0,1-.43,0Z" transform="translate(-0.35 -1)"/><path class="cls-8" d="M39.32,27.2a.38.38,0,0,0,.38.05A.72.72,0,0,0,40,27a2.68,2.68,0,0,0,.26-.8,4,4,0,0,0,.09-.84,1.12,1.12,0,0,0-.19-.79l0-.05a.69.69,0,0,1,.49.35,1.74,1.74,0,0,1,.22.48,2.17,2.17,0,0,1,0,1,2,2,0,0,1-.47.94,1.15,1.15,0,0,1-.59.36.49.49,0,0,1-.58-.33Z" transform="translate(-0.35 -1)"/><path class="cls-7" d="M40.13,24.53c-.11-.07-.24,0-.34.09a1.58,1.58,0,0,0-.27.31,3.45,3.45,0,0,0-.36.75,2.46,2.46,0,0,0-.15.8.89.89,0,0,0,.31.72l0,.05c-.42,0-.75-.4-.82-.75a1.75,1.75,0,0,1,0-1,1.92,1.92,0,0,1,.56-.83,1.39,1.39,0,0,1,.49-.29.82.82,0,0,1,.33-.05.61.61,0,0,1,.18.05.17.17,0,0,1,.1.13Z" transform="translate(-0.35 -1)"/><path class="cls-7" d="M42.49,29c-.45.73-.94,1.44-1.44,2.14A5.36,5.36,0,0,0,40,33.35a9.75,9.75,0,0,0,.2,2.52c.07.42.14.84.24,1.26a5.94,5.94,0,0,0,.18.6c.08.19.17.41.35.49l0,.06a.94.94,0,0,1-.55-.46,5.07,5.07,0,0,1-.32-.61A9.66,9.66,0,0,1,39.61,36c-.13-.42-.2-.84-.3-1.26a4.91,4.91,0,0,1-.05-1.44,4,4,0,0,1,.51-1.39,8.61,8.61,0,0,1,.82-1.09,24.81,24.81,0,0,1,1.84-1.86Z" transform="translate(-0.35 -1)"/><path class="cls-8" d="M40.92,38.22c.21.06.38-.17.5-.34a3.42,3.42,0,0,0,.33-.59A6.42,6.42,0,0,0,42.18,36c.09-.44.14-.89.19-1.34a5.07,5.07,0,0,1,.11-.68,1,1,0,0,1,.38-.61c.2-.16.5-.15.67-.22a.69.69,0,0,0,.26-.54,4,4,0,0,0-.17-1.32A10.75,10.75,0,0,0,43.17,30c-.1-.21-.19-.42-.3-.61a2.82,2.82,0,0,0-.18-.29c0-.08-.17-.21-.2-.17l-.06,0c0-.05.09-.07.13-.06l.11.05.15.12a3.2,3.2,0,0,1,.25.27,6.31,6.31,0,0,1,.44.58,9,9,0,0,1,.63,1.28,3.58,3.58,0,0,1,.31,1.52,1.23,1.23,0,0,1-.11.5,1.1,1.1,0,0,1-.48.56.84.84,0,0,1-.19.08l-.12,0h0l-.1,0h0a.14.14,0,0,0-.09,0c-.07,0-.2.38-.25.81a10.44,10.44,0,0,1-.31,1.38,5.34,5.34,0,0,1-.63,1.32,4.18,4.18,0,0,1-.47.57,1.54,1.54,0,0,1-.31.25.46.46,0,0,1-.41,0Z" transform="translate(-0.35 -1)"/><path class="cls-8" d="M36.32,39.83c.14.08.23-.14.28-.28a3.62,3.62,0,0,0,.13-.47c.06-.33.1-.66.16-1a12.67,12.67,0,0,1,.5-2,.92.92,0,0,0-.13-.9,9.11,9.11,0,0,0-.64-.78,1.17,1.17,0,0,1-.32-1,.29.29,0,0,0-.13-.39,2.3,2.3,0,0,0-.43-.25l0-.07a1.91,1.91,0,0,1,.55.13.53.53,0,0,1,.29.26,1,1,0,0,1,.06.39.4.4,0,0,0,.12.27,3.45,3.45,0,0,0,.27.29,5.42,5.42,0,0,1,.76.76,1.52,1.52,0,0,1,.31.69,1.82,1.82,0,0,1-.07.74c-.23.7-.42,1.23-.63,1.86a9.45,9.45,0,0,1-.34,1,3.2,3.2,0,0,1-.26.48,1.12,1.12,0,0,1-.21.23.35.35,0,0,1-.16.09.21.21,0,0,1-.17-.06Z" transform="translate(-0.35 -1)"/><path class="cls-7" d="M35.74,32.86a.54.54,0,0,0-.46,0,.57.57,0,0,0-.26.37,3.1,3.1,0,0,0-.08,1,12.67,12.67,0,0,0,.24,2c.12.65.26,1.29.43,1.93.09.32.17.64.28.95a2,2,0,0,0,.43.85l0,.06c-.39-.16-.55-.51-.75-.8a7.18,7.18,0,0,1-.46-.92,9.44,9.44,0,0,1-.59-1.94,7.91,7.91,0,0,1-.11-2.07,3,3,0,0,1,.29-1.08.93.93,0,0,1,.5-.47.59.59,0,0,1,.6.18Z" transform="translate(-0.35 -1)"/><path class="cls-7" d="M32.78,45.4a4.12,4.12,0,0,1-.28-1.94,10.85,10.85,0,0,1,.8-3.67,6.24,6.24,0,0,1,.41-.87A4.78,4.78,0,0,1,34,38.5l.15-.21.1-.1,0,0,.05,0a.08.08,0,0,1,.07,0s0,.06,0,.08h-.07a.1.1,0,0,0,0,0s0,0,0,0,0,.07,0,.1l-.07.22-.14.45-.23.9c-.14.6-.28,1.21-.4,1.81S33.16,43,33,43.56a8.07,8.07,0,0,0-.19,1.83Z" transform="translate(-0.35 -1)"/><path class="cls-8" d="M34.38,38.26a12.72,12.72,0,0,0,.37,2,11.54,11.54,0,0,1,.48,2,1.43,1.43,0,0,1-.35,1,7.26,7.26,0,0,0-.71.76c-.22.27-.43.55-.63.83s-.21.28-.33.41a.69.69,0,0,1-.19.19s-.1.06-.16,0a.19.19,0,0,1-.08-.14h.07s.06.07.07,0,0,0,0-.06a1.39,1.39,0,0,0,.1-.21l.2-.47a7.86,7.86,0,0,1,.5-1,3,3,0,0,1,.33-.46c.12-.16.27-.31.31-.38a.78.78,0,0,0,.15-.57,3.9,3.9,0,0,0-.13-.89c0-.33-.14-.67-.17-1a5.39,5.39,0,0,1,.09-2.15Z" transform="translate(-0.35 -1)"/></g></g></svg>