<?xml version="1.0" encoding="utf-8"?>
<!-- Generator: Adobe Illustrator 24.1.2, SVG Export Plug-In . SVG Version: 6.00 Build 0)  -->
<svg version="1.1" id="Layer_1" xmlns="http://www.w3.org/2000/svg" xmlns:xlink="http://www.w3.org/1999/xlink" x="0px" y="0px"
	 viewBox="0 0 65.4 69.5" style="enable-background:new 0 0 65.4 69.5;" xml:space="preserve">
<style type="text/css">
	.st0{fill:#39171E;}
	.st1{fill:#48282F;}
	.st2{fill:#4F3A94;}
	.st3{fill:#44242A;}
	.st4{fill:#7D0000;}
	.st5{fill:#B50000;}
	.st6{fill:#EF3030;}
</style>
<g>
	<g id="Layer_1_1_">
		<path class="st0" d="M44.4,36c0,5.3,0.1,11.2,0.7,14.4s7.5,7.5,8.9,8.5s-1,2-2.6,1.5s-2.9-0.5-4,2.6s-3.6,2.1-4.7,1.2
			s-2.6-1.5-3.4,0.8c-0.4,1.6-2.1,2.6-3.7,2.2c-0.6-0.2-1.1-0.5-1.5-0.9c-1.8-1.9-3.3-0.1-4.2,1.5s-3.4,1.2-3.9-1.1
			s-1.9-2.9-3.9-2.7s-3.4,0.2-3.1-1.5s0.4-1.9-1.4-2.8s0.2-2.2,4.4-4.5s3.2-5.3,2.6-9.2c-0.9-6.2-1.8-19.9-1.8-19.9
			s14.9,0.8,20.8-1.9C44.2,28.2,44.5,32.1,44.4,36z"/>
		<path class="st1" d="M16.8,59.3c-0.1-0.2,0-0.5,0.1-0.7c0.1-0.2,0.2-0.4,0.4-0.5c0.3-0.3,0.6-0.5,0.9-0.8c0.6-0.5,1.3-0.9,2-1.3
			c1.3-0.8,2.8-1.4,3.8-2.5c0.5-0.6,0.8-1.3,0.9-2c0.1-0.7,0.1-1.5,0-2.2c-0.2-1.5-0.5-3.1-0.7-4.6c-0.4-3.1-0.6-6.2-0.9-9.3
			s-0.5-6.2-0.6-9.3H23c1.1,3,2,6,2.6,9.1c0.6,3,1.1,6.1,1.4,9.1c0.2,1.5,0.4,2.9,0.5,4.7c0.1,1,0,2-0.2,3c-0.1,0.6-0.4,1.1-0.6,1.6
			c-0.3,0.5-0.6,0.9-1,1.3c-0.7,0.7-1.6,1.3-2.5,1.6c-0.4,0.2-0.8,0.3-1.1,0.4l-1.1,0.4c-0.7,0.2-1.5,0.5-2.2,0.7
			c-0.3,0.1-0.7,0.3-1,0.4c-0.3,0.2-0.6,0.3-0.6,0.6L16.8,59.3z"/>
		<path class="st2" d="M54.4,59.3c0.1,0.1,0.1,0.3,0.1,0.4c0,0.2-0.1,0.3-0.2,0.4c-0.2,0.2-0.5,0.4-0.7,0.5
			c-0.5,0.2-1.1,0.3-1.7,0.3c-0.6,0-1.1-0.2-1.5-0.2c-0.4,0-0.8,0.1-1.1,0.4c-0.3,0.3-0.6,0.7-0.8,1.1c-0.1,0.2-0.2,0.5-0.3,0.7
			L48,63.2c-0.1,0.2-0.1,0.2-0.2,0.4c-0.2,0.6-0.6,1.1-1.1,1.5c-0.5,0.4-1.2,0.6-1.9,0.6c-0.6-0.1-1.2-0.3-1.7-0.6
			c-0.2-0.2-0.5-0.3-0.7-0.6c-0.2-0.2-0.3-0.3-0.5-0.5c-0.3-0.3-0.8-0.4-1.2-0.3c-0.4,0.2-0.8,0.6-0.9,1c-0.1,0.2-0.2,0.5-0.3,0.7
			c-0.1,0.3-0.3,0.5-0.4,0.7c-0.3,0.5-0.8,0.8-1.3,1.1c-1.1,0.5-2.3,0.5-3.3-0.2c-0.2-0.2-0.5-0.3-0.7-0.5c-0.2-0.2-0.4-0.3-0.6-0.4
			c-0.3-0.2-0.7-0.2-1,0c-0.4,0.2-0.7,0.5-1,0.9c-0.3,0.4-0.6,0.8-0.8,1.3c-0.4,0.6-1.1,1-1.8,1.1c-0.7,0.1-1.4-0.1-2-0.5
			c-0.6-0.4-1-1-1.2-1.6c-0.1-0.3-0.1-0.6-0.2-0.8c-0.1-0.2-0.2-0.4-0.2-0.6c-0.4-0.7-1.1-1.2-1.9-1.2c-0.2,0-0.5,0-0.7,0l-0.8,0.1
			c-0.6,0-1.2,0-1.8-0.2c-0.4-0.1-0.7-0.3-0.9-0.7c-0.2-0.3-0.3-0.7-0.2-1.1c0-0.3,0.1-0.6,0.2-0.8c0.1-0.2,0.1-0.5,0.1-0.7
			c0-0.2,0-0.4-0.1-0.5c-0.2-0.2-0.3-0.3-0.5-0.5c-0.2-0.2-0.4-0.3-0.7-0.4c-0.3-0.1-0.5-0.4-0.6-0.7l0.1,0c0.2,0.4,0.8,0.5,1.3,0.7
			c0.3,0.1,0.5,0.3,0.7,0.5c0.3,0.2,0.4,0.6,0.4,0.9c0,0.3,0,0.6,0,0.9c0,0.2,0,0.5,0,0.7c0,0.2,0,0.3,0.1,0.5
			c0.1,0.1,0.2,0.2,0.4,0.2c0.5,0.1,0.9,0.1,1.4,0l0.8-0.1c0.3,0,0.6-0.1,0.9-0.1c0.6,0,1.3,0.1,1.9,0.4c0.6,0.3,1.1,0.8,1.4,1.4
			c0.2,0.3,0.3,0.6,0.4,0.9c0.1,0.3,0.1,0.6,0.2,0.8c0.1,0.4,0.3,0.7,0.6,0.9c0.5,0.5,1.3,0.4,1.8-0.1c0,0,0,0,0,0
			c0.6-1,1.4-1.9,2.4-2.4c0.3-0.1,0.7-0.2,1-0.2c0.4,0,0.7,0.2,1,0.3c0.3,0.2,0.5,0.4,0.7,0.6c0.2,0.2,0.3,0.4,0.5,0.5
			c0.7,0.6,1.8,0.8,2.7,0.4c0.4-0.2,0.8-0.5,1.1-0.9c0.3-0.4,0.5-0.9,0.7-1.4c0.2-0.6,0.6-1,1.2-1.3c0.6-0.2,1.3-0.2,1.8,0.2
			c0.3,0.1,0.5,0.3,0.7,0.5c0.2,0.1,0.4,0.3,0.6,0.4c0.4,0.2,0.8,0.3,1.3,0.3c0.4,0,0.8-0.1,1.1-0.4c0.3-0.3,0.6-0.6,0.7-1
			c0.3-1.1,0.9-2.1,1.8-2.9c0.5-0.4,1.2-0.6,1.9-0.5c0.5,0.1,1.1,0.2,1.6,0.4c0.5,0.1,1,0.1,1.4,0c0.2,0,0.5-0.1,0.7-0.3
			c0.2-0.1,0.3-0.3,0.2-0.5L54.4,59.3z"/>
		<path class="st3" d="M43.8,24.3c0.6,3.2,0.9,6.5,0.9,9.8c0.1,3.3,0.1,6.5,0.2,9.8c0,1.6,0.1,3.2,0.3,4.8c0,0.4,0.1,0.8,0.2,1.2
			c0,0.2,0.1,0.4,0.1,0.6c0,0.2,0.1,0.3,0.2,0.5c0.3,0.7,0.8,1.4,1.3,1.9c1.1,1.2,2.3,2.3,3.6,3.2c0.6,0.5,1.3,1,2,1.5l1,0.7
			l0.5,0.4c0.1,0.1,0.2,0.1,0.3,0.2c0.1,0.1,0.2,0.2,0.2,0.3l-0.4,0.2c-0.3-0.1-0.7-0.2-1.2-0.2l-1.3-0.3c-0.8-0.2-1.7-0.5-2.5-0.8
			c-1.7-0.7-3.3-1.6-4.8-2.8c-0.9-0.7-1.7-1.7-2.2-2.7c-0.2-0.4-0.3-0.8-0.5-1.2v-0.1v-0.1v-0.1l0,0v-0.2l-0.1-0.3
			c-0.1-0.5-0.2-0.9-0.3-1.4c-0.2-0.9-0.3-1.8-0.4-2.6s-0.1-1.7-0.2-2.5s0-1.7,0-2.5s0-1.7,0.1-2.5s0.1-1.7,0.2-2.5s0.2-1.6,0.3-2.4
			c0.5-3.3,1.2-6.6,2.1-9.8L43.8,24.3z"/>
		<g>
			<defs>
				<path id="SVGID_1_" d="M44.4,36c0,5.3,0.1,11.2,0.7,14.4s7.5,7.5,8.9,8.5s-1,2-2.6,1.5s-2.9-0.5-4,2.6s-3.6,2.1-4.7,1.2
					s-2.6-1.5-3.4,0.8c-0.4,1.6-2.1,2.6-3.7,2.2c-0.6-0.2-1.1-0.5-1.5-0.9c-1.8-1.9-3.3-0.1-4.2,1.5s-3.4,1.2-3.9-1.1
					s-1.9-2.9-3.9-2.7s-3.4,0.2-3.1-1.5s0.4-1.9-1.4-2.8s0.2-2.2,4.4-4.5s3.2-5.3,2.6-9.2c-0.9-6.2-1.8-19.9-1.8-19.9
					s14.9,0.8,20.8-1.9C44.2,28.2,44.5,32.1,44.4,36z"/>
			</defs>
			<clipPath id="SVGID_2_">
				<use xlink:href="#SVGID_1_"  style="overflow:visible;"/>
			</clipPath>
		</g>
		<path class="st4" d="M19,24.4h0.2c0.8,0.1,1.5-0.5,1.5-1.3c0.1-0.8-0.5-1.5-1.3-1.5l0,0h-0.6c-0.2-0.7-0.9-1.1-1.7-0.9l0,0
			c-1.1,0.2-2.1,0.6-3.2,1c-1.6,0.2-3.2,0.5-4.7,1c-1.5,0.6-3.1,0.9-4.7,1.1c-1.6-0.1-3.2-0.7-4.5-1.6c1.2,1.2,2.8,2,4.4,2.3
			c1.7,0.1,3.4,0,5.1-0.4l0.6,0c-1.3,1.1-2.2,2.5-2.9,4c-0.8,1.9-1.1,3.9-1.2,6c0,2,0.1,4,0.4,5.9c-0.1-2,0-4,0.2-5.9
			c0.2-1.9,0.8-3.7,1.7-5.4c0.9-1.6,2.2-2.9,3.8-3.7c0.9-0.5,2-0.9,3-1.1C16.6,23.9,17.8,24.1,19,24.4z"/>
		<path class="st4" d="M33.9,21c0.6,0.4,1.5,0.3,2-0.4c0,0,0,0,0-0.1l0.1-0.1c0.7-1.1,1.1-2.3,1.4-3.5c0.3-1.1,0.5-2.3,0.5-3.5
			c0.1-1.2,0.1-2.3,0-3.5c-0.1-1.1-0.3-2.3-0.6-3.4c0.1,1.1,0,2.2-0.1,3.3c-0.2,1.1-0.4,2.2-0.7,3.2c-0.3,1-0.7,2-1.2,3
			c-0.4,0.9-1,1.7-1.7,2.5c-0.1,0.1-0.1,0.2-0.2,0.2C33.1,19.6,33.2,20.5,33.9,21C33.9,21,33.9,21,33.9,21z"/>
		<path class="st4" d="M53.7,35c-1.4-1.1-2.7-2.3-3.8-3.7c-1.1-1.4-2.1-3-3-4.5c-1-1.7-2.2-3.2-3.6-4.6l0,0
			c-0.1-0.1-0.1-0.1-0.2-0.1c-0.6-0.4-1.5-0.3-2,0.4c0,0,0,0,0,0c-0.1,0.2-0.2,0.5-0.2,0.7l0,0l0,0L40.8,23c-0.6-0.5-1.5-0.4-2,0.1
			c-0.5,0.6-0.4,1.5,0.1,2c0.7,0.6,1.3,1.1,1.9,1.7s1.2,1.1,1.7,1.8c1.1,1.3,2.1,2.7,3,4.1c1.8,3,2.9,6.3,3.3,9.7
			c0-3.6-0.7-7.1-2.1-10.3c-0.7-1.7-1.5-3.3-2.5-4.8c-0.5-0.7-1-1.5-1.5-2.2c0.9,0.9,1.7,1.8,2.5,2.8c1.1,1.5,2.4,2.9,3.7,4.2
			c1.3,1.3,2.8,2.5,4.5,3.4c1.6,0.9,3.4,1.5,5.2,1.8C56.8,36.9,55.2,36.1,53.7,35z"/>
		<path class="st4" d="M35.8,29c0-2,0.2-4.1,0.5-6.1c0-0.1,0-0.1,0-0.2c0-0.8-0.6-1.4-1.4-1.4c-0.8,0-1.4,0.6-1.4,1.4c0,0,0,0,0,0
			l0,0c-0.1,4.2,0.3,8.5,1.3,12.6c1,4.1,2.9,7.9,5.6,11.2c-2.3-3.4-3.7-7.4-4.2-11.5C35.9,33,35.8,31,35.8,29z"/>
		<path class="st4" d="M39.9,22.1c1.8-0.5,3.7-0.7,5.5-0.4c1.9,0.3,3.7,0.9,5.4,1.9c3.5,2,6.1,5.2,7.4,9c-0.4-2-1.2-3.9-2.3-5.6
			c-1.1-1.8-2.6-3.3-4.3-4.5c-1.7-1.3-3.7-2.2-5.8-2.8c-2.1-0.5-4.4-0.6-6.5-0.2l0,0h-0.2c-0.8,0.2-1.2,1-1,1.8
			C38.4,21.9,39.2,22.3,39.9,22.1L39.9,22.1z"/>
		<path class="st4" d="M21.6,24.4L21.6,24.4c-1.2,0.3-2.2,0.8-3.2,1.4c-0.9,0.6-1.8,1.4-2.5,2.2c-1.3,1.7-2.2,3.7-2.6,5.9
			c-0.4,2-0.5,4.1-0.2,6.2c0.2,2,0.7,4,1.4,5.9c-0.5-2-0.7-4-0.7-6c0-2,0.3-3.9,0.9-5.8c0.5-1.8,1.5-3.5,2.8-4.8
			c1.3-1.2,2.9-2,4.6-2.2h0.2c0.8-0.2,1.2-1,1-1.7C23.1,24.7,22.4,24.2,21.6,24.4L21.6,24.4L21.6,24.4z"/>
		<path class="st4" d="M28.2,18c-3.1-0.9-6-2.2-8.8-3.8c-1.4-0.9-2.5-1.9-3.5-3.2c-1-1.3-1.7-2.8-2.1-4.3c0.2,1.7,0.7,3.3,1.6,4.7
			c0.9,1.5,2,2.8,3.3,3.9c2.6,2.1,5.5,3.9,8.6,5.3l0.2,0.1c0.7,0.4,1.6,0.1,1.9-0.6c0.4-0.7,0.1-1.6-0.6-1.9
			C28.5,18.1,28.4,18,28.2,18z"/>
		<path class="st4" d="M32.5,18.1c-2.4-1.6-4.1-4-4.9-6.7C27.2,9.9,27,8.4,27,6.9c0-1.5,0.1-3,0.5-4.5c-0.6,1.4-1,2.9-1.3,4.5
			c-0.2,1.6-0.2,3.2,0,4.7c0.2,1.6,0.7,3.2,1.5,4.6c0.8,1.5,1.8,2.8,3,4h0l0.2,0.1c0.6,0.5,1.5,0.3,2-0.3
			C33.4,19.4,33.2,18.5,32.5,18.1L32.5,18.1L32.5,18.1z"/>
		<path class="st4" d="M56.6,12c-0.8,0.6-1.7,1.1-2.6,1.4c-1.9,0.6-3.9,0.9-5.9,0.9h-0.3c0.4-0.9,0.8-1.7,1.1-2.6l0,0
			c0.4,0.1,0.8,0.2,1.2,0.3c-0.4-0.2-0.8-0.3-1.1-0.4c0.5-1.4,1.2-2.6,2.3-3.6c-1.2,0.9-2.2,2.1-2.8,3.4l-0.4-0.1
			c-0.4-0.4-0.9-0.8-1.4-1.1c0.1-0.3,0.3-0.6,0.4-0.9c0.6-1.4,1.7-2.5,3-3.2c-0.7,0.3-1.4,0.7-2,1.2c-0.6,0.5-1.1,1.1-1.5,1.8
			c-0.2,0.3-0.4,0.6-0.5,0.9c-0.4-0.2-0.8-0.3-1.2-0.4c0.2-0.7,0.3-1.4,0.3-2.1c-0.1,0.7-0.3,1.4-0.6,2.1c-0.4-0.1-0.8-0.1-1.2-0.1
			c-0.4,0-0.9,0-1.3,0c0-0.3,0-0.7-0.1-1c-0.4-1.4-1.1-2.7-2-3.8c0.7,1.2,1.2,2.5,1.4,3.9c0,0.3,0,0.7,0,1c-1.3,0.2-2.5,0.7-3.5,1.4
			c-1.2,0.9-2.2,2-2.8,3.3c-0.2,0.2-0.4,0.4-0.6,0.6c0-0.2-0.1-0.5-0.2-0.7s0.2-0.3,0.2-0.5c0.7-1.4,1.2-3,1.4-4.6
			c0.1-1.6,0-3.2-0.4-4.8c0.2,1.6,0.1,3.2-0.2,4.8c-0.3,1.4-0.8,2.7-1.5,3.9c-0.2-0.6-0.5-1.1-0.9-1.6c0.6-1,1-2,1.3-3.1
			c-0.4,1-0.9,1.9-1.5,2.7c-0.2-0.3-0.4-0.5-0.6-0.8c-0.9-1.1-2.1-1.9-3.3-2.5c1.2,0.7,2.2,1.7,2.9,2.8c0.2,0.3,0.4,0.7,0.6,1
			l-0.3,0.4c-0.9,1.1-1.9,2.2-2.7,3.4c-0.1,0.1-0.2,0.3-0.3,0.4l-0.2-0.1L27.7,15c0.2-0.9,0.2-1.9-0.2-2.8c0.2,0.9,0.1,1.7-0.3,2.6
			c-0.5-0.2-0.9-0.5-1.3-0.8c-0.8-0.8-1.4-1.8-1.7-2.8c0.2,1.2,0.6,2.3,1.4,3.2c0.4,0.4,0.8,0.8,1.3,1.2l-0.4,0.6l-0.8-0.4
			c-0.3-0.3-0.5-0.7-0.8-1c-0.9-1.3-1.5-2.8-1.7-4.3c-0.2-1.6-0.1-3.2,0.2-4.8c-0.5,1.6-0.7,3.2-0.7,4.8c0,1.6,0.4,3.1,1.1,4.5
			c-0.8-0.4-1.7-0.8-2.5-1.2c-1.1-0.6-2-1.3-2.8-2.2c-0.8-0.9-1.4-2-1.6-3.2c-0.3-1.2-0.5-2.4-0.5-3.7c-0.1,1.2,0,2.5,0.2,3.7
			C16.8,9.7,17.3,11,18,12c0.8,1,1.8,1.9,2.8,2.5c1.1,0.7,2.2,1.3,3.3,1.9l0.7,0.4c0.3,0.5,0.6,0.9,0.9,1.3c0,0.1,0,0.1,0,0.2
			c-0.9-0.5-1.7-0.9-2.7-1.3c-1.4-0.5-2.8-1-4.3-1.2c-1.4-0.2-2.7-0.7-4-1.4c-1.2-0.8-2.1-1.9-2.7-3.2c0.5,1.4,1.3,2.7,2.4,3.7
			c1.2,0.9,2.6,1.6,4,2c0.8,0.3,1.6,0.6,2.4,1c-0.4,0-0.7,0-1.1-0.1c-1-0.1-2-0.3-3-0.6c-1-0.3-1.9-0.6-2.8-1.2
			c-0.9-0.5-1.6-1.3-2.1-2.2c0.3,1,0.9,2,1.7,2.6c0.8,0.7,1.8,1.3,2.8,1.8c1,0.5,2,0.8,3,1.1l0.6,0.2c-1.7-0.1-3.4-0.3-5.1-0.8
			c-1.8-0.4-3.4-1.5-4.4-3.1c-0.4-0.8-0.6-1.8-0.6-2.7c0.1-1,0.2-1.9,0.6-2.8c-0.4,0.9-0.7,1.8-0.8,2.8c-0.1,1,0,2,0.3,2.9
			c0.4,0.9,1.1,1.8,1.9,2.4c0.8,0.6,1.7,1.1,2.6,1.5c1.9,0.7,3.8,1.2,5.8,1.4c1.8,0.2,3.6,0.4,5.5,0.4c0.2,0.8,0.4,1.6,0.6,2.3l0,0
			c0,0.1,0,0.1,0.1,0.2c0.3,0.5,0.9,0.7,1.5,0.4c0,0,0,0,0,0c0.3-0.2,0.5-0.4,0.5-0.8l0.1,0.1l0.4,0.4l0,0l0.1,0.1
			c0.5,0.4,1.1,0.3,1.5-0.1c0.1,0,0.1,0,0.2-0.1H31c0,0.1,0.1,0.1,0.2,0.2c-0.1,0.8-0.2,1.6-0.5,2.3c0,0,0,0.1,0,0.1
			c-0.1,0.6,0.2,1.2,0.8,1.3c0.6,0.1,1.2-0.2,1.3-0.8c0,0,0-0.1,0-0.1l0,0c0.3-1.2,0.4-2.5,0.3-3.7c0.5,0,1-0.3,1.1-0.9l0,0
			c0.4,0.3,1.1,0.2,1.4-0.2c0,0.2,0,0.5,0,0.7l0,0c0,0,0,0.1,0,0.1c0,0.6,0.6,1,1.1,1c0.6,0,1-0.6,1-1.1c0-0.1,0-0.1,0-0.2
			c-0.1-0.6-0.1-1.3-0.1-1.9l0,0c0.1,0,0.3,0.1,0.4,0c0.4,0.3,0.9,0.4,1.3,0.1l0,0l0.3-0.2c1.5-0.2,3-0.7,4.3-1.5
			c1.3-0.9,2.4-2,3.2-3.4l0.2-0.3l1-0.1c2-0.3,4-0.8,5.9-1.6c0.9-0.4,1.8-1,2.6-1.7c0.7-0.7,1.4-1.5,1.8-2.4
			C58,10.6,57.4,11.4,56.6,12z M45,14.6c0.1-0.3,0.3-0.6,0.4-0.9c0.3-0.8,0.6-1.6,0.9-2.3c0.7,0,1.3,0.1,2,0.3l0.1,0.1
			c-0.5,0.9-1,1.9-1.6,2.7C46.2,14.5,45.6,14.5,45,14.6z M29.8,17.6c0,0.1,0,0.1-0.1,0.2c-0.1-0.1-0.2-0.1-0.3-0.2s0.1-0.2,0.1-0.3
			C29.6,17.4,29.7,17.5,29.8,17.6z M29.3,19.4c0,0.2-0.1,0.5-0.1,0.7l-0.3-0.4c0,0,0-0.1,0-0.1c0-0.2,0-0.3,0.1-0.5L29.3,19.4z
			 M39.4,15.4c0.5-0.8,1.1-1.7,1.7-2.6c0.2-0.3,0.3-0.6,0.5-0.9c0.7-0.2,1.4-0.4,2.1-0.5c-0.1,0.1-0.1,0.2-0.2,0.3
			c-0.9,1.2-2,2.2-3.3,3C40,15,39.7,15.1,39.4,15.4L39.4,15.4z M37.5,15.5c-0.8,1.1-1.4,2.3-1.8,3.6c0-1,0.2-1.9,0.4-2.9
			c0.1-0.5,0.3-0.9,0.5-1.4c0.5-0.5,1.1-1,1.8-1.4c0.5-0.3,1-0.6,1.6-0.9C39.1,13.5,38.3,14.5,37.5,15.5L37.5,15.5z M42,15.1
			c-0.3,0.1-0.5,0.2-0.8,0.3c1.1-1,2.1-2.1,2.8-3.4c0.1-0.2,0.2-0.4,0.3-0.6c0.4,0,0.7-0.1,1.1-0.1c-0.3,0.6-0.7,1.3-1,1.9
			c-0.3,0.5-0.6,1.1-1,1.6C42.9,14.9,42.5,15,42,15.1L42,15.1z M48.5,11.7L48.5,11.7L48.5,11.7L48.5,11.7z M48.1,11.4
			c-0.5-0.1-1.1-0.3-1.6-0.3c0.1-0.2,0.1-0.3,0.2-0.5C47.2,10.8,47.7,11,48.1,11.4L48.1,11.4z M46,10.4c-0.1,0.2-0.2,0.4-0.3,0.6
			c-0.4,0-0.7-0.1-1.1-0.1c0.1-0.3,0.2-0.5,0.3-0.8C45.2,10.2,45.6,10.2,46,10.4L46,10.4z M43.5,10.1c0.3,0,0.7,0,1,0
			c-0.1,0.3-0.2,0.6-0.4,0.8H44c-0.7,0-1.3,0.1-2,0.2c0-0.1,0.1-0.2,0.1-0.4c0.1-0.2,0.1-0.4,0.1-0.6C42.7,10.1,43.1,10.1,43.5,10.1
			L43.5,10.1z M38.7,11.9c0.8-0.7,1.7-1.2,2.7-1.5c0,0,0,0.1,0,0.1c-0.1,0.3-0.3,0.6-0.4,0.8c-0.9,0.2-1.8,0.6-2.7,1
			C38.4,12.2,38.5,12.1,38.7,11.9L38.7,11.9z M33.4,16.2c-0.1,0.1-0.1,0.2-0.2,0.2l0.2-0.4C33.4,16.1,33.4,16.2,33.4,16.2L33.4,16.2
			z M30.3,15.8c0.7-1.2,1.5-2.4,2.3-3.7l0.1-0.2c0.3,0.6,0.5,1.3,0.6,2c-0.7,1-1.4,2-2,3c-0.1-0.1-0.2-0.2-0.3-0.3l0.1-0.4
			c0.3-0.7,0.6-1.4,1.1-1.9c-0.6,0.5-1.1,1.1-1.5,1.7l-0.1,0.2l-0.4-0.2L30.3,15.8z M27.4,15.9l1,0.6l0.1,0.1L28.3,17l-0.2-0.1
			l-0.9-0.4C27.2,16.2,27.3,16.1,27.4,15.9L27.4,15.9z M23.9,19.4L23.9,19.4L23.9,19.4L23.9,19.4z M43.1,17.9
			c-0.1,0.1-0.2,0.1-0.4,0.1c0.1-0.1,0.2-0.2,0.2-0.2c0.4-0.5,0.8-1.1,1.2-1.6c0.5-0.1,1.1-0.2,1.7-0.3C45,16.7,44.1,17.4,43.1,17.9
			L43.1,17.9z"/>
		<path class="st4" d="M5.9,17.4c0.9,0.5,1.8,0.8,2.8,1c2,0.3,4,0.3,5.9,0h0.3c-0.5-0.8-1-1.6-1.5-2.4l0,0c-0.4,0.2-0.8,0.3-1.1,0.5
			c0.3-0.2,0.7-0.4,1.1-0.6c-0.7-1.3-1.6-2.4-2.8-3.2c1.3,0.7,2.4,1.7,3.3,2.9l0.3-0.2c0.4-0.5,0.8-0.9,1.3-1.3
			c-0.2-0.3-0.4-0.5-0.5-0.8c-0.8-1.3-2.1-2.2-3.5-2.7c0.8,0.2,1.5,0.5,2.1,0.9c0.7,0.4,1.3,0.9,1.8,1.5c0.2,0.3,0.5,0.5,0.7,0.8
			c0.4-0.2,0.7-0.4,1.1-0.6c-0.3-0.7-0.5-1.4-0.6-2.1c0.2,0.7,0.5,1.4,0.9,2c0.4-0.1,0.7-0.2,1.1-0.3c0.4-0.1,0.8-0.1,1.3-0.2
			c0-0.3,0-0.7,0-1c0.2-1.4,0.7-2.8,1.4-4c-0.5,1.3-0.8,2.6-0.8,4c0,0.3,0.1,0.7,0.2,1c1.3,0,2.5,0.3,3.7,0.9
			c1.3,0.7,2.5,1.6,3.3,2.8c0.2,0.1,0.5,0.3,0.7,0.5c0-0.2,0-0.5,0.1-0.7S28,16,27.9,15.8c-1-1.4-1.7-2.9-2-4.5
			c-0.3-1.6-0.5-3.2-0.4-4.8c0.1,1.6,0.4,3.2,0.9,4.7c0.5,1.3,1.2,2.6,2.1,3.6c0.1-0.6,0.3-1.2,0.6-1.8c-0.7-0.9-1.3-1.8-1.7-2.9
			c0.5,0.9,1.1,1.7,1.9,2.4c0.1-0.3,0.3-0.6,0.5-0.9c0.7-1.2,1.7-2.2,2.9-2.9c-1.1,0.9-1.9,2-2.5,3.2c-0.2,0.4-0.3,0.7-0.4,1.1
			l0.4,0.4c1.1,1,2.2,1.9,3.2,3c0.1,0.1,0.2,0.2,0.3,0.4l0.2-0.1c0.4-0.2,0.7-0.5,1.1-0.7c-0.4-0.9-0.4-1.8-0.2-2.8
			c0,0.9,0.2,1.7,0.7,2.5c0.4-0.3,0.8-0.6,1.1-1c0.7-0.9,1.1-1.9,1.3-3c0,1.2-0.3,2.3-0.9,3.3c-0.3,0.5-0.7,0.9-1.1,1.3l0.5,0.6
			l0.8-0.5c0.2-0.4,0.4-0.7,0.6-1.1c0.7-1.4,1.1-2.9,1-4.5c-0.1-1.6-0.4-3.2-0.9-4.7c0.7,1.5,1.2,3,1.4,4.7c0.2,1.5,0,3.1-0.5,4.6
			c0.8-0.5,1.5-1,2.2-1.6c1-0.7,1.8-1.6,2.5-2.6c0.6-1,1-2.2,1.2-3.4c0.1-1.2,0.1-2.5,0-3.7C44.9,5.4,45,6.6,45,7.9
			c0,1.3-0.3,2.5-0.9,3.7c-0.6,1.1-1.5,2.1-2.4,2.9c-0.9,0.9-1.9,1.6-2.9,2.4l-0.7,0.5c-0.2,0.5-0.5,1-0.7,1.5l0.1,0.2
			c0.7-0.6,1.5-1.1,2.3-1.6c1.3-0.7,2.6-1.4,4-1.9c1.3-0.4,2.6-1.1,3.7-2c1-1,1.8-2.3,2.2-3.6c-0.3,1.5-0.9,2.8-1.8,4
			c-1,1.1-2.3,2-3.6,2.6c-0.8,0.4-1.5,0.8-2.2,1.3l1.1-0.3c1-0.3,1.9-0.6,2.9-1c0.9-0.4,1.8-0.9,2.6-1.6c0.8-0.7,1.4-1.5,1.7-2.5
			c-0.1,1.1-0.6,2.1-1.3,2.9c-0.7,0.8-1.5,1.5-2.5,2.1c-0.9,0.6-1.9,1.1-2.8,1.6c-0.2,0.1-0.4,0.2-0.6,0.2c1.7-0.3,3.4-0.8,4.9-1.5
			c1.7-0.7,3.1-2,3.9-3.7c0.3-0.9,0.3-1.8,0.2-2.8c-0.2-0.9-0.5-1.8-1-2.7c0.5,0.8,1,1.7,1.2,2.6c0.3,1,0.3,2,0.1,3
			c-0.3,1-0.8,1.9-1.5,2.6c-0.7,0.7-1.5,1.3-2.4,1.9c-1.7,1-3.6,1.7-5.5,2.2c-1.8,0.5-3.5,0.9-5.3,1.2c-0.1,0.8-0.2,1.6-0.3,2.4l0,0
			c0,0.1,0,0.1,0,0.2c-0.2,0.5-0.8,0.8-1.4,0.6c-0.3-0.1-0.5-0.3-0.6-0.6c0,0,0,0.1-0.1,0.1c-0.1,0.2-0.2,0.3-0.3,0.5l0,0l-0.1,0.1
			c-0.4,0.4-1,0.4-1.5,0h-0.2h-0.1c0,0.1-0.1,0.1-0.1,0.2c0.2,0.8,0.4,1.5,0.8,2.2v0.1c0.2,0.6-0.1,1.2-0.6,1.4s-1.2-0.1-1.4-0.6
			l0,0c-0.5-1.2-0.8-2.4-0.8-3.6c-0.5,0.1-1-0.1-1.2-0.6l0,0c-0.2,0.2-0.4,0.3-0.6,0.3c-0.3,0-0.5-0.1-0.8-0.3
			c0.1,0.2,0.1,0.5,0.1,0.7v0c0,0,0,0.1,0,0.1c0,0.6-0.5,1.1-1.1,1.1c-0.6,0-1.1-0.5-1.1-1.1c0-0.6-0.1-1.3-0.2-1.9l0,0
			c-0.1,0.1-0.3,0.1-0.4,0.1c-0.3,0.4-0.8,0.5-1.2,0.3l0,0l-0.3-0.1c-1.5,0-3-0.3-4.5-0.8C18.3,22,17,21,16,19.7l-0.2-0.3h-1
			c-2,0.1-4.1-0.1-6.1-0.6c-1-0.3-1.9-0.7-2.8-1.2c-0.8-0.6-1.6-1.3-2.2-2.1C4.4,16.2,5.1,16.9,5.9,17.4z M17.8,18.2
			c-0.2-0.3-0.4-0.5-0.5-0.8c-0.5-0.7-0.9-1.4-1.3-2.1c-0.7,0.1-1.3,0.3-2,0.6l-0.1,0.1c0.7,0.8,1.3,1.7,2,2.5
			C16.6,18.2,17.2,18.2,17.8,18.2z M33.3,18.8l0.1,0.2l0.3-0.3l-0.2-0.3C33.4,18.6,33.3,18.7,33.3,18.8z M34,20.6
			c0.1,0.2,0.1,0.5,0.2,0.7l0.3-0.5c0,0,0-0.1,0-0.1c0-0.2-0.1-0.3-0.1-0.5L34,20.6z M23.4,18.1c-0.6-0.8-1.4-1.5-2.1-2.3
			c-0.2-0.2-0.4-0.5-0.6-0.8c-0.7-0.1-1.4-0.2-2.2-0.1c0.1,0.1,0.1,0.2,0.2,0.2c1.1,1,2.3,1.9,3.7,2.5L23.4,18.1z M25.3,17.9
			c0.9,1,1.7,2.1,2.3,3.3c-0.2-0.9-0.4-1.9-0.8-2.8c-0.2-0.4-0.4-0.9-0.6-1.3c-0.6-0.4-1.3-0.8-2-1.1c-0.5-0.2-1.1-0.4-1.7-0.6
			C23.5,16.2,24.4,17,25.3,17.9z M20.8,18.2c0.3,0,0.5,0.1,0.8,0.1c-1.3-0.8-2.4-1.7-3.3-2.9c-0.1-0.2-0.3-0.4-0.4-0.6
			c-0.4,0-0.7,0.1-1.1,0.1c0.4,0.6,0.9,1.1,1.3,1.7c0.4,0.5,0.8,1,1.3,1.4C19.9,18.1,20.4,18.2,20.8,18.2z M13.9,15.8L13.9,15.8
			C13.9,15.8,13.9,15.8,13.9,15.8L13.9,15.8z M14.3,15.5c0.5-0.2,1-0.4,1.6-0.6c-0.1-0.1-0.2-0.3-0.3-0.5
			C15.1,14.7,14.6,15.1,14.3,15.5z M16.2,14.1l0.4,0.6c0.4-0.1,0.7-0.2,1.1-0.2c-0.1-0.2-0.3-0.5-0.4-0.8
			C16.9,13.8,16.5,14,16.2,14.1z M18.6,13.5c-0.3,0-0.7,0.1-1,0.2c0.2,0.3,0.3,0.5,0.5,0.8h0.1c0.7-0.1,1.3-0.1,2-0.1L20.1,14
			c-0.1-0.2-0.1-0.3-0.2-0.5C19.5,13.4,19,13.4,18.6,13.5L18.6,13.5z M23.6,14.6c-0.9-0.5-1.8-0.9-2.8-1c0,0,0,0,0,0.1
			c0.2,0.3,0.3,0.5,0.5,0.8c1,0.1,1.9,0.3,2.9,0.6L23.6,14.6z M29.5,18l0.2,0.2l-0.3-0.3L29.5,18z M32.5,17.1
			c-0.9-1.1-1.9-2.1-2.8-3.3l-0.1-0.2c-0.2,0.7-0.3,1.4-0.3,2.1c0.8,0.9,1.7,1.8,2.5,2.7c0.1-0.1,0.2-0.2,0.3-0.3
			c0-0.1-0.1-0.2-0.2-0.3c-0.4-0.7-0.8-1.3-1.4-1.8c0.7,0.4,1.3,0.9,1.8,1.5c0.1,0.1,0.1,0.1,0.2,0.2c0.1-0.1,0.2-0.2,0.3-0.3
			L32.5,17.1z M35.4,16.7l-0.9,0.8l-0.1,0.1c0.1,0.1,0.2,0.2,0.3,0.4l0.2-0.1l0.8-0.5L35.4,16.7z M39.4,19.7L39.4,19.7L39.4,19.7
			L39.4,19.7z M20.2,21.1l0.4,0.1c-0.1-0.1-0.2-0.1-0.3-0.2c-0.5-0.4-1-0.9-1.4-1.4c-0.5,0-1.1-0.1-1.7-0.1
			C18.1,20.2,19.1,20.8,20.2,21.1z"/>
		<path class="st4" d="M61.3,32.4c-0.5,0.2-1.1,0.2-1.6,0c-0.5-0.2-0.9-0.5-1.3-0.8l-0.3-0.3c-0.1-0.1-0.2-0.3-0.2-0.4
			c-0.4-1.2-0.6-2.4-0.4-3.6c0-0.6-0.1-1.2-0.2-1.8l0.2,0.1c1.3,1.2,2.6,2.6,3.8,3.9c-1.1-1.5-2.2-2.9-3.5-4.3
			c-0.2-0.3-0.5-0.5-0.8-0.8c-0.1-0.3-0.2-0.6-0.3-0.9c-0.4-1.3-1.2-2.4-2.1-3.3c-1.4-1.3-3.1-2.1-4.9-2.5c0.8-0.2,1.7-0.3,2.5-0.3
			c1.6-0.1,3.2,0.2,4.7,0.7c1.5,0.6,2.9,1.6,3.8,3c-0.8-1.5-2.1-2.7-3.6-3.4c-1.5-0.8-3.2-1.2-4.9-1.3c-3.5-0.1-6.9,0.6-10,2.1l0,0
			l-0.1,0.1c-0.1,0.1-0.2,0.1-0.2,0.2c-0.7,0.3-1.5,0.7-2.1,1.2l0,0h-0.1L39.7,20c-0.4,0.2-0.9,0.4-1.2,0.6h-0.1l-0.1,0.1
			c-0.3,0.2-0.5,0.6-0.4,1h-0.2l0,0h-0.1c-0.6,0.2-0.9,0.7-0.8,1.3c0,0,0,0,0,0c-0.5,0-0.9,0.1-1.3,0.2l0,0h-0.1
			c-0.5,0.1-0.8,0.6-0.8,1c-0.4,0-0.7,0.1-1.1,0.2h-0.1h-0.1h-0.1c-0.1-0.6-0.7-1-1.2-0.9c-0.2,0-0.5,0.2-0.6,0.4
			c-0.2,0.3-0.4,0.5-0.6,0.8c0-0.1-0.1-0.1-0.1-0.2c-0.4-0.4-1.1-0.4-1.5,0c-0.2,0.2-0.4,0.4-0.6,0.6c-0.3-0.2-0.7-0.3-1.1-0.1l0,0
			c-0.3,0.2-0.6,0.3-0.9,0.5c0.4-0.4,0.4-1,0-1.4c-0.4-0.4-1.1-0.4-1.5,0l-0.3,0.3c-0.1-0.6-0.6-1-1.1-0.9l0,0
			c-0.6,0-1.2,0.1-1.8,0.2c-1.2-0.1-2.4-0.2-3.6-0.3c-1.7-0.1-3.4-0.1-5-0.2c-1.6-0.1-3.3-0.5-4.7-1.2c-1.5-0.8-2.8-1.9-3.9-3.1
			c1,1.4,2.3,2.6,3.7,3.5c1.5,0.9,3.1,1.6,4.9,1.8c0.8,0.1,1.6,0.3,2.4,0.4c-1.4,0.4-2.7,1.1-3.9,1.9c-1.4,0.9-2.7,1.9-4.3,2
			c-1.6,0-3.2-0.4-4.7-1.2c1.3,1,2.8,1.6,4.4,1.8c0.9,0,1.7-0.2,2.6-0.5c0.8-0.3,1.5-0.7,2.3-1.1c0.9-0.5,1.8-0.8,2.8-1.1l-0.3,0.3
			c-0.7,0.4-1.4,0.8-2.1,1.3c-1.7,1.3-3,3-3.8,4.9c-0.7,1.9-1,4-0.9,6c0-2,0.5-4,1.3-5.8c0.8-1.5,1.8-2.8,3.2-3.8
			c-0.7,1.3-1,2.8-1,4.3c-0.8,1.5-1.4,3.1-1.8,4.7c0.5-1.3,1.1-2.5,1.8-3.7c0,0.8,0.2,1.7,0.4,2.5l0.1,0.2c-0.9,1.2-1.9,2.2-3,3.2
			c-1.7,1.5-3.8,2.4-6.1,2.6c2.3,0,4.6-0.8,6.4-2.2c1.1-0.8,2-1.7,2.9-2.6c0.2,0.5,0.4,1,0.7,1.5c-0.2-0.5-0.4-1.1-0.6-1.6
			c0.6-0.7,1.2-1.4,1.8-2.1c1.4-1.8,2.8-3.5,4.4-5.1c0.2-0.2,0.4-0.3,0.5-0.5l-0.5,0.9c-1.2,2.2-2.1,4.5-3.4,6.6
			c-1.2,2.1-2.8,4-4.7,5.5c-2,1.5-4.2,2.7-6.5,3.4c2.4-0.6,4.7-1.6,6.8-3c2.1-1.4,3.9-3.2,5.3-5.3c1-1.5,1.9-3,2.8-4.6
			c-1.4,2.9-2.7,5.7-3.9,8.6c1.6-3,3.4-6,5.3-8.9l0.3-0.5c-0.2,1.2-0.3,2.5-0.4,3.7c-0.1,0.2-0.2,0.5-0.3,0.7
			c-0.6,1.6-1.5,3.1-2.6,4.4c-0.6,0.6-1.2,1.2-2,1.6c-0.8,0.4-1.6,0.6-2.5,0.7c0.9,0,1.8-0.1,2.6-0.4c0.8-0.3,1.6-0.8,2.3-1.4
			c0.8-0.8,1.6-1.7,2.2-2.7c-0.2,2-0.9,3.9-1.9,5.6c-1.2,1.8-3.1,3.1-5.2,3.6c1.1-0.2,2.1-0.6,3-1.1c1-0.6,1.9-1.3,2.6-2.2
			c1.3-1.8,2.2-3.9,2.6-6.2c0.2-0.9,0.4-1.8,0.5-2.7l0,0c0.1,1,0.3,1.9,0.6,2.9c0.3,0.8,0.6,1.5,1,2.2c-0.1,0.5-0.1,1-0.2,1.6
			c-0.2,0.9-0.5,1.8-0.9,2.7c-0.4,0.9-1.1,1.6-1.9,2.1c0.9-0.5,1.6-1.2,2.1-2c0.5-0.8,0.9-1.8,1.2-2.7c0.1-0.3,0.1-0.6,0.2-0.9
			c0.4,0.6,0.8,1.1,1.2,1.6c-0.4-0.6-0.8-1.2-1.2-1.9c0.1-0.3,0.1-0.7,0.2-1c0.6,1,1.2,2,1.9,2.9c-0.7-1.2-1.3-2.4-1.8-3.6
			c0.1-1,0.3-1.9,0.4-2.8s0.3-2.1,0.5-3.1c-0.2,2.2,0,4.4,0.5,6.6c-0.4-2.6-0.1-5.3,0.6-7.9c0,0.2,0,0.4-0.1,0.5
			c-0.1,2.1-0.1,4.2,0.1,6.3c0.2,2,0.1,4.1-0.3,6.1c-0.2,1-0.6,1.9-1.2,2.8c-0.6,0.8-1.4,1.5-2.3,2c1-0.4,1.8-1.1,2.5-1.9
			c0.7-0.8,1.2-1.8,1.5-2.8c0.5-2,0.8-4.2,0.8-6.3c0-1.1,0.1-2.1,0.1-3.2v0.8c0.2,3.1,0.8,6.1,1.6,9.1c-0.5-3-0.7-6.1-0.6-9.1
			l0.1-0.8c0.1,0.4,0.2,0.8,0.3,1.1c0.2,1.9,0.5,3.7,0.9,5.5C29.1,42.5,29,41,29,39.6c0.2,0.3,0.4,0.7,0.6,1
			c-0.1,0.7-0.1,1.5-0.1,2.2c0,1.2,0.3,2.4,0.8,3.5c-0.8,1-1.6,1.9-2.5,2.7c1-0.7,1.9-1.5,2.7-2.4c0.2,0.4,0.4,0.7,0.7,1.1
			c-0.2-0.4-0.4-0.8-0.6-1.2c0.5-0.5,0.9-1,1.4-1.5c0.3-0.3,0.5-0.7,0.7-1c0.8,0.7,1.5,1.3,2.4,1.8c-0.8-0.7-1.5-1.4-2.2-2.1
			c0.4-0.5,0.7-1.1,1-1.7c0.3,0.3,0.6,0.5,0.8,0.8c0.5,0.5,1.1,0.8,1.8,1.1c0.1,0.4,0.1,0.7,0.2,1.1c0-0.3,0-0.7,0-1l0.3,0.1
			c0.8,0.3,1.7,0.3,2.6,0.1c-0.8,0.1-1.7,0-2.5-0.4l-0.5-0.2c-0.1-1.1-0.3-2.1-0.7-3.1c-0.2-0.7-0.6-1.3-0.9-1.9
			c0-0.1,0-0.3,0.1-0.4c0.6,0.9,1.3,1.7,2,2.5c1,1.1,2.1,2.1,3.2,3.1c-1-1.1-2-2.3-2.8-3.5c-0.9-1.2-1.6-2.5-2.3-3.8v-0.1
			c0-0.9-0.1-1.8-0.4-2.7c-0.3-1-0.6-2-1.1-2.9c-0.2-0.4-0.5-0.8-0.7-1.1l0.3,0c0.5,0.9,1.2,1.7,1.9,2.5c0.4,1.3,0.6,2.7,1,4
			c0.4,1.5,1.1,3,2.1,4.2c1,1.2,2.3,2.2,3.8,2.8c-1.3-0.7-2.5-1.7-3.3-3c-0.8-1.3-1.3-2.7-1.5-4.2c-0.1-0.8-0.2-1.5-0.3-2.3l0.6,0.4
			c0.2,0.6,0.4,1.2,0.7,1.8c0.7,2,1.9,3.7,3.4,5.2c0.4,0.3,0.8,0.6,1.2,0.9c-0.1,1.1-0.3,2.3-0.5,3.4c0.3-1.1,0.6-2.2,0.7-3.2
			c1.2,0.8,2.6,1.3,4,1.6c-1.4-0.4-2.8-1.1-4-2c0.1-0.8,0.2-1.6,0.3-2.5c0-0.2,0-0.5,0-0.7c0.9,0.8,1.7,1.7,2.4,2.6
			c-0.7-1.1-1.5-2.2-2.4-3.2c0-0.2,0-0.5,0-0.8c1,1.1,2.3,2.1,3.7,2.7c-1.4-0.8-2.6-2-3.5-3.3c-0.1-0.1-0.1-0.2-0.2-0.3
			c-0.1-1.1-0.2-2.2-0.5-3.3c-0.3-1-0.6-2-1.1-3c0.3,0.3,0.5,0.6,0.7,0.8c0.9,1.1,1.8,2.2,2.8,3.3c0.2,1,0.4,2,0.5,3.1
			c0-0.9,0-1.7,0-2.6c0.2,0.2,0.3,0.4,0.5,0.5c1.3,1.4,2.9,2.6,4.7,3.3c-1.7-0.9-3.2-2.1-4.3-3.6c-0.3-0.4-0.7-0.9-1-1.3
			c-0.2-1.5-0.6-2.9-1.3-4.3c-0.6-1.2-1.4-2.3-2.4-3.2c1.2,0.8,2.3,1.8,3.2,2.9c1.3,1.4,2.6,3,4,4.3c0.5,0.5,1,1,1.6,1.4
			c0,0.5,0,1,0,1.5c0.1-0.5,0.1-0.9,0.2-1.4c1,0.8,2,1.4,3.2,1.8c-1.2-0.6-2.2-1.4-3.2-2.3c0-0.7,0-1.3,0-2c0.9,1,1.7,2,2.6,3
			c-0.9-1.3-1.8-2.6-2.7-3.9c0-0.3-0.1-0.7-0.2-1c-0.2-1.3-0.7-2.5-1.3-3.6l1.1,0.9c1,0.8,1.9,1.7,2.9,2.5c0.5,1.3,0.7,2.6,0.8,4
			c0.1-1.2,0-2.4-0.3-3.6c0.4,0.4,0.9,0.7,1.3,1.1c0.8,0.6,1.7,1.2,2.5,1.8c0.9,0.5,1.8,0.9,2.9,1.1c-1.9-0.7-3.6-1.8-5-3.2
			c-0.7-0.6-1.3-1.3-2-2c-0.1-0.4-0.2-0.7-0.3-1s-0.3-0.7-0.4-1c1.2,1.1,2.3,2.4,3.4,3.6c-1.1-1.4-2-2.8-3.2-4.1
			c-0.3-0.4-0.7-0.8-1.1-1.2c-0.6-0.9-1.2-1.8-1.9-2.5c-0.2-0.2-0.3-0.4-0.5-0.5c0.9,0.4,1.7,1,2.3,1.6c0.8,0.7,1.5,1.5,2.1,2.4
			c0.6,0.9,1.2,1.8,1.8,2.7c0.6,0.9,1.4,1.7,2.3,2.4c0.6,0.7,1.4,1.3,2.2,1.8c-0.6-0.4-1.2-0.9-1.7-1.5c0.3,0.2,0.6,0.3,0.9,0.4
			C60.2,32.7,60.8,32.6,61.3,32.4z M17,30.1c-1.5,1.8-2.8,3.6-4.1,5.6c-0.4,0.5-0.8,1.1-1.2,1.6l0,0c-0.1-0.9-0.2-1.9-0.1-2.8
			c0-0.2,0-0.3,0-0.5c0.9-1.3,2-2.5,3.3-3.5c1-0.8,2.2-1.3,3.4-1.7C17.9,29.2,17.4,29.6,17,30.1z M14.3,29.6
			c-0.9,0.8-1.6,1.7-2.2,2.7c0.3-1.1,0.8-2.1,1.6-3c0.4-0.5,0.9-0.9,1.4-1.3c1.1-0.4,2.2-0.7,3.4-0.9h0.1
			C16.9,27.7,15.5,28.5,14.3,29.6z M22.8,41.3c-0.2-0.5-0.4-1.1-0.5-1.7c-0.1-0.5-0.2-1-0.2-1.5c0.2,0.7,0.5,1.4,0.9,2.1
			C22.9,40.6,22.9,41,22.8,41.3z M23,37.8c0,0.3,0,0.6,0,0.9c-0.2-0.9-0.3-1.9-0.2-2.8c0.1-0.7,0.2-1.4,0.5-2
			C23.2,35.2,23.1,36.5,23,37.8z M29.8,39c-0.1-0.2-0.2-0.4-0.2-0.7c-0.3-1.2-0.3-2.5,0-3.7c0.2,0.6,0.4,1.1,0.6,1.6
			c0,0.5-0.1,0.9-0.2,1.4L29.8,39z M31.6,44.7c-0.3,0.5-0.7,1-1.1,1.5c-0.4-1.1-0.5-2.2-0.4-3.3c0-0.5,0.1-0.9,0.2-1.4
			c0.4,0.5,0.7,0.9,1.2,1.3c0.3,0.3,0.6,0.6,0.9,0.8C32.1,44,31.8,44.4,31.6,44.7L31.6,44.7z M32.5,43.2c-0.2-0.3-0.5-0.5-0.7-0.8
			c-0.5-0.6-1-1.3-1.4-2c0.2-0.8,0.4-1.6,0.6-2.4l0.4,0.8c0.5,0.9,1.2,1.8,1.9,2.6C33.1,42,32.8,42.7,32.5,43.2L32.5,43.2z
			 M34.8,39.8c0-0.1,0-0.1,0-0.2c0.2,0.4,0.5,0.7,0.7,1.1c0.4,0.9,0.8,1.8,1,2.8c-0.5-0.3-1-0.7-1.4-1.1c-0.3-0.3-0.6-0.6-0.9-1
			C34.5,41,34.7,40.4,34.8,39.8L34.8,39.8z M33.8,39.6c-0.1,0.3-0.1,0.6-0.2,0.9c-0.4-0.7-0.8-1.4-1.2-2.2c-0.4-0.8-0.7-1.6-0.9-2.4
			c0-0.1,0-0.1,0-0.2c0.5,0.5,1,1,1.4,1.5s0.7,0.8,1,1.2C33.9,38.8,33.9,39.2,33.8,39.6L33.8,39.6z M33.9,36.3c0,0.2,0,0.3,0,0.5
			c-0.1-0.1-0.1-0.2-0.2-0.3c-0.7-0.9-1.3-1.7-2-2.6c0-0.4,0.1-0.8,0.1-1.2c0.1,0.2,0.1,0.3,0.2,0.5C32.6,34.3,33.2,35.3,33.9,36.3
			L33.9,36.3z M43,39.3c0,0.7,0,1.5,0,2.2c-0.3-0.2-0.6-0.5-0.8-0.8c-1.3-1.5-2.3-3.2-2.8-5.1c0-0.1-0.1-0.2-0.1-0.3
			c1.2,0.8,2.4,1.7,3.5,2.7l0.1,0.1C42.9,38.5,43,38.9,43,39.3L43,39.3z M42.8,37.3c-0.9-1-2-1.9-3-2.8l-1.2-1
			c-0.3-1.3-0.7-2.5-1.1-3.7c-0.2-0.4-0.4-0.9-0.6-1.3c0.3,0.1,0.5,0.3,0.8,0.5c1.1,1.1,2,2.4,2.8,3.8c0.7,1.2,1.4,2.3,2.2,3.5
			C42.7,36.6,42.8,36.9,42.8,37.3L42.8,37.3z M42,33.4c0,0.2,0.1,0.3,0.1,0.5c-0.2-0.5-0.5-1-0.7-1.6c-0.3-0.7-0.7-1.5-1.1-2.2
			C41.1,31.1,41.6,32.2,42,33.4L42,33.4z M43.6,29.8c0.5,0.7,0.9,1.5,1.2,2.3c-0.4-0.6-0.9-1.3-1.3-1.9c-0.7-1-1.4-1.9-2.1-2.8
			C42.2,28.1,43,28.9,43.6,29.8L43.6,29.8z M51.1,34.3c-0.4-0.4-0.8-0.8-1.2-1.3c-1.3-1.5-2.4-3.1-3.6-4.7c-1-1.3-2.1-2.5-3.4-3.5
			l0.3,0.1c1.5,0.7,2.8,1.7,3.9,2.9c1.3,1.3,2.5,2.7,3.8,4.1C50.9,32.7,51,33.5,51.1,34.3L51.1,34.3z M50.5,30.6
			c-0.8-1.2-1.7-2.4-2.6-3.5c-1-1.2-2.1-2.3-3.3-3.1c1.3,0.5,2.4,1.2,3.3,2.1C49.1,27.3,49.9,28.9,50.5,30.6L50.5,30.6z M44.6,22.1
			c0.7-0.1,1.3-0.2,2-0.2c0.7,0.3,1.3,0.7,1.9,1.2c-1-0.4-2.1-0.7-3.2-0.7L44.6,22.1z M51.2,25.9c0.6,0.8,1.2,1.7,1.6,2.6
			c-0.5-0.5-0.9-1-1.4-1.4c-1-1-2-2-3.1-2.8l0.3,0.1C49.5,24.8,50.4,25.3,51.2,25.9z M48.3,19.5c-1.2-0.1-2.3-0.1-3.5,0.1h0
			c0.9-0.3,1.8-0.5,2.7-0.6c2.3-0.2,4.7,0.4,6.5,1.9c0.7,0.6,1.3,1.3,1.8,2.1c-0.6-0.6-1.3-1.1-2-1.6C52.1,20.4,50.2,19.7,48.3,19.5
			z M56.4,29c-0.6-0.9-1-1.9-1.6-2.8c-0.6-1-1.2-1.9-2-2.7c-0.7-0.9-1.6-1.6-2.6-2.2L50,21.3c1.1,0.2,2.2,0.6,3.2,1.1
			c1.2,0.7,2.3,1.4,3.3,2.3c0.3,0.8,0.4,1.7,0.5,2.6c0,0.6,0.1,1.2,0.1,1.9c0.1,0.5,0.2,0.9,0.3,1.4C57,30.1,56.7,29.6,56.4,29z"/>
		<path class="st5" d="M58.2,32.9c-2.3-0.8-4.4-2.1-6.2-3.7c-1.8-1.6-3.4-3.4-5.2-5.2L46,23.3c0.2,0.1,0.5,0.2,0.7,0.3
			c2,1.1,3.9,2.2,5.8,3.5c0.8,0.5,1.6,1,2.4,1.4c0.1,0.6,0.1,1.1,0,1.7c0.1-0.5,0.2-1.1,0.2-1.6c1.1,0.6,2.3,1.2,3.6,1.6
			c2.2,0.7,4.6,0.8,6.8,0.1c-2.2,0.5-4.5,0.3-6.6-0.6c-1.3-0.6-2.6-1.3-3.8-2.1c0-0.1,0-0.2,0-0.2c-0.1-0.8-0.2-1.7-0.5-2.5
			c1,0.9,2,1.9,2.9,3c-0.9-1.4-2-2.8-3.2-3.9c-0.5-1.4-1.3-2.7-2.4-3.7c1.6,0.5,3,1.4,4.2,2.6c1.4,1.4,2.5,3.2,3.1,5.1
			c-0.5-2-1.4-3.9-2.7-5.5c-1.4-1.6-3.2-2.8-5.2-3.5c-0.8-0.3-1.6-0.5-2.4-0.6l-0.4-0.1c1,0,2,0,3,0.2c0.8,0.1,1.6,0.3,2.5,0.3
			c0.9,0.1,1.8,0,2.6-0.3c1.5-0.7,2.9-1.7,3.9-3.1c-1.1,1.2-2.5,2.1-4.1,2.6c-1.5,0.4-3.1-0.1-4.7-0.5c-1.4-0.4-2.8-0.6-4.2-0.6
			c0.7-0.4,1.5-0.7,2.2-1.1c1.6-0.8,2.9-1.9,4-3.2c1-1.4,1.8-2.9,2.4-4.5c-0.7,1.5-1.7,2.9-2.8,4.1c-1.2,1.2-2.6,2.1-4.1,2.6
			c-1,0.4-2.1,0.8-3.2,1.2c-0.4-0.5-1-0.9-1.6-1.2c-0.3-0.1-0.6-0.3-0.9-0.4c1.1-1.7,1.9-3.5,2.7-5.3c-1.1,1.8-2.3,3.5-3.7,5.1
			c-0.8-0.1-1.6,0-2.4,0.3c-1.5,0.5-2.6,1.6-3.3,3c-0.5,1.1-0.7,2.2-0.7,3.4l0,0c-0.3,0-0.6,0-0.9,0.2c-0.3-0.6-0.6-1.3-0.8-2
			c-0.4-1.1-0.5-2.3-0.4-3.5c0.1-1.2,0.4-2.4,0.9-3.5c0.6-1.1,1.3-2.2,2.2-3.1c-1,0.8-1.9,1.7-2.7,2.8c-0.7,1.1-1.3,2.3-1.5,3.6
			c-0.4,1.9-0.3,3.8,0.3,5.6c-0.1,0.1-0.2,0.2-0.3,0.4c0,0.1,0,0.1,0,0.2l-0.1-0.1c-1.1-1-2-2.3-2.4-3.7c-0.3-1.5-0.3-3.1,0.1-4.7
			c0.3-1.6,0.8-3.2,1-4.9c0.3-1.7,0.2-3.4-0.4-5c0.4,1.6,0.3,3.3-0.1,4.9c-0.4,1.6-1,3.1-1.5,4.8c-0.6,1.7-0.8,3.5-0.6,5.2
			c0.2,1.2,0.6,2.3,1.2,3.3l-0.6-0.2c-1-0.4-2-1-2.7-1.8c-0.8-0.8-1.4-1.8-1.8-2.8c-0.4-1.1-0.7-2.2-0.8-3.4c-0.1,1.2,0,2.4,0.3,3.6
			c0.3,1.2,0.8,2.3,1.5,3.4c0.4,0.5,0.8,1,1.3,1.4c-0.3-0.1-0.6-0.3-0.9-0.4c-0.2-0.2-0.4-0.4-0.7-0.4c-0.2-0.1-0.5-0.3-0.7-0.4
			c-0.1-0.1-0.3-0.2-0.4-0.3c-0.6-0.4-1.2-0.9-1.7-1.5c-1.4-1.7-2.3-3.7-2.6-5.9c-0.4-2.2-0.4-4.6-0.7-6.9c-0.1-1.2-0.5-2.3-1-3.4
			c-0.6-1-1.4-1.9-2.5-2.4c1,0.6,1.8,1.4,2.3,2.5c0.4,1.1,0.7,2.2,0.7,3.3c0.1,2.3,0,4.6,0.2,7c0.1,2.4,0.9,4.7,2.3,6.6
			c-0.4-0.1-0.8-0.1-1.1-0.2c-0.1-0.1-0.2-0.1-0.3-0.1h-0.1l0,0c-0.4-0.1-0.8-0.1-1.2-0.1c-0.5-0.1-1-0.3-1.4-0.5
			c-1.3-0.5-2.5-1.3-3.5-2.4c-1-1.1-1.7-2.4-2.2-3.8c-0.4-1.4-0.6-3-0.4-4.5c-0.3,1.5-0.4,3.1-0.1,4.6c0.3,1.5,0.9,3,1.8,4.3
			c0.6,0.8,1.4,1.6,2.2,2.2c-1.8,0.1-3.6,0.5-5.3,1.2C8,20.8,6.5,21.8,5.3,23c-1.2,1.2-2,2.7-2.3,4.4c0.5-1.6,1.4-3,2.7-4
			c1.2-1,2.7-1.7,4.2-2.1c0.8-0.2,1.7-0.4,2.5-0.5c-1.6,0.9-3,2.2-3.9,3.9c-0.8,1.5-1.1,3.1-1,4.8c-0.2,0.3-0.3,0.7-0.5,1
			c-0.7,1.7-1.3,3.4-1.9,5.1c0.8-1.7,1.6-3.3,2.4-4.9l0.1-0.2C7.8,31,8,31.6,8.2,32.2c0.5,1.1,0.7,2.3,0.7,3.6
			c0,0.2-0.1,0.3-0.1,0.5l-0.2,0.3c-0.3,0.5-0.6,0.9-1,1.2c-0.4,0.4-0.9,0.5-1.5,0.5c0.6,0.1,1.1-0.1,1.6-0.4
			c0.3-0.2,0.5-0.4,0.8-0.7c-0.3,0.7-0.7,1.3-1.2,1.9c0.6-0.7,1.1-1.5,1.5-2.4c0.6-0.9,1-1.9,1.3-2.9c0.4-1,0.6-2.1,0.9-3.1
			c0.3-1,0.7-2,1.2-2.9c0.4-0.8,1-1.6,1.7-2.3c-0.1,0.2-0.2,0.5-0.3,0.7c-0.4,0.9-0.8,1.9-1,2.9c-0.2,0.5-0.5,1-0.7,1.5
			c-0.7,1.6-1.1,3.3-1.7,4.9c0.7-1.5,1.3-3,2.1-4.5c0,0.4-0.1,0.7-0.1,1.1s0,0.7,0,1.1c-0.4,0.8-0.8,1.7-1.3,2.5
			c-0.9,1.8-2.2,3.4-3.8,4.7c0.9-0.5,1.7-1.1,2.4-1.9c0.7-0.8,1.3-1.6,1.9-2.5c0.3-0.5,0.6-1,0.9-1.4c0.1,1.2,0.4,2.4,0.9,3.5
			c-0.4-1.3-0.6-2.6-0.5-4c0.7-1.1,1.3-2.2,2-3.3l0.7-1.2c-0.2,1.3-0.3,2.6-0.1,3.9c0,0.3,0.1,0.7,0.2,1c-0.4,1.5-0.9,3-1.3,4.5
			c0.5-1.2,1-2.5,1.5-3.7c0.2,0.6,0.4,1.3,0.6,1.9c-0.6,1.2-1.4,2.2-2.3,3.1c0.9-0.8,1.8-1.7,2.4-2.7c0.2,0.4,0.4,0.8,0.6,1.3
			c-0.2-0.5-0.3-0.9-0.5-1.4c0.4-0.6,0.8-1.2,1.1-1.8c0.9-1.8,1.7-3.6,2.5-5.4c0.6-1.3,1.3-2.6,2.2-3.7c-0.6,1.1-1,2.4-1.2,3.7
			c-0.2,1.5-0.2,2.9,0.1,4.4c-0.2,0.5-0.4,1.1-0.5,1.6c-0.6,1.8-1.6,3.4-2.9,4.8c1.5-1.2,2.7-2.8,3.5-4.6c0.1-0.2,0.2-0.4,0.3-0.7
			c0.2,0.8,0.4,1.6,0.7,2.5c-0.2-1-0.4-2-0.5-3c0.6-1.3,1.1-2.7,1.6-4l0.4-1c-0.1,1.1-0.2,2.1-0.1,3.2c0.1,1.1,0.3,2.2,0.6,3.3
			c0,0.1,0,0.2-0.1,0.3c-0.4,1.6-1.2,3-2.3,4.3c1.1-1,2-2.3,2.6-3.7c0.1,0.2,0.1,0.5,0.2,0.7c-0.5,1.2-1,2.5-1.3,3.8
			c0.4-1.1,0.9-2.2,1.5-3.2c0.1,0.2,0.1,0.4,0.2,0.6c0.3,0.8,0.7,1.5,1,2.3c-0.8,1.2-1.9,2.3-3.1,3.2c1.3-0.7,2.4-1.7,3.3-2.8
			c0.5,1,1.1,1.9,1.7,2.8c-0.6-1-1.1-2-1.5-3c0.3-0.4,0.6-0.8,0.8-1.2c1-1.9,1.6-3.9,1.6-6c0-0.6,0.1-1.3,0.1-1.9
			c0.1-0.2,0.3-0.4,0.4-0.6c0.2,0.8,0.3,1.5,0.4,2.3c0.3,1.5,0.2,3-0.1,4.4c-0.4,1.5-1.1,2.8-2.2,3.9c1.2-1,2.1-2.3,2.7-3.8
			c0.5-1.5,0.8-3.1,0.7-4.7c0-1.4-0.2-2.8-0.3-4.2c0.5-0.9,0.8-1.9,1-2.9L32,27c-0.1,0.4-0.2,0.9-0.3,1.3c-0.2,1-0.2,2.1-0.2,3.1
			c0.1,0.9,0.2,1.8,0.5,2.7c0,0,0,0,0,0.1c-0.2,1.5-0.6,2.9-1,4.3c-0.5,1.4-1,2.8-1.6,4.2c0.8-1.3,1.5-2.6,2.1-4c0.4-1,0.8-2,1.1-3
			c0.1,0.1,0.1,0.2,0.2,0.4c-0.1,0.7-0.2,1.4-0.2,2.1c0,1.1,0.1,2.1,0.3,3.2l-0.3,0.4c-0.6,0.6-1.4,1-2.2,1.1
			c0.9-0.1,1.7-0.4,2.4-0.9c0.1-0.1,0.2-0.1,0.3-0.2c0.1,0.3,0.2,0.7,0.3,1c-0.1-0.4-0.1-0.7-0.2-1.1c0.5-0.5,1-1,1.4-1.6
			c0.2-0.3,0.4-0.7,0.6-1c0.5,0.5,0.9,0.9,1.5,1.3c-0.4,0.9-0.9,1.8-1.4,2.7c0.6-0.8,1.2-1.6,1.7-2.5c0.3,0.2,0.7,0.5,1,0.7
			c0.6,0.4,1.2,0.7,1.8,1c0,0.4-0.1,0.9-0.2,1.3c0.1-0.4,0.2-0.8,0.3-1.2c1.1,0.5,2.2,1,3.3,1.4c-1.1-0.5-2.2-1.1-3.3-1.8
			c0.1-1.2,0-2.4-0.3-3.6c-0.2-0.7-0.4-1.4-0.8-2.1c0.1-0.4,0.3-0.8,0.4-1.2c0.4,1.3,0.8,2.7,1.1,4.1c-0.2-1.9-0.5-3.7-0.9-5.5
			c0-0.4,0-0.8-0.1-1.2c0.1,0.2,0.2,0.5,0.3,0.7c1.1,2.9,1.8,5.9,2.3,8.9c-0.1-3.1-0.5-6.2-1.3-9.2c-0.1-0.3-0.2-0.5-0.2-0.8
			c0.4,1,0.8,2,1.1,3c0.7,2,1.6,3.9,2.8,5.7c0.6,0.9,1.4,1.6,2.3,2.2c0.9,0.6,1.9,0.9,3,1c-1-0.2-2-0.6-2.8-1.2
			c-0.8-0.6-1.5-1.4-2-2.3c-1-1.8-1.7-3.7-2.2-5.7c-0.5-2-1.2-4-1.9-6c-0.1-0.2-0.2-0.3-0.2-0.5c1.5,2.1,2.5,4.6,3,7.2
			C43,33.2,42.5,31,41.7,29c0.5,0.9,1,1.9,1.4,2.8c0.4,1,0.8,1.7,1.3,2.6c-0.1,1.3-0.3,2.7-0.6,4c0.4-1.1,0.7-2.2,0.9-3.4
			c0.2,0.3,0.3,0.6,0.5,0.9c-0.1,0.7-0.3,1.5-0.5,2.2c0.3-0.6,0.5-1.3,0.7-1.9c0.2,0.3,0.3,0.5,0.5,0.8c0.6,0.8,1.2,1.6,2,2.2
			c0.8,0.6,1.7,1.1,2.6,1.2c-0.9-0.3-1.8-0.7-2.5-1.4c-0.7-0.7-1.2-1.5-1.7-2.3c-0.3-0.5-0.5-0.9-0.7-1.4c0.2-0.8,0.3-1.6,0.3-2.4
			c0-1-0.1-2-0.3-2.9l0,0c0.4,0.8,0.8,1.6,1.3,2.4c1.1,2,2.6,3.7,4.4,5c0.9,0.6,2,1.1,3.1,1.3c1.1,0.2,2.2,0.3,3.3,0.1
			c-2.2,0.1-4.3-0.5-6-1.8c-1.5-1.3-2.7-2.9-3.6-4.8c0.9,0.7,1.8,1.4,2.9,1.8c0.8,0.4,1.7,0.6,2.6,0.6c0.9,0,1.8-0.1,2.6-0.4
			c-0.8,0.2-1.7,0.3-2.6,0.2c-0.8-0.1-1.7-0.4-2.4-0.8c-1.5-0.9-2.7-2.1-3.8-3.4l-0.5-0.6c-0.5-1.1-1-2.2-1.5-3.4l0.5,0.4
			c2.7,2.1,5.3,4.4,7.8,6.8c-2-2.4-4.2-4.7-6.4-6.9c1.3,1.2,2.6,2.5,4.1,3.5c2,1.5,4.3,2.7,6.7,3.4c2.4,0.7,4.9,0.9,7.4,0.7
			C62.9,34.1,60.5,33.7,58.2,32.9z M40.5,15.4c0.4-0.2,0.8-0.4,1.2-0.4c-0.6,0.7-1.3,1.3-2,2c-0.5,0.4-1,0.8-1.5,1.1
			C38.6,17,39.4,16,40.5,15.4z M36.9,30.4c0.7,1.1,1.1,2.3,1.1,3.6c0,0.2,0,0.5,0,0.7l-0.6-1.3c-0.2-0.4-0.4-0.8-0.6-1.3
			C36.9,31.6,36.9,31,36.9,30.4L36.9,30.4z M34,29.9c0-0.2,0-0.4,0.1-0.5c0.2,0.4,0.3,0.8,0.5,1.1c-0.3,1-0.7,2-1.1,3.1
			c0,0.1-0.1,0.2-0.1,0.4c0-0.2-0.1-0.3-0.1-0.5C33.6,32.3,33.9,31.1,34,29.9L34,29.9z M13.2,24.3c-0.8,0.9-1.4,1.8-1.9,2.9
			c-0.4,1-0.8,2.1-1,3.2c-0.3,1.1-0.4,2.2-0.6,3.2c-0.1,0.6-0.3,1.2-0.5,1.7c0-0.5,0-0.9-0.1-1.4c-0.1-0.6-0.3-1.2-0.4-1.8
			c-0.2-0.9-0.3-1.7-0.3-2.6c0.7-1.2,1.5-2.2,2.4-3.2c0.8-0.8,1.7-1.5,2.7-2C13.3,24.2,13.2,24.3,13.2,24.3z M9.9,25.5
			c-0.5,0.7-1,1.4-1.4,2.2c0.2-0.9,0.5-1.8,1-2.6c1.3-2,3.3-3.3,5.6-3.8c0.9-0.2,1.8-0.3,2.7-0.3h0c-1.1,0.2-2.3,0.5-3.3,1
			C12.6,22.7,11.1,24,9.9,25.5z M18.8,23.2c-0.2,0.1-0.4,0.3-0.6,0.4c-1,0.4-2,1-2.8,1.7c0.4-0.6,0.9-1.2,1.4-1.7
			C17.4,23.5,18.1,23.3,18.8,23.2z M13.8,30.1c-0.3,0.6-0.6,1.2-0.9,1.8c0.2-1,0.4-2,0.7-3c0.5-0.8,1.2-1.6,1.9-2.2l0.2-0.2
			C15,27.7,14.3,28.9,13.8,30.1L13.8,30.1z M16.9,28c0.6-1.2,1.5-2.2,2.5-3c-0.9,1.2-1.7,2.6-2.2,4c-0.5,1.4-1,2.8-1.4,4.2
			C15.7,31.4,16.1,29.6,16.9,28z M19.1,29.7c-0.7,1.9-1.2,3.8-2,5.6c-0.2,0.5-0.5,1.1-0.7,1.6c-0.2-0.8-0.4-1.5-0.5-2.3
			c0.7-1.7,1.4-3.5,2.3-5.1c0.7-1.5,1.7-2.8,2.8-4l0.2-0.2C20.3,26.6,19.6,28.1,19.1,29.7L19.1,29.7z M22.3,30.6
			c-0.2,0.7-0.4,1.5-0.6,2.2c0-0.9,0.2-1.7,0.4-2.6c0.3-1.1,0.8-2.1,1.4-3C23,28.4,22.6,29.5,22.3,30.6L22.3,30.6z M24.7,33.6
			c0-0.2,0-0.3,0-0.5c0-1.2,0.2-2.5,0.5-3.7c-0.1,0.8-0.2,1.7-0.3,2.5C24.9,32.5,24.8,33.1,24.7,33.6L24.7,33.6z M24.9,36.1
			c0.4-1.3,0.7-2.6,1-4c0.3-1.6,0.7-3.1,1.4-4.5c0.1-0.3,0.3-0.5,0.5-0.7c-0.1,0.5-0.2,0.9-0.2,1.4c0,1.3,0,2.6,0.1,3.9
			c-0.2,0.4-0.5,0.9-0.8,1.3c-0.7,1.2-1.4,2.3-2,3.6C25.1,36.8,25,36.5,24.9,36.1L24.9,36.1z M26.9,40.2c-0.2,0.3-0.3,0.7-0.5,1
			c-0.3-0.7-0.5-1.4-0.7-2.1c-0.1-0.4-0.2-0.8-0.3-1.2c0,0,0.1-0.1,0.1-0.1c0.8-1.3,1.7-2.5,2.6-3.7c0,0.1,0,0.2,0,0.3
			C28.1,36.4,27.7,38.4,26.9,40.2L26.9,40.2z M34.1,39.6c-0.3,0.5-0.6,1-1,1.5c-0.1-1-0.1-2,0.1-3c0.1-0.4,0.1-0.9,0.3-1.3
			c0,0.1,0.1,0.1,0.1,0.2c0.3,0.5,0.7,0.9,1.1,1.3C34.5,38.8,34.3,39.2,34.1,39.6L34.1,39.6z M35,37.3c-0.2-0.3-0.3-0.5-0.5-0.8
			c-0.2-0.4-0.4-0.7-0.5-1.1c0.2-0.5,0.4-1,0.6-1.5s0.6-1.2,0.9-1.8l0.1,0.2c0,0.9,0,1.7-0.1,2.6C35.3,35.6,35.2,36.5,35,37.3
			L35,37.3z M35.5,38c0.4-1,0.7-2,1-3c0.1-0.3,0.1-0.6,0.2-0.9c0.4,0.7,0.9,1.4,1.3,2.1c-0.2,0.8-0.4,1.6-0.7,2.3
			c-0.1,0.3-0.3,0.7-0.4,1C36.4,39.1,35.9,38.6,35.5,38L35.5,38z M39,38.4c0.4,1,0.6,2.2,0.6,3.3c-0.5-0.3-1-0.7-1.5-1
			s-0.7-0.5-1-0.8c0.2-0.4,0.4-0.7,0.6-1.1c0.3-0.5,0.5-1.1,0.7-1.6C38.6,37.6,38.8,38,39,38.4L39,38.4z M44.1,31.3
			c-0.5-1.2-0.9-2.4-1.5-3.6c0.5,0.5,0.9,1.1,1.2,1.7c0.4,0.9,0.6,1.8,0.6,2.7C44.3,32,44.2,31.7,44.1,31.3L44.1,31.3z M44.4,16.4
			c-1.1,0.4-2.2,0.9-3.3,1.4h-0.1c0.7-0.8,1.4-1.7,2-2.6c0.1-0.1,0.1-0.2,0.2-0.3c0.3,0,0.7,0.1,1,0.2c0.5,0.2,1,0.5,1.5,0.8
			L44.4,16.4z M45.4,32.9c0,0.6,0,1.2,0,1.8c-0.2-0.3-0.3-0.7-0.4-1c0.1-0.7,0.2-1.5,0.2-2.3c0.1,0.5,0.2,1.1,0.2,1.6L45.4,32.9z
			 M45.1,19.9L45.1,19.9c1.2-0.2,2.4-0.3,3.6-0.2c0.6,0.2,1.2,0.5,1.8,0.8c1,0.6,1.8,1.4,2.4,2.3c-0.9-0.7-1.9-1.4-3-1.9
			C48.3,20.2,46.7,19.9,45.1,19.9z M45.7,21.4c1.3-0.1,2.6,0.1,3.8,0.5c1.5,0.5,2.9,1.3,4.2,2.3c0.1,0.1,0.2,0.3,0.2,0.5
			c0.4,0.9,0.6,1.8,0.8,2.7l0,0c-0.6-0.4-1.1-0.8-1.7-1.2c-1.8-1.4-3.7-2.8-5.6-4C46.8,21.9,46.3,21.6,45.7,21.4z"/>
		<path class="st6" d="M21.2,21.2c-0.9,0.1-1.7,0.4-2.5,0.9c-0.7,0.4-1.4,1-2,1.6c-1.2,1.3-2.3,2.7-3.3,4.2c0.5-1.7,1.5-3.3,2.7-4.7
			c0.7-0.7,1.4-1.2,2.3-1.6C19.3,21.2,20.3,21,21.2,21.2z"/>
		<path class="st6" d="M14.2,30.3c0.2-0.8,0.4-1.5,0.8-2.3c0.3-0.7,0.7-1.4,1.1-2c0.5-0.7,1.1-1.2,1.7-1.7c0.7-0.4,1.4-0.7,2.2-0.9
			c-0.6,0.4-1.2,0.8-1.8,1.3c-0.6,0.5-1,1-1.5,1.6C15.8,27.6,15.1,29,14.2,30.3z"/>
		<path class="st6" d="M20.7,24.3c-1,1.2-1.9,2.5-2.5,3.9c-0.7,1.4-1.2,2.9-1.9,4.3c0.4-1.5,0.9-3,1.5-4.5c0.3-0.7,0.7-1.4,1.2-2.1
			C19.5,25.3,20,24.8,20.7,24.3z"/>
		<path class="st6" d="M24.2,22.4c-0.7,0.8-1.2,1.6-1.8,2.4c-0.5,0.8-1,1.7-1.4,2.6c-0.9,1.8-1.6,3.6-2.4,5.5c0.2-2,0.8-4,1.7-5.8
			c0.5-0.9,1-1.8,1.6-2.6C22.5,23.6,23.3,22.9,24.2,22.4z"/>
		<path class="st6" d="M18.1,19.9c-1-0.2-1.9-0.5-2.8-1c-0.9-0.5-1.7-1.1-2.3-1.9c-0.6-0.8-1.1-1.6-1.5-2.6
			c-0.3-0.9-0.6-1.9-0.7-2.9c0.4,1.9,1.2,3.7,2.4,5.2c0.6,0.7,1.4,1.4,2.2,1.9C16.3,19.2,17.2,19.6,18.1,19.9z"/>
		<path class="st6" d="M14.2,20.2c-0.8,0.4-1.6,0.9-2.3,1.4c-0.7,0.5-1.4,1.2-2,1.9c-0.6,0.7-1,1.5-1.4,2.3
			c-0.3,0.8-0.6,1.7-0.8,2.6c0-0.9,0.2-1.8,0.5-2.7C8.5,24.8,9,24,9.6,23.3C10.8,21.8,12.4,20.8,14.2,20.2z"/>
		<path class="st6" d="M18.7,21.2c-1,0.2-2,0.5-2.9,0.8c-0.9,0.4-1.8,0.8-2.7,1.4c-1.6,1.2-3.1,2.7-4.3,4.3c0.5-0.9,1.1-1.7,1.8-2.5
			c0.7-0.8,1.4-1.5,2.3-2.1c0.9-0.6,1.8-1,2.8-1.4C16.7,21.4,17.7,21.2,18.7,21.2z"/>
		<path class="st6" d="M13.2,19.6c-1.3,0.3-2.6,0.7-3.8,1.1c-1.3,0.5-2.4,1.2-3.4,2c0.8-1.1,2-1.9,3.3-2.4
			C10.5,19.9,11.9,19.6,13.2,19.6z"/>
		<path class="st6" d="M22.6,26.9c-0.5,1.1-0.9,2.2-1.1,3.4c-0.2,1.2-0.3,2.4-0.4,3.6C21.1,33.2,21,32.6,21,32c0-0.6,0-1.2,0.1-1.8
			c0.1-0.6,0.3-1.2,0.5-1.8C21.9,27.8,22.2,27.3,22.6,26.9z"/>
		<path class="st6" d="M21.9,19.3c-1.3-1.2-2.1-2.8-2.5-4.5c-0.2-0.8-0.3-1.7-0.3-2.6c0-0.9,0-1.7,0.1-2.6c0.1,0.9,0.1,1.7,0.2,2.6
			c0.1,0.8,0.2,1.7,0.4,2.5C20.1,16.4,20.9,17.9,21.9,19.3z"/>
		<path class="st6" d="M22.4,19.9c0.6,0.5,1.2,0.9,1.8,1.3c0.6,0.4,1.3,0.8,1.9,1.2c-0.7-0.2-1.4-0.5-2.1-0.9
			C23.4,21.1,22.8,20.6,22.4,19.9z"/>
		<path class="st6" d="M24.6,17.4c0.3,0.6,0.6,1.2,1,1.8c0.4,0.6,0.8,1.1,1.3,1.6c0.5,0.5,1,0.9,1.6,1.2c0.6,0.4,1.2,0.7,1.8,1
			c-1.4-0.3-2.7-1-3.7-2C25.7,20,25,18.7,24.6,17.4z"/>
		<path class="st6" d="M25.3,24.8c-0.5,0.9-1,1.8-1.4,2.8c-0.4,1-0.8,1.9-1.1,2.9l-1,2.9c-0.4,1-0.7,2-1.1,2.9c0.5-2,1.1-4,1.8-6
			c0.4-1,0.7-2,1.2-2.9C24.1,26.4,24.7,25.6,25.3,24.8z"/>
		<path class="st6" d="M24.2,30.9c-0.1,1.5,0,3.1,0.3,4.6c0.3,1.5,0.7,3,1.2,4.4c-0.8-1.4-1.3-2.8-1.6-4.4
			C23.8,34,23.9,32.4,24.2,30.9z"/>
		<path class="st6" d="M24.8,35.2c-0.1-1.8,0.1-3.6,0.5-5.4c0.4-1.8,1.1-3.5,2.2-5c-0.8,1.6-1.4,3.3-1.8,5.1
			C25.3,31.6,25,33.4,24.8,35.2z"/>
		<path class="st6" d="M31.2,22c-1.3-1-2.2-2.5-2.5-4.2c-0.1-0.8-0.1-1.7,0-2.5c0.1-0.8,0.4-1.6,0.9-2.3c-0.2,0.8-0.3,1.6-0.3,2.4
			c0,0.8,0,1.5,0.1,2.3c0.1,0.8,0.4,1.5,0.6,2.2C30.4,20.6,30.8,21.3,31.2,22z"/>
		<path class="st6" d="M30.1,24.4c-0.7,0.6-1.1,1.5-1.3,2.4c-0.2,0.9-0.2,1.8-0.2,2.7c0,1.9,0,3.7-0.2,5.6c-0.4-1.9-0.6-3.8-0.5-5.6
			c0-1,0.1-1.9,0.4-2.9c0.2-0.5,0.4-0.9,0.7-1.3C29.3,24.9,29.7,24.6,30.1,24.4z"/>
		<path class="st6" d="M29.4,28.6c0.5,1.6,0.9,3.3,1.1,5c0.1,0.8,0.2,1.7,0.1,2.6c0,0.9-0.2,1.7-0.5,2.5c0.2-0.8,0.3-1.7,0.3-2.5
			c0-0.8-0.1-1.7-0.2-2.5C30,32,29.6,30.3,29.4,28.6z"/>
		<path class="st6" d="M27.4,33.7c-0.4,1-0.9,2-1.6,2.8c0.1-0.5,0.3-1.1,0.6-1.5C26.7,34.5,27,34,27.4,33.7z"/>
		<path class="st6" d="M32.4,26.9c-0.2,1.2-0.3,2.4-0.3,3.7c0,1.2,0.3,2.4,0.7,3.6c0.4,1.1,1,2.2,1.7,3.2c0.7,1,1.5,2,2.4,2.8
			c-2-1.6-3.5-3.6-4.4-5.9c-0.4-1.2-0.6-2.4-0.6-3.7C31.8,29.3,32,28,32.4,26.9z"/>
		<path class="st6" d="M34.5,24.3c-0.6,1.2-1,2.4-1.2,3.7c-0.1,0.6-0.2,1.3-0.3,1.9c-0.1,0.7-0.2,1.3-0.3,2c-0.3-1.3-0.3-2.7-0.1-4
			c0.1-0.7,0.3-1.4,0.6-2C33.6,25.3,34,24.8,34.5,24.3z"/>
		<path class="st6" d="M34.2,22.8c-1-1.5-1.6-3.3-1.6-5.2c0-0.9,0.1-1.9,0.3-2.8c0.2-0.9,0.7-1.7,1.3-2.4c-0.4,0.8-0.6,1.7-0.7,2.6
			c-0.1,0.9-0.2,1.7-0.2,2.6C33.3,19.4,33.6,21.1,34.2,22.8z"/>
		<path class="st6" d="M32.9,23c-0.4,0.2-0.8,0.5-1,0.9c-0.2,0.4-0.4,0.8-0.6,1.2c-0.3,0.9-0.5,1.8-0.9,2.7c-0.2-1-0.1-2,0.2-2.9
			c0.2-0.5,0.5-0.9,0.8-1.3C31.8,23.1,32.4,22.9,32.9,23z"/>
		<path class="st6" d="M35.3,24.7c0.5,0.6,0.8,1.4,0.8,2.2c0,0.8-0.1,1.6-0.3,2.4c-0.2,0.7-0.5,1.5-0.9,2.2c-0.3,0.7-0.7,1.3-1.1,2
			c0.1-0.8,0.3-1.5,0.5-2.3c0.2-0.7,0.5-1.5,0.7-2.2C35.6,27.6,35.7,26.1,35.3,24.7z"/>
		<path class="st6" d="M36.6,23.7c-0.5-1.9-0.5-3.9,0.2-5.8c0.4-0.9,1-1.8,1.8-2.4c0.8-0.6,1.8-0.9,2.8-0.9
			c-0.9,0.3-1.7,0.8-2.4,1.4c-0.7,0.6-1.2,1.3-1.5,2.2c-0.3,0.9-0.6,1.8-0.7,2.7C36.7,21.8,36.6,22.7,36.6,23.7z"/>
		<path class="st6" d="M36.8,27.8c0.6,0.6,1.1,1.3,1.4,2.1c0.6,1.6,0.9,3.3,0.6,5c-0.1,0.9-0.4,1.7-0.8,2.4c0.3-1.6,0.4-3.2,0.2-4.8
			c-0.1-0.8-0.3-1.6-0.5-2.4C37.5,29.3,37.2,28.5,36.8,27.8z"/>
		<path class="st6" d="M13.2,24.8c-0.8,1.1-1.4,2.3-1.9,3.5c-0.4,1.3-0.8,2.6-1.1,3.9c0-1.4,0.3-2.7,0.8-4
			C11.5,26.9,12.2,25.7,13.2,24.8z"/>
		<path class="st6" d="M36,31.2c0.1,1,0.1,2.1,0,3.1c-0.1,0.5-0.1,1-0.3,1.5c-0.1,0.5-0.3,1-0.5,1.5c0.1-0.5,0.2-1,0.2-1.5l0.2-1.5
			C35.8,33.3,35.9,32.3,36,31.2z"/>
		<path class="st6" d="M37.1,25c0,0.5,0.1,1,0.2,1.5c0.1,0.5,0.3,0.9,0.5,1.4c0.4,0.9,0.8,1.8,1.2,2.8s0.8,1.8,1.1,2.8
			c0.3,0.9,0.6,1.9,0.7,2.9c-0.3-1-0.6-1.9-1-2.8c-0.4-0.9-0.8-1.8-1.2-2.7s-0.8-1.8-1.1-2.8C37.2,27,37,26,37.1,25z"/>
		<path class="st6" d="M27.7,23c-0.5,0.3-0.9,0.8-1.2,1.3c-0.3,0.5-0.6,1-0.9,1.5c-0.5,1.1-1,2.1-1.4,3.3c0.1-0.6,0.2-1.2,0.4-1.8
			c0.2-0.6,0.4-1.1,0.7-1.7c0.3-0.5,0.6-1.1,1-1.5C26.7,23.6,27.2,23.2,27.7,23z"/>
		<path class="st6" d="M37.7,22.1c-0.1-0.5-0.1-1.1,0-1.6c0.1-0.6,0.3-1.1,0.6-1.6c0.6-0.9,1.4-1.7,2.2-2.5c0.4-0.4,0.8-0.7,1.2-1.1
			s0.7-0.8,1.1-1.2c0.7-0.8,1.4-1.7,2.1-2.5c-0.6,0.9-1.2,1.8-1.9,2.7c-0.7,0.9-1.4,1.7-2.2,2.5c-0.8,0.7-1.6,1.5-2.2,2.4
			C38,20,37.7,21.1,37.7,22.1z"/>
		<path class="st6" d="M38.3,25.6c0.7,0.8,1.3,1.8,1.7,2.8c0.5,1,0.8,2,1.2,3c0.4,1,0.7,2.1,1,3.1s0.5,2.1,0.8,3.2
			c-0.7-2.1-1.3-4.1-2.1-6.2c-0.3-1-0.7-2-1.1-3.1c-0.2-0.5-0.4-1-0.6-1.5C38.9,26.4,38.6,26,38.3,25.6z"/>
		<path class="st6" d="M37.4,23.4c0.8,0.4,1.5,0.9,2,1.6c0.6,0.7,1.1,1.4,1.5,2.2c0.4,0.8,0.7,1.6,1,2.4c0.3,0.8,0.5,1.7,0.6,2.5
			c-0.2-0.8-0.5-1.6-0.8-2.4c-0.3-0.8-0.7-1.6-1-2.3C39.8,25.8,38.7,24.5,37.4,23.4z"/>
		<path class="st6" d="M39.9,25.2c0.8,0.6,1.5,1.3,2,2.2c0.5,0.9,1,1.7,1.4,2.7c0.8,1.8,1.5,3.7,2,5.6c-0.4-0.9-0.8-1.8-1.2-2.8
			s-0.8-1.8-1.2-2.7c-0.4-0.9-0.9-1.8-1.3-2.6C41.3,26.6,40.7,25.8,39.9,25.2z"/>
		<path class="st6" d="M38.3,23c1.1-0.2,2.3,0,3.3,0.6c1,0.6,1.8,1.4,2.5,2.4c0.6,1,1.1,2,1.4,3.1c0.3,1.1,0.4,2.2,0.2,3.4
			c-0.1-1.1-0.3-2.2-0.7-3.2c-0.4-1-0.8-2-1.4-2.9c-0.6-0.9-1.3-1.7-2.2-2.4C40.5,23.4,39.4,23,38.3,23z"/>
		<path class="st6" d="M38.6,22.4c0.7-0.3,1.5-0.4,2.2-0.5c0.8,0,1.5,0.1,2.3,0.3c1.5,0.5,2.8,1.3,3.9,2.4c1.1,1,2.2,2.1,3.2,3.2
			c0.5,0.5,1,1.1,1.6,1.6s1.1,1,1.7,1.5c-0.7-0.4-1.3-0.8-1.9-1.2c-0.6-0.5-1.2-1-1.7-1.5c-1.1-1-2.1-2.1-3.2-3.1
			c-1.1-1-2.3-1.8-3.6-2.4C41.5,22.2,40,22.1,38.6,22.4z"/>
		<path class="st6" d="M43.2,25.6c0.6,0.3,1,0.7,1.4,1.2c0.3,0.5,0.7,1,1,1.6l1.8,3.2c0.6,1.1,1.2,2.1,1.9,3.1
			c0.7,1,1.5,1.9,2.5,2.7c-1.1-0.7-2-1.5-2.7-2.5c-0.7-1-1.4-2-2-3.1c-0.6-1.1-1.1-2.2-1.7-3.3c-0.3-0.5-0.6-1.1-0.9-1.6
			C44.2,26.3,43.8,25.9,43.2,25.6z"/>
		<path class="st6" d="M40.3,20.2c0.9-0.8,1.9-1.5,3-2c1.1-0.6,2.2-1,3.2-1.6s2.2-1,3.2-1.6c1.1-0.6,2-1.2,3-2
			c-0.8,0.9-1.8,1.7-2.8,2.3c-1,0.6-2.1,1.2-3.2,1.7l-3.3,1.5C42.3,19,41.3,19.5,40.3,20.2z"/>
		<path class="st6" d="M40.8,20.8c2-0.8,4.1-1,6.2-0.6c1,0.2,2.1,0.5,3,1c0.9,0.5,1.8,1.1,2.6,1.8c-0.8-0.6-1.7-1.2-2.7-1.6
			c-1-0.4-2-0.7-3-0.9C44.8,20.1,42.7,20.3,40.8,20.8z"/>
		<path class="st6" d="M42.9,21.6c1.2-0.1,2.5,0.1,3.6,0.6c1.1,0.5,2.2,1.1,3.2,1.8c2,1.4,3.9,2.8,5.8,4.4c-2.2-1.1-4.2-2.4-6.2-3.8
			c-1-0.7-2-1.3-3-1.9C45.3,22.1,44.1,21.7,42.9,21.6z"/>
		<path class="st6" d="M43.9,18.7c2-0.7,4.3-0.6,6.2,0.3c1,0.5,1.8,1.2,2.5,2.1c0.6,0.9,1.1,1.8,1.3,2.9c-0.5-0.9-1-1.8-1.7-2.5
			c-0.7-0.7-1.5-1.3-2.4-1.8C48,18.8,45.9,18.5,43.9,18.7z"/>
		<path class="st6" d="M47.2,17.4c0.7-0.1,1.5-0.2,2.3-0.1c0.8,0.1,1.5,0.2,2.2,0.4c0.7,0.2,1.5,0.3,2.2,0.5
			c0.7,0.1,1.5,0.2,2.2,0.1c-0.7,0.2-1.5,0.2-2.3,0.1c-0.8-0.1-1.5-0.2-2.3-0.3C50.1,17.6,48.6,17.4,47.2,17.4z"/>
		<path class="st6" d="M49.6,19.1c1.4,0,2.8,0.4,4,1.2c1.2,0.8,2.2,1.8,3,2.9c-1-1-2-1.9-3.2-2.6c-0.6-0.4-1.2-0.7-1.8-1
			C51,19.4,50.3,19.2,49.6,19.1z"/>
		<path class="st6" d="M47.2,30.4c0.6,0.6,1.2,1.2,1.9,1.7c0.6,0.6,1.3,1.1,2,1.5c-0.4-0.1-0.8-0.3-1.2-0.5
			c-0.4-0.2-0.7-0.5-1.1-0.8c-0.3-0.3-0.6-0.6-0.9-0.9C47.6,31.1,47.4,30.8,47.2,30.4z"/>
	</g>
</g>
</svg>
