<svg xmlns="http://www.w3.org/2000/svg" viewBox="0 0 38.55 56.9"><defs><style>.cls-1{isolation:isolate;}.cls-2{fill:#789307;}.cls-3{fill:#7a6e47;}.cls-4{fill:#6d7f00;}.cls-5{fill:#8ebc00;}.cls-6{fill:#3e422a;}.cls-7{fill:#add600;}.cls-19,.cls-8{mix-blend-mode:multiply;}.cls-9{fill:#e3ebcd;}.cls-10{mix-blend-mode:screen;}.cls-11{fill:#2e4510;}.cls-12{fill:#0d1710;}.cls-13{fill:#616e07;}.cls-14{fill:#869e21;}.cls-15{fill:#7d8d1c;}.cls-16{fill:#7da31c;}.cls-17{fill:#8ca32b;}.cls-18{fill:#98c216;}.cls-19{fill:#d6c7b8;}.cls-20{fill:#c3e245;}.cls-21{fill:#617d07;}.cls-22{fill:#b4d93b;}.cls-23{fill:#a4c931;}.cls-24{fill:#8e8463;}.cls-25{fill:#8fc700;}.cls-26{fill:#6b5d32;}.cls-27{fill:#575a45;}.cls-28{fill:#2c3016;}</style></defs><g class="cls-1"><g id="Layer_1" data-name="Layer 1"><path class="cls-2" d="M39.55,47c.84,1.41-.17,2.65-1.7,3.44s-1.52,1.41-1.44,3.88A2.29,2.29,0,0,0,34,54.24c1.88-1.7,1.53-3,1.08-3.79s-.21-2.09,1.42-3.16,0-2.7,0-2.7a3.93,3.93,0,0,0,.23-2.52h0c.39-2.72.23-2.84-.08-4.08s-1.9-3-1.33-4.45.51-2,1.33-2.25,1-2-.95-3.81A2.5,2.5,0,0,0,34,26.57c2-.54,2.42,1.62,3.72,2.35s1.12,2.14,1,3.31-1.35.41-1.8,1.08-.4,1.36,1.22,3,1,2.59.47,3.49,1,1.3.45,2.15-.4,1.24,0,2.19S38.7,45.6,39.55,47Z" transform="translate(-1.45 -1.04)"/><path class="cls-3" d="M37.35,55.18c0-.76,1.73-.29,1.69.27S37.39,55.94,37.35,55.18Z" transform="translate(-1.45 -1.04)"/><path class="cls-2" d="M37.74,24.13c.68.68,1.3-.17,1.3-.17s-.24,2.2-1.81,1.35,0-2-.73-2.53-.51-1.52,0-2.54a.62.62,0,0,0,.07-.23v0c.39-2.35-.85-3.32-1.81-3.32A1.33,1.33,0,0,1,36.17,16a1.88,1.88,0,0,1,.33.68,1.52,1.52,0,0,1,1.19,2.48c-1.19,2.26-.85,2.37-.34,2.76S37.07,23.45,37.74,24.13Z" transform="translate(-1.45 -1.04)"/><path class="cls-4" d="M35.7,27.48c1.91,1.83,1.76,3.52.95,3.81s-.77.84-1.33,2.25,1,3.21,1.33,4.45.47,1.36.08,4.08a1.66,1.66,0,0,0-.45-.64c-1.19-1-1.41-1.46-1-2.87s.28-2.12-1-3.51l-.69-.78a5,5,0,0,1,.69-3.38c.51-.73,1.47.51,1.52-.79s.79-.67.62-1.18A4,4,0,0,0,35.7,27.48Z" transform="translate(-1.45 -1.04)"/><path class="cls-5" d="M36.73,42.07a3.93,3.93,0,0,1-.23,2.52s1.64,1.63,0,2.7-1.86,2.37-1.42,3.16.8,2.09-1.08,3.79a.59.59,0,0,0-.33.56l-1.14-.56c-.71-2.19,0-4.86.76-7.45s-.85-3.55-.69-5-.61-1.63-1.66-3.94-1-2.6-.38-4.29-1-3.66-.59-4.84,1.12-1.81.59-3.78.47-3.1.38-4.51,1-3,2.05-4.57c0,0,2.21-1.12,3.18.11a1.33,1.33,0,0,0-1.41.72A5.75,5.75,0,0,0,34.13,19c-.05.67-.05,1.3-.05,1.71,0,1.35-1.64,2-1.09,2.87a2.61,2.61,0,0,1-.09,2.95c-.67.87-1,1.5,0,2.35s.39,1.69.09,3.07a2.13,2.13,0,0,0,.68,2.28l.69.78c1.24,1.39,1.41,2.1,1,3.51s-.23,1.86,1,2.87a1.66,1.66,0,0,1,.45.64Z" transform="translate(-1.45 -1.04)"/><path class="cls-4" d="M34.76,16.67c1,0,2.2,1,1.81,3.32.09-1-1.81-2.2-2.43-.95h0A5.75,5.75,0,0,1,34.76,16.67Z" transform="translate(-1.45 -1.04)"/><path class="cls-6" d="M36.5,54.59c0,1-2.7,1.23-2.83.21a.59.59,0,0,1,.33-.56,2.29,2.29,0,0,1,2.41.09A.48.48,0,0,1,36.5,54.59Z" transform="translate(-1.45 -1.04)"/><path class="cls-2" d="M32.23,1.36c1.79,1.13,3.31,1.18,3.65,1a2.4,2.4,0,0,1-3,.56c-1.23-.51-1.46-.17-2.59,1.3A1.81,1.81,0,0,1,28.53,5h0C29.51,3.39,30.45.23,32.23,1.36Z" transform="translate(-1.45 -1.04)"/><path class="cls-2" d="M32.6,41.77c-.16,1.47,1.42,2.42.69,5s-1.47,5.26-.76,7.45l-1.19.09c0-.18-.33-.32-.79-.39a7.12,7.12,0,0,1-1-4.17v0c0-1,2.23-1.17,1.39-2.51s-1.36-2-.6-3.33-.79-2.2-.79-2.2A2.23,2.23,0,0,0,28.11,39c-2-.62-2.44-2.25-1.36-3.15s-.05-1.75.85-2.49a1.91,1.91,0,0,0,0-3.21c-1.4-1.24.12-2.24.51-3.2s-1.11-1.26-.9-3c0-.12,0-.24.07-.37.49-2.09,2.47-2.65,2.41-3.89S29,17.31,30,17s1.14-.79,1-1.75.69-.79,2.05.56c-1.05,1.53-2.16,3.16-2.05,4.57S30,23,30.56,24.92s-.2,2.59-.59,3.78,1.23,3.15.59,4.84-.68,2,.38,4.29S32.76,40.3,32.6,41.77Z" transform="translate(-1.45 -1.04)"/><path class="cls-3" d="M30.55,53.94c.46.07.78.21.79.39.05.63-.84,1-2.74.81,0-.29-.51-.56-1.27-.76C27.54,53.87,29.44,53.75,30.55,53.94Z" transform="translate(-1.45 -1.04)"/><path class="cls-3" d="M28.89,57.08c.26-1,4.1-.88,4.1,0S28.56,58.36,28.89,57.08Z" transform="translate(-1.45 -1.04)"/><path class="cls-7" d="M24.8,28.13a2.25,2.25,0,0,1,.35-.22,1.86,1.86,0,0,0,.82-1c-.45,2-1.25,5.11-1.92,7.47s.79,4.17,1.69,6.48a26.34,26.34,0,0,0,3.14,5.58,6.11,6.11,0,0,1,.67,3.3v0a7.12,7.12,0,0,0,1,4.17c-1.11-.19-3-.07-3.22.44a10.31,10.31,0,0,0-1.13-.22c-2.27-1.62-.78-1.91-1.33-3.43a3.5,3.5,0,0,0-.73-1.33C22.81,47,23.59,46.88,23,46s-.57-.81-.73-2.61.45-2.44-.62-3.25-.78-1.6-.82-2.5-.84-1-.56-2.17a4.11,4.11,0,0,1,.2-.59c.73-1.75,1.36-1.92,1.5-3.08a6.09,6.09,0,0,1,1.86-2.84h0A7.18,7.18,0,0,1,24.8,28.13Z" transform="translate(-1.45 -1.04)"/><path class="cls-6" d="M28.6,55.14c0,1.1-2.92.42-2.92.42-1,1-5,1-4.48-.76.08-.25.37-.43.79-.56h0l.3-.08A7.89,7.89,0,0,1,23.6,54a15.13,15.13,0,0,1,2.6.15,10.31,10.31,0,0,1,1.13.22C28.09,54.58,28.6,54.85,28.6,55.14Z" transform="translate(-1.45 -1.04)"/><path class="cls-5" d="M26.25,4.85A18.11,18.11,0,0,1,28.53,5a3,3,0,0,1-3.69,1.52c-1.25-.38-2.54.21-2.93,2.41s-1.36,2.08-1.58,2.87.62,1.47.28,3,1.29,2,1.69,3-.79,2.65-.39,3.72.84,1.75.39,3.05-1,1.29-.39,2.87-.85,2.42-2.09,3.1-1.07,1.64-.82,2.76a6.47,6.47,0,0,1,.34,2.05,1.34,1.34,0,0,1-.34.71c-.65.73-1.77,1.36-.82,2.59s.17,1.75-.45,2.82S19,43.12,20.86,44.7s-.25,1.69,1.44,3.16c.94.82,1.47,1.14,1.84,1.54a3.5,3.5,0,0,1,.73,1.33c.55,1.52-.94,1.81,1.33,3.43A15.13,15.13,0,0,0,23.6,54V54c-2.25-2.21-1.35-3.61-4.33-6.15S15.42,44.43,15.42,43s-.56-2-.56-3.84-1-2.87,0-4.68,1.46-1.91,1.46-3.77,1.08-3.05,2.32-4.46.73-3.72.9-4.9-.9-2.71-.85-5.07.34-2.71.31-4.06.08-3.78,1.86-5h0L21.17,7C23.26,5.87,24.1,4.91,26.25,4.85Z" transform="translate(-1.45 -1.04)"/><path class="cls-2" d="M26,26.92a1.86,1.86,0,0,1-.82,1,2.25,2.25,0,0,0-.35.22c.2-1.92,1.05-4.11.71-5s-1.24-1.8-1.07-2.93a35.89,35.89,0,0,1,1-3.72c-.24.87-.37,1.84-.55,2.88-.35,2.08,1.71,2.7,1.54,4.39h0A12.41,12.41,0,0,1,26,26.92Z" transform="translate(-1.45 -1.04)"/><path class="cls-5" d="M24.5,16.74c.16-1.2,2.12-2.45,2.24-2.53a4.53,4.53,0,0,0-1.23,2l-.09.28a35.89,35.89,0,0,0-1,3.72c-.17,1.13.73,2.08,1.07,2.93s-.51,3-.71,5a7.18,7.18,0,0,0-.94.78,7.23,7.23,0,0,1,.47-3.6c.51-.9.67-2.42-.17-3a1.76,1.76,0,0,1-.28-2.42C24.32,19.23,24.33,18,24.5,16.74Z" transform="translate(-1.45 -1.04)"/><path class="cls-2" d="M23.59,54V54a7.89,7.89,0,0,0-1.3.15,21.63,21.63,0,0,1-4.37-2.74c-4-4.48-2.9-5.87-3.86-7.34s-.79-2.7-.56-4.23-.34-1.35-1.24-2.65a3.12,3.12,0,0,1-.48-1.78A3.62,3.62,0,0,1,13,32.53c1.18-.79,1.24-2.77.9-4.12A2.55,2.55,0,0,1,15.76,25c1.92-.62.76-1.35,1.59-2s.64-2.59,0-3.66a4.31,4.31,0,0,1-.18-4.51c1-1.86,0-2.52.27-3.43s.91-.74,1-1.93,1-1.89,2.39-2.29C19.08,8.4,19,10.9,19,12.18s-.25,1.69-.31,4.06,1,3.89.85,5.07.33,3.5-.9,4.9-2.32,2.6-2.32,4.46-.45,2-1.46,3.77,0,2.82,0,4.68.56,2.37.56,3.84.85,2.31,3.84,4.84S21.34,51.74,23.59,54Z" transform="translate(-1.45 -1.04)"/><path class="cls-7" d="M8.75,40.43c.06-.15.14-.32.23-.5,1.1-2.25,1.78-3.22,1.27-4.06a1.36,1.36,0,0,1-.25-.82.09.09,0,0,0,0,0,5.8,5.8,0,0,1,.71-1.42A4.88,4.88,0,0,0,11.33,32c-.05.47-.17,1.8-.2,3.45a28.17,28.17,0,0,0,.35,5.27,17.88,17.88,0,0,0,6.45,10.74,21.63,21.63,0,0,0,4.37,2.74l-.3.08h0a9.23,9.23,0,0,0-3-.37c0-.59-1.73-.63-1.65,0l-1,.13a3.08,3.08,0,0,0-1.75-.37A9.93,9.93,0,0,0,9.91,49.1c-1-.68-.16-1.65.59-2.75s1.06-1.61-.5-3S8,42.14,8.75,40.43Z" transform="translate(-1.45 -1.04)"/><path class="cls-3" d="M19,53.87c0,.6-1.56.64-1.65,0S19,53.28,19,53.87Z" transform="translate(-1.45 -1.04)"/><path class="cls-6" d="M16.68,54.47c.08,1.18-4.4,1.71-4.06,0,.11-.52,1.06-.82,2-.84a3.08,3.08,0,0,1,1.75.37A.67.67,0,0,1,16.68,54.47Z" transform="translate(-1.45 -1.04)"/><path class="cls-5" d="M10.5,30.07a1.81,1.81,0,0,1,.85,1.69v0s0,.06,0,.12a.35.35,0,0,0,0,.06,4.88,4.88,0,0,1-.61,1.62A5.8,5.8,0,0,0,10,35c.36-2.52-.23-3.78-1-4.33S7.76,29,6.72,28.92a7.55,7.55,0,0,1,.46-1.39,1.13,1.13,0,0,1,.88-.62C9.7,26.65,9.19,29.14,10.5,30.07Z" transform="translate(-1.45 -1.04)"/><path class="cls-2" d="M10.25,35.87c.51.84-.17,1.81-1.27,4.06-.09.18-.17.35-.23.5a7.26,7.26,0,0,1-.17-3.85c.36-.93.06-1.09-.34-2.19s.34-1.44,0-2.63-.91-1.58-2.46-1.66a1.63,1.63,0,0,0,.94-1.18c1,.06,1.6,1.19,2.33,1.75s1.32,1.81,1,4.33a.09.09,0,0,1,0,0A1.36,1.36,0,0,0,10.25,35.87Z" transform="translate(-1.45 -1.04)"/><path class="cls-7" d="M7.18,27.53a7.55,7.55,0,0,0-.46,1.39,1.63,1.63,0,0,1-.94,1.18h0a.79.79,0,0,1-.22.06c-1.44.28-2.3-1.05-2.62-2.09a3.88,3.88,0,0,1-.13-.58,1.16,1.16,0,0,0-.19-.55C3.92,28.7,5.56,30.05,7.18,27.53Z" transform="translate(-1.45 -1.04)"/><path class="cls-2" d="M2.81,27.49a3.88,3.88,0,0,0,.13.58c-.46-1.39-1.48-.95-1.48-.95a.6.6,0,0,1,1.13-.22l0,0A1.16,1.16,0,0,1,2.81,27.49Z" transform="translate(-1.45 -1.04)"/><g class="cls-8"><path class="cls-9" d="M28.07,52.08a.6.6,0,0,0-.23-.35.5.5,0,0,0-.71,0,.58.58,0,0,0-.2.31.55.55,0,0,0,0,.18s0,.31,0,.09a.53.53,0,0,0,.44.5.48.48,0,0,0,.49,0,.52.52,0,0,0,.24-.57A.68.68,0,0,0,28.07,52.08Z" transform="translate(-1.45 -1.04)"/><path class="cls-9" d="M28.83,50.05a2,2,0,0,1-.53-1.63.4.4,0,0,1,0-.15,2.2,2.2,0,0,0-.25-.17.53.53,0,0,0-.62.07A1.68,1.68,0,0,0,27,49.76a.46.46,0,0,0-.21,0,.51.51,0,0,0,0,1,.47.47,0,0,0,.47-.36,1.22,1.22,0,0,0,.34.34.92.92,0,0,0,.51.57.51.51,0,0,0,.66-.15.88.88,0,0,0,.5-.77A1,1,0,0,1,28.83,50.05Z" transform="translate(-1.45 -1.04)"/><path class="cls-9" d="M25.94,48.87a.58.58,0,0,0-.08-.18l-.08-.11a.62.62,0,0,0-.28-.25.53.53,0,0,0-.41-.06.51.51,0,0,0-.35.62c0,.09,0,.19.06.27a.84.84,0,0,0,.34.43.51.51,0,0,0,.7-.18A.92.92,0,0,0,25.94,48.87Z" transform="translate(-1.45 -1.04)"/><path class="cls-9" d="M25.1,46.44h0c-.11-.51-.44-.94-1-.83a.64.64,0,0,0-.33.19.32.32,0,0,0-.16.14l0,.09a.91.91,0,0,1,.19,1.16l-.05.06a1.11,1.11,0,0,0,.07.16.3.3,0,0,0,.3.16,1.22,1.22,0,0,0,.27.24.35.35,0,0,0,.41-.05A1.38,1.38,0,0,0,25.1,46.44Z" transform="translate(-1.45 -1.04)"/><path class="cls-9" d="M25.91,52.53v.12a.34.34,0,0,0,.67,0v-.12A.34.34,0,0,0,25.91,52.53Z" transform="translate(-1.45 -1.04)"/><path class="cls-9" d="M27.53,46.68a1.07,1.07,0,0,1-.3-.8.52.52,0,0,1,.18-.4h0l0,0a.57.57,0,0,0-1,.27.4.4,0,0,0,0,.19.06.06,0,0,0,0,0l0,.08a1.09,1.09,0,0,0,.43,1.06.34.34,0,0,0,.34,0h0a.63.63,0,0,0,.51-.34Z" transform="translate(-1.45 -1.04)"/><path class="cls-9" d="M25.17,44.53a1,1,0,0,0,.11.45.31.31,0,0,0,.29.17.42.42,0,0,0,.36-.19.59.59,0,0,0,.05-.19s0-.07,0-.11,0,0,0,0a.28.28,0,0,0-.14-.25A.34.34,0,0,0,25.17,44.53Z" transform="translate(-1.45 -1.04)"/><path class="cls-9" d="M24.05,44.4A.39.39,0,0,0,24.2,44a.3.3,0,0,0-.1-.17.16.16,0,0,0-.08-.06l0,0,0,0h0l0,0a.33.33,0,0,0-.4,0,.34.34,0,0,0-.34.5.57.57,0,0,0,.27.28A.47.47,0,0,0,24.05,44.4Z" transform="translate(-1.45 -1.04)"/><path class="cls-9" d="M24,43.73l0,0Z" transform="translate(-1.45 -1.04)"/><polygon class="cls-9" points="22.58 42.71 22.57 42.71 22.58 42.71 22.58 42.71"/><path class="cls-9" d="M23.65,41.77a.69.69,0,0,0,.16.58.34.34,0,0,0,.56-.15.45.45,0,0,0,0-.36s0,0,0,0v0A.34.34,0,0,0,23.65,41.77Z" transform="translate(-1.45 -1.04)"/><path class="cls-9" d="M25.48,42.76a1.21,1.21,0,0,1-.25-1.13.35.35,0,0,0-.52.08.88.88,0,0,0-.05.15.29.29,0,0,0-.22.3.78.78,0,0,0,0,.16c-.09.24.1.46.29.6a.4.4,0,0,0,.24.25,1.18,1.18,0,0,0,.18.13.33.33,0,0,0,.46-.12,1,1,0,0,0,.12-.23A1,1,0,0,1,25.48,42.76Z" transform="translate(-1.45 -1.04)"/><path class="cls-9" d="M22.69,39.22a.34.34,0,0,0-.49.38,1.42,1.42,0,0,0,.17.42.33.33,0,0,0,.56.24A.63.63,0,0,0,22.69,39.22Z" transform="translate(-1.45 -1.04)"/><path class="cls-9" d="M22.6,36.87a.39.39,0,0,1,.13-.44.33.33,0,0,0-.37-.1.34.34,0,0,0-.46.31.78.78,0,0,0,.48.78.3.3,0,0,0,.31-.08l0,0,0,0a.16.16,0,0,0,0-.07A.85.85,0,0,1,22.6,36.87Z" transform="translate(-1.45 -1.04)"/><path class="cls-9" d="M23.31,34.72a.34.34,0,0,0,0-.67A.34.34,0,0,0,23.31,34.72Z" transform="translate(-1.45 -1.04)"/><path class="cls-9" d="M24.2,30.75a.35.35,0,0,0-.49-.21.11.11,0,0,1,0,.05l-.06.17a1.27,1.27,0,0,1-.2.53.38.38,0,0,1-.11.11,1,1,0,0,0,.05.48A.34.34,0,0,0,24,32a1,1,0,0,0,.26-.55A1.08,1.08,0,0,0,24.2,30.75Z" transform="translate(-1.45 -1.04)"/></g><g class="cls-10"><path class="cls-11" d="M24.47,39.9l-.06.25a.5.5,0,0,1-.95,0,.48.48,0,0,0,0,.59l.09.07a.45.45,0,0,0,.15.19.4.4,0,0,0,.32.08h0a.35.35,0,0,0,.38-.15A.84.84,0,0,0,24.47,39.9Z" transform="translate(-1.45 -1.04)"/><path class="cls-11" d="M22.33,37.9a.32.32,0,0,0-.22-.23.34.34,0,0,0-.59.3c0,.09,0,.18.06.27a.67.67,0,0,0,.27.33c.21.16.5-.06.51-.29a1.79,1.79,0,0,0,0-.33S22.34,37.92,22.33,37.9Z" transform="translate(-1.45 -1.04)"/><path class="cls-11" d="M22.91,33.83a.74.74,0,0,0-.27-.56v0a.35.35,0,0,0-.53-.19.3.3,0,0,0-.25.16,2.45,2.45,0,0,0-.22,1,.34.34,0,0,0,.1.25l0,.11a1.26,1.26,0,0,0,.25.76.63.63,0,0,1,.22.16.3.3,0,0,0,.37-.15.06.06,0,0,0,0,0,1.16,1.16,0,0,1,0-1.18A.47.47,0,0,1,22.91,33.83Z" transform="translate(-1.45 -1.04)"/><path class="cls-11" d="M23,37.1s0,0,0,0v0a.67.67,0,0,0-.26.93,1.51,1.51,0,0,0,.45.6l0,.06a.33.33,0,0,0,.51.36A2.12,2.12,0,0,0,23,37.1Z" transform="translate(-1.45 -1.04)"/><path class="cls-11" d="M21.59,35.25a.27.27,0,0,0-.12-.09.36.36,0,0,0-.57.15,1.42,1.42,0,0,0,0,.2,0,0,0,0,0,0,0,.39.39,0,0,0,0,.26.31.31,0,0,0,.14.26.34.34,0,0,0,.16.1A.66.66,0,0,1,21.59,35.25Z" transform="translate(-1.45 -1.04)"/><path class="cls-11" d="M25.65,46.27a1,1,0,0,1-.39-.26,1.34,1.34,0,0,0,.24,1.18.33.33,0,0,0,.48,0,1,1,0,0,0,.08-.11A.31.31,0,0,0,26.2,47a1,1,0,0,0,.11-.77A.85.85,0,0,1,25.65,46.27Z" transform="translate(-1.45 -1.04)"/><path class="cls-11" d="M28.66,46.53a.67.67,0,0,0-.2-.32.34.34,0,0,0-.57.15,1.42,1.42,0,0,0,0,.2.36.36,0,0,0,0,.23.7.7,0,0,0,0,.14.34.34,0,0,0,.62.08.64.64,0,0,0,.06-.18A.34.34,0,0,0,28.66,46.53Z" transform="translate(-1.45 -1.04)"/><path class="cls-11" d="M23.23,42.19a.48.48,0,0,1-.08.33.76.76,0,0,0-.12.19l0,0a.44.44,0,0,0,0,.1V43c0,.07,0,.14,0,.21a.41.41,0,0,1-.08.3.27.27,0,0,0,.2,0,.25.25,0,0,0,.26-.09,1.05,1.05,0,0,0,.3-.81A.46.46,0,0,0,23.23,42.19Z" transform="translate(-1.45 -1.04)"/><path class="cls-11" d="M25.14,28.77a1.17,1.17,0,0,0-.07-.25.3.3,0,0,0-.28-.16,1.27,1.27,0,0,1-1.06,1.15,1.13,1.13,0,0,0-.08.48.36.36,0,0,0,.34.34c.66,0,1.13-.66,1.16-1.3v0A.28.28,0,0,0,25.14,28.77Z" transform="translate(-1.45 -1.04)"/><path class="cls-11" d="M22.74,31.14a.34.34,0,0,0,.57-.25.41.41,0,0,0-.18-.4.42.42,0,0,0-.51.11A.32.32,0,0,0,22.74,31.14Z" transform="translate(-1.45 -1.04)"/></g><g class="cls-10"><path class="cls-11" d="M20.91,45.42a1.62,1.62,0,0,0-.21-.35A.63.63,0,0,0,20,44.9a.72.72,0,0,0-.34.64,1.24,1.24,0,0,1,.75.31C20.55,45.72,20.73,45.57,20.91,45.42Z" transform="translate(-1.45 -1.04)"/><path class="cls-11" d="M20.73,46.45a2.34,2.34,0,0,1,.05.3,1.43,1.43,0,0,1-.1.65,1.2,1.2,0,0,0,.23.11.34.34,0,0,0,.38-.16,1.19,1.19,0,0,0-.14-1.22Z" transform="translate(-1.45 -1.04)"/><path class="cls-11" d="M18.39,44.15a.31.31,0,0,0-.33.09.47.47,0,0,0,0,.7.48.48,0,0,0,.68-.44A.48.48,0,0,0,18.39,44.15Z" transform="translate(-1.45 -1.04)"/><path class="cls-11" d="M16.87,43.54l-.06-.06a.67.67,0,0,1-.07-.85.37.37,0,0,0-.22-.06.39.39,0,0,0-.11-.06.34.34,0,0,0-.41.24A1.42,1.42,0,0,0,16.37,44a.34.34,0,0,0,.48,0,.94.94,0,0,0,.19-.32A.66.66,0,0,1,16.87,43.54Z" transform="translate(-1.45 -1.04)"/><path class="cls-11" d="M17.54,40.59a.9.9,0,0,1-.23-.68.83.83,0,0,1-.66-.67c0-.05,0-.11,0-.16a1.35,1.35,0,0,0-.11.73v.1l.09.05a1.12,1.12,0,0,1,.44.91.34.34,0,0,1,0,.1.28.28,0,0,0,.18-.09s0,0,0,0a.4.4,0,0,0,.27-.09.69.69,0,0,0,.11-.13Z" transform="translate(-1.45 -1.04)"/><path class="cls-11" d="M16.59,36.75a1.19,1.19,0,0,0-.43-.63.35.35,0,0,0-.5.21,1.18,1.18,0,0,0-.07.2l-.08,0s0,0,0,.06A5.51,5.51,0,0,0,16.59,36.75Z" transform="translate(-1.45 -1.04)"/><path class="cls-11" d="M15.88,37.83a.55.55,0,0,1-.08.34,2.12,2.12,0,0,0-.11.21.64.64,0,0,0,.41.15.6.6,0,0,0,.65-.62A8.52,8.52,0,0,1,15.88,37.83Z" transform="translate(-1.45 -1.04)"/><path class="cls-11" d="M17.45,35.85a.34.34,0,0,0,.34-.34h0l0-.15A.35.35,0,0,0,17.3,35h0a.37.37,0,0,0-.15.37s0,.06,0,.09A.34.34,0,0,0,17.45,35.85Z" transform="translate(-1.45 -1.04)"/><path class="cls-11" d="M17.34,32.3a.34.34,0,0,0,.68,0v-.45c0-.15,0-.3.05-.45a.27.27,0,0,0-.13-.26.34.34,0,0,0-.59.11,1.22,1.22,0,0,0,0,.63Z" transform="translate(-1.45 -1.04)"/><path class="cls-11" d="M18.07,29.77a.34.34,0,0,0,0-.68A.34.34,0,0,0,18.07,29.77Z" transform="translate(-1.45 -1.04)"/><path class="cls-11" d="M21.14,23.3a.37.37,0,0,0-.21.08l-.09.09a.83.83,0,0,0-.31.52c0,.32,0,.62.38.71a1.65,1.65,0,0,0,.49,0v0a.9.9,0,0,0,.08-.28.08.08,0,0,0,0-.05A.87.87,0,0,1,21.14,23.3Z" transform="translate(-1.45 -1.04)"/><path class="cls-11" d="M19.72,26.37l-.66-.1a1.58,1.58,0,0,0,.35,1,.34.34,0,0,0,.53-.08l.17,0a.83.83,0,0,1-.14-.13A1.08,1.08,0,0,1,19.72,26.37Z" transform="translate(-1.45 -1.04)"/><path class="cls-11" d="M20.11,21.73a1.34,1.34,0,0,1,.24-.63.33.33,0,0,0-.37.15.71.71,0,0,0,0,.91.35.35,0,0,0,.25.15A1,1,0,0,1,20.11,21.73Z" transform="translate(-1.45 -1.04)"/><path class="cls-11" d="M20.7,17.78l.05,0a1.34,1.34,0,0,0-.31-.22.35.35,0,0,0-.38.05.75.75,0,0,0-.3-.09.33.33,0,0,0-.3.19.4.4,0,0,0-.09.2,1.28,1.28,0,0,0,0,.19,1.73,1.73,0,0,0,0,.39,1,1,0,0,1,.78-.29l.08,0,.3-.26A.52.52,0,0,1,20.7,17.78Z" transform="translate(-1.45 -1.04)"/><path class="cls-11" d="M23.81,49.49a.29.29,0,0,1,0-.09,1.92,1.92,0,0,0-.23-.2.2.2,0,0,0-.13,0,1.57,1.57,0,0,1-.61.56.66.66,0,0,1-.75-.06.54.54,0,0,0-.05.11l0,.06a1,1,0,0,0-.17.41.9.9,0,0,1,.28,0,1.82,1.82,0,0,1,1,.94,1,1,0,0,0,0,.1,1.44,1.44,0,0,0,1.07-.46A1.4,1.4,0,0,1,23.81,49.49Z" transform="translate(-1.45 -1.04)"/><path class="cls-11" d="M24.23,51.77a1.87,1.87,0,0,1-.85.29,1.34,1.34,0,0,1-.06.66l-.09.2a1.57,1.57,0,0,0,.35.42.34.34,0,0,0,.48,0,1.16,1.16,0,0,0,.26-.49,1.23,1.23,0,0,0,.14-.31,1,1,0,0,0,0-.18l-.15-.24A2.42,2.42,0,0,1,24.23,51.77Z" transform="translate(-1.45 -1.04)"/><path class="cls-11" d="M19.71,12.46a.34.34,0,0,0,0,.68A.34.34,0,0,0,19.71,12.46Z" transform="translate(-1.45 -1.04)"/><path class="cls-11" d="M19.92,10.22c-.16-.16-.31-.33-.46-.5a1.14,1.14,0,0,0,0,1,.34.34,0,0,0,.53.07l0,0A1.14,1.14,0,0,1,19.92,10.22Z" transform="translate(-1.45 -1.04)"/></g><g class="cls-8"><path class="cls-9" d="M16.68,26.68A2,2,0,0,1,18,25.36a.52.52,0,0,1,.33,0,.19.19,0,0,0,0-.07c-.2-.45-.5-.57-.8-.49a.33.33,0,0,0-.33.14,1.73,1.73,0,0,0-.48.49.64.64,0,0,0-.55.33A3,3,0,0,0,16.68,26.68Z" transform="translate(-1.45 -1.04)"/><path class="cls-9" d="M15.52,26.49a.87.87,0,0,0-.16.23.57.57,0,0,0-.41.19c-.56.52-.41,1.93.51,1.89.52,0,.75-.54.8-1.09l.15-.12A3.51,3.51,0,0,1,15.52,26.49Z" transform="translate(-1.45 -1.04)"/><path class="cls-9" d="M14.07,33.78a.37.37,0,0,0,.41-.06.56.56,0,0,0,.21-.61l.07-.06a.34.34,0,0,0-.48-.48l-.07.07a.26.26,0,0,0-.15.07.3.3,0,0,0-.23.15.86.86,0,0,0-.1.52A.61.61,0,0,0,14.07,33.78Z" transform="translate(-1.45 -1.04)"/><path class="cls-9" d="M13.92,35.77a.31.31,0,0,0,0-.23.06.06,0,0,0,0,0,.34.34,0,0,0,0-.2.38.38,0,0,0-.17-.24.34.34,0,0,0-.56,0,1.4,1.4,0,0,0-.1.57.3.3,0,0,0,.13.26h0a.34.34,0,0,0,.65,0A2.08,2.08,0,0,0,13.92,35.77Z" transform="translate(-1.45 -1.04)"/><path class="cls-9" d="M21.25,51.42a2,2,0,0,0-.52-.79,1,1,0,0,0-.62-.77.85.85,0,0,1-.63.56.89.89,0,0,1-.83-.31,1.24,1.24,0,0,1-.26-.82l-.06,0-.07,0h0l-.08,0a2,2,0,0,0-.24-.25.36.36,0,0,0-.41,0,.6.6,0,0,0-.14.13h-.06a.33.33,0,0,0-.25.32,1.06,1.06,0,0,0,0,.35c-.1.38.2.71.6.91a.82.82,0,0,0,.36.15l.07,0a1.42,1.42,0,0,0,1,.38h0a.49.49,0,0,0,0,.11,1,1,0,0,1,.85.46,1.22,1.22,0,0,1,.22.79.6.6,0,0,0,.21-.08h.12A.71.71,0,0,0,21.25,51.42Z" transform="translate(-1.45 -1.04)"/><path class="cls-9" d="M22.41,53a.94.94,0,0,0-.58-.49.37.37,0,0,0-.21,0,.34.34,0,0,0-.4.49,2.87,2.87,0,0,0,.36.5,1.18,1.18,0,0,0,.55.46c.18.08.46,0,.49-.2A.93.93,0,0,0,22.41,53Z" transform="translate(-1.45 -1.04)"/><path class="cls-9" d="M17.47,47.14c-.17,0-.27.23-.33.38s.1.52.31.68a.33.33,0,0,0,.46-.12.65.65,0,0,0,.14-.46.31.31,0,0,0-.08-.34A.54.54,0,0,0,17.47,47.14Z" transform="translate(-1.45 -1.04)"/><path class="cls-9" d="M15.83,47.21a.33.33,0,0,0-.14.55.44.44,0,0,0,.43.16c.21-.06.26-.26.26-.46A.34.34,0,0,0,15.83,47.21Z" transform="translate(-1.45 -1.04)"/><path class="cls-9" d="M15.76,45.26a.34.34,0,0,0,0,.68A.34.34,0,0,0,15.76,45.26Z" transform="translate(-1.45 -1.04)"/><path class="cls-9" d="M14.59,41.73a.46.46,0,0,0-.2,0h0a.54.54,0,0,0-.5.75.61.61,0,0,0,.05.12,1.21,1.21,0,0,0,.27.5.31.31,0,0,0,.14.09l.08.08a.34.34,0,0,0,.48,0C15.22,42.86,15.22,41.84,14.59,41.73Z" transform="translate(-1.45 -1.04)"/></g><g class="cls-8"><path class="cls-9" d="M31.17,50.83a2.36,2.36,0,0,1-.44-.5.29.29,0,0,0-.08.14c0,.05,0,.1,0,.15a.89.89,0,0,0-.08.29,1.7,1.7,0,0,0,0,.27l0,.11a1.25,1.25,0,0,0,.13.4.34.34,0,0,0,.62-.08,2.48,2.48,0,0,0,.06-.61A1,1,0,0,1,31.17,50.83Z" transform="translate(-1.45 -1.04)"/><path class="cls-9" d="M31.33,52.24a.18.18,0,0,0-.07-.05.33.33,0,0,0-.46.12,1.05,1.05,0,0,0-.13.85,1.09,1.09,0,0,0,.42.91.34.34,0,0,0,.46-.12l.06-.12h.07a.56.56,0,0,0,.36-.26A1.25,1.25,0,0,1,31.33,52.24Z" transform="translate(-1.45 -1.04)"/><path class="cls-9" d="M31.36,49.11a2.1,2.1,0,0,0,.49.81.1.1,0,0,0,0,0,2.8,2.8,0,0,0,.17-.63.22.22,0,0,1,0-.08l0,0,0,0,0,0a.25.25,0,0,0,.11-.18,2.51,2.51,0,0,0,.21-.6.31.31,0,0,0-.11-.34.27.27,0,0,0-.13-.19.34.34,0,0,0-.59.21v.22h0a.3.3,0,0,0-.23.1,1.24,1.24,0,0,0-.24.49A.92.92,0,0,1,31.36,49.11Z" transform="translate(-1.45 -1.04)"/><path class="cls-9" d="M31.32,45.77a1.43,1.43,0,0,1,.7-1.09.59.59,0,0,1,.59,0,.53.53,0,0,1,.12-.14.37.37,0,0,0-.15-.13l-.13-.1a.31.31,0,0,0-.32,0,.32.32,0,0,0-.38.06,1.15,1.15,0,0,0-.14.17,1.27,1.27,0,0,0-.29-.28.34.34,0,0,0-.5.2,1.34,1.34,0,0,0,0,1.08,1.23,1.23,0,0,0,.08.89.73.73,0,0,0,.43.61.34.34,0,0,0,.46-.12,1,1,0,0,0,.11-.23A1,1,0,0,1,31.32,45.77Z" transform="translate(-1.45 -1.04)"/><path class="cls-9" d="M31,42.56c0,.21.06.45.3.49a.35.35,0,0,0,.42-.23.39.39,0,0,0-.05-.28A.34.34,0,0,0,31,42.56Z" transform="translate(-1.45 -1.04)"/><path class="cls-9" d="M30.7,39.62a.32.32,0,0,0-.16,0,.84.84,0,0,1,0,.39A2,2,0,0,1,30,41.21a.59.59,0,0,0,.83.1C31.32,41,31.18,39.91,30.7,39.62Z" transform="translate(-1.45 -1.04)"/><path class="cls-9" d="M29.8,38.75l0,0a.3.3,0,0,0,.08-.21,1.16,1.16,0,0,0-.2-.59v0a2.27,2.27,0,0,0-.45-.48.43.43,0,0,0-.28-.09h0l-.07,0a.26.26,0,0,0-.16.15l0,0v0a1,1,0,0,0,.5,1.19A.52.52,0,0,1,29.8,38.75Z" transform="translate(-1.45 -1.04)"/><path class="cls-9" d="M27.35,36.94a.36.36,0,0,0-.18,0,.35.35,0,0,0-.24.42.86.86,0,0,0,.23.39.47.47,0,0,0,.62,0,.55.55,0,0,0,0-.81A.32.32,0,0,0,27.35,36.94Z" transform="translate(-1.45 -1.04)"/><path class="cls-9" d="M29.13,34.8a1.06,1.06,0,0,0-.17-.2.34.34,0,0,0-.53.07l0,0a.27.27,0,0,0-.15.13,1.28,1.28,0,0,0-.14.79,1,1,0,0,0,.25.86.35.35,0,0,0,.41,0l.08-.08A1.13,1.13,0,0,1,29.13,34.8Z" transform="translate(-1.45 -1.04)"/><path class="cls-9" d="M29.15,33h0a.33.33,0,0,0-.33.42.37.37,0,0,0,.71,0,.33.33,0,0,0-.33-.42Z" transform="translate(-1.45 -1.04)"/><path class="cls-9" d="M29.83,32.51c.28-.12.32-.5.29-.76a.67.67,0,0,0-.46-.64h0a.09.09,0,0,0,0-.05.34.34,0,0,0-.47-.12.92.92,0,0,0-.45.78.91.91,0,0,0,.35.66A.71.71,0,0,0,29.83,32.51Z" transform="translate(-1.45 -1.04)"/><path class="cls-9" d="M28.55,29.62a.61.61,0,0,0,.24-.21.72.72,0,0,0-.06-.72.33.33,0,0,0-.38-.15l-.12,0h0a.35.35,0,0,0-.46.12.74.74,0,0,0,0,.69.57.57,0,0,0,.3.25A.33.33,0,0,0,28.55,29.62Z" transform="translate(-1.45 -1.04)"/><path class="cls-9" d="M30,26.6a.32.32,0,0,0-.47,0c.06-.06,0,0,0,0l-.05,0-.08,0h-.05l-.09,0c-.27.12-.18.55.08.62a.86.86,0,0,0,.65-.22A.32.32,0,0,0,30,26.6Z" transform="translate(-1.45 -1.04)"/><path class="cls-9" d="M30.09,22.1a.35.35,0,0,0-.06-.17.58.58,0,0,0-.06-.17.34.34,0,0,0-.38-.16.62.62,0,0,0-.28.18,2.36,2.36,0,0,1-.44,1.34,2.89,2.89,0,0,1-.67.64,1,1,0,0,0,.43.87c.73.45,1-.73,1-1.25a1.44,1.44,0,0,0,0-.62.38.38,0,0,0,.35-.28.37.37,0,0,0,.13-.27h0S30.09,22.13,30.09,22.1Z" transform="translate(-1.45 -1.04)"/></g><g class="cls-8"><path class="cls-9" d="M16.58,51.73a.39.39,0,0,1,0-.53l.05,0a.67.67,0,0,0-.79.23.35.35,0,0,0-.42.25.46.46,0,0,0-.62-.17.64.64,0,0,0-.3.4.67.67,0,0,0-.28.57.63.63,0,0,0,.1.28.6.6,0,0,0,.65.45.38.38,0,0,0,.45,0,5.46,5.46,0,0,1-.19-.66c-.16-.73,1-1,1.12-.31a4.92,4.92,0,0,0,.18.68h.1a.83.83,0,0,0,.35-.18.59.59,0,0,0,.37-.37,1,1,0,0,0,0-.23A1.13,1.13,0,0,1,16.58,51.73Z" transform="translate(-1.45 -1.04)"/><path class="cls-9" d="M14,50.18a.53.53,0,0,1-.47-.76.82.82,0,0,0-.29-.07.35.35,0,0,0-.34.34,1.2,1.2,0,0,0,.88,1.17.36.36,0,0,0,.44-.32.45.45,0,0,0,0-.42A.53.53,0,0,1,14,50.18Z" transform="translate(-1.45 -1.04)"/><path class="cls-9" d="M11.48,48a.34.34,0,0,0-.46.13.57.57,0,0,0,.13.79l0,.1a.34.34,0,0,0,.46.12C12.11,48.85,11.88,48.31,11.48,48Z" transform="translate(-1.45 -1.04)"/><path class="cls-9" d="M12.51,46.29a.32.32,0,0,1-.31.21.35.35,0,0,1-.33-.48.32.32,0,0,0-.26.16.83.83,0,0,0-.12.27v0a.74.74,0,0,0-.22.82.53.53,0,0,0,.63.33,1.13,1.13,0,0,0,.22.11.3.3,0,0,0,.23,0,.51.51,0,0,0,.81-.11C13.43,47.17,13,46.6,12.51,46.29Z" transform="translate(-1.45 -1.04)"/><path class="cls-9" d="M11.09,41.93a.21.21,0,0,1,.07-.15.6.6,0,0,0-.19-.16.35.35,0,0,0-.41.05.86.86,0,0,0-.17.8.29.29,0,0,0,.24.23s0,.07,0,.1a.34.34,0,0,0,.58,0l0-.06A.9.9,0,0,1,11.09,41.93Z" transform="translate(-1.45 -1.04)"/><path class="cls-9" d="M9.32,40.9a.34.34,0,0,0,0,.67A.34.34,0,0,0,9.32,40.9Z" transform="translate(-1.45 -1.04)"/><path class="cls-9" d="M10.93,39a.35.35,0,0,1,0-.12.34.34,0,0,0-.65-.18.8.8,0,0,0-.06.3A.34.34,0,0,0,10.93,39Z" transform="translate(-1.45 -1.04)"/></g><g class="cls-10"><path class="cls-11" d="M9.15,28.9a.65.65,0,0,0-.5-.55h0a.56.56,0,0,0-.49-.61.59.59,0,0,0-.56.45.76.76,0,0,0,.08.73.53.53,0,0,0,.14.12.31.31,0,0,0,.38.11s0,.08,0,.13a.28.28,0,0,0,.21.22h0a.32.32,0,0,0,.38.06l.07,0a.34.34,0,0,0,.46-.47Z" transform="translate(-1.45 -1.04)"/><path class="cls-11" d="M10.29,30.58a.34.34,0,0,0,0,.68A.34.34,0,0,0,10.29,30.58Z" transform="translate(-1.45 -1.04)"/></g><g class="cls-10"><path class="cls-12" d="M9.81,36.53c0-.36-.35-.76-.72-.54a.53.53,0,0,0-.14.12.49.49,0,0,1,.36.47v.13a.51.51,0,0,1-.5.5h0a.24.24,0,0,0,0,.08.35.35,0,0,0,.41.4.38.38,0,0,0,.17,0l0,0a.35.35,0,0,0,.13-.08l0,0,0,0,0,0a.9.9,0,0,0,.17-.64A1.21,1.21,0,0,0,9.81,36.53Z" transform="translate(-1.45 -1.04)"/><path class="cls-12" d="M9.28,35.07c-.26-.15-.66.14-.46.46a.41.41,0,0,0,.66.11.35.35,0,0,0,0-.48A.33.33,0,0,0,9.28,35.07Z" transform="translate(-1.45 -1.04)"/><path class="cls-12" d="M9.8,32.9a1,1,0,0,0-.6-.78.33.33,0,0,0-.33.08,1.21,1.21,0,0,0-.18.28.42.42,0,0,1-.12.62,1.25,1.25,0,0,0,0,.32.34.34,0,0,0,.26.24.45.45,0,0,0,.19.14.34.34,0,1,0,.33,0C9.77,33.68,9.84,33.23,9.8,32.9Z" transform="translate(-1.45 -1.04)"/><path class="cls-12" d="M7.38,29.44a.34.34,0,0,0,0,.68A.34.34,0,0,0,7.38,29.44Z" transform="translate(-1.45 -1.04)"/></g><g class="cls-10"><path class="cls-11" d="M34.78,51h0a.35.35,0,0,0-.38.16.5.5,0,0,0,0,.13l0,0a1.19,1.19,0,0,0-.21-.52s0-.06,0-.08a.75.75,0,0,0-1-.55.61.61,0,0,0-.18.9.55.55,0,0,0,.1.11,1.14,1.14,0,0,0,.15.36l.06.07a.92.92,0,0,0,.06,1.08l.06.19a.08.08,0,0,0,0,0,.3.3,0,0,0,.12.17.34.34,0,0,0,.5,0,2.12,2.12,0,0,0,.49-1.29.34.34,0,0,0,.57-.25,1.18,1.18,0,0,0,0-.27A.36.36,0,0,0,34.78,51Z" transform="translate(-1.45 -1.04)"/><path class="cls-11" d="M34.51,48v-.17a.53.53,0,0,1,.53-.53.54.54,0,0,1,.3.1,1,1,0,0,0,.2-.6.34.34,0,0,0-.66-.09s0,0,0,0a.28.28,0,0,0,0,.24l-.14.2a.46.46,0,0,0-.5-.22c-.29.07-.37.45-.41.7a.81.81,0,0,0,0,.44.28.28,0,0,0,0,.09.34.34,0,0,0,.32.25.79.79,0,0,0,.45-.21A.48.48,0,0,1,34.51,48Z" transform="translate(-1.45 -1.04)"/><path class="cls-11" d="M36.87,45.8l0,0a.37.37,0,0,0-.22-.17l0,0h0c-.27-.19-.71.12-.49.44l.06.08s0,0,0,.06a.32.32,0,0,0,.49.19l.12,0A.32.32,0,0,0,36.87,45.8Z" transform="translate(-1.45 -1.04)"/><path class="cls-11" d="M35,45.59a.49.49,0,0,1-.5-.49,1.52,1.52,0,0,1,0-.21s.05-.16,0,0a.55.55,0,0,1,.29-.46l-.07-.06a.35.35,0,0,0-.47.12,1.17,1.17,0,0,0-.14.7.82.82,0,0,0,.09.66.23.23,0,0,0,.11.11.34.34,0,0,0,.41.07.78.78,0,0,0,.28-.26.26.26,0,0,0,.19-.23A.41.41,0,0,1,35,45.59Z" transform="translate(-1.45 -1.04)"/><path class="cls-11" d="M36.4,43.52a.52.52,0,0,0,0-.5c-.16-.25-.44-.18-.62,0a.33.33,0,0,0,0,.43.33.33,0,0,0,.16.21A.33.33,0,0,0,36.4,43.52Z" transform="translate(-1.45 -1.04)"/><path class="cls-11" d="M35,42.67c-1-.11-1.92-1.6-.93-2.27a.78.78,0,0,0-.22-.12.47.47,0,0,0-.44.06.7.7,0,0,0-.64.92.82.82,0,0,0,.86.67c-.11.61.16,1.4.76,1.43a.68.68,0,0,0,.75-.69Z" transform="translate(-1.45 -1.04)"/><path class="cls-11" d="M33.87,38.07a.3.3,0,0,0-.4.23.77.77,0,0,0,0,.15,2.34,2.34,0,0,0-.09.24.29.29,0,0,0,.2.39.56.56,0,0,0,.18.16.34.34,0,0,0,.42-.07.32.32,0,0,0,.1-.1,1.08,1.08,0,0,0,.13-.43.86.86,0,0,0-.13-.42A.31.31,0,0,0,33.87,38.07Z" transform="translate(-1.45 -1.04)"/><path class="cls-11" d="M34.06,36.43a.33.33,0,0,0-.42.35.37.37,0,0,0,.15.38.36.36,0,0,0,.47-.12A.39.39,0,0,0,34.06,36.43Z" transform="translate(-1.45 -1.04)"/><path class="cls-11" d="M32.67,37a.87.87,0,0,0-.07-.17c0-.17,0-.33-.06-.47a.27.27,0,0,0-.39-.22l-.09-.1a.35.35,0,0,0-.43,0,.39.39,0,0,1,.09.56,6.64,6.64,0,0,0,.42.85,4.07,4.07,0,0,1,.2,1h0a.36.36,0,0,0,.39-.16A1.31,1.31,0,0,0,32.67,37Z" transform="translate(-1.45 -1.04)"/><path class="cls-11" d="M32.25,34a.32.32,0,0,0-.2-.07.31.31,0,0,0-.32.36v0a.38.38,0,0,0,0,.21,1,1,0,0,0,0,.1h0a.35.35,0,0,0,.34.31.34.34,0,0,0,.33-.31.36.36,0,0,0,.09-.32.48.48,0,0,0-.08-.16A.38.38,0,0,0,32.25,34Z" transform="translate(-1.45 -1.04)"/><path class="cls-11" d="M32.54,32a.33.33,0,0,0-.41-.24.42.42,0,0,0-.24.19.31.31,0,0,0-.05.28.33.33,0,0,0,.41.24.4.4,0,0,0,.24-.2A.28.28,0,0,0,32.54,32Z" transform="translate(-1.45 -1.04)"/><path class="cls-11" d="M32.91,30a1,1,0,0,0-.12-.51.3.3,0,0,0-.31-.16.92.92,0,0,1-.24.43.79.79,0,0,1-1.09,0v0a1.51,1.51,0,0,0-.27.62c0,.19.09.45.32.43a1.25,1.25,0,0,0,.45-.14.75.75,0,0,0,.42-.28h0a1,1,0,0,0,.3.32.33.33,0,0,0,.46-.12A1,1,0,0,0,32.91,30Z" transform="translate(-1.45 -1.04)"/><path class="cls-11" d="M31.27,27.36a.35.35,0,0,0,.24.42.38.38,0,0,0,.37-.13.34.34,0,0,0,.23-.31c0-.23-.06-.5-.36-.5S31.31,27.11,31.27,27.36Z" transform="translate(-1.45 -1.04)"/><path class="cls-11" d="M32.05,24.38a.33.33,0,0,0-.35.07.77.77,0,0,0-.24.53v0a.55.55,0,0,0,0,.4.57.57,0,0,0,.43.42.28.28,0,0,0,.25.11.33.33,0,0,0,.31-.42,1,1,0,0,0,.06-.53,2.64,2.64,0,0,0,0-.29A.33.33,0,0,0,32.05,24.38Z" transform="translate(-1.45 -1.04)"/><path class="cls-11" d="M32.54,22.06a1.6,1.6,0,0,1,.3-1.66.56.56,0,0,1,.15-.1l0-.05a1.31,1.31,0,0,0-.12-.41.3.3,0,0,0-.33-.15c-.34-.15-.62.21-.71.51a2.26,2.26,0,0,0,0,1.21v.06a.25.25,0,0,0-.17.11,1.13,1.13,0,0,0-.27.64h-.11a.33.33,0,0,0-.31.43l0,.05a.33.33,0,0,0,.21.38.34.34,0,0,0,.14.09.34.34,0,0,0,.42-.24s0-.09,0-.14a.89.89,0,0,0,.87-.58A.61.61,0,0,1,32.54,22.06Z" transform="translate(-1.45 -1.04)"/><path class="cls-11" d="M33.91,17.72a.36.36,0,0,1,.26.09.32.32,0,0,0-.41-.26l-.07,0a.34.34,0,0,0-.56.16,1,1,0,0,0-.05.63.27.27,0,0,0,.14.19.34.34,0,0,0,.53.07l0-.05A.44.44,0,0,1,33.91,17.72Z" transform="translate(-1.45 -1.04)"/><path class="cls-11" d="M34,17.14a.34.34,0,0,0,0-.68A.34.34,0,0,0,34,17.14Z" transform="translate(-1.45 -1.04)"/></g><g class="cls-8"><path class="cls-9" d="M37.42,49.34a1,1,0,0,0,0-.49A1,1,0,0,0,37,48.1a.69.69,0,0,0-.79-.17.84.84,0,0,0-.28.18l-.07,0c-.79,0-.76,1.09-.32,1.64l0,.07c-.26.45-.21,1.09.24,1.23a.39.39,0,0,0-.29.24.74.74,0,0,0-.06.28.89.89,0,0,0-.07.42.6.6,0,0,0,0,.69.34.34,0,0,0,.58,0,1.47,1.47,0,0,0,.24-.44,1,1,0,0,0,.08-.45,1.42,1.42,0,0,0,.12-.25C36.09,50.63,36.21,49.45,37.42,49.34Z" transform="translate(-1.45 -1.04)"/><path class="cls-9" d="M39,47.72a1,1,0,0,0-.18-.22.37.37,0,0,0-.48,0,.86.86,0,0,0-.31.59.84.84,0,0,0-.13.52.55.55,0,0,0,.59.54h.09a.55.55,0,0,0,.51-.22A1.09,1.09,0,0,1,39,47.72Z" transform="translate(-1.45 -1.04)"/><path class="cls-9" d="M38.6,43.63l.06,0a.74.74,0,0,0-.61-.36H38l-.13,0a.46.46,0,0,0-.33.32,1.33,1.33,0,0,0-.17.44.74.74,0,0,0,.28.75l.11.15a.58.58,0,0,0,.31.14A1.08,1.08,0,0,1,38.6,43.63Z" transform="translate(-1.45 -1.04)"/><path class="cls-9" d="M38.8,45.8a1.27,1.27,0,0,1-.73-.67.37.37,0,0,0-.22.3.85.85,0,0,0,0,.36,1,1,0,0,0,.08.26.31.31,0,0,0,.47.11.35.35,0,0,0,.37-.36Z" transform="translate(-1.45 -1.04)"/><path class="cls-9" d="M37.74,40.86a.81.81,0,0,0-.31.35.62.62,0,0,0,0,.38.4.4,0,0,0,.21.26A.6.6,0,0,0,38,42a.36.36,0,0,0,.3-.17.75.75,0,0,0-.17-.92A.33.33,0,0,0,37.74,40.86Z" transform="translate(-1.45 -1.04)"/><path class="cls-9" d="M36.75,39.92a1.09,1.09,0,0,1-.06.44.91.91,0,0,0-.27-1.45.23.23,0,0,0-.2,0A1.26,1.26,0,0,1,36.75,39.92Z" transform="translate(-1.45 -1.04)"/><path class="cls-9" d="M38.46,37.94a.93.93,0,0,0-.52-.27.33.33,0,0,0-.4.22A1.25,1.25,0,0,0,37.42,39a.44.44,0,0,0,.28.26,1.34,1.34,0,0,0,.21.2.35.35,0,0,0,.41,0l.14-.18C38,38.92,37.92,38.17,38.46,37.94Z" transform="translate(-1.45 -1.04)"/><path class="cls-9" d="M36.54,35a.33.33,0,0,0-.41.22,1.09,1.09,0,0,1,.26,0,.55.55,0,0,1,.54.54.54.54,0,0,1-.41.52c0,.06,0,.12,0,0a1,1,0,0,1,0,.3l.11.08a.33.33,0,0,0,.41-.05l0,0a.34.34,0,0,0,.08-.09A1,1,0,0,0,36.54,35Z" transform="translate(-1.45 -1.04)"/><path class="cls-9" d="M35.94,33.88a.34.34,0,0,0,0-.68A.34.34,0,0,0,35.94,33.88Z" transform="translate(-1.45 -1.04)"/><path class="cls-9" d="M37.11,32.36c0,.11,0,0,0,0l0-.23a.53.53,0,0,1,.52-.53.5.5,0,0,1,.46.3l0-.1c.08-.42-.27-.85-.7-.63l0,0a.86.86,0,0,0-.27.05.71.71,0,0,0-.43.66.68.68,0,0,0,.5.65A.32.32,0,0,1,37.11,32.36Z" transform="translate(-1.45 -1.04)"/></g><path class="cls-13" d="M36.7,42.08c0-.68,0-1.35,0-2a4.75,4.75,0,0,0-.1-.94c-.07-.3-.19-.61-.29-.94C36,37,35,36,34.75,34.41a2.62,2.62,0,0,1,0-.62,2.17,2.17,0,0,1,.18-.56c.12-.3.22-.61.34-.93a4.25,4.25,0,0,1,.22-.5,1.54,1.54,0,0,1,.38-.53,1.6,1.6,0,0,1,.58-.32l0,0h0l0,0,.11-.09a1.09,1.09,0,0,0,.18-.73,2.62,2.62,0,0,0-.21-.89,6.21,6.21,0,0,0-1-1.68l0,0a5.76,5.76,0,0,1,1.22,1.6,3,3,0,0,1,.3,1,1.47,1.47,0,0,1-.19,1,.86.86,0,0,1-.42.31,1.06,1.06,0,0,0-.41.24,2.15,2.15,0,0,0-.46.87c-.1.31-.21.63-.33.95a1.89,1.89,0,0,0-.17,1,5.26,5.26,0,0,0,.64,1.87,9.52,9.52,0,0,1,.81,1.85c.08.33.18.65.23,1a5,5,0,0,1,.05,1c0,.67-.14,1.33-.24,2Z" transform="translate(-1.45 -1.04)"/><path class="cls-14" d="M36.71,42.08a19.11,19.11,0,0,0,.22-2,4.79,4.79,0,0,0,0-1c-.06-.33-.16-.65-.24-1-.35-1.29-1.33-2.35-1.48-3.74a2.13,2.13,0,0,1,.18-1c.13-.31.23-.63.34-1a2.21,2.21,0,0,1,.48-.89c.24-.26.65-.24.82-.54a1.36,1.36,0,0,0,.19-.95,2.91,2.91,0,0,0-.29-.95,5.69,5.69,0,0,0-1.2-1.6l0,0A5.35,5.35,0,0,1,37.05,29a2.91,2.91,0,0,1,.35,1,1.64,1.64,0,0,1-.19,1.13,1,1,0,0,1-.22.24.56.56,0,0,1-.15.1l-.07,0-.06,0a1,1,0,0,0-.34.2,2,2,0,0,0-.39.78c-.1.32-.2.64-.32,1a2.29,2.29,0,0,0-.14.42,2,2,0,0,0,0,.43,5.05,5.05,0,0,0,.6,1.79c.15.3.3.59.45.91.07.15.14.31.2.48a2,2,0,0,1,.08.26,1.14,1.14,0,0,1,.06.25c.07.33.16.65.21,1a5.16,5.16,0,0,1,0,1,19,19,0,0,1-.36,2Z" transform="translate(-1.45 -1.04)"/><path class="cls-15" d="M36.49,20.24a.89.89,0,0,0-.11-.86,1.93,1.93,0,0,0-.66-.61,1.47,1.47,0,0,0-.87-.22.89.89,0,0,0-.69.51h0a.82.82,0,0,1,.2-.48.9.9,0,0,1,.49-.28,1.46,1.46,0,0,1,1.07.19,1.82,1.82,0,0,1,.72.76,1.24,1.24,0,0,1,.12.53.69.69,0,0,1-.21.49Z" transform="translate(-1.45 -1.04)"/><path class="cls-16" d="M39.06,24a3.11,3.11,0,0,1-.32,1,1,1,0,0,1-.87.55,1.76,1.76,0,0,1-1-.41,1.07,1.07,0,0,1-.34-.42,1,1,0,0,1-.07-.54,6.67,6.67,0,0,0,.2-1,.5.5,0,0,0-.09-.23,1.66,1.66,0,0,0-.19-.18,1.12,1.12,0,0,1-.3-.44,1.74,1.74,0,0,1,0-1.06,5.22,5.22,0,0,1,.39-1l0,0a6.32,6.32,0,0,0-.25,1,1.49,1.49,0,0,0,.07.92,1.1,1.1,0,0,0,.25.31l.1.08a.93.93,0,0,1,.14.14.7.7,0,0,1,.15.38,1.71,1.71,0,0,1-.07.63c0,.17-.08.33-.1.47a.68.68,0,0,0,.27.68,1.44,1.44,0,0,0,.39.25,1.37,1.37,0,0,0,.4.14.74.74,0,0,0,.71-.38A3,3,0,0,0,39,24Z" transform="translate(-1.45 -1.04)"/><path class="cls-13" d="M34.76,16.65a1.67,1.67,0,0,1,1,.35,2.13,2.13,0,0,1,.67.87A3.79,3.79,0,0,1,36.6,20h-.05c-.12-.38-.19-.73-.27-1.06a3.09,3.09,0,0,0-.13-.46,2.73,2.73,0,0,0-.16-.43,2.35,2.35,0,0,0-.19-.39,2.18,2.18,0,0,0-.26-.36,2.54,2.54,0,0,0-.78-.62Z" transform="translate(-1.45 -1.04)"/><path class="cls-14" d="M34.76,16.66a1.43,1.43,0,0,1,1.15.18,2,2,0,0,1,.78.93,2.49,2.49,0,0,1,.19,1.16,2.76,2.76,0,0,1-.29,1.1h0a3.83,3.83,0,0,0-.18-2.12,2.13,2.13,0,0,0-.63-.85,1.76,1.76,0,0,0-1-.36Z" transform="translate(-1.45 -1.04)"/><path class="cls-17" d="M36.18,16a1.79,1.79,0,0,1,.34.69v0a2.08,2.08,0,0,1,1.18.52,1.12,1.12,0,0,1,.32.58,1.43,1.43,0,0,1,0,.65,5.17,5.17,0,0,1-.51,1.21,8.31,8.31,0,0,0-.5,1.19,1.14,1.14,0,0,0-.05.63c.06.2.25.32.42.46a.65.65,0,0,1,.19.62c0,.21,0,.43-.06.64a1.52,1.52,0,0,0,0,.64.94.94,0,0,0,.38.5.64.64,0,0,0,.6.08A1.13,1.13,0,0,0,39,24l0,0a1.17,1.17,0,0,1-.5.46.79.79,0,0,1-.73,0,1.1,1.1,0,0,1-.49-.57,1.66,1.66,0,0,1-.1-.72l0-.65a.9.9,0,0,0,0-.25l0-.07h0l0,0a3.4,3.4,0,0,1-.27-.21,1,1,0,0,1-.26-.39,1.55,1.55,0,0,1,0-.81,7,7,0,0,1,.54-1.25,5,5,0,0,0,.51-1.12,1.07,1.07,0,0,0-.18-1,1.35,1.35,0,0,0-.47-.34,2.49,2.49,0,0,0-.57-.22l-.08,0v0a2.26,2.26,0,0,0-.25-.7Z" transform="translate(-1.45 -1.04)"/><path class="cls-18" d="M33,15.83a4.71,4.71,0,0,1,1.65-.49,2.51,2.51,0,0,1,.86.1,1.42,1.42,0,0,1,.7.5l0,0a2.53,2.53,0,0,0-.78-.15,5.7,5.7,0,0,0-.71,0l-.37,0-.4,0a5.31,5.31,0,0,1-.88,0Z" transform="translate(-1.45 -1.04)"/><path class="cls-15" d="M34,26.57a2.28,2.28,0,0,1,1.33.35,3.53,3.53,0,0,1,1,1,3.78,3.78,0,0,1,.33.63,3.24,3.24,0,0,1,.13.33.37.37,0,0,1,0,.14.34.34,0,0,1,0,.24.39.39,0,0,1-.19.17l-.11,0c-.1,0-.11,0-.14.08a.55.55,0,0,0-.08.2,2.09,2.09,0,0,0,0,.28v.16a1.5,1.5,0,0,1,0,.2.84.84,0,0,1-.19.45.64.64,0,0,1-.28.18,1.42,1.42,0,0,1-.27,0,5,5,0,0,0-.62-.1c-.2-.05-.42.45-.6.81A5.71,5.71,0,0,0,33.8,33a4.41,4.41,0,0,0-.11,1.31h0a4.91,4.91,0,0,1,.3-2.65,3.32,3.32,0,0,1,.29-.6.9.9,0,0,1,.2-.28.55.55,0,0,1,.32-.14,3.73,3.73,0,0,1,.67.09.36.36,0,0,0,.28-.1.68.68,0,0,0,.11-.29,4,4,0,0,1,.09-.67.73.73,0,0,1,.14-.31.62.62,0,0,1,.3-.18.23.23,0,0,0,.13-.06.18.18,0,0,0,0-.14,2.83,2.83,0,0,0-.11-.31,4.15,4.15,0,0,0-.29-.6A2.78,2.78,0,0,0,34,26.6Z" transform="translate(-1.45 -1.04)"/><path class="cls-17" d="M36.39,54.34q0-.54-.06-1.08a7.93,7.93,0,0,1,0-1.09,2.13,2.13,0,0,1,.41-1.05,2.93,2.93,0,0,1,.89-.69,4.89,4.89,0,0,0,1.65-1.29,2,2,0,0,0,.39-.91,1.66,1.66,0,0,0-.17-1,3.86,3.86,0,0,1-.44-1,2.77,2.77,0,0,1,0-1.11,1.78,1.78,0,0,0-.13-1,3.53,3.53,0,0,1-.29-1.07A2,2,0,0,1,39,42a.61.61,0,0,0,.1-.48,1.26,1.26,0,0,0-.25-.45,3.94,3.94,0,0,1-.31-.45.83.83,0,0,1-.09-.58,3.31,3.31,0,0,1,.24-.5,3.49,3.49,0,0,0,.23-.48,1.73,1.73,0,0,0,.11-1,2.47,2.47,0,0,0-.43-.93,5.81,5.81,0,0,0-.7-.8c-.25-.27-.49-.54-.72-.83a3.9,3.9,0,0,1-.58-1,1.51,1.51,0,0,1-.09-.6,1.45,1.45,0,0,1,.18-.59l.09-.13,0-.06.06-.06a.77.77,0,0,1,.29-.19,2.11,2.11,0,0,1,.58-.11,1.66,1.66,0,0,0,.48-.08.41.41,0,0,0,.27-.27,1.19,1.19,0,0,0,.05-.22l0-.27c0-.17,0-.35,0-.53a4.51,4.51,0,0,0-.05-1,1.94,1.94,0,0,0-.4-.9,2.05,2.05,0,0,0-.38-.34,5.23,5.23,0,0,1-.45-.31,21.4,21.4,0,0,1-1.44-1.64,2,2,0,0,0-.86-.59,1.87,1.87,0,0,0-1.05,0v0a2,2,0,0,1,1.09-.06,2.13,2.13,0,0,1,1,.56c.54.51.93,1.14,1.48,1.56.14.11.28.18.45.29a2.22,2.22,0,0,1,.44.37,2.34,2.34,0,0,1,.5,1,4.22,4.22,0,0,1,.07,1.12c0,.18,0,.37,0,.55l0,.27a1.59,1.59,0,0,1-.06.3.8.8,0,0,1-.47.48,2.18,2.18,0,0,1-.58.11,1.66,1.66,0,0,0-.48.08.71.71,0,0,0-.17.11l0,0,0,0-.06.1a1,1,0,0,0-.08.9,3.47,3.47,0,0,0,.51.89q.33.42.69.81a6.41,6.41,0,0,1,.7.86,2.54,2.54,0,0,1,.44,1,1.92,1.92,0,0,1-.17,1.11,4.52,4.52,0,0,1-.25.49,3,3,0,0,0-.25.46.67.67,0,0,0,.06.48,3.82,3.82,0,0,0,.3.44,1.2,1.2,0,0,1,.26.5.71.71,0,0,1-.12.55,1.78,1.78,0,0,0-.31,1,3.09,3.09,0,0,0,.3,1,1.93,1.93,0,0,1,.17.53,2.65,2.65,0,0,1,0,.56,2.41,2.41,0,0,0,.06,1,2.53,2.53,0,0,0,.19.48c.08.15.18.3.27.47A1.92,1.92,0,0,1,40,48.27a2.09,2.09,0,0,1-.46,1,4.92,4.92,0,0,1-1.76,1.33,3,3,0,0,0-.83.61,1.87,1.87,0,0,0-.41.93,15.33,15.33,0,0,0-.1,2.15Z" transform="translate(-1.45 -1.04)"/><path class="cls-17" d="M29.51,49.78a.84.84,0,0,1,.22-.56,3.39,3.39,0,0,1,.46-.39,2.46,2.46,0,0,0,.85-.78.68.68,0,0,0,0-.54,3,3,0,0,0-.3-.51,9.47,9.47,0,0,1-.59-1A1.93,1.93,0,0,1,30,44.79a2.25,2.25,0,0,1,.19-.57c.08-.19.19-.36.26-.53a1.27,1.27,0,0,0-.07-1.11,2.33,2.33,0,0,0-.81-.81l0,0v0a2.45,2.45,0,0,0-.34-2,2,2,0,0,0-.84-.61,6.63,6.63,0,0,1-1-.4,2.83,2.83,0,0,1-.84-.7,1.77,1.77,0,0,1-.36-1,1.53,1.53,0,0,1,.42-1c.12-.14.27-.25.38-.38a1.12,1.12,0,0,0,.24-.44,5.34,5.34,0,0,0,0-1.06.94.94,0,0,1,.17-.54,2.87,2.87,0,0,1,.39-.39,2.31,2.31,0,0,0,.6-.85,1.53,1.53,0,0,0,.06-1,2.2,2.2,0,0,0-.53-.89,3,3,0,0,1-.72-.82,1.23,1.23,0,0,1,0-1.09,5.06,5.06,0,0,1,.57-.92A3.79,3.79,0,0,0,28,27.1a1,1,0,0,0,.16-.48c0-.33-.27-.61-.47-.91a2.7,2.7,0,0,1-.45-1,2.67,2.67,0,0,1,0-1.09,4.13,4.13,0,0,1,1-1.92c.23-.27.49-.52.74-.78a2.69,2.69,0,0,0,.63-.84,2,2,0,0,0,0-1c-.07-.35-.17-.7-.22-1.06a1.28,1.28,0,0,1,0-.55.64.64,0,0,1,.39-.4,1.87,1.87,0,0,0,.93-.47,1.22,1.22,0,0,0,.19-1,4.69,4.69,0,0,1-.06-.54.5.5,0,0,1,.08-.28.31.31,0,0,1,.27-.11,1.07,1.07,0,0,1,.52.17,4.53,4.53,0,0,1,.46.3,7.77,7.77,0,0,1,.81.71l-.05.05a7.27,7.27,0,0,0-.84-.65,3,3,0,0,0-.46-.26,1,1,0,0,0-.44-.13.16.16,0,0,0-.11.05.34.34,0,0,0,0,.16,5,5,0,0,0,.09.5,2.27,2.27,0,0,1,0,.59,1.29,1.29,0,0,1-.24.63,1.58,1.58,0,0,1-.52.39,1.39,1.39,0,0,1-.28.12l-.14,0-.09,0a.32.32,0,0,0-.17.18,1.31,1.31,0,0,0,0,.39c.06.31.17.66.25,1a5.21,5.21,0,0,1,.09.57,1.67,1.67,0,0,1-.09.7,3.06,3.06,0,0,1-.7,1c-.25.28-.49.52-.7.78a3.65,3.65,0,0,0-.82,1.69,2.07,2.07,0,0,0,0,.86,1.94,1.94,0,0,0,.38.76c.09.13.21.28.33.46a1.58,1.58,0,0,1,.26.8,1.18,1.18,0,0,1,0,.26s0,.1,0,.13l0,.07,0,.06,0,0,0,.08-.08.15a4.06,4.06,0,0,1-.32.51,4.26,4.26,0,0,0-.5.81.58.58,0,0,0,0,.54,1.57,1.57,0,0,0,.21.28c.07.07.26.23.4.38a2.87,2.87,0,0,1,.7,1.16A2.22,2.22,0,0,1,29,32.53a3.11,3.11,0,0,1-.77,1.09l-.22.19a.38.38,0,0,0-.09.09.35.35,0,0,0-.06.19,4.13,4.13,0,0,1,0,1.2,1.66,1.66,0,0,1-.38.69,4.12,4.12,0,0,1-.4.39,1,1,0,0,0-.26.59,1.45,1.45,0,0,0,.86,1.21,5.79,5.79,0,0,0,.93.39,2.49,2.49,0,0,1,1.06.8,2.63,2.63,0,0,1,.47,1.23A3.54,3.54,0,0,1,30,41.84l-.2-.49a2.93,2.93,0,0,1,.53.45,2.22,2.22,0,0,1,.42.57,1.8,1.8,0,0,1,.2.73,1.66,1.66,0,0,1-.14.74c-.11.25-.21.38-.29.54a1.91,1.91,0,0,0-.17.47,1.65,1.65,0,0,0,.11,1,8.28,8.28,0,0,0,.53,1l.14.26a1.4,1.4,0,0,1,.15.3,1,1,0,0,1,0,.72,1.42,1.42,0,0,1-.45.49c-.17.12-.34.22-.51.32s-.68.44-.69.83Z" transform="translate(-1.45 -1.04)"/><path class="cls-19" d="M33.67,34.43c.31.36.63.69.92,1a2.58,2.58,0,0,1,.75,2.7c-.08.31-.21.64-.27,1a1.85,1.85,0,0,0,0,1,2.5,2.5,0,0,0,.61.85l.38.35a1.82,1.82,0,0,1,.34.34,1.67,1.67,0,0,1,.33.89,4.05,4.05,0,0,1-.34,1.94l0,0,0,0a2.63,2.63,0,0,1,.67,1.18,1.23,1.23,0,0,1,0,.66,1.42,1.42,0,0,1-.36.55c-.17.15-.38.26-.57.41a4,4,0,0,0-.53.47,2.89,2.89,0,0,0-.74,1.23,1.79,1.79,0,0,0,.17,1.41,2.34,2.34,0,0,1,.3,1.32,2.6,2.6,0,0,1-.48,1.28A5.38,5.38,0,0,1,34,54.21l.07.07a5.44,5.44,0,0,0,1.05-1,3.09,3.09,0,0,0,.64-1.38,2.75,2.75,0,0,0-.26-1.57.41.41,0,0,1,0-.08l0-.07,0-.12a1.07,1.07,0,0,1,0-.25,1.41,1.41,0,0,1,.09-.53,2.35,2.35,0,0,1,.66-.93,3.65,3.65,0,0,1,.48-.38l.27-.16.08-.06.11-.07.18-.14a2,2,0,0,0,.59-.84,2.1,2.1,0,0,0,.07-1.05,3.27,3.27,0,0,0-.33-.86c-.06-.11-.13-.21-.19-.31s.15-.46.21-.71a4.2,4.2,0,0,0,.09-1.24,2.68,2.68,0,0,0-.49-1.35,3.82,3.82,0,0,0-.46-.49l-.33-.31a1.46,1.46,0,0,1-.36-.52,1,1,0,0,1,0-.52c0-.26.15-.51.27-.93a4,4,0,0,0,.15-1.29,3.29,3.29,0,0,0-.4-1.32,7,7,0,0,0-.67-1c-.24-.29-.47-.54-.7-.79s-.45-.49-.61-.7a1,1,0,0,1-.25-.49,2,2,0,0,1,.06-.69c0-.21.09-.41.15-.63a4.48,4.48,0,0,0-.42,1.63A9.69,9.69,0,0,0,33.67,34.43Z" transform="translate(-1.45 -1.04)"/><path class="cls-19" d="M34.55,18.65a5.45,5.45,0,0,1,.27-1.58,1.88,1.88,0,0,1,.47-.78,1.2,1.2,0,0,1,.87-.28l0-.1a1.32,1.32,0,0,0-1,.22,2.11,2.11,0,0,0-.63.82,6.42,6.42,0,0,0-.46,2,2.64,2.64,0,0,0,0,.28,2.24,2.24,0,0,1,.21-.36A.82.82,0,0,1,34.55,18.65Z" transform="translate(-1.45 -1.04)"/><path class="cls-20" d="M34,54.23a5.11,5.11,0,0,0,.9-1.07,2.63,2.63,0,0,0,.45-1.28A2.25,2.25,0,0,0,35,50.59a1.89,1.89,0,0,1-.21-1.47,3.12,3.12,0,0,1,.75-1.28,5.07,5.07,0,0,1,.55-.49l.3-.21.25-.2A1.08,1.08,0,0,0,37,45.86a2.54,2.54,0,0,0-.65-1.09l-.11-.11.06-.16a4.11,4.11,0,0,0,.31-1.85,1.47,1.47,0,0,0-.3-.8c-.15-.2-.46-.42-.7-.67a2.61,2.61,0,0,1-.66-.91,2.06,2.06,0,0,1,0-1.15c.07-.36.19-.69.27-1a2.89,2.89,0,0,0,.1-.91,3,3,0,0,0-.82-1.62c-.42-.5-.89-1-1.33-1.54A2.14,2.14,0,0,1,32.64,33a3.06,3.06,0,0,1,.08-1.1A12.54,12.54,0,0,0,33.16,30a1,1,0,0,0-.29-.73c-.1-.1-.23-.2-.36-.35a1.83,1.83,0,0,1-.34-.47,1.28,1.28,0,0,1-.15-.61,1.55,1.55,0,0,1,.15-.59,4.17,4.17,0,0,1,.59-.89,2.31,2.31,0,0,0,.38-1.74,2.54,2.54,0,0,0-.32-.87l-.07-.13a1.42,1.42,0,0,1,0-.16.92.92,0,0,1,0-.33,1.4,1.4,0,0,1,.23-.54c.21-.3.44-.54.62-.81a1.94,1.94,0,0,0,.36-.85,3.62,3.62,0,0,0,0-.48l0-.51q0-.51.09-1a6.88,6.88,0,0,1,.51-2,2,2,0,0,1,.64-.8,1.34,1.34,0,0,1,1-.2v0a1.28,1.28,0,0,0-1,.22,1.9,1.9,0,0,0-.6.79,6.51,6.51,0,0,0-.45,2c-.07.67-.06,1.34-.08,2a2.07,2.07,0,0,1-.38.93c-.19.29-.42.54-.6.82a1.3,1.3,0,0,0-.2.45.72.72,0,0,0,.11.47,2.67,2.67,0,0,1,.36.95,2.52,2.52,0,0,1-.4,1.94,4.75,4.75,0,0,0-.55.85,1.06,1.06,0,0,0,0,.95,2.92,2.92,0,0,0,.66.75,1.37,1.37,0,0,1,.38.93,3.75,3.75,0,0,1-.18,1c-.09.33-.19.65-.26,1A3,3,0,0,0,33,33a1.88,1.88,0,0,0,.42.89c.41.53.89,1,1.32,1.53a3.29,3.29,0,0,1,.88,1.81,3.14,3.14,0,0,1-.11,1c-.09.33-.21.64-.27,1a1.72,1.72,0,0,0,0,1,2.42,2.42,0,0,0,.58.81l.37.34a2,2,0,0,1,.36.36,1.84,1.84,0,0,1,.35.95,4.39,4.39,0,0,1-.35,2v0a2.81,2.81,0,0,1,.7,1.23,1.32,1.32,0,0,1,0,.71,1.52,1.52,0,0,1-.39.59c-.18.16-.39.27-.57.42a3.89,3.89,0,0,0-.53.46A2.77,2.77,0,0,0,35,49.17c-.37,1,.64,1.73.47,2.72A2.84,2.84,0,0,1,35,53.2,5.89,5.89,0,0,1,34,54.26Z" transform="translate(-1.45 -1.04)"/><path class="cls-21" d="M33,15.87A22.24,22.24,0,0,0,31.68,18a4.67,4.67,0,0,0-.7,2.36,8.66,8.66,0,0,1-.43,2.48,4.61,4.61,0,0,0-.09,1.23,6.52,6.52,0,0,0,.24,1.23,4.1,4.1,0,0,1,.08,1.26,3.91,3.91,0,0,1-.36,1.22A5.68,5.68,0,0,0,30,28.93a3.19,3.19,0,0,0,.19,1.21,9.59,9.59,0,0,1,.61,2.44,2.76,2.76,0,0,1-.05.64,4.35,4.35,0,0,1-.2.61A5.56,5.56,0,0,0,30.18,35a2.82,2.82,0,0,0,.16,1.21c.13.39.3.77.46,1.16A16.06,16.06,0,0,0,32,39.6a5,5,0,0,1,.6,1.12A3,3,0,0,1,32.65,42a2.93,2.93,0,0,0,.29,1.19,10.51,10.51,0,0,1,.44,1.18,4.38,4.38,0,0,1-.06,2.51c-.23.81-.45,1.61-.64,2.43a13.79,13.79,0,0,0-.38,2.47,6.91,6.91,0,0,0,.26,2.48l-.06,0A5.91,5.91,0,0,1,32.16,53a7.79,7.79,0,0,1-.08-1.28,15.5,15.5,0,0,1,.25-2.54c.16-.84.37-1.66.57-2.47a3.88,3.88,0,0,0,0-2.24,9.16,9.16,0,0,0-.46-1.12A3.48,3.48,0,0,1,32.06,42a3.16,3.16,0,0,1,0-.35v-.25a1.63,1.63,0,0,0-.09-.46,4.83,4.83,0,0,0-.56-1,15.28,15.28,0,0,1-1.23-2.29,12.4,12.4,0,0,1-.49-1.22,3.44,3.44,0,0,1-.2-1.49,6,6,0,0,1,.39-1.35l.11-.28.06-.23a1.87,1.87,0,0,0,0-.48,9.31,9.31,0,0,0-.56-2.28,3.41,3.41,0,0,1-.18-1.48,2.6,2.6,0,0,1,.24-.73l.26-.58a3.45,3.45,0,0,0,.35-1,3.37,3.37,0,0,0,0-1.09c0-.18-.08-.38-.13-.61A4,4,0,0,1,30,24.1a5.07,5.07,0,0,1,.13-1.36,8.87,8.87,0,0,0,.51-2.37,5,5,0,0,1,.86-2.49,17.77,17.77,0,0,1,1.49-2Z" transform="translate(-1.45 -1.04)"/><path class="cls-18" d="M33,15.88q-.32.55-.6,1.11c-.19.37-.38.74-.54,1.12a4.38,4.38,0,0,0-.49,2.22c0,.1,0,.2,0,.34s0,.25,0,.37-.05.47-.09.69c-.08.43-.18.83-.23,1.21a3.71,3.71,0,0,0,.07,1.6c.05.16.12.36.18.61a4.14,4.14,0,0,1-.26,2.93l-.23.56-.09.25,0,.06h0s0,0,0,0V29c0,.07,0,.05,0,.05a2.65,2.65,0,0,0,.18.86,9.38,9.38,0,0,1,.67,2.66,3.39,3.39,0,0,1-.06.83,3.45,3.45,0,0,1-.12.43l-.11.3a5,5,0,0,0-.29,1,2,2,0,0,0,.12.85,9.93,9.93,0,0,0,.42,1.08l.25.56c.08.18.17.35.26.53.18.35.37.68.58,1a6.49,6.49,0,0,1,.66,1.3,2.85,2.85,0,0,1,.13.86,2.64,2.64,0,0,1,0,.4l0,.16V42A11.31,11.31,0,0,0,34,44.17,5,5,0,0,1,33.87,47c-.28.8-.54,1.58-.77,2.37a10.28,10.28,0,0,0-.52,4.85l-.1,0a7,7,0,0,1-.28-2.5,15.1,15.1,0,0,1,.38-2.5c.18-.82.4-1.62.63-2.43a4.31,4.31,0,0,0,0-2.44,10.36,10.36,0,0,0-.44-1.17A3.29,3.29,0,0,1,32.51,42c0-.23,0-.42,0-.63a2,2,0,0,0-.1-.59,5.42,5.42,0,0,0-.59-1.08,14.45,14.45,0,0,1-1.19-2.23c-.17-.38-.34-.77-.48-1.17A2.9,2.9,0,0,1,30,35a5,5,0,0,1,.35-1.23,4.89,4.89,0,0,0,.19-.58,2.43,2.43,0,0,0,.05-.6A9.43,9.43,0,0,0,30,30.18a3.19,3.19,0,0,1-.19-1.27,6.35,6.35,0,0,1,.46-1.2,4,4,0,0,0,.36-1.17,3.85,3.85,0,0,0-.08-1.22,7.26,7.26,0,0,1-.23-1.25,4.54,4.54,0,0,1,.1-1.27,8.64,8.64,0,0,0,.43-2.45,4.91,4.91,0,0,1,.72-2.41c.41-.74.89-1.43,1.36-2.11Z" transform="translate(-1.45 -1.04)"/><path class="cls-21" d="M24.78,28.14c.11-1,.38-2,.59-3a6.52,6.52,0,0,0,.19-1.52,1.57,1.57,0,0,0-.23-.72L25,22.19a3.86,3.86,0,0,1-.55-1.45,2.22,2.22,0,0,1,.07-.77c.05-.25.11-.51.17-.76.26-1,.55-2,.86-3h0c-.09.51-.21,1-.31,1.52s-.23,1-.33,1.51a5.83,5.83,0,0,0-.18,1.43A3.78,3.78,0,0,0,25.24,22c.13.22.26.44.38.69a2.7,2.7,0,0,1,.17.38,2.12,2.12,0,0,1,.08.46,6.3,6.3,0,0,1-.24,1.6l-.42,1.49c-.15.49-.27,1-.39,1.49Z" transform="translate(-1.45 -1.04)"/><path class="cls-18" d="M24.78,28.14a11.43,11.43,0,0,1,.12-1.55l.26-1.53a7.64,7.64,0,0,0,.15-1.47.83.83,0,0,0-.06-.29A3,3,0,0,0,25.1,23l-.38-.65a4,4,0,0,1-.56-1.56,2.62,2.62,0,0,1,.07-.85c.05-.26.13-.51.2-.76.16-.49.32-1,.49-1.47s.36-1,.58-1.45h0c-.3,1-.59,2-.84,3-.06.25-.12.5-.17.75a2.44,2.44,0,0,0-.06.76A3.86,3.86,0,0,0,25,22.16l.38.67c.06.12.11.24.16.36a1.78,1.78,0,0,1,.07.39,7.13,7.13,0,0,1-.2,1.53,29,29,0,0,0-.6,3Z" transform="translate(-1.45 -1.04)"/><path class="cls-19" d="M30.33,48.78c0,.61-.09,1.18-.13,1.73a6.73,6.73,0,0,0,.41,3.4L30.5,54a5.06,5.06,0,0,1-.76-1.65,8.4,8.4,0,0,1-.25-1.8c0-.13,0-.26,0-.39a6.61,6.61,0,0,1,.13-.65A1.7,1.7,0,0,1,30.33,48.78Z" transform="translate(-1.45 -1.04)"/><path class="cls-22" d="M30.53,54a6,6,0,0,1-1.27-3.42,10.42,10.42,0,0,0-.54-3.38,3.88,3.88,0,0,0-.44-.68l-.52-.74c-.34-.5-.68-1-1-1.52a19.19,19.19,0,0,1-1.65-3.3c-.41-1.07-1-2.11-1.43-3.33a6,6,0,0,1-.33-2,4.88,4.88,0,0,1,.12-1c.08-.33.19-.61.28-.89.37-1.14.73-2.29,1.08-3.43S25.56,28,26,26.9H26c-.53,2.35-1.13,4.67-1.77,7-.08.29-.17.58-.23.86a5.35,5.35,0,0,0-.08.89,5.49,5.49,0,0,0,.34,1.74c.4,1.13,1,2.17,1.46,3.29a20.44,20.44,0,0,0,1.56,3.23c.31.51.64,1,1,1.51l.49.75a4.13,4.13,0,0,1,.45.79,5.48,5.48,0,0,1,.36,1.78c0,.6,0,1.2.05,1.8a8.77,8.77,0,0,0,.24,1.77,4.86,4.86,0,0,0,.74,1.62Z" transform="translate(-1.45 -1.04)"/><path class="cls-23" d="M26.76,14.23a9.18,9.18,0,0,0-1.46,1.39,3.06,3.06,0,0,0-.5.82,1.57,1.57,0,0,0-.1.44l0,.51c0,.33,0,.67-.08,1a5.87,5.87,0,0,1-.2,1.05,2.32,2.32,0,0,1-.25.53c-.06.08-.08.13-.12.19a1.67,1.67,0,0,0-.08.2,1.69,1.69,0,0,0-.07.86,1.25,1.25,0,0,0,.37.72l.07.06.11.09a1.58,1.58,0,0,1,.22.23,2.25,2.25,0,0,1,.28.53A2.69,2.69,0,0,1,25,24a3.26,3.26,0,0,1-.28,1.06,3,3,0,0,1-.25.47,3.3,3.3,0,0,0-.19.43,5,5,0,0,0-.23,1,16.84,16.84,0,0,0-.17,2h0a17.36,17.36,0,0,1,0-2,5.82,5.82,0,0,1,.2-1,9.7,9.7,0,0,1,.41-.93,3,3,0,0,0,.13-2,1.42,1.42,0,0,0-.23-.44,3,3,0,0,0-.37-.34,1.58,1.58,0,0,1-.49-.9,2.09,2.09,0,0,1,.11-1,1.68,1.68,0,0,1,.24-.46,1.69,1.69,0,0,0,.21-.45,10.3,10.3,0,0,0,.32-2,3.84,3.84,0,0,1,.19-1,3.46,3.46,0,0,1,.58-.85,8.11,8.11,0,0,1,1.57-1.29Z" transform="translate(-1.45 -1.04)"/><path class="cls-20" d="M24.13,49.42a8.74,8.74,0,0,1-.58-1.09,4,4,0,0,1-.34-1.19,5.8,5.8,0,0,0-.06-.6,1.38,1.38,0,0,0-.22-.52,4,4,0,0,1-.57-1.11c-.09-.42-.12-.82-.17-1.23a8.38,8.38,0,0,1-.07-1.23c0-.42.07-.83.06-1.21a1.19,1.19,0,0,0-.49-.94,2.37,2.37,0,0,1-.81-1,3,3,0,0,1-.11-1.25,2.91,2.91,0,0,0,0-.59,1.26,1.26,0,0,0-.22-.54,2.59,2.59,0,0,1-.28-.55,1.5,1.5,0,0,1-.08-.63,3.9,3.9,0,0,1,.37-1.17,7.53,7.53,0,0,1,.57-1.09,7,7,0,0,0,.62-1,2.65,2.65,0,0,0,.15-.57,2.66,2.66,0,0,1,.13-.61,7,7,0,0,1,1.36-2.06,9.14,9.14,0,0,1,.89-.87c.16-.13.32-.26.49-.38s.38-.22.5-.33a1.86,1.86,0,0,0,.61-.93,6.26,6.26,0,0,0,.22-1.16l.09-1.21,0-.61a1.71,1.71,0,0,0,0-.55c-.19-.73-.84-1.29-1.21-2.06a2.55,2.55,0,0,1-.3-1.24,3.2,3.2,0,0,1,.07-.63l.11-.6a16.53,16.53,0,0,1,.55-2.39,4.52,4.52,0,0,1,1.32-2.05l0,0a4.71,4.71,0,0,0-1.18,2.08,17.23,17.23,0,0,0-.45,2.38A10.19,10.19,0,0,0,25,19.88a2.35,2.35,0,0,0,.3,1.09,8.62,8.62,0,0,0,.66,1,3.49,3.49,0,0,1,.6,1.13,2.42,2.42,0,0,1,.06.66l-.05.61c0,.4-.06.81-.1,1.22a6,6,0,0,1-.26,1.23,2.15,2.15,0,0,1-.72,1.07c-.19.15-.36.22-.52.34a5.92,5.92,0,0,0-.48.35,8.54,8.54,0,0,0-.88.82,6.79,6.79,0,0,0-1.38,2,2.08,2.08,0,0,0-.15.57,2.18,2.18,0,0,1-.18.6,9.11,9.11,0,0,1-.65,1,8.49,8.49,0,0,0-.58,1.07,3.64,3.64,0,0,0-.34,1.14,1.6,1.6,0,0,0,.07.58,3,3,0,0,0,.29.52,1.61,1.61,0,0,1,.26.58,3.3,3.3,0,0,1,0,.62,2.62,2.62,0,0,0,.14,1.16,2.15,2.15,0,0,0,.77.85,1.9,1.9,0,0,1,.43.5,1.36,1.36,0,0,1,.17.64c0,.44,0,.83,0,1.23a8,8,0,0,0,0,1.2,11.27,11.27,0,0,0,.14,1.2,3.91,3.91,0,0,0,.51,1,1.67,1.67,0,0,1,.23.61c0,.22,0,.42,0,.62a6.12,6.12,0,0,0,.77,2.27Z" transform="translate(-1.45 -1.04)"/><path class="cls-24" d="M31.33,54.35a.26.26,0,0,0-.19-.12,1,1,0,0,0-.25,0l-.51,0h-1l-1,0-.51,0a.83.83,0,0,0-.46.17h0a.67.67,0,0,1,.43-.32,2.35,2.35,0,0,1,.52-.14,7.74,7.74,0,0,1,1.07-.1,7.83,7.83,0,0,1,1.08.07A3.37,3.37,0,0,1,31,54a1.36,1.36,0,0,1,.25.11.27.27,0,0,1,.16.21Z" transform="translate(-1.45 -1.04)"/><path class="cls-17" d="M17.91,51.45A18.76,18.76,0,0,1,16,49a9,9,0,0,1-1.3-2.88,10.92,10.92,0,0,0-.39-1.52,5.63,5.63,0,0,0-.38-.68,4.89,4.89,0,0,1-.35-.73,4.36,4.36,0,0,1-.25-1.56A10.43,10.43,0,0,1,13.44,40a2,2,0,0,0-.15-1.49,7.08,7.08,0,0,0-.52-.59,5.9,5.9,0,0,1-.5-.62,3,3,0,0,1-.52-1.5,5,5,0,0,1,.14-1.59,3.48,3.48,0,0,1,.72-1.42,7.31,7.31,0,0,1,.61-.52,2,2,0,0,0,.44-.62,3.67,3.67,0,0,0,.35-1.5,6.21,6.21,0,0,0-.13-1.55A3.88,3.88,0,0,1,13.75,27a2.38,2.38,0,0,1,.78-1.39A3.9,3.9,0,0,1,16,24.91a2.28,2.28,0,0,0,.67-.36.86.86,0,0,0,.3-.66,1.16,1.16,0,0,1,.24-.77c.09-.11.21-.19.28-.28a1.3,1.3,0,0,0,.21-.31A3,3,0,0,0,17.83,21a4.28,4.28,0,0,0-.44-1.49,6.34,6.34,0,0,1-.66-1.45,4.21,4.21,0,0,1-.14-1.58A4.47,4.47,0,0,1,17.05,15a3.56,3.56,0,0,0,.52-1.46,2.28,2.28,0,0,0-.05-.78c0-.25-.13-.5-.16-.77A1.64,1.64,0,0,1,18,10.54a1.38,1.38,0,0,0,.38-.66c.07-.25.06-.52.14-.78a2.33,2.33,0,0,1,.92-1.28,4.71,4.71,0,0,1,1.44-.66l0,.07A4.49,4.49,0,0,0,19.51,8a2.1,2.1,0,0,0-.8,1.21c0,.12,0,.23,0,.36a3,3,0,0,1-.06.42,1.72,1.72,0,0,1-.42.8,1.9,1.9,0,0,0-.41.57,1,1,0,0,0-.07.6c0,.22.12.47.19.75a3.21,3.21,0,0,1,.07.88,3.64,3.64,0,0,1-.18.87c-.05.14-.11.27-.17.4l-.17.36a3.64,3.64,0,0,0-.21,2.76,4.58,4.58,0,0,0,.27.66l.17.32c.06.09.13.2.21.34a4.67,4.67,0,0,1,.52,1.69,3.46,3.46,0,0,1-.21,1.85,2,2,0,0,1-.29.47l-.12.11-.09.08-.06.07a.27.27,0,0,0-.06.12,1.8,1.8,0,0,0,0,.3,1.76,1.76,0,0,1-.13.57,1.54,1.54,0,0,1-.38.53,3,3,0,0,1-.87.48l-.38.13-.31.13a2.56,2.56,0,0,0-.53.35,1.66,1.66,0,0,0-.55,1,2.64,2.64,0,0,0,0,.63,4.54,4.54,0,0,0,.14.7,6.71,6.71,0,0,1,.14,1.73A4.38,4.38,0,0,1,14.25,32a2.91,2.91,0,0,1-.58.8,2.13,2.13,0,0,1-.22.18l-.15.11-.21.18a3,3,0,0,0-.58,1.16A3.22,3.22,0,0,0,12.75,37c.14.2.29.38.45.57a7,7,0,0,1,.56.65,1.81,1.81,0,0,1,.23.51,1.93,1.93,0,0,1,.06.52,5.29,5.29,0,0,1-.09.86A5.66,5.66,0,0,0,14,43a3.89,3.89,0,0,0,.29.66,5.62,5.62,0,0,1,.39.74A11.2,11.2,0,0,1,15,46a8.85,8.85,0,0,0,1.13,2.85c.27.45.56.88.87,1.31s.62.85.95,1.26Z" transform="translate(-1.45 -1.04)"/><path class="cls-21" d="M28.5,5.09a15.91,15.91,0,0,0-2.06-.18,5.47,5.47,0,0,0-2.08.37,12.67,12.67,0,0,0-1.88,1c-.3.19-.61.37-.92.55a5.45,5.45,0,0,0-.9.56,4.08,4.08,0,0,0-1.19,1.73,7.43,7.43,0,0,0-.39,2.09,9.51,9.51,0,0,0,0,1.07A7.82,7.82,0,0,1,19,13.38c-.1.71-.19,1.41-.22,2.13a9.5,9.5,0,0,0,.07,2.13,14.93,14.93,0,0,0,.52,2.07,7.7,7.7,0,0,1,.23,1.06,2,2,0,0,1,0,.55,4.71,4.71,0,0,0,0,.53c0,.71,0,1.43,0,2.15a4.09,4.09,0,0,1-.67,2.05c-.46.57-.95,1.07-1.37,1.65a5.24,5.24,0,0,0-1,1.88,4.09,4.09,0,0,0-.14,1.05,6.6,6.6,0,0,1-.07,1.08,3.11,3.11,0,0,1-.36,1c-.17.32-.37.62-.56.92a5.69,5.69,0,0,0-.89,1.92,5.21,5.21,0,0,0,.22,2.1,7.55,7.55,0,0,1,.17,1.06c0,.37,0,.72,0,1.08a13.85,13.85,0,0,0,.43,2.09A12.93,12.93,0,0,0,15.66,44a5.48,5.48,0,0,0,1.28,1.68c.51.5,1,1,1.59,1.44s1.1.92,1.6,1.44A8,8,0,0,1,21.4,50.3c.34.64.58,1.32.93,1.94a6.83,6.83,0,0,0,1.29,1.69l-.05,0a7.35,7.35,0,0,1-1.38-1.66c-.37-.63-.64-1.3-1-1.91a7.25,7.25,0,0,0-1.28-1.64c-.5-.49-1.06-.91-1.62-1.37s-1.11-.92-1.64-1.42a5.68,5.68,0,0,1-1.41-1.8A3.17,3.17,0,0,1,15,43a5.25,5.25,0,0,0-.12-1c-.07-.33-.18-.66-.27-1a6,6,0,0,1-.2-1.12c-.05-.38,0-.78-.07-1.08a6,6,0,0,0-.18-1c-.08-.34-.17-.7-.23-1.09a3.89,3.89,0,0,1,0-1.23,3.78,3.78,0,0,1,.41-1.17c.18-.34.36-.65.55-1s.39-.61.54-.89a2.58,2.58,0,0,0,.28-.85,6.06,6.06,0,0,0,0-1A5.27,5.27,0,0,1,17,27.31c.22-.3.46-.59.69-.87L18,26l.16-.19.15-.18a3.46,3.46,0,0,0,.53-1.72c.07-.66,0-1.35.05-2.11a5.46,5.46,0,0,1,0-.58.27.27,0,0,0,0-.12s0-.05,0-.08,0-.14,0-.21a6.6,6.6,0,0,0-.21-.95,15.17,15.17,0,0,1-.52-2.16,8.62,8.62,0,0,1-.1-1.14c0-.39,0-.74,0-1.11,0-.73.14-1.49.23-2.18a6.73,6.73,0,0,0,.07-1c0-.34,0-.74,0-1.11a7.76,7.76,0,0,1,.45-2.25A4.54,4.54,0,0,1,20.32,7a4.11,4.11,0,0,1,.51-.34l.48-.26.92-.52a12.19,12.19,0,0,1,2-1,6.19,6.19,0,0,1,2.24-.36,19.8,19.8,0,0,1,2.16.24h.1Z" transform="translate(-1.45 -1.04)"/><path class="cls-17" d="M28.7,4.74a1.32,1.32,0,0,0,.77-.14,2.59,2.59,0,0,0,.71-.66c.23-.28.45-.56.71-.83a2.62,2.62,0,0,1,.42-.39,1.26,1.26,0,0,1,.59-.23A2.47,2.47,0,0,1,33,2.77,3.08,3.08,0,0,0,34,3a2,2,0,0,0,1.85-.72l0,0a2,2,0,0,1-.84.67A2.46,2.46,0,0,1,34,3.19,3.42,3.42,0,0,1,33,3a2.31,2.31,0,0,0-1-.24,1.45,1.45,0,0,0-.85.57c-.24.27-.45.55-.67.84a2.89,2.89,0,0,1-.77.75,1.72,1.72,0,0,1-1.06.22H28.5Z" transform="translate(-1.45 -1.04)"/><path class="cls-18" d="M28.34,5.35c-.3,0-.58-.06-.86-.09a9,9,0,0,0-1,0,5.13,5.13,0,0,0-2,.38,11.44,11.44,0,0,0-1.81,1l-.92.57-.46.27a3.28,3.28,0,0,0-.38.27,3.53,3.53,0,0,0-1,1.56,6.67,6.67,0,0,0-.36,2c0,.34,0,.66,0,1a7.2,7.2,0,0,1-.06,1.14c-.09.74-.18,1.4-.2,2.1a9.07,9.07,0,0,0,.07,2,16.56,16.56,0,0,0,.52,2,8.35,8.35,0,0,1,.26,1.14c0,.11,0,.22,0,.33a1.34,1.34,0,0,1,0,.19c0,.07,0,.1,0,.15a2.63,2.63,0,0,0,0,.48c0,.67,0,1.42,0,2.19a4.56,4.56,0,0,1-.78,2.31l-.19.24-.19.21-.35.4c-.23.27-.45.53-.66.8a5.12,5.12,0,0,0-.88,1.7,4,4,0,0,0-.13.93,6.75,6.75,0,0,1-.08,1.15A4,4,0,0,1,16.4,33c-.19.35-.4.64-.58.94s-.37.6-.54.89a2.79,2.79,0,0,0-.3.85,4.77,4.77,0,0,0,.2,1.92,8.09,8.09,0,0,1,.16,1.13c0,.42,0,.73,0,1.07a5.64,5.64,0,0,0,.15,1c.07.34.16.69.24,1.06A5.67,5.67,0,0,1,15.84,43a2.47,2.47,0,0,0,.15.9,4.91,4.91,0,0,0,1.17,1.59c.49.5,1,1,1.55,1.46s1.08.94,1.57,1.49a7.75,7.75,0,0,1,1.25,1.82c.33.65.55,1.33.87,2a7,7,0,0,0,1.22,1.73l-.05,0a7.49,7.49,0,0,1-1.31-1.7c-.34-.64-.59-1.31-.93-1.94a7.27,7.27,0,0,0-1.26-1.71c-.49-.52-1.06-1-1.6-1.43s-1.08-.94-1.59-1.44A5.47,5.47,0,0,1,15.58,44a2.74,2.74,0,0,1-.2-1.06,5.37,5.37,0,0,0-.11-1.06,14.6,14.6,0,0,1-.43-2.11c0-.35,0-.72-.05-1.07a7.62,7.62,0,0,0-.16-1.05,5.33,5.33,0,0,1-.23-2.14,5.67,5.67,0,0,1,.91-2,5,5,0,0,0,.89-1.9,6.34,6.34,0,0,0,.07-1.07,4.3,4.3,0,0,1,.14-1.07,5.75,5.75,0,0,1,1-1.93c.43-.58.93-1.1,1.37-1.65a3.86,3.86,0,0,0,.65-2c.07-.71,0-1.42,0-2.14a9.75,9.75,0,0,0,0-1.07,6.15,6.15,0,0,0-.24-1,16.75,16.75,0,0,1-.51-2.09,9.77,9.77,0,0,1-.07-2.16c0-.72.13-1.43.23-2.14A9.42,9.42,0,0,0,19,12.3a9.73,9.73,0,0,1,0-1.08,7.18,7.18,0,0,1,.41-2.11,4,4,0,0,1,1.21-1.78,6.71,6.71,0,0,1,.92-.57c.31-.17.62-.36.92-.54a12.35,12.35,0,0,1,1.89-1,5.74,5.74,0,0,1,2.12-.37A16.38,16.38,0,0,1,28.55,5Z" transform="translate(-1.45 -1.04)"/><path class="cls-19" d="M24.21,49.63a3.33,3.33,0,0,1,.43.67A3.18,3.18,0,0,1,25,51.35c0,.36-.08.73-.09,1.13a1.44,1.44,0,0,0,.51,1,7.45,7.45,0,0,0,.94.76l-.07-.14a6.22,6.22,0,0,1-.76-.78,1.16,1.16,0,0,1-.3-.85,6.2,6.2,0,0,0,.21-1.13,2.91,2.91,0,0,0-.08-.66l-.08-.29c0-.1-.06-.19-.1-.29A3.17,3.17,0,0,0,24.5,49c-.3-.33-.59-.57-.86-.82L23.49,48Z" transform="translate(-1.45 -1.04)"/><path class="cls-19" d="M18.69,41.75l0,0S18.67,41.73,18.69,41.75Z" transform="translate(-1.45 -1.04)"/><path class="cls-19" d="M19.12,37.84l0-.05S19.11,37.79,19.12,37.84Z" transform="translate(-1.45 -1.04)"/><path class="cls-19" d="M23.17,26.42v0Z" transform="translate(-1.45 -1.04)"/><path class="cls-19" d="M21.58,12.28Z" transform="translate(-1.45 -1.04)"/><path class="cls-20" d="M26.2,54.18a5.93,5.93,0,0,1-.87-.7,1.46,1.46,0,0,1-.49-1,8.72,8.72,0,0,0,.09-1.11,2.73,2.73,0,0,0-.31-1,2.64,2.64,0,0,0-.6-.89c-.26-.25-.56-.47-.85-.7l-.88-.7a2.58,2.58,0,0,1-.77-.89,1.15,1.15,0,0,1-.07-.63,3.09,3.09,0,0,0,.09-.53,1.3,1.3,0,0,0-.46-.84,12.33,12.33,0,0,0-1.75-1.32c-.31-.2-.62-.39-.93-.61a2.83,2.83,0,0,1-.88-.82.92.92,0,0,1-.09-.71,2.56,2.56,0,0,1,.29-.55,7.83,7.83,0,0,0,.56-.92,1,1,0,0,0,0-.88,3.3,3.3,0,0,0-.27-.42,3,3,0,0,1-.33-.53,1.48,1.48,0,0,1-.11-.67,1.37,1.37,0,0,1,.23-.63,5.2,5.2,0,0,1,.78-.88,1.42,1.42,0,0,0,.5-.78,2.69,2.69,0,0,0-.09-1c-.08-.35-.19-.72-.27-1.09a5.24,5.24,0,0,1-.16-1.16A1.8,1.8,0,0,1,19,31a1.73,1.73,0,0,1,.47-.43,2.26,2.26,0,0,1,.26-.16l.24-.14A4.55,4.55,0,0,0,21.53,29a1.35,1.35,0,0,0,.2-.89,1.76,1.76,0,0,0-.11-.47,4.58,4.58,0,0,1-.17-.56,2.44,2.44,0,0,1-.09-.62,1.65,1.65,0,0,1,.12-.66c.16-.39.34-.68.46-1a3.28,3.28,0,0,0,.25-1,2.57,2.57,0,0,0-.15-1c-.11-.34-.26-.68-.4-1a2.26,2.26,0,0,1,0-1.26,15.36,15.36,0,0,0,.49-2.11c0-.61-.59-1.05-1.12-1.62a2.52,2.52,0,0,1-.64-1.06,2.05,2.05,0,0,1,0-.65c0-.22.08-.39.1-.56a2.87,2.87,0,0,0-.06-1c-.07-.34-.23-.67-.3-1.1a1.34,1.34,0,0,1,.07-.68,1.46,1.46,0,0,1,.38-.54,3.35,3.35,0,0,0,.69-.79,3.52,3.52,0,0,0,.39-1c.09-.34.14-.72.26-1.1a3.51,3.51,0,0,1,.51-1.07,2.28,2.28,0,0,1,.93-.78,2.11,2.11,0,0,1,1.21-.16,4.32,4.32,0,0,1,.57.14,2.86,2.86,0,0,0,.51.09,2.65,2.65,0,0,0,2-.55,4.71,4.71,0,0,0,1.27-1.72c.35-.65.67-1.33,1.08-2a4.07,4.07,0,0,1,.74-.87,1.36,1.36,0,0,1,1.11-.34,1.83,1.83,0,0,1,.54.23l.47.29a7,7,0,0,0,1,.47,4.92,4.92,0,0,0,1.06.3,3.43,3.43,0,0,0,.55.06,1,1,0,0,0,.53-.1l0,0a1.15,1.15,0,0,1-.55.11,3.64,3.64,0,0,1-.56-.05,5.2,5.2,0,0,1-1.08-.28,7.14,7.14,0,0,1-1-.47,4.11,4.11,0,0,0-1-.48,1.21,1.21,0,0,0-1,.32,3.88,3.88,0,0,0-.7.86c-.4.63-.7,1.31-1,2a5,5,0,0,1-1.3,1.8,2.91,2.91,0,0,1-2.11.61A3.32,3.32,0,0,1,25,6.64a3.53,3.53,0,0,0-.54-.13,2,2,0,0,0-1.08.14,2.66,2.66,0,0,0-1.29,1.72c-.11.35-.15.72-.25,1.09a3.7,3.7,0,0,1-.41,1,3.45,3.45,0,0,1-.73.84,1.22,1.22,0,0,0-.31.44,1.1,1.1,0,0,0-.05.54c.06.36.22.71.3,1.07a3.26,3.26,0,0,1,.07,1.12c0,.19-.08.37-.1.55a1.62,1.62,0,0,0,0,.54,2,2,0,0,0,.57.93c.25.27.53.52.78.8a1.51,1.51,0,0,1,.42,1,13.48,13.48,0,0,1-.49,2.18,2,2,0,0,0,0,1.08c.13.35.28.69.4,1a3,3,0,0,1,.17,1.11,3.69,3.69,0,0,1-.26,1.09c-.13.35-.33.68-.47,1a1.67,1.67,0,0,0,0,1.08A7.8,7.8,0,0,1,22.06,28a1.68,1.68,0,0,1-.26,1.09,4.72,4.72,0,0,1-1.73,1.4,2.66,2.66,0,0,0-.88.64,1.55,1.55,0,0,0-.34,1,11.66,11.66,0,0,0,.42,2.18,3,3,0,0,1,.09,1.12,1.24,1.24,0,0,1-.21.52,3,3,0,0,1-.37.42,4.84,4.84,0,0,0-.75.82,1,1,0,0,0-.09,1c.13.34.43.6.57.95a1.25,1.25,0,0,1,0,1.1,7.16,7.16,0,0,1-.59,1,2.49,2.49,0,0,0-.26.48.64.64,0,0,0,.06.52,2.61,2.61,0,0,0,.8.75c.3.21.62.41.93.62A12.81,12.81,0,0,1,21.23,45a1.44,1.44,0,0,1,.5,1,3.44,3.44,0,0,1-.09.56.88.88,0,0,0,.05.53,2.35,2.35,0,0,0,.7.84l.86.71a8.41,8.41,0,0,1,.86.72,2.89,2.89,0,0,1,.61.93,3.17,3.17,0,0,1,.3,1.08,10.17,10.17,0,0,1-.11,1.11,1.4,1.4,0,0,0,.45,1,6.47,6.47,0,0,0,.85.72Z" transform="translate(-1.45 -1.04)"/><path class="cls-22" d="M22.28,54.2a15.1,15.1,0,0,1-1.56-.65c-.51-.24-1-.5-1.52-.79a17.45,17.45,0,0,1-2.77-2A16.93,16.93,0,0,1,11.16,42a18.08,18.08,0,0,1-.43-3.42,28.27,28.27,0,0,1,.59-6.76h.07a38.54,38.54,0,0,0-.13,6.71,19.65,19.65,0,0,0,.52,3.31A16.91,16.91,0,0,0,12.91,45a17.94,17.94,0,0,0,3.89,5.41,21.26,21.26,0,0,0,5.51,3.78Z" transform="translate(-1.45 -1.04)"/><path class="cls-21" d="M10,35.05c-.08-.65-.13-1.28-.23-1.88a7.22,7.22,0,0,0-.2-.86,3.29,3.29,0,0,0-.33-.76A2,2,0,0,0,9,31.23l-.13-.14L8.8,31a.43.43,0,0,1-.1-.09A5.12,5.12,0,0,1,8,30.17,3,3,0,0,0,6.72,29V28.9a1.71,1.71,0,0,1,.9.34,5.55,5.55,0,0,1,.71.66,7.06,7.06,0,0,0,.67.67,2.52,2.52,0,0,1,.66.72,4.28,4.28,0,0,1,.49,1.85A9.44,9.44,0,0,1,10,35.06Z" transform="translate(-1.45 -1.04)"/><path class="cls-18" d="M10,35.06a9.44,9.44,0,0,0,.09-1.91,4,4,0,0,0-.5-1.82,2.22,2.22,0,0,0-.63-.7,6.23,6.23,0,0,1-.67-.69,4.71,4.71,0,0,0-.69-.65A1.62,1.62,0,0,0,6.72,29v0a1.59,1.59,0,0,1,1,.23,4.88,4.88,0,0,1,.78.63c.24.21.46.45.68.61l.09.07.11.09.2.19a2.29,2.29,0,0,1,.32.43,3.88,3.88,0,0,1,.48,2A6,6,0,0,1,10,35.06Z" transform="translate(-1.45 -1.04)"/><path class="cls-25" d="M2.61,26.89a9.43,9.43,0,0,0,1,1.12,3.21,3.21,0,0,0,1.22.79,1.54,1.54,0,0,0,1.38-.2,3.65,3.65,0,0,0,1-1.08l0,0a2.64,2.64,0,0,1-.82,1.38,1.83,1.83,0,0,1-.81.41,2.11,2.11,0,0,1-.94-.05,2.87,2.87,0,0,1-1.34-1,3.82,3.82,0,0,1-.73-1.38Z" transform="translate(-1.45 -1.04)"/><path class="cls-24" d="M19,53.89a.29.29,0,0,0-.19-.17l-.24,0a2.75,2.75,0,0,0-.5,0,1.52,1.52,0,0,0-.46.08.19.19,0,0,0-.13.1l0,.05v.06a.78.78,0,0,0,0,.14l0,0a.37.37,0,0,1-.1-.28.29.29,0,0,1,.15-.25,1,1,0,0,1,.56-.17,1.66,1.66,0,0,1,.58.08c.17.06.38.19.39.4Z" transform="translate(-1.45 -1.04)"/><path class="cls-26" d="M17.46,54.08a.76.76,0,0,0,.21.08l.21,0a1.87,1.87,0,0,0,.41,0,1.34,1.34,0,0,0,.4-.07.44.44,0,0,0,.31-.24h0a.39.39,0,0,1-.26.36,1.36,1.36,0,0,1-.45.12,1.79,1.79,0,0,1-.46,0,.86.86,0,0,1-.4-.23Z" transform="translate(-1.45 -1.04)"/><path class="cls-19" d="M27.66,54.11l.21.11a2.8,2.8,0,0,1,.49.36,1,1,0,0,1,.21.25.47.47,0,0,1,.06.15.25.25,0,0,1,0,.17h-.06c0-.18-.18-.29-.32-.38a3.16,3.16,0,0,0-.5-.22l-.46-.13a1.29,1.29,0,0,1,.14-.18Z" transform="translate(-1.45 -1.04)"/><path class="cls-27" d="M28.57,55.16A.31.31,0,0,0,28.4,55l-.23-.08-.51-.09c-.35,0-.7-.07-1.05-.1s-.71,0-1.06,0-.71,0-1.06,0-.7,0-1,0-.69,0-1,0a2.2,2.2,0,0,0-.86.18.28.28,0,0,0-.12.1.72.72,0,0,0-.09.2.69.69,0,0,0,0,.49l-.05,0a.75.75,0,0,1-.19-.53.81.81,0,0,1,.17-.54,2,2,0,0,1,1-.46A9.65,9.65,0,0,1,24.51,54a14.82,14.82,0,0,1,2.2.25,8,8,0,0,1,1.07.28,3.22,3.22,0,0,1,.5.23c.16.1.34.23.35.44Z" transform="translate(-1.45 -1.04)"/><path class="cls-28" d="M21.34,55.62a1.91,1.91,0,0,0,1,.35,5.15,5.15,0,0,0,1.11,0,5.42,5.42,0,0,0,1.08-.19,2.26,2.26,0,0,0,.91-.42l.12-.11.15,0,.77.17c.25,0,.51.1.77.12a3.86,3.86,0,0,0,.76,0,.54.54,0,0,0,.53-.42h0a.55.55,0,0,1-.16.38,1,1,0,0,1-.36.19,3.18,3.18,0,0,1-.81.08,8.65,8.65,0,0,1-1.61-.2h0a2.21,2.21,0,0,1-1,.51,5.45,5.45,0,0,1-2.32.07,1.9,1.9,0,0,1-1-.53Z" transform="translate(-1.45 -1.04)"/><path class="cls-24" d="M33,57.1c-.08-.2-.27-.24-.45-.29a2.7,2.7,0,0,0-.57-.08,9.42,9.42,0,0,0-1.19,0,7.23,7.23,0,0,0-1.15.11,1.24,1.24,0,0,0-.5.19.4.4,0,0,0-.15.45l0,0a.46.46,0,0,1,0-.59,1.36,1.36,0,0,1,.54-.32,4.72,4.72,0,0,1,1.23-.2,5.8,5.8,0,0,1,1.25.09,3.42,3.42,0,0,1,.6.18c.17.09.4.22.4.46Z" transform="translate(-1.45 -1.04)"/><path class="cls-26" d="M29,57.46a1,1,0,0,0,.5.15,3,3,0,0,0,.52,0c.34,0,.69,0,1,0s.7-.07,1-.12a4,4,0,0,0,.5-.11c.16,0,.33-.1.4-.26h0c0,.2-.19.33-.34.42a2.54,2.54,0,0,1-.52.2,5,5,0,0,1-1.09.2,5.15,5.15,0,0,1-1.11,0,2.62,2.62,0,0,1-.54-.12.88.88,0,0,1-.46-.3Z" transform="translate(-1.45 -1.04)"/><path class="cls-26" d="M28.6,55.14a3.94,3.94,0,0,1,.79-.19l.75-.1a5,5,0,0,0,.69-.11.64.64,0,0,0,.5-.4h0a.54.54,0,0,1-.1.39.87.87,0,0,1-.32.25,2.53,2.53,0,0,1-.76.21,7.58,7.58,0,0,1-1.58,0Z" transform="translate(-1.45 -1.04)"/><path class="cls-24" d="M38.91,55.21a3.19,3.19,0,0,0-.57-.09,4.44,4.44,0,0,0-.5,0l-.17,0-.08,0a.48.48,0,0,0,0,.45l0,0a.57.57,0,0,1-.24-.54.33.33,0,0,1,.2-.24.79.79,0,0,1,.3-.08,1.81,1.81,0,0,1,.6.11,1.35,1.35,0,0,1,.51.31Z" transform="translate(-1.45 -1.04)"/><path class="cls-26" d="M37.59,55.59c.2,0,.35,0,.49,0l.4,0,.31,0c.05,0,.16-.06.12-.27l0,0a.4.4,0,0,1,.12.23.31.31,0,0,1-.08.24.73.73,0,0,1-.46.21,1.39,1.39,0,0,1-1-.24Z" transform="translate(-1.45 -1.04)"/><path class="cls-17" d="M5.78,30.09a3.76,3.76,0,0,1,1.55.17,1.82,1.82,0,0,1,.67.5,2.69,2.69,0,0,1,.4.72,2.43,2.43,0,0,1,.13.38,2,2,0,0,1,.07.42,2.78,2.78,0,0,1-.09.83,2.16,2.16,0,0,0-.09.68,2,2,0,0,0,.16.63c.08.23.18.46.27.7A1.84,1.84,0,0,1,9,36a2.72,2.72,0,0,1-.22.8,4.82,4.82,0,0,0-.16.68,6.56,6.56,0,0,0,0,1.47c0,.5.09,1,.14,1.51h0a10.17,10.17,0,0,1-.35-3,3.2,3.2,0,0,1,.14-.75A2.39,2.39,0,0,0,8.71,36a1.66,1.66,0,0,0-.15-.72c-.1-.23-.21-.46-.3-.7a2.34,2.34,0,0,1-.17-.75A2.73,2.73,0,0,1,8.21,33a2.64,2.64,0,0,0,.1-.74,3.14,3.14,0,0,0-.15-.74,3,3,0,0,0-.34-.67,1.62,1.62,0,0,0-.57-.47,4.09,4.09,0,0,0-1.47-.29Z" transform="translate(-1.45 -1.04)"/><path class="cls-20" d="M14.63,53.65A12.48,12.48,0,0,0,13,51.46a8.22,8.22,0,0,0-2.12-1.63,10.65,10.65,0,0,1-1.19-.71,1,1,0,0,1-.38-.67,1.45,1.45,0,0,1,.14-.73,7,7,0,0,1,.74-1.19,6.7,6.7,0,0,0,.7-1.12.92.92,0,0,0,.06-.59,1.53,1.53,0,0,0-.27-.56,6.49,6.49,0,0,0-.92-1c-.34-.31-.7-.58-1-.9a1.15,1.15,0,0,1-.38-.6,1.38,1.38,0,0,1,.07-.7A8.24,8.24,0,0,1,9,39.83l.6-1.22a11.55,11.55,0,0,0,.57-1.24,1.79,1.79,0,0,0,.11-1.26c-.07-.19-.23-.38-.31-.61a1,1,0,0,1,0-.74c.18-.45.43-.82.64-1.23a5.63,5.63,0,0,0,.51-1.22,2,2,0,0,0,0-1.25,1.56,1.56,0,0,0-.32-.52,2.39,2.39,0,0,0-.23-.22l-.28-.21a2.83,2.83,0,0,1-.76-1.21c-.17-.43-.28-.88-.46-1.26a1.12,1.12,0,0,0-.36-.46.81.81,0,0,0-.54-.1,1,1,0,0,0-.54.2,1.33,1.33,0,0,0-.35.48c-.17.39-.25.84-.4,1.28a2.51,2.51,0,0,1-.32.66,1.44,1.44,0,0,1-.57.49,1.91,1.91,0,0,1-1.43,0,2.36,2.36,0,0,1-1.1-.89,4.39,4.39,0,0,1-.59-1.26,5.79,5.79,0,0,1-.13-.68,1,1,0,0,0-.27-.57.59.59,0,0,0-.58-.19.68.68,0,0,0-.39.49h0a.68.68,0,0,1,.4-.54.66.66,0,0,1,.67.17,1.16,1.16,0,0,1,.34.62c.05.23.08.44.15.66a4,4,0,0,0,.61,1.17,2.2,2.2,0,0,0,1,.78,1.66,1.66,0,0,0,1.22-.06,1.51,1.51,0,0,0,.7-1A13,13,0,0,1,7,27.62,1.64,1.64,0,0,1,7.4,27a1.37,1.37,0,0,1,.71-.28,1.12,1.12,0,0,1,.77.16,1.44,1.44,0,0,1,.49.59,12.84,12.84,0,0,1,.47,1.3,2.57,2.57,0,0,0,.65,1.08l.27.21a3.07,3.07,0,0,1,.26.25,1.93,1.93,0,0,1,.38.63,2.36,2.36,0,0,1,0,1.44,5.8,5.8,0,0,1-.57,1.27c-.21.4-.48.79-.65,1.18a.8.8,0,0,0,0,.59,5.52,5.52,0,0,0,.29.61,2,2,0,0,1-.16,1.39c-.17.42-.38.83-.59,1.23a18.21,18.21,0,0,0-1.14,2.46,1.46,1.46,0,0,0-.06.65,1.12,1.12,0,0,0,.35.52c.33.3.71.56,1.06.86a6,6,0,0,1,1,1,1.87,1.87,0,0,1,.34.64,1.28,1.28,0,0,1-.06.75,6.38,6.38,0,0,1-.72,1.19,8,8,0,0,0-.7,1.13,1.17,1.17,0,0,0-.13.59.68.68,0,0,0,.27.49A9.57,9.57,0,0,0,11,49.6a8.3,8.3,0,0,1,2.13,1.74,11.44,11.44,0,0,1,1.5,2.29Z" transform="translate(-1.45 -1.04)"/><path class="cls-27" d="M16.38,54a6.93,6.93,0,0,0-1.25.09c-.2,0-.4,0-.59.09a5,5,0,0,0-.56.1,4,4,0,0,0-.52.11c-.16,0-.28.11-.36.12H13s0,.06,0,.06a.44.44,0,0,0-.07.17.74.74,0,0,0,.16.53l0,.06a.94.94,0,0,1-.47-.47.79.79,0,0,1,.07-.67,1.24,1.24,0,0,1,.55-.39,3.55,3.55,0,0,1,.63-.2,5.31,5.31,0,0,1,1.32,0,2.66,2.66,0,0,1,1.25.39Z" transform="translate(-1.45 -1.04)"/><path class="cls-28" d="M13.1,55.33a4.66,4.66,0,0,0,1.12,0,9.55,9.55,0,0,0,1.07-.18,3.6,3.6,0,0,0,1-.35.53.53,0,0,0,.26-.3.56.56,0,0,0-.13-.47l0,0a.63.63,0,0,1,.29.5.67.67,0,0,1-.27.5,2.83,2.83,0,0,1-1.06.48,5.64,5.64,0,0,1-1.16.12,2.94,2.94,0,0,1-1.13-.24Z" transform="translate(-1.45 -1.04)"/><path class="cls-27" d="M36.49,54.6a.48.48,0,0,0-.32-.26,1.29,1.29,0,0,0-.4-.08,4.22,4.22,0,0,0-.87,0,2.84,2.84,0,0,0-.8.19.73.73,0,0,0-.27.21l0,.08a.1.1,0,0,0,0,0v.07a.61.61,0,0,0,0,.22l0,0a.57.57,0,0,1-.12-.47.7.7,0,0,1,.29-.39,2.24,2.24,0,0,1,.91-.31,2.87,2.87,0,0,1,1,.06,1.27,1.27,0,0,1,.45.19.52.52,0,0,1,.24.41Z" transform="translate(-1.45 -1.04)"/><path class="cls-28" d="M33.81,55.09a1.72,1.72,0,0,0,.73.1,5.81,5.81,0,0,0,.72,0,4.81,4.81,0,0,0,.68-.14.79.79,0,0,0,.55-.4h0a.72.72,0,0,1-.45.63,2.3,2.3,0,0,1-.77.24,3.06,3.06,0,0,1-.8,0,1.17,1.17,0,0,1-.71-.35Z" transform="translate(-1.45 -1.04)"/></g></g></svg>