<svg xmlns="http://www.w3.org/2000/svg" viewBox="0 0 79.97 94.04"><defs><style>.cls-1{isolation:isolate;}.cls-2{fill:#c6081b;}.cls-3{fill:#da2c41;}.cls-4{fill:#591c24;mix-blend-mode:screen;}.cls-5{fill:#a6081b;}.cls-6{fill:#e32b3c;}.cls-7{fill:#e56a7a;}.cls-8{fill:#b32c41;}</style></defs><g class="cls-1"><g id="Layer_1" data-name="Layer 1"><path class="cls-2" d="M62.66,92.3c-1.54.49-4.56.12-6.93-.52h0A19.54,19.54,0,0,1,53,89.66l-.22-.24h0c3.35-.22,3.29.81,6.38,1.43S64.2,91.8,62.66,92.3Z" transform="translate(-4.04 -4.18)"/><path class="cls-2" d="M37,90.28h0a6.84,6.84,0,0,0-1.47,2.26c-2.16-1.55-4.58.87-6.18,1.74s-1.74-.25,1-2.62S34.16,90.12,37,90.28Z" transform="translate(-4.04 -4.18)"/><path class="cls-3" d="M47.54,54.16c1.18-.36-.52-4.27-1.34-5.4s-1.57.74-4.12,1.13C40.05,50.19,46.35,54.52,47.54,54.16Zm2.11.36c-.47-.05-.89.31-1.5,1.59-.51,1.08-.15,3.55-.46,5s1.75-.1,2.27-1.9S50.11,54.57,49.65,54.52ZM27.52,64.45c1.24,1.44,3.19.62,1-1.45s-5.09-3.75-5.5-5.65-2-3.24-1.13-3.66.92,1.13,1.64.83.46-1.86,1.29-1.8c.29,0,.28.38.19.93-.17,1-.6,2.63.06,3.8,1,1.8,3,2.47,3.71,1.29s.67-1.85,1.13-1.85.21,1.48-.05,3.34a4.85,4.85,0,0,0,1.44,4.16c1,1.14,3.7,2,3.65-.15S31.38,61,31.79,60s1.7.72,2.27.21.31-1.91.87-1.91,1.14,1.5,1.18,3.14a5.06,5.06,0,0,0,2.52,4.48c2,1.34,6.59,4.84,6.44,1.75S43.83,63,41.57,62.8s-4-.15-3.86-.93,1.91.16,1.54-1.49.72-1.75,1.39-.25,3.35,2.62,3.86.56-2-4.88-4.73-4.58-5.87.78-5.09-.56,5.45-.67,3.34-3.14-6.23-2.16-6.43-.57-.46,4.27-1,3.09S29.22,53,28,54c-.71.56-1.28.41-1.28-.13a2.39,2.39,0,0,1,.87-1.51c1.54-1.55-.42-2-2.06-1.86s-6.17-.1-6-1.34,2,.16,2.16-.61-1.23-2.78-.36-2.88,2.68,3.8,4.42,3.44.16-2.36,1-2.36S28.29,50.14,30,50s3-1.24,3-2.52-2.11-3.34-3.71-4.06-2.47.36-3.5.36-3-2.16-4.06-1.19-4.32,3.4-4.42,2.16S20.37,42.84,18,42s-7.1-2.89-7.72-3.81-2.68-.26-2.22-1.49,1.81.31,2.38-.06-.52-2.36.25-2.52.57,2.73,1.8,3.4,2.42-.26,1.9-2-2.67-3.39-1.74-3.81,1.54,1.45,1.95.62.1-2.16.77-2.16.62,1.14.47,2.32.46,3.29.56,4.53-.56.92,1.44,2.67,4,1.75,3.6.62-3.7-2.73-2.73-3.66,2.78,1.55,4,3.19,3.19,1.44,2.62.26-1.39-2.73-.82-4.22-1-2.93-2.36-4.17-5.1-3.7-4-4,.77-.31.87-1.5.73-1.74,1-.51,2.06,4.53,2.52,4,1.65-2.83.73-4.37-5.41-5.71-4.12-6.13,1.08,1.08,1.95.37.47-2.58,1.44-2.11-.2,2.42,0,3.19,1.85,2.26,2.27,3.24.72.36.66-1.24.68-2.42,1.14-1.29S27.11,25,26,25.76s-1.29,3.29-.56,4,1.9.77,1.59,3.34-.41,6.69.87,6,.78-4.88,1.91-4.78-.47,4.53-.05,5.61a4.36,4.36,0,0,0,3.39,2.41c1.65.26,2.68-.87,1.5-2.31s-.16-2.52.61-1.39,1,.93,1.29.1,1.34-1,.87.52-1.13,4.06.1,5.76,6.57,3.5,6.47,1.9-1.22-2.62-3.17-3.44-3.09-1.29-2.37-2,1.75.77,2.37,0-1-1.8-.15-2.37,1.23.21,1.79,1.65,3.55,5.09,4.84,3.35-.46-3.92-1.75-4.07.05-.82-1-2.21S42,35,40.49,35.07s-5.56,2-5.71.83,4-1.34,3.54-2.89-3.39-2.62-4.26-1.39-2.53,1.5-4.17-.05-2.16-3.29-.83-2.41,3,2.26,3.5,1.28-.72-1.85-1.85-2.57-2.82-1.08-2-1.7,1.18.52,1.59-.21-.36-1.64.31-1.69.72.56,1.44,2.52,1.75,3,2.78,2.32a2.2,2.2,0,0,1,3.34.92c.93,1.59,1.49,2.88,2,1.34s1.69-2.63,1.69-.88,1,4.58,2.15,4.22.94-2.11,1.35-4.58S45.2,26.27,44,26.58s-3.58,1.8-3.53.46,2.42-.71,1.23-1.79-4.37-.06-6.17-1.19-6.07-3.29-5.25-3.91,1.08.26,1.75-.15-1.75-2.47-.82-3,1.64,1,2.46,2.63S36.78,23,37.61,21.7s-.16-2.78-2.06-4.27-1.9-3.45-.47-2.37,4.48,2.88,4.33,4.79.1,2.62,1.49,2.72S42.52,23.7,44,24.11s2.18.31,2.44-1.8.15-3.24-1.39-3.8-5.82-4.84-4.79-5.71,1.7.61,3,2.16,2.88,2.16,3.09.56a19.44,19.44,0,0,0-.42-6c-.29-1.07-3.55-3.86-2.73-4.74S45.79,7,47.12,6.83s2.53-3.09,3.5-2.57-1.54,3.65-2.11,4.32-.15,6.89.88,7.46,4.89-.88,4.94-2.78-.21-4.63.41-4.84.56,4.22,1.44,4.07,3-1.86,3.08-2.83-.25-3.55.62-3.45.31,3.14.82,3.55,2.89-1.13,3.4-.36-2.21,1.49-3.4,1.8-2.52,1.44-1.64,1.8.82,1-.88,1.18-3.29,1.24-2.51,1.65,2,.31,2,.72-2.31.57-3.7.57a4.71,4.71,0,0,0-4.58,4.11c-.36,3.09,0,3.81,0,3.81a3.71,3.71,0,0,0,3.29-2.16c1.29-2.32.92-2.32,2.88-3.34s4.17-2.32,4.94-3.35,3-3.91,3.67-3.29-.94,1.8-.58,2.36,1.59.62,1.49,1.24S63,16,61.84,17.07a14.72,14.72,0,0,1-4,3c-2.16,1.08-3.71,2.37-2.89,3.34s3.45.16,4-.61.77-1.65,1.13-1.44.1,1.85.1,1.85,1.65.05,1.7.62-1.54.51-2.27.46-3,.41-3.18,1.39-.85,1.39-2.33.93-4.88.46-4.88,2.77-1,6.33.88,6.64a3.1,3.1,0,0,0,3.65-2.52c.1-1.49,1.23-5.92,2.73-5.46s-1.55,3.81-.16,4.48,1.75-1.65,3.86-2.47,2.16-4.17,3.5-3.55-2.21,3.24-.46,3.86,3.8-2.16,3.13-3.09-2.36-2.57-1.74-4-.31-4,.77-3.91.26,1.7,1.1,1.9,1.62-1.3,2.34-1.14-1.08,2.33-1.64,2.53-1.29,1.86.46,2.94,1.54-2.17,2.93-3.4,3-1.8,3.19-3,1.29-2,1.34-.05c0,0,1.8-.51,1.8.42s-2.06.61-3.14,1.79-2.62,2.42-1.8,3.2,3.14-1.34,3.5-1-.88,1.19-.1,1.39,2.62-.25,2.77-1.44-.71-2,0-2,.83,1.18,1.29,1.08.52-1.34,1.34-.82-.72,1.54-1.75,2.67S76.91,27,74.39,26.58s-3.29-.41-4.68,1.08S67.14,30.39,69,30s2.83-.26,2.57.36-1.18,1.13-4,1.64-3.75,1.14-2.83,1.6,2,.51,1.65,1.24-3.14,0-4-.68a3.26,3.26,0,0,0-4,.11c-1.49,1.08-4.26,2.47-3.29,3.75a4.27,4.27,0,0,0,4.94.93c1.29-.87,2.27-2.73,2.93-2.47s-1.08,2.67.31,2.91,2.16.28,3.76-2S70,33.94,71,33.78s1.91-2.62,2.58-2.11-.72,1.86.05,2.32,1.65-.16,1.7.83-2.42-.26-3.76.4-4.53,3.45-3.7,4.94a3.05,3.05,0,0,0,3.86,1.14c.92-.57,2-1.75,2.21-.93s-1.7,1.6-1.39,2.21,1.8.88,1.49,1.65-2.52-.88-4.16-.93S66.32,42,65.7,42.63s-.37,1.6,1.08,3.19c.62.69.56.94.16.89a6.34,6.34,0,0,1-2.48-1.4c-1.54-1.34-3.08-3.19-4.53-3.19s-1.13.93-1.9,1.75-1.65.21-2.31-1.34-2.06-1.85-2.27-.82a7,7,0,0,1-1.59,3.39,1.9,1.9,0,0,0,1.44,3.14c2,.16,2.57,1.18,3.8,1S58.75,48,59,46.75s1.43-2,1.54-.82-.15,1.85,1.57,1.7,1,1.95-.69,2-5,1.29-5.66,3,1.85,4.48,3.13,2.94.72-4.42,1.7-4.42,0,3.29,1,2.93,3.35-1.6,3.65-3.35S66.29,48,66.82,48l.11,0c.51.21-.77,2.37-.21,2.78s2.16-1.75,2.89-1c.4.41-.15,1-.92,1.54a14.33,14.33,0,0,1-1.86,1c-1.24.56-5.25,3.42-4.37,3.74s4.16-.35,4.42.37-2.63,1.55-5,1.18-4,.57-3.5,1.55,2,2.72,1.08,3.19-3.66-3.81-3.75-2.47.15,1.8-.42,2.78-.66,1.95,2.21,2.51,5.25-.46,5.15-1.9-.57-3.24.2-3.5.31,3.45,1.65,2.58.36-2.83,2.26-3.19,3.86-1.34,4-3c.13-1.48-.89-3.5-.42-4.19a.63.63,0,0,1,.21-.18c.93-.41.88,2.52,1.9,2.06a3.66,3.66,0,0,0,2-4c-.2-2.32,2.06-6,3-5.56s-2,4.27,0,4.84,2.93-1.49,3.08-2.47.62-2.62,1-1.7,0,1.6.78,1.55,1.39-.57,1.59,0-1.44.87-2.52,1.85-1.14,2.1-3.24,2.87-3,2.58-2.11,3.3,3-.52,3.08,0-2.11.87-1.34,1.75,2.27,2,1.7,2.42-2.72-1.91-3.6-2.32-2.36-.56-3.29,1.8-4.58,2.37-3.91,4.17,1.29,3.5,3.14,2.93,4.83-2.83,5.19-1.9-2,1.08-1.39,1.59,1.6,1.54.83,1.65-2-1.54-2.73.41,1.6,3.14,3.6,1.7,3.19-1.85,2.78-.93-.67,1.38.52,1.57,1.23,1.21-1.24,1.42-5.61,1-7.77-2-2.47-1.7-2.36-.93-.62.83-1.13-.66-1-3.5-1.91-2.27a8.55,8.55,0,0,1-3.75,3c-1.39.41.46,1.34,2.72,1s2.68,0,2.78.71-2.16,1.55-5.5.68-6.84-1.39-7.57-.06,1,3,3,3.86,2.83.67,3.29-.56,2-1.6,1.54-.16S63.9,75.35,65,74s2.07-2.22,2.42-1.65-1.59,2.27-.1,2.88,2.93-.82,3.4,0-1.55,2-3.45,1.44-4.68-.2-3,.93,2,2.21,1.29,2.36-4.27-3.55-5.15-2.21,1,3.91,0,4.12-2.06-2.11-2.52-3.55-2.11-2.78-3.24-1.85-.26,2.93-.78,5-2.66,5.87-1,7.9l.22.24a19.54,19.54,0,0,0,2.73,2.12h0a9.22,9.22,0,0,1,2.2,2.3c1.69,2.47,5.71,2.26,5.92,3s-3.92,1.7-6.13,0-6.63-3.91-7-2.16-1.34,1.85-2.42.62-3.86.1-6-1.59-4.27-1.13-6,.92-3.65,3.72-4.22,3.17,2.11-2.81,3.35-5.53A6.84,6.84,0,0,1,37,90.28c.88-.81,2-1,3.52-.67,2.52.46,3-1.55,2.93-3.92s-1.8-2.83-4-2.57-6.07.21-5.76-.82,2.11,0,2.46-.78-1.43-2.26-.56-2.82,1.34,2,3.81,1.85,4.88-1.08,5.24-3.86S42.18,71.6,41.05,73s-3.39.87-4,1.85S33,77.31,32.61,76.59s2.42-.67,2.53-2-1.85-1.08-1.7-1.8,4.58.77,4.84-.61-3.25-2.89-5.41-1.5-4-.67-5.09,1.5S21.61,78.59,21,77.31s4.12-3.66,3.65-4.53-2.47.26-4,.36-2.05,1.34-3.24,1.75-4-.16-5.14.83-2.11.82-1.19-.31.21-.77-.72-1.29-.87-1.39.88-.62,4,.62,4.16-.87-1.08-2.42-2.73-2.53-2.41-1.08-1-1,1.44-.57,1-1.5.52-1.33,1.29.31,2.42,3.61,4.17,3.35,3.65-.11,3.29-1.29-1.9-1.9-1.54-2.52,5.76,3.86,6.22,2-3-3.29-4.68-4.27-1.54-1.29-3-.46a5.36,5.36,0,0,1-5.4-.16c-1.5-1.13-2.53-.26-2.68-1s1.7-.31,1.14-1.39-.06-2.52.61-1.28,1.7,3.49,3.91,3,1.59-1.23-.46-3.29-3.86-4.94-4.74-4.38-2.67,1.14-5-.66-2-3-1.18-2.47S8.54,55.34,9,54s-1.13-2.82-2-3.44S4.58,49.42,5,48.65s.78.26,1.55-.46S7.25,45.82,8,46.85s.09,1.29,2,3.81,2.88,2.52,3.5.92a2.71,2.71,0,0,0-1-3.49c-1.13-.93-1-2.53-.1-2s1.59,1.34,1.29-.82.61-3.65,1.33-1.54a18.45,18.45,0,0,1,.36,7.66c-.3,2.93-1.23,3.34.52,5.15s2.62.66,2.31-1.6-.1-3.24.36-3.29,1.34,1.9,1.08,4.27-.56,3.34,1.8,5.09S26.29,63,27.52,64.45Z" transform="translate(-4.04 -4.18)"/><path class="cls-4" d="M41.6,90.59h0a.39.39,0,0,1-.45-.18,2.41,2.41,0,0,1-.26-.59.15.15,0,0,1,0-.07,1.72,1.72,0,0,1-.07-.21,2.15,2.15,0,0,0-.58.45,1.83,1.83,0,0,0-.47,0l-.2-.1a1.91,1.91,0,0,0-1.25,0h-.06a1.1,1.1,0,0,0-.54.29,1.34,1.34,0,0,0-.63,1.4v0a.49.49,0,0,0,.26.51,1,1,0,0,0,1.49.14,1.56,1.56,0,0,0,1.26-.63.32.32,0,0,0,.08.09c.58.52,1.21,0,1.56-.52a.54.54,0,0,0,0-.64Z" transform="translate(-4.04 -4.18)"/><path class="cls-4" d="M56,93a.71.71,0,0,0-.35-.39c-.11,0-.22,0-.33-.06a.44.44,0,0,0-.15,0,6.6,6.6,0,0,0-.3,1.43,1.05,1.05,0,0,0,.24-.06,3,3,0,0,0,.76.86c.5.41,1.19.17,1.67.62s1.46-.33.87-.87S56.14,93.58,56,93Z" transform="translate(-4.04 -4.18)"/><path class="cls-4" d="M53.59,93.53A8.34,8.34,0,0,1,54,92a.63.63,0,0,0-.58.15l-.67-.28a2.55,2.55,0,0,0,.3-.41.63.63,0,0,0-.54-.93,1,1,0,0,0-1,.54l-.31.12a2.3,2.3,0,0,0-.38,1.42,2.53,2.53,0,0,0,.82-.07,1.56,1.56,0,0,0,1.92.92Z" transform="translate(-4.04 -4.18)"/><path class="cls-4" d="M40.37,70.44l.25.21h0a1.27,1.27,0,0,0-.1.12.62.62,0,0,0,1,.75,1.57,1.57,0,0,0,.18-.19,4,4,0,0,0,.14-.57,6.64,6.64,0,0,0-.1-.93l-.08,0a2.53,2.53,0,0,0-.88-.57.7.7,0,0,1-.35-.06A.65.65,0,0,0,40.37,70.44Z" transform="translate(-4.04 -4.18)"/><path class="cls-4" d="M53.11,76.75v0a2.88,2.88,0,0,0,.15-1c0-.64-.41-1.92-1.26-1.86-.67,0-.94.75-1,1.31l-.06.32a1.64,1.64,0,0,0-.84,1.93,1,1,0,0,0,.43.61c-.09,0-.18,0-.27-.09a2.11,2.11,0,0,1-2-1.25A2.31,2.31,0,0,1,48,76l-.09,0L48,76l0-.09a2.51,2.51,0,0,1,.56-1.81,2.84,2.84,0,0,1,.34-.7,3.53,3.53,0,0,0-.21-.32,3.92,3.92,0,0,0-2-2.62A2.65,2.65,0,0,0,44.16,70a2.83,2.83,0,0,0-.65-.25,4.23,4.23,0,0,1-.07,1.46,9.56,9.56,0,0,1-.36,1.15,1.78,1.78,0,0,0,.69.25l.22,0h0a2.11,2.11,0,0,1,1.39-.39.84.84,0,0,1,.65-.59,1.55,1.55,0,0,1,.26.59c-.07,0-.14.12-.21.18a2.92,2.92,0,0,1,1.43,1.41l0,0,0,.05a2.57,2.57,0,0,1,.13,1.91,1.64,1.64,0,0,1-1.46,1.07,1.6,1.6,0,0,0,.61.84s0,.07,0,.1a1.09,1.09,0,0,0,.08.15c-1.85.46-1.7,3.07.65,2.8a2.61,2.61,0,0,0,0,.89,4.1,4.1,0,0,0-.53-.16,2,2,0,0,0-2-.9,2.42,2.42,0,0,0-1.53,0c-.52-.26-1.11-.11-1.43.94a.61.61,0,0,0,.29.69l.08,0a3.41,3.41,0,0,0,.05.42.51.51,0,0,0,.19.3s0,0,0,0a1.14,1.14,0,0,1,.87-1,1.47,1.47,0,0,1,1.6,1.12,1.57,1.57,0,0,1,0,.23,1.2,1.2,0,0,1,0,.2,2.68,2.68,0,0,1,0,.49,1.83,1.83,0,0,0,.52,0s0,.06,0,.09a1.11,1.11,0,0,0-.15,1.53v0a1.15,1.15,0,0,0-.56.63A6.23,6.23,0,0,0,43.36,89a1.25,1.25,0,0,0-.09.12,1.12,1.12,0,0,1-.19.85,2,2,0,0,1-.65.59.38.38,0,0,1,.09.15.51.51,0,0,0,.39.41,2.22,2.22,0,0,0,1.47,1.16,3.07,3.07,0,0,0,2.78-.12,2.69,2.69,0,0,0,.93.46,1.47,1.47,0,0,0,1.56-.26,2.75,2.75,0,0,0,.43.17,3.63,3.63,0,0,1,.13-1h0s0,0,0,0a2.41,2.41,0,0,1,1-1.37A3.61,3.61,0,0,0,51,87.33a2.75,2.75,0,0,0-.6-1,.51.51,0,0,1-.09.32,2.43,2.43,0,0,1-.24.32,1,1,0,0,1-.4.59,1.46,1.46,0,0,1,.2.22,2,2,0,0,1,.11.47,3.38,3.38,0,0,1-.32,1.83.94.94,0,0,1-.23.3.49.49,0,0,0-.23.08l0,0a.39.39,0,0,1-.15,0,3.82,3.82,0,0,0,.47-1.68,3.25,3.25,0,0,0-.1-1.08,1.29,1.29,0,0,1-.35.1,2.65,2.65,0,0,1-.74.27,1.3,1.3,0,0,1-1.72-1c-.14-1,.46-2.36,1.65-2.28a1.9,1.9,0,0,1,.95.35,2,2,0,0,0,.28-.56l0,0c.78.8,1.86.12,2.3-.64a.54.54,0,0,0,.07-.42,2.32,2.32,0,0,1-.39-.44.56.56,0,0,0-.74.24c-.48.11-.67,0-.57-.4a.88.88,0,0,0,0-.16,2.82,2.82,0,0,0,.69-.24,1.22,1.22,0,0,0,.33,0,2.25,2.25,0,0,1-.09-.9,3.32,3.32,0,0,1,1.48-2.42c0-.15,0-.3-.07-.45A2.54,2.54,0,0,0,53.11,76.75Zm-7.7,10.94a.82.82,0,0,0,.41.12,1.64,1.64,0,0,0,.56-.1v.13a2.45,2.45,0,0,0-.18.54.25.25,0,0,1,0-.07.68.68,0,0,0-1-.34Zm1.14,2.85a1.61,1.61,0,0,0-.38.08l-.15.06c-.58.46-.85.29-.8-.52a.52.52,0,0,0,.13.06c.5.16.76,0,.89-.27,0,.1.07.21.12.31A2.31,2.31,0,0,0,46.55,90.54ZM47.8,79.4c-.51.28-.57.18-.16-.29a.5.5,0,0,0,.3-.07A2.67,2.67,0,0,0,47.8,79.4Zm1.43,2.12,0,0a1.09,1.09,0,0,1-.37-.75c0-.23.07-.46.11-.64l.09-.09a4.61,4.61,0,0,0,.34,1.11C49.31,81.3,49.27,81.41,49.23,81.52Z" transform="translate(-4.04 -4.18)"/><path class="cls-4" d="M48.76,83a.19.19,0,0,0,0-.08l.17,0v.17A.58.58,0,0,0,48.76,83Z" transform="translate(-4.04 -4.18)"/><path class="cls-4" d="M54,72.77a1.37,1.37,0,0,0-.29.07.65.65,0,0,0-.63-.19.63.63,0,0,0-.43.76,2.6,2.6,0,0,0,1.31,1.66,1.12,1.12,0,0,0,1.08.06c.42-.2.48-.72.47-1.12A1.38,1.38,0,0,0,54,72.77Z" transform="translate(-4.04 -4.18)"/><path class="cls-4" d="M51.87,69.28a2.22,2.22,0,0,0-.33-.74,1.84,1.84,0,0,0-.17-.22,1,1,0,0,0,.05-.16.54.54,0,0,0-.16-.58s0,0,0-.06a1.48,1.48,0,0,0-.67-1.41,3.57,3.57,0,0,1-.5.53,5.53,5.53,0,0,1-1.92,1,1.27,1.27,0,0,0,.06.18.61.61,0,0,0,.53.31H49a1.44,1.44,0,0,0,.22.4.65.65,0,0,0,.19.55,3.31,3.31,0,0,1,.95-.62.85.85,0,0,1,.79,0,.81.81,0,0,1,.4.69,1.84,1.84,0,0,1-.06.41s-.07.32-.05.1a.8.8,0,0,1-.79.79.7.7,0,0,1-.31-.07,1.76,1.76,0,0,0-.24.3l0,0a.36.36,0,0,0,0,.09s0,0,.06.07a.55.55,0,0,0,.74.52c.61-.21,1.29-.53,1.36-1.24A1,1,0,0,0,51.87,69.28Z" transform="translate(-4.04 -4.18)"/><path class="cls-4" d="M46,66.34a1,1,0,0,1,.43-.17,4.75,4.75,0,0,0,2.43-.8,2.31,2.31,0,0,0,.73-1.31,1.44,1.44,0,0,0-2-.74,2,2,0,0,0-.63-.15,1.64,1.64,0,0,0-1.73,1.89A2.18,2.18,0,0,0,46,66.34Zm.79-1.94a2.16,2.16,0,0,0-.07.94h0C46.43,65.11,46.27,64.47,46.76,64.4Z" transform="translate(-4.04 -4.18)"/><path class="cls-4" d="M57.1,66.38a4.39,4.39,0,0,1-1.56.55.34.34,0,0,1,0,.1.7.7,0,0,1-.76.66c-.46,0-.14-.48,0-.65a.6.6,0,0,1,.25-.15,1,1,0,0,1-.32-.14,1.37,1.37,0,0,1-.54-.77,2.05,2.05,0,0,0-.54.52,2,2,0,0,1,.42-.92l0,0a1.61,1.61,0,0,1,.5-1.24l.18-.13a2,2,0,0,0-2.12,1.38,5.31,5.31,0,0,0-.18,3.13c.16.73,1.2.48,1.19-.19a1.91,1.91,0,0,0,1.69.38,1.6,1.6,0,0,0,.84-.5.46.46,0,0,0,.41.33c1,.15,1.75-.41,1.23-1.42A2.89,2.89,0,0,0,57.1,66.38Z" transform="translate(-4.04 -4.18)"/><path class="cls-4" d="M61.38,66.64v0c-.33-.92-1.17-1.68-2.08-.92A1.75,1.75,0,0,0,59,66a1.12,1.12,0,0,0-.46.43,1,1,0,0,0,.09,1.1,2.38,2.38,0,0,0,1.83,1C61.52,68.57,61.68,67.53,61.38,66.64Z" transform="translate(-4.04 -4.18)"/><path class="cls-4" d="M65.81,63.39a1.26,1.26,0,0,0-1,0,.85.85,0,0,0-.22,1.16.61.61,0,0,0,.84.22.66.66,0,0,0,.22-.22A.62.62,0,0,0,65.81,63.39Z" transform="translate(-4.04 -4.18)"/><path class="cls-4" d="M52.41,61.84a1.87,1.87,0,0,1,.76-1.63l.21-.13a1.62,1.62,0,0,1,.52-.34,1.17,1.17,0,0,1,1.4.2,1.41,1.41,0,0,0,.18-1,.9.9,0,0,0-.27-.5,2.85,2.85,0,0,0,0-.41c0-.76-1.07-.79-1.21-.1a.49.49,0,0,0-.29,0,1.5,1.5,0,0,0-.91,1,2.07,2.07,0,0,0-.24-.17c-1.33-.74-2.05,1-1.75,2.18a1.93,1.93,0,0,0-.25.62A1.36,1.36,0,0,0,52.23,63a1.58,1.58,0,0,0,.47-.23A2,2,0,0,1,52.41,61.84Z" transform="translate(-4.04 -4.18)"/><path class="cls-4" d="M49.19,51.43a14.71,14.71,0,0,0,2-2.65,1.52,1.52,0,0,0-1.22-.31l-.45-.25a.64.64,0,0,0-.84.22,2.62,2.62,0,0,0,0,2.69A.47.47,0,0,0,49.19,51.43Z" transform="translate(-4.04 -4.18)"/><path class="cls-4" d="M51.12,52.87s0,0,0,0a2,2,0,0,1,1.73-1,3.6,3.6,0,0,0-.41-.37,3.45,3.45,0,0,0-.63-2c-.25.4-.51.8-.78,1.19a1.59,1.59,0,0,1,.12.27,1.39,1.39,0,0,0-.41.12c-.15.21-.32.42-.49.62a1.42,1.42,0,0,0-.06.56.62.62,0,0,0,.45.6A3.78,3.78,0,0,0,51.12,52.87Z" transform="translate(-4.04 -4.18)"/><path class="cls-4" d="M52.9,56.13a2.8,2.8,0,0,1-1.91-2,2.21,2.21,0,0,0,0,.81c-.78,1.47,1.13,3.57,2.34,1.84a1.39,1.39,0,0,0,.21-.54A3.79,3.79,0,0,1,52.9,56.13Z" transform="translate(-4.04 -4.18)"/><path class="cls-4" d="M54.64,50.28a1.81,1.81,0,0,0-.56-.27.64.64,0,0,0-.76.43.62.62,0,0,0,.43.76h0l.24.14C54.72,51.72,55.34,50.66,54.64,50.28Z" transform="translate(-4.04 -4.18)"/><path class="cls-4" d="M47.2,57.13a1.45,1.45,0,0,0-.69-1A1.35,1.35,0,0,0,45.28,56a1.19,1.19,0,0,0-.75,1.66.61.61,0,0,0,.22.23,1.09,1.09,0,0,0,.43.9,1.2,1.2,0,0,0,1.45-.29,1.48,1.48,0,0,0,.35-.68A.55.55,0,0,0,47.2,57.13Z" transform="translate(-4.04 -4.18)"/><path class="cls-4" d="M43.44,54.6a2.16,2.16,0,0,0-.7-.55,1.54,1.54,0,0,0-.29-.69A1.3,1.3,0,0,0,41,52.85a1.11,1.11,0,0,0-.58,1.52.83.83,0,0,0,.09.16.71.71,0,0,0,.17.42,1.21,1.21,0,0,0,1.59.28,2.05,2.05,0,0,1,.26.24C43.09,56.07,44,55.2,43.44,54.6Z" transform="translate(-4.04 -4.18)"/><path class="cls-4" d="M40.05,50.73a4.23,4.23,0,0,0-.37-2,3,3,0,0,0-1.89-1.79l0,0A1.76,1.76,0,0,1,37,47a2,2,0,0,1-1.65-.94,2,2,0,0,1-.24-1.67,1.3,1.3,0,0,0,.08-.17,1.51,1.51,0,0,0-1.31.77,2.34,2.34,0,0,0-.18,2.22,1.39,1.39,0,0,0,.8.84.75.75,0,0,0,.42,0,1.1,1.1,0,0,0,.32.54h0a1.45,1.45,0,0,0,.29,1.67,1.43,1.43,0,0,0,.67.34c1.22-.4,2.49-.22,2.77,1.27h0a.75.75,0,0,0,0,.15.51.51,0,0,1,0,.13v0c.17.52,1,.66,1.17,0A2.61,2.61,0,0,0,40.05,50.73Zm-3.19-1.54c-.18.39-.47.3-.4-.1a1.19,1.19,0,0,1,.51-.81A1.7,1.7,0,0,1,36.86,49.19Zm1.19.32a2.52,2.52,0,0,0,.15-.91,2.94,2.94,0,0,1,.45.86A1.39,1.39,0,0,0,38.05,49.51Z" transform="translate(-4.04 -4.18)"/><path class="cls-4" d="M41,48a.62.62,0,0,0,0,1.23A.62.62,0,0,0,41,48Z" transform="translate(-4.04 -4.18)"/><path class="cls-4" d="M36.66,66.1a2.79,2.79,0,0,0-1.18.76,1.79,1.79,0,0,0-.41-.13l0,0c-.7-1.14-1.93-.91-2.77-.17-1.64-.34-3.19,2.38-2,3.64a3.47,3.47,0,0,1,.83-1,1.09,1.09,0,0,1,.19-1,2,2,0,0,0,0,.91,3.11,3.11,0,0,1,1.14-.49.77.77,0,0,1,.1-.46,1.6,1.6,0,0,1,.18.42,2,2,0,0,1,1.79.76,1.92,1.92,0,0,1,.28.42l.16-.1a1.49,1.49,0,0,0,.45-.56.56.56,0,0,0,.73-.17,1.3,1.3,0,0,0,2.25-.61C38.62,67.27,37.89,65.74,36.66,66.1Z" transform="translate(-4.04 -4.18)"/><path class="cls-4" d="M28.61,66.9a1.11,1.11,0,0,0-.13-.36.64.64,0,0,0-.28-.41l0,0a1.37,1.37,0,0,0-.29-.2,1.18,1.18,0,0,0-1.32.14,1.52,1.52,0,0,0-.29,1.49A.62.62,0,0,0,27,68h0l0,.2a.62.62,0,0,0,1,.27A1.81,1.81,0,0,0,28.61,66.9Z" transform="translate(-4.04 -4.18)"/><path class="cls-4" d="M24.17,64.05l-.24,0a.62.62,0,0,0-.7.28,1.06,1.06,0,0,0-.06.78.61.61,0,0,0,.67.44.6.6,0,0,0,1-.23c0-.07,0-.16,0-.24a.74.74,0,0,0,.2-.23C25.52,64.19,24.65,63.62,24.17,64.05Z" transform="translate(-4.04 -4.18)"/><path class="cls-4" d="M18.52,62.34a.62.62,0,0,0,0,1.23A.62.62,0,0,0,18.52,62.34Z" transform="translate(-4.04 -4.18)"/><path class="cls-4" d="M18.17,58.26a.66.66,0,0,0-.31-.21,2.58,2.58,0,0,0-.24-.37.62.62,0,0,0-1,.27.8.8,0,0,0,0,.15,1.56,1.56,0,0,0-.72-.08.61.61,0,0,0-.61.61,1,1,0,0,0,0,.26.56.56,0,0,0,0,.36,1.47,1.47,0,0,0,1.83.9.68.68,0,0,0,.43-.4,1.2,1.2,0,0,0,.3.15c.76.24,1.23-.52,1.27-1.16A.6.6,0,0,0,18.17,58.26Z" transform="translate(-4.04 -4.18)"/><path class="cls-4" d="M52.87,36.7a3.84,3.84,0,0,1-.35,2,1.94,1.94,0,0,1-2.44.87,1.6,1.6,0,0,0-.43.11,1.17,1.17,0,0,1,.07-.25l-.13-.06a1.59,1.59,0,0,1-.76-.9,0,0,0,0,1,0,0A2.43,2.43,0,0,0,48.55,41c-.33.83-.18,1.72.83,1.83a3.81,3.81,0,0,1,2.27-.16,2.7,2.7,0,0,0,.06-.41,3.75,3.75,0,0,0,2-2.61,3.33,3.33,0,0,0,.42-1.13A1.39,1.39,0,0,0,52.87,36.7ZM52,40.34a3.09,3.09,0,0,0-.28-.77.53.53,0,0,0,.14-.12,1,1,0,0,0,.28.46l.06.06Z" transform="translate(-4.04 -4.18)"/><path class="cls-4" d="M49.94,43.9l0,.06,0,0a2.29,2.29,0,0,0-1.19.94.66.66,0,0,1-1.2-.3,1.24,1.24,0,0,1-.61.46,2.59,2.59,0,0,1-1,.17,1.57,1.57,0,0,0-.06.53c.08,1.36,1.32,1.41,2.21.82a.67.67,0,0,0,.15.06,1.34,1.34,0,0,0,1.66-1,1.42,1.42,0,0,0,.68-.45,4.63,4.63,0,0,0,.74-1.32A2.75,2.75,0,0,0,49.94,43.9Z" transform="translate(-4.04 -4.18)"/><path class="cls-4" d="M46.5,37.35a2.16,2.16,0,0,1-.2-2.55,1.24,1.24,0,0,1,.4-.47.58.58,0,0,1,.09-.45s.07.06.21.27h0a1.91,1.91,0,0,1,1.63.22c.2-1.48-.64-3.33-2.24-2.61a.55.55,0,0,0-.07,1,1.76,1.76,0,0,0-.87,1.35,2,2,0,0,0,.14.93,1.55,1.55,0,0,0-.49,2,1.07,1.07,0,0,0,.76.66.52.52,0,0,0,.1.11.62.62,0,0,0,.87,0l.07-.09A2.2,2.2,0,0,1,46.5,37.35Z" transform="translate(-4.04 -4.18)"/><path class="cls-4" d="M59.14,40.26a.58.58,0,0,0-.59-.24.55.55,0,0,0-.42.07l-.09.09a.35.35,0,0,0-.13.11.82.82,0,0,0-.16.82.61.61,0,0,0,.76.43.79.79,0,0,0,.23-.14l.22.05a.61.61,0,0,0,.61-.62A.58.58,0,0,0,59.14,40.26Z" transform="translate(-4.04 -4.18)"/><path class="cls-4" d="M64.78,41a.64.64,0,0,0-.58-.76,1.33,1.33,0,0,0-.4,0A2.74,2.74,0,0,0,63,40a1.59,1.59,0,0,0-1.65-.16,1,1,0,0,0-.53,1A1.58,1.58,0,0,0,61.72,42a1.15,1.15,0,0,0,.66.57.88.88,0,0,0,.84-.2.65.65,0,0,0,.63.21c.54-.08,1.11-.36,1.14-1A1,1,0,0,0,64.78,41Z" transform="translate(-4.04 -4.18)"/><path class="cls-4" d="M66.26,40.22a.62.62,0,0,0,0,1.23A.62.62,0,0,0,66.26,40.22Z" transform="translate(-4.04 -4.18)"/><path class="cls-4" d="M47.23,28.16c0-.7.55-1.51,1.26-1.4a2.62,2.62,0,0,0-.24-1.08c.29-1,0-2.08-1.07-2a2,2,0,0,1,.08,1.45,1.09,1.09,0,0,1-.7.69,1.52,1.52,0,0,1-1.13.5,1.45,1.45,0,0,0,.33.47,1.8,1.8,0,0,0,.54.37,1,1,0,0,0-.51,1.26,1.12,1.12,0,0,0,.89.73.54.54,0,0,0,0,.6c.48.75,1.23.75,1.63.14A1.8,1.8,0,0,1,47.23,28.16Z" transform="translate(-4.04 -4.18)"/><path class="cls-4" d="M54.43,25.28l0,0s0,0,0,0h0a1.17,1.17,0,0,1-.14-.24c.11-.56,0-1.36-.73-1.32a1.64,1.64,0,0,0-1.14.72c-.28.35-.66.93-.33,1.37s.87.38,1.34.17a1.67,1.67,0,0,0,.38.37,1.26,1.26,0,0,0,1.31,0C55.75,26,55.13,24.9,54.43,25.28Z" transform="translate(-4.04 -4.18)"/><path class="cls-4" d="M38.07,22.83a.62.62,0,0,0,0,1.23A.62.62,0,0,0,38.07,22.83Z" transform="translate(-4.04 -4.18)"/><path class="cls-4" d="M47.72,18.84a2.18,2.18,0,0,1,1.34-.92h.11a.17.17,0,0,1,0-.07,1.19,1.19,0,0,0-.95-1.38.54.54,0,0,0-.5.08,1,1,0,0,0-1,.71,1.31,1.31,0,0,0,0,.68,1.36,1.36,0,0,0-.23,1,1.31,1.31,0,0,0,.89,1A1.68,1.68,0,0,1,47.72,18.84Z" transform="translate(-4.04 -4.18)"/><path class="cls-5" d="M63.07,91.77c.06,0,.16.09.17.21s-.11.16-.18.21a2.58,2.58,0,0,1-.46.18,5.47,5.47,0,0,1-1,.19,13.35,13.35,0,0,1-2,0,23.51,23.51,0,0,1-3.9-.73l0-.06a16.56,16.56,0,0,1,2,0c.65,0,1.3.1,1.94.14s1.27.1,1.89.13a7.2,7.2,0,0,0,.93,0A3.2,3.2,0,0,0,63,92c.07,0,.12,0,.13,0s0-.1-.06-.16Z" transform="translate(-4.04 -4.18)"/><path class="cls-6" d="M52.78,89.4a8.16,8.16,0,0,1,2.65.17c.86.23,1.64.67,2.49.91s1.71.41,2.58.6l1.3.28a5.88,5.88,0,0,1,1.27.41l0,0a9.38,9.38,0,0,0-1.31-.14l-1.32-.13c-.44,0-.87-.11-1.31-.17a10.17,10.17,0,0,1-1.35-.31,12.19,12.19,0,0,1-1.28-.51c-.4-.2-.78-.37-1.16-.52a13.31,13.31,0,0,0-2.52-.57Z" transform="translate(-4.04 -4.18)"/><path class="cls-5" d="M28.23,94.21a.26.26,0,0,0,.08.21s.07,0,.13,0a1,1,0,0,0,.38-.2,7.07,7.07,0,0,0,.78-.6,14.74,14.74,0,0,1,1.71-1.25,5,5,0,0,1,2.15-.72,2.37,2.37,0,0,1,2.06.88l0,0a2.6,2.6,0,0,0-1.95-.45,5.67,5.67,0,0,0-1.91.78c-.6.34-1.16.75-1.75,1.12a5.55,5.55,0,0,1-.93.5,1.3,1.3,0,0,1-.52.1.3.3,0,0,1-.24-.15.45.45,0,0,1,0-.28Z" transform="translate(-4.04 -4.18)"/><path class="cls-6" d="M37,90.33a15.65,15.65,0,0,1-2.62.15,4.57,4.57,0,0,0-2.23.58,17,17,0,0,0-2,1.41c-.34.26-.67.53-1,.82a3.75,3.75,0,0,0-.86.92h-.06a3.1,3.1,0,0,1,.67-1.12,11.59,11.59,0,0,1,.9-1,10.82,10.82,0,0,1,2.08-1.61A4.44,4.44,0,0,1,34.37,90c.87.06,1.73.22,2.6.27Z" transform="translate(-4.04 -4.18)"/><path class="cls-7" d="M31.22,17a.75.75,0,0,1,.53-.1,1.06,1.06,0,0,1,.47.27,3.61,3.61,0,0,1,.65.86c.37.61.67,1.27,1,1.88a6.09,6.09,0,0,0,1.4,1.59,3.82,3.82,0,0,0,.9.55,1.27,1.27,0,0,0,1,.05,1.35,1.35,0,0,0,.59-.82,1.84,1.84,0,0,0,0-1,4.44,4.44,0,0,0-1.16-1.75c-.25-.25-.52-.48-.79-.71A9.17,9.17,0,0,1,35,17a4.65,4.65,0,0,1-.67-.85,2.06,2.06,0,0,1-.33-1,.4.4,0,0,1,.33-.43,1,1,0,0,1,.54.16c.31.2.58.42.87.62.59.42,1.17.83,1.72,1.28A7.87,7.87,0,0,1,39,18.33a3,3,0,0,1,.45,1,4.34,4.34,0,0,1,0,1.08,4.6,4.6,0,0,0,.06,1.05,1.2,1.2,0,0,0,.52.85,2.28,2.28,0,0,0,1,.24,2.33,2.33,0,0,1,1,.37A6.91,6.91,0,0,0,43.85,24a5.14,5.14,0,0,0,1,.24,1.14,1.14,0,0,0,.95-.24,2,2,0,0,0,.44-.93,8.84,8.84,0,0,0,.16-1,5.92,5.92,0,0,0,0-2.1,1.76,1.76,0,0,0-.52-.88,2.76,2.76,0,0,0-.92-.51,8.05,8.05,0,0,1-1.76-1.23,13.75,13.75,0,0,1-2.82-3.22A1.62,1.62,0,0,1,40.1,13a.66.66,0,0,1,.37-.41.76.76,0,0,1,.55-.11,1.76,1.76,0,0,1,.88.63c.24.26.46.55.68.83A12.62,12.62,0,0,0,44,15.59a4.82,4.82,0,0,0,.86.62,1.35,1.35,0,0,0,1,.19,1,1,0,0,0,.53-.82,9.28,9.28,0,0,0,.08-1.06c0-.71,0-1.42,0-2.13a18.88,18.88,0,0,0-.26-2.12,3.86,3.86,0,0,0-.29-1,6.48,6.48,0,0,0-.61-.87c-.45-.56-.92-1.1-1.35-1.67a7.67,7.67,0,0,1-.58-.9,1.82,1.82,0,0,1-.18-.51.6.6,0,0,1,.13-.53l0,0c-.22.28-.06.66.1,1a5.7,5.7,0,0,0,.6.88c.44.55.92,1.07,1.39,1.62a7.48,7.48,0,0,1,.66.88,4,4,0,0,1,.34,1.08,19.41,19.41,0,0,1,.33,2.14c.07.72.1,1.44.1,2.17a10.5,10.5,0,0,1-.07,1.11,1.71,1.71,0,0,1-.2.63,1,1,0,0,1-.59.51,1.71,1.71,0,0,1-1.31-.2,5.13,5.13,0,0,1-1-.67,12.6,12.6,0,0,1-1.48-1.64c-.22-.27-.44-.55-.67-.79a1.29,1.29,0,0,0-.61-.45.27.27,0,0,0-.19.05l0,0-.08.07v0a1.5,1.5,0,0,0,.23.67,13.55,13.55,0,0,0,2.73,3.06A7.83,7.83,0,0,0,45.18,18a3.17,3.17,0,0,1,1.09.61,2.38,2.38,0,0,1,.7,1.15A6.36,6.36,0,0,1,47,22.1a8.16,8.16,0,0,1-.17,1.13,2.52,2.52,0,0,1-.6,1.22,1.48,1.48,0,0,1-.74.39,2.46,2.46,0,0,1-.71,0,6.9,6.9,0,0,1-1.15-.27A4.16,4.16,0,0,1,42.57,24c-.32-.23-.59-.47-.84-.62a1.86,1.86,0,0,0-.77-.29,2.84,2.84,0,0,1-1.25-.33,1.55,1.55,0,0,1-.54-.57,2,2,0,0,1-.24-.66,5.34,5.34,0,0,1-.06-1.18l0-.56a1.31,1.31,0,0,0,0-.39,2.14,2.14,0,0,0-.36-.79,6.93,6.93,0,0,0-1.38-1.44c-.53-.45-1.1-.85-1.68-1.27L35,15.6l-.22-.16-.18-.12a.88.88,0,0,0-.23-.11s.09,0,.1-.07,0,0,0,0a1.63,1.63,0,0,0,.25.78,4.71,4.71,0,0,0,.58.77,9.05,9.05,0,0,0,.78.68c.28.24.55.49.81.76a4.76,4.76,0,0,1,1.22,1.93,2.18,2.18,0,0,1,0,1.24,2.33,2.33,0,0,1-.26.55,1.23,1.23,0,0,1-.52.46,1.56,1.56,0,0,1-1.26-.07,4.18,4.18,0,0,1-.95-.61A6.56,6.56,0,0,1,33.72,20c-.34-.65-.61-1.3-1-1.92a4,4,0,0,0-.6-.85.71.71,0,0,0-.91-.18Z" transform="translate(-4.04 -4.18)"/><path class="cls-8" d="M44,34.7a1.16,1.16,0,0,0,.74-.71A4.13,4.13,0,0,0,45,32.94l.24-2.16a13.07,13.07,0,0,0,.22-2.16,4.17,4.17,0,0,0-.15-1.06,1.35,1.35,0,0,0-.57-.85,1.18,1.18,0,0,0-1,0c-.34.12-.67.26-1,.4s-.68.28-1,.39a3,3,0,0,1-.54.12.76.76,0,0,1-.56-.12.66.66,0,0,1-.16-.55.91.91,0,0,1,.23-.52,2.36,2.36,0,0,1,1-.49c.16-.06.37-.14.33-.27a.84.84,0,0,0-.3-.39,1.92,1.92,0,0,0-.95-.43c-1.41-.26-2.9,0-4.33-.39a3.34,3.34,0,0,1-1-.45l-.94-.55L32.6,22.39a16.86,16.86,0,0,1-1.81-1.22,4.72,4.72,0,0,1-.41-.37c-.1-.14-.26-.3-.2-.53a.88.88,0,0,1,1-.31,1.33,1.33,0,0,0,.51.13c.15,0,.37-.08.41-.22a.75.75,0,0,0-.12-.49c-.08-.16-.17-.31-.27-.47s-.4-.61-.56-.93a2,2,0,0,1-.18-.53.47.47,0,0,1,.23-.49l0,.05c-.32.22-.12.62.05.9a9.92,9.92,0,0,0,.6.89,3.82,3.82,0,0,1,.31.47,1,1,0,0,1,.17.68.55.55,0,0,1-.3.33.89.89,0,0,1-.36.11,1.67,1.67,0,0,1-.63-.12.49.49,0,0,0-.34,0,.75.75,0,0,0-.17.1l-.08.06s0,0,0,0,0,.05.15.14a3.87,3.87,0,0,0,.37.32A17.05,17.05,0,0,0,32.84,22c.63.35,1.27.69,1.9,1.05l1,.56a2.61,2.61,0,0,0,.86.37,8.31,8.31,0,0,0,2,.2,12.86,12.86,0,0,1,2.27.12,3.18,3.18,0,0,1,.62.2,2.27,2.27,0,0,1,.61.39,2.89,2.89,0,0,1,.24.25,1,1,0,0,1,.24.5.66.66,0,0,1-.1.5.91.91,0,0,1-.27.26,1.5,1.5,0,0,1-.35.15,2.31,2.31,0,0,0-.77.33.33.33,0,0,0-.08.19.39.39,0,0,0,0,.11s0,0,0,0,0,0,.13,0a2.73,2.73,0,0,0,.44-.1c.32-.09.65-.22,1-.35s.67-.28,1-.4l.29-.09a3.17,3.17,0,0,1,.35-.06,1.45,1.45,0,0,1,.78.18,1.8,1.8,0,0,1,.77,1.14,4.46,4.46,0,0,1,.12,1.19,11.91,11.91,0,0,1-.3,2.2c-.14.71-.22,1.43-.36,2.15a4.3,4.3,0,0,1-.32,1.08,1.26,1.26,0,0,1-.85.71Z" transform="translate(-4.04 -4.18)"/><path class="cls-7" d="M30.28,26a1.18,1.18,0,0,0,.11-.74,2.35,2.35,0,0,1-.07-.8c.05-.15.24-.18.36-.18a.52.52,0,0,1,.39.13,1.68,1.68,0,0,1,.4.68A22.33,22.33,0,0,0,32.63,28a3.2,3.2,0,0,0,1,1.15,1.14,1.14,0,0,0,.72.14,2.08,2.08,0,0,0,.69-.33,2.17,2.17,0,0,1,2.87.64,12.45,12.45,0,0,1,.82,1.35c.13.22.26.45.41.66s.32.45.54.44.32-.33.41-.56a6.59,6.59,0,0,1,.3-.73,3.66,3.66,0,0,1,.42-.68,1.12,1.12,0,0,1,.64-.48.34.34,0,0,1,.35.22,1.38,1.38,0,0,1,.1.4c0,.26,0,.52,0,.78a8.88,8.88,0,0,0,.28,1.54,6,6,0,0,0,.6,1.43,2.57,2.57,0,0,0,.49.59.78.78,0,0,0,.71.17l0,.06a.9.9,0,0,1-.81-.11,2.36,2.36,0,0,1-.58-.6,6.2,6.2,0,0,1-.74-1.45A8.73,8.73,0,0,1,41.54,31c0-.28,0-.57-.07-.77A1.35,1.35,0,0,0,41.4,30s0,0,0,0l.11,0s0,0-.09.09a1.57,1.57,0,0,0-.2.23,4.27,4.27,0,0,0-.34.6,4.83,4.83,0,0,0-.26.68,3.31,3.31,0,0,1-.2.45.92.92,0,0,1-.66.48.83.83,0,0,1-.5-.1.94.94,0,0,1-.26-.2,2.55,2.55,0,0,1-.32-.37c-.17-.24-.31-.47-.45-.7-.28-.44-.53-.94-.79-1.26a1.72,1.72,0,0,0-1-.68,1.68,1.68,0,0,0-1.17.16,2.54,2.54,0,0,1-.86.37,1.59,1.59,0,0,1-1.08-.22,3.31,3.31,0,0,1-1.16-1.37,21.77,21.77,0,0,1-1-3,2,2,0,0,0-.27-.6.3.3,0,0,0-.21-.1c-.13,0-.16,0-.18,0a2.43,2.43,0,0,0,0,.7,1.28,1.28,0,0,1-.2.79Z" transform="translate(-4.04 -4.18)"/><path class="cls-8" d="M47.31,44.08a2.25,2.25,0,0,0,.44-1.46,2.76,2.76,0,0,0-.54-1.43,3,3,0,0,0-1.18-1,3.52,3.52,0,0,0-.76-.19.44.44,0,0,1-.31-.27.9.9,0,0,1,0-.4,1.86,1.86,0,0,0-.37-1.46,9.57,9.57,0,0,0-1-1.19,5,5,0,0,0-2.64-1.54,4,4,0,0,0-1.53.21c-.51.14-1,.3-1.51.45s-1,.3-1.52.42a6.84,6.84,0,0,1-.79.12,1,1,0,0,1-.77-.21.57.57,0,0,1,.15-.77,2.61,2.61,0,0,1,.69-.42c.48-.22,1-.38,1.45-.6s1-.45,1.16-.92a.91.91,0,0,0-.13-.71,2.22,2.22,0,0,0-.47-.59,3.8,3.8,0,0,0-1.33-.78,2.78,2.78,0,0,0-1.51-.13,1.31,1.31,0,0,0-.65.36,3.61,3.61,0,0,1-.52.59,2.26,2.26,0,0,1-1.49.54,3.89,3.89,0,0,1-2.71-1.49A6.42,6.42,0,0,1,28.52,30a2,2,0,0,1-.26-.76.32.32,0,0,1,.07-.22.21.21,0,0,1,.21-.07.87.87,0,0,1,.39.14,20.51,20.51,0,0,0,2.67,1.63.89.89,0,0,0,.73,0,.82.82,0,0,0,.3-.65,1.87,1.87,0,0,0-.78-1.28,9.4,9.4,0,0,0-1.27-.9c-.45-.27-.93-.47-1.4-.71a1.94,1.94,0,0,1-.66-.45.32.32,0,0,1,0-.4,1.07,1.07,0,0,1,.33-.24.8.8,0,0,1,.78,0,.83.83,0,0,0,.35.11.39.39,0,0,0,.27-.23l0,0a.46.46,0,0,1-.31.28.88.88,0,0,1-.4-.1.69.69,0,0,0-.68,0c-.22.12-.42.32-.29.44a2.11,2.11,0,0,0,.61.37,15.5,15.5,0,0,1,1.45.66,9.54,9.54,0,0,1,1.36.88,3.47,3.47,0,0,1,.6.61A1.67,1.67,0,0,1,33,30a1.45,1.45,0,0,1-.1.51,1,1,0,0,1-.37.47,1.28,1.28,0,0,1-1.06,0A7.55,7.55,0,0,1,30,30.28c-.45-.28-.91-.6-1.3-.82a1.63,1.63,0,0,0-.19-.08s.1,0,.19-.09.05-.12.06-.1a1.64,1.64,0,0,0,.21.51,6.45,6.45,0,0,0,.88,1.16,3.38,3.38,0,0,0,2.33,1.29,1.66,1.66,0,0,0,1.1-.42,1.52,1.52,0,0,0,.22-.22l.25-.32a1.78,1.78,0,0,1,.94-.54,3.37,3.37,0,0,1,1.85.13,4.47,4.47,0,0,1,1.55.89,2.67,2.67,0,0,1,.59.77c0,.07.08.17.12.26s0,.08.07.24a1.28,1.28,0,0,1,0,.67,1.65,1.65,0,0,1-.72.87,4.19,4.19,0,0,1-.78.41c-.51.22-1,.39-1.45.59a2,2,0,0,0-.54.31c-.13.1,0,.09-.1,0s0,0,0,0a1.21,1.21,0,0,0,.28,0,4.59,4.59,0,0,0,.69-.1c.49-.1,1-.24,1.49-.39s1-.3,1.52-.44c.26-.06.53-.13.81-.17l.23,0h.22a2.47,2.47,0,0,1,.47,0,5.43,5.43,0,0,1,2.87,1.74,9.6,9.6,0,0,1,1,1.26,2.32,2.32,0,0,1,.38.81,2.28,2.28,0,0,1,0,.9,1.23,1.23,0,0,0,0,.28s0,0,.1.07a3.59,3.59,0,0,1,.78.23,3.12,3.12,0,0,1,1.22,1.11,3,3,0,0,1,.51,1.54,2.24,2.24,0,0,1-.51,1.5Z" transform="translate(-4.04 -4.18)"/><path class="cls-7" d="M18.89,27.42A.83.83,0,0,0,19,27V26.5a3.84,3.84,0,0,1,.15-.95,1.49,1.49,0,0,1,.23-.43A.33.33,0,0,1,19.6,25a.3.3,0,0,1,.22.13,3.53,3.53,0,0,1,.32.91,10.31,10.31,0,0,0,.76,1.74,9.2,9.2,0,0,0,1,1.59,1.38,1.38,0,0,0,.34.3.19.19,0,0,0,.19,0c.05,0,.1-.1.15-.16a5.16,5.16,0,0,0,.46-.83,5.47,5.47,0,0,0,.49-1.81,2.61,2.61,0,0,0-.48-1.78,18.79,18.79,0,0,0-1.19-1.48c-.83-1-1.7-1.89-2.44-2.93a4.31,4.31,0,0,1-.49-.83.81.81,0,0,1-.08-.49c.05-.19.27-.25.41-.28a.91.91,0,0,1,.91.25,2.39,2.39,0,0,0,.34.31.35.35,0,0,0,.4-.06c.55-.34.66-1,.81-1.63a2.19,2.19,0,0,1,.18-.46.41.41,0,0,1,.46-.18.76.76,0,0,1,.58.74A8.51,8.51,0,0,1,22.64,20c-.21.64.26,1.17.64,1.66s.81,1,1.18,1.5a4.59,4.59,0,0,1,.48.83c.06.13.15.3.26.34s.16-.17.19-.31a13.07,13.07,0,0,0,.1-1.89,2.6,2.6,0,0,1,.23-.94.68.68,0,0,1,.35-.36.45.45,0,0,1,.46.22A3.91,3.91,0,0,1,27,22.87a5.12,5.12,0,0,1-.23,1.9,2.31,2.31,0,0,1-.46.84,2.73,2.73,0,0,1-.37.32,1.93,1.93,0,0,0-.29.35,3.73,3.73,0,0,0-.53,1.78,3.29,3.29,0,0,0,.06.94,1.27,1.27,0,0,0,.43.78c.24.2.52.36.77.56a1.94,1.94,0,0,1,.59.77A3.88,3.88,0,0,1,27.13,33c-.08.63-.13,1.26-.17,1.89s-.05,1.27,0,1.9a6.12,6.12,0,0,0,.28,1.86c.1.28.34.55.63.41a1.25,1.25,0,0,0,.58-.67,8,8,0,0,0,.43-1.83,8.78,8.78,0,0,1,.41-1.88.86.86,0,0,1,.32-.39.42.42,0,0,1,.51.07,1.37,1.37,0,0,1,.21.95c-.06,1.28-.41,2.52-.52,3.78a1.81,1.81,0,0,0,.1.9,2.92,2.92,0,0,0,.51.78,4.48,4.48,0,0,0,1.51,1.11,4.4,4.4,0,0,0,1.81.42,1.84,1.84,0,0,0,.89-.23,1,1,0,0,0,.51-.71,1.38,1.38,0,0,0-.19-.88c-.13-.28-.37-.49-.54-.78a1.83,1.83,0,0,1-.3-.92.77.77,0,0,1,.14-.48.48.48,0,0,1,.46-.2,1.21,1.21,0,0,1,.74.62c.18.24.38.55.64.63s.23-.12.3-.25a4.27,4.27,0,0,0,.18-.43.87.87,0,0,1,.74-.61.39.39,0,0,1,.32.38,1.34,1.34,0,0,1,0,.49c-.07.32-.18.61-.26.92A11.8,11.8,0,0,0,37,41.73,5.94,5.94,0,0,0,37,43.61a3.34,3.34,0,0,0,.82,1.66,9.06,9.06,0,0,0,3.28,1.83,6.94,6.94,0,0,0,1.85.39,1.31,1.31,0,0,0,.88-.19c.24-.19.13-.56.08-.86a3,3,0,0,0-.92-1.6,6.11,6.11,0,0,0-1.56-1.05c-.57-.28-1.17-.5-1.75-.77a8.48,8.48,0,0,1-.85-.43,2.14,2.14,0,0,1-.39-.28.57.57,0,0,1-.22-.44.69.69,0,0,1,.24-.44.72.72,0,0,1,.45-.2,2.24,2.24,0,0,1,.92.28.88.88,0,0,0,.87.05.68.68,0,0,0,.19-.82c-.1-.29-.28-.56-.4-.86a.79.79,0,0,1-.06-.48.66.66,0,0,1,.31-.38.86.86,0,0,1,.47-.14.73.73,0,0,1,.45.21,3,3,0,0,1,.51.82c.14.28.25.58.37.88a6.11,6.11,0,0,0,.45.83,10.51,10.51,0,0,0,1.17,1.49,5.74,5.74,0,0,0,1.47,1.18,1.8,1.8,0,0,0,.9.23,1,1,0,0,0,.77-.44l0,0a1.08,1.08,0,0,1-.82.49,1.81,1.81,0,0,1-.94-.22,6.26,6.26,0,0,1-1.52-1.18,10.32,10.32,0,0,1-1.21-1.5,5,5,0,0,1-.48-.85c-.13-.29-.25-.58-.38-.86a2.51,2.51,0,0,0-.49-.74.46.46,0,0,0-.64,0c-.53.25,0,.82.27,1.45a1.14,1.14,0,0,1,.06.59,1,1,0,0,1-.13.3l0,.05-.06.07a.63.63,0,0,1-.12.11.78.78,0,0,1-.63.15,2.44,2.44,0,0,1-.52-.16,2,2,0,0,0-.79-.23c-.16,0-.39.26-.38.34s.21.29.46.42a9.15,9.15,0,0,0,.83.41c.57.25,1.16.47,1.76.75a6.44,6.44,0,0,1,1.67,1.1,3.46,3.46,0,0,1,1,1.81,3.51,3.51,0,0,1,.07.5.87.87,0,0,1-.28.74,1.68,1.68,0,0,1-1.17.31,7.49,7.49,0,0,1-2-.4,12,12,0,0,1-1.81-.76,6.6,6.6,0,0,1-1.67-1.16,3.78,3.78,0,0,1-1-1.89,6.38,6.38,0,0,1-.08-2,11.29,11.29,0,0,1,.38-1.94c.08-.31.2-.65.25-.88a1.21,1.21,0,0,0,0-.31s0,0,0,0a.25.25,0,0,0,.14.08c.09,0,0,0,0,.06a.6.6,0,0,0-.14.22,4.42,4.42,0,0,1-.21.48,1.08,1.08,0,0,1-.22.32.78.78,0,0,1-.26.17.68.68,0,0,1-.37,0,1,1,0,0,1-.45-.21l-.22-.22c-.13-.15-.23-.28-.33-.42a1.91,1.91,0,0,0-.24-.3c-.07-.07-.13-.1-.13-.09l.05,0s0,.06,0,.15a1.25,1.25,0,0,0,.23.63c.09.18.38.46.56.81a1.92,1.92,0,0,1,.24,1.24,1.57,1.57,0,0,1-.77,1.1,2.4,2.4,0,0,1-1.16.31,4.88,4.88,0,0,1-2.07-.47A5.07,5.07,0,0,1,30,41.18a3.74,3.74,0,0,1-.61-.93l0-.11a1,1,0,0,1-.07-.21,2,2,0,0,1,0-.32,5,5,0,0,1,0-.55c.06-.68.18-1.31.28-1.93a15.35,15.35,0,0,0,.23-1.82,2.31,2.31,0,0,0,0-.38c0-.11-.07-.18,0-.12l.05,0,.06,0c.05,0,0,0,0,0a.21.21,0,0,0,.12,0c.05,0,0,0-.05.11a8.8,8.8,0,0,0-.36,1.71,8.21,8.21,0,0,1-.48,2,1.81,1.81,0,0,1-.91,1,1.07,1.07,0,0,1-.5.08,1,1,0,0,1-.5-.21,1.51,1.51,0,0,1-.42-.62,6.47,6.47,0,0,1-.32-2.06c0-.66,0-1.31,0-1.95s.1-1.3.18-1.93a3.25,3.25,0,0,0-.12-1.61c-.16-.45-.57-.65-1.2-1.12l-.09-.09A1.84,1.84,0,0,1,25,30a1.66,1.66,0,0,1-.19-.3,2.38,2.38,0,0,1-.19-.57A4.05,4.05,0,0,1,24.55,28,4.32,4.32,0,0,1,25.17,26a2.44,2.44,0,0,1,.4-.47l.11-.09.1-.07.11-.11a1.68,1.68,0,0,0,.35-.65,4.79,4.79,0,0,0,.21-1.7,3.52,3.52,0,0,0-.36-1.56s0,0,0,0a.22.22,0,0,0,.15,0c.1-.06,0,0,0,.08a2.5,2.5,0,0,0-.18.75c0,.27,0,.56,0,.91a4.9,4.9,0,0,1-.1,1.05,2.28,2.28,0,0,1-.12.33.85.85,0,0,1-.19.24.61.61,0,0,1-.53.12.81.81,0,0,1-.43-.35,2,2,0,0,1-.16-.28,3.49,3.49,0,0,0-.42-.75c-.34-.49-.75-1-1.15-1.49a6.88,6.88,0,0,1-.58-.84l-.06-.14a.73.73,0,0,1-.06-.14,1.63,1.63,0,0,1-.07-.36,2.4,2.4,0,0,1,.06-.56,9.5,9.5,0,0,0,.34-1.77.57.57,0,0,0-.07-.24s0,0,0,0,0,0,0,0l-.06,0s0,0,0,0a.06.06,0,0,0-.05,0s0,0,0,0,0,0,0,0a1.24,1.24,0,0,0-.13.33,8.91,8.91,0,0,1-.28.95,2.22,2.22,0,0,1-.27.5,2.29,2.29,0,0,1-.21.23l0,0-.06.06a.57.57,0,0,1-.13.08.89.89,0,0,1-.34.15.69.69,0,0,1-.47-.08,1.84,1.84,0,0,1-.42-.38.53.53,0,0,0-.55-.15l-.1,0-.05,0s0,0,0,0a.6.6,0,0,0,.06.25,3.72,3.72,0,0,0,.44.76c.7,1,1.56,1.95,2.38,2.93A18.15,18.15,0,0,1,23.32,25a2.93,2.93,0,0,1,.5,2,5.63,5.63,0,0,1-.55,1.9,6,6,0,0,1-.49.85c-.07.07-.06.12-.22.23a.42.42,0,0,1-.39,0,1.51,1.51,0,0,1-.39-.36,8.78,8.78,0,0,1-1-1.64A11.06,11.06,0,0,1,20,26.08a3.5,3.5,0,0,0-.27-.88.17.17,0,0,0-.29,0,1.24,1.24,0,0,0-.22.39,3.55,3.55,0,0,0-.16.92l0,.48a.8.8,0,0,1-.11.47Z" transform="translate(-4.04 -4.18)"/><path class="cls-8" d="M44.47,60.7a3.21,3.21,0,0,0-.63-2.54,5,5,0,0,0-2.08-1.68,4,4,0,0,0-1.3-.33,7,7,0,0,0-1.36.09c-.9.11-1.8.22-2.71.25A4.5,4.5,0,0,1,35,56.4c-.21,0-.48-.18-.49-.45a.9.9,0,0,1,.3-.63,3.19,3.19,0,0,1,1.24-.57c.44-.13.88-.22,1.32-.35s.9-.28,1.09-.68a.74.74,0,0,0-.06-.63,2.55,2.55,0,0,0-.36-.56A5.14,5.14,0,0,0,35.86,51a5.36,5.36,0,0,0-2.66-.28,2.57,2.57,0,0,0-1.22.52,1.05,1.05,0,0,0-.33.55c0,.22-.06.45-.09.68-.06.45-.11.9-.19,1.35A4.89,4.89,0,0,1,31,55.15c0,.05-.07.11-.15.13s-.15-.05-.19-.09a2.29,2.29,0,0,1-.16-.31,4.13,4.13,0,0,0-.33-.58,1.51,1.51,0,0,0-1.07-.71,1.86,1.86,0,0,0-1.2.51,1.42,1.42,0,0,1-.65.26.48.48,0,0,1-.55-.38,1.77,1.77,0,0,1,.49-1.27,6.24,6.24,0,0,0,.84-1.05.63.63,0,0,0,0-.61,1.07,1.07,0,0,0-.53-.36,4.25,4.25,0,0,0-1.33-.2c-.45,0-.9.07-1.36.07s-.91,0-1.37,0a13.74,13.74,0,0,1-2.7-.39,3.54,3.54,0,0,1-.64-.25,1,1,0,0,1-.53-.46.5.5,0,0,1,0-.36.71.71,0,0,1,.15-.33.78.78,0,0,1,.68-.18c.23,0,.45.08.67.12s.47.09.6-.07a.82.82,0,0,0,0-.62,5.31,5.31,0,0,0-.21-.64A5.87,5.87,0,0,1,21.07,46a.48.48,0,0,1,.11-.36.41.41,0,0,1,.37-.08,1.55,1.55,0,0,1,.57.4c.63.67,1.15,1.42,1.78,2.06a4.23,4.23,0,0,0,1.06.83,1.4,1.4,0,0,0,.63.16,1.28,1.28,0,0,0,.63-.16,1,1,0,0,0,.39-1.14c0-.22-.09-.44-.11-.67a.4.4,0,0,1,.12-.36.33.33,0,0,1,.19-.06.52.52,0,0,1,.19.06,3.15,3.15,0,0,1,.81,1.11A12.3,12.3,0,0,0,28.49,49a2.61,2.61,0,0,0,1,.91,2.14,2.14,0,0,0,1.3,0,3,3,0,0,0,2-1.59,1.74,1.74,0,0,0,0-1.29,4.68,4.68,0,0,0-.69-1.15,9.31,9.31,0,0,0-2-1.83A5.19,5.19,0,0,0,29,43.41a2.34,2.34,0,0,0-1.31,0c-.44.1-.85.31-1.29.44a1.8,1.8,0,0,1-.69.09,2.25,2.25,0,0,1-.66-.24,10.41,10.41,0,0,0-2.42-1.18,1.12,1.12,0,0,0-.63.09,4.79,4.79,0,0,0-.52.42q-.53.44-1.08.84A8.73,8.73,0,0,1,18,45.17a1,1,0,0,1-.35,0,.37.37,0,0,1-.33-.19.77.77,0,0,1,.06-.71,4.29,4.29,0,0,1,1-1,2.2,2.2,0,0,0,.44-.48.37.37,0,0,0-.16-.51,6,6,0,0,0-1.23-.54c-.85-.33-1.69-.67-2.52-1S13.2,40,12.38,39.62c-.4-.2-.8-.42-1.19-.66a3.43,3.43,0,0,1-1-.88,2.32,2.32,0,0,0-1.22-.45,2.23,2.23,0,0,1-.67-.19A.46.46,0,0,1,8,37.17a.55.55,0,0,1,0-.36.88.88,0,0,1,.39-.59.85.85,0,0,1,.7,0,6,6,0,0,1,.63.27,1.11,1.11,0,0,0,.62.13c.22,0,.24-.29.23-.5a4.91,4.91,0,0,0-.09-.67c0-.22-.08-.45-.1-.68s0-.51.21-.67a.67.67,0,0,1,.19-.05.4.4,0,0,1,.19.07,1,1,0,0,1,.21.3,5.6,5.6,0,0,1,.21.66,11.38,11.38,0,0,0,.37,1.3,2,2,0,0,0,.75,1.07,1.44,1.44,0,0,0,1.26.13,1.24,1.24,0,0,0,.71-1,2.82,2.82,0,0,0-.2-1.31A11.9,11.9,0,0,0,12.83,33a4.43,4.43,0,0,1-.36-.59.82.82,0,0,1-.08-.35.35.35,0,0,1,.18-.32.73.73,0,0,1,.7,0,1.91,1.91,0,0,1,.55.42c.17.14.33.34.52.38s.27-.26.34-.45c.13-.43.13-.89.22-1.34,0-.21.11-.5.39-.56a.45.45,0,0,1,.36.06.65.65,0,0,1,.23.29A3.52,3.52,0,0,1,16,31.84a7.66,7.66,0,0,0-.09,1.35c0,.45.1.9.17,1.34a22.29,22.29,0,0,1,.42,2.7c0,.23,0,.46,0,.68a.89.89,0,0,0,.26.58,8.7,8.7,0,0,0,1,.95,6.61,6.61,0,0,0,2.27,1.43,1.78,1.78,0,0,0,1.3.06.46.46,0,0,0,.21-.54,1.21,1.21,0,0,0-.32-.57c-.6-.68-1.36-1.19-2-1.83a2.87,2.87,0,0,1-.45-.53.69.69,0,0,1-.09-.68.74.74,0,0,1,.58-.38,1.2,1.2,0,0,1,.67.17,8,8,0,0,1,1.95,1.91l.83,1.08a3.9,3.9,0,0,0,.92,1,2.28,2.28,0,0,0,1.25.44.77.77,0,0,0,.58-.24.63.63,0,0,0,0-.61,10.09,10.09,0,0,1-1-2.55,3.33,3.33,0,0,1,0-1.37c.05-.22.15-.43.19-.65a1.83,1.83,0,0,0,0-.66,4.87,4.87,0,0,0-1.45-2.24,23.34,23.34,0,0,0-2-1.81c-.71-.56-1.43-1.11-2.13-1.7a5.19,5.19,0,0,1-.95-1,.34.34,0,0,1-.06-.35c.08-.12.22-.12.32-.15a1.21,1.21,0,0,0,.6-.26l.05,0a1.34,1.34,0,0,1-.63.29c-.11,0-.23,0-.28.12s0,.18.07.27a5,5,0,0,0,.94.95c.7.58,1.43,1.12,2.15,1.67a20.85,20.85,0,0,1,2.07,1.8,5,5,0,0,1,1.53,2.31,2,2,0,0,1,0,.74c-.05.27-.15.45-.19.66a3.24,3.24,0,0,0,0,1.28,9.86,9.86,0,0,0,1,2.48.87.87,0,0,1,0,.88,1,1,0,0,1-.79.35,2.4,2.4,0,0,1-1.41-.48,4.25,4.25,0,0,1-1-1c-.28-.36-.55-.72-.84-1.07a8.32,8.32,0,0,0-1.85-1.81.89.89,0,0,0-.48-.13l-.16,0-.09.08a.23.23,0,0,0-.05.07c-.1.11.17.53.47.8.63.61,1.39,1.11,2,1.84a2.62,2.62,0,0,1,.23.32,1.2,1.2,0,0,1,.11.2c0,.06,0,.14.06.21a1,1,0,0,1,0,.52.81.81,0,0,1-.37.42,1.44,1.44,0,0,1-.86.14,3.05,3.05,0,0,1-.74-.16,7.11,7.11,0,0,1-2.41-1.5,11.62,11.62,0,0,1-1-1,1.93,1.93,0,0,1-.23-.35,1,1,0,0,1-.12-.49c0-.3,0-.46,0-.67a22.26,22.26,0,0,0-.43-2.64c-.07-.45-.15-.91-.18-1.39a8.93,8.93,0,0,1,.08-1.41,2.91,2.91,0,0,0-.06-1.17q0-.09-.06-.09h0s0,0,0,0a1,1,0,0,0-.07.22,11.07,11.07,0,0,1-.22,1.38l-.07.2a1.54,1.54,0,0,1-.09.19.67.67,0,0,1-.21.25.57.57,0,0,1-.46.13,1.07,1.07,0,0,1-.49-.26l-.27-.25a1.45,1.45,0,0,0-.43-.33.34.34,0,0,0-.15,0h0l-.08,0s0,0,0,0,0-.06,0,0,0,.07.05.15a2.66,2.66,0,0,0,.32.51,12.47,12.47,0,0,1,1.5,2.39,3.27,3.27,0,0,1,.23,1.54A1.73,1.73,0,0,1,14,38a1.94,1.94,0,0,1-1.7-.16,2.5,2.5,0,0,1-1-1.31c-.17-.47-.27-.93-.39-1.36a3.2,3.2,0,0,0-.18-.57c0-.07-.08-.13-.06-.1a.23.23,0,0,0,.16,0h-.05c-.06,0,0,0,0,0h0c.07,0,.07-.09.06,0a.79.79,0,0,0,0,.22c0,.19.06.4.1.63a4.91,4.91,0,0,1,.1.74,1.19,1.19,0,0,1-.06.5.76.76,0,0,1-.23.36l0,0s-.1.07-.1.06a.71.71,0,0,1-.18.08,1.06,1.06,0,0,1-.58,0c-.15,0-.27-.09-.38-.13s-.42-.19-.59-.25a.5.5,0,0,0-.29,0,.17.17,0,0,0-.05.06l0,0,0,.08,0,.08c0,.07,0,.09,0,.06s0-.05,0,0A2.41,2.41,0,0,0,9,37.1a2.69,2.69,0,0,1,1.52.6,1.22,1.22,0,0,1,.15.18l.08.09a1.25,1.25,0,0,0,.2.17,4.28,4.28,0,0,0,.52.35c.37.23.76.44,1.16.64.79.4,1.62.77,2.44,1.12s1.67.7,2.51,1l.64.24a3,3,0,0,1,.73.37,1.15,1.15,0,0,1,.4.49.94.94,0,0,1-.07.77,2.56,2.56,0,0,1-.58.65,3.76,3.76,0,0,0-.83.81.24.24,0,0,0-.05.13h0v0s0,0,0,0-.17-.13-.14-.12l.15,0a4.87,4.87,0,0,0,1.08-.53A11,11,0,0,0,20,43.32q.54-.39,1.05-.81l.24-.21a2.09,2.09,0,0,1,.39-.28,1.68,1.68,0,0,1,1-.15,4.36,4.36,0,0,1,1.45.58c.41.23.79.49,1.15.67a2.25,2.25,0,0,0,.45.18,1.19,1.19,0,0,0,.47-.06c.37-.11.8-.33,1.32-.45a3,3,0,0,1,1.63.07,6,6,0,0,1,1.33.7,9.52,9.52,0,0,1,2.1,2,4.89,4.89,0,0,1,.76,1.3,2.14,2.14,0,0,1,.15.85,2.18,2.18,0,0,1-.18.84,3.45,3.45,0,0,1-2.41,1.89,3.8,3.8,0,0,1-.75.13,1.76,1.76,0,0,1-.89-.14,3,3,0,0,1-1.18-1.09c-.28-.41-.49-.83-.71-1.22-.1-.2-.21-.39-.32-.57a1.3,1.3,0,0,0-.27-.34s0,0,.06,0h0l.08,0A.22.22,0,0,0,27,47v0c0,.16.07.4.1.64a2.29,2.29,0,0,1,0,.86,1.29,1.29,0,0,1-.63.79,1.79,1.79,0,0,1-1.72,0,4.68,4.68,0,0,1-1.19-.93c-.66-.68-1.19-1.45-1.77-2.06a1.33,1.33,0,0,0-.35-.28s0,0,0,0h0c.05,0,0,0,0,0s0,0,.05,0,0-.08,0,0a6.45,6.45,0,0,0,.37,1.18c.08.22.16.44.23.7a2.42,2.42,0,0,1,.05.42,1.06,1.06,0,0,1,0,.26.8.8,0,0,1-.14.32.67.67,0,0,1-.33.23.84.84,0,0,1-.29.05,2.39,2.39,0,0,1-.42,0c-.24-.05-.46-.1-.64-.12s-.29,0-.29,0l0,0s0,0,0,.09,0,0,0,.08a.84.84,0,0,0,.32.25,3.21,3.21,0,0,0,.57.22,12.35,12.35,0,0,0,2.61.38c.44,0,.89,0,1.33,0l.66,0a5.54,5.54,0,0,1,.71,0,4.49,4.49,0,0,1,1.47.22,1.56,1.56,0,0,1,.72.52.92.92,0,0,1,.16.53,1.16,1.16,0,0,1-.11.47,2.44,2.44,0,0,1-.46.65,6.21,6.21,0,0,0-.44.48,1.58,1.58,0,0,0-.42.95c0,.05,0,.05,0,.06a.2.2,0,0,0,.11,0,1.07,1.07,0,0,0,.45-.19,2.22,2.22,0,0,1,1.45-.57,1.83,1.83,0,0,1,1.35.86,3.45,3.45,0,0,1,.36.65A2,2,0,0,0,31,55h0a.09.09,0,0,0-.06,0,.17.17,0,0,0-.1,0c-.13,0-.09.06-.09,0a2.36,2.36,0,0,0,.18-.55c.05-.21.08-.43.12-.65.07-.44.13-.89.19-1.34,0-.23,0-.43.09-.7a1.41,1.41,0,0,1,.45-.74,2.75,2.75,0,0,1,1.39-.59,5.54,5.54,0,0,1,2.83.3,5.44,5.44,0,0,1,2.31,1.65,3.07,3.07,0,0,1,.4.63,1,1,0,0,1,.06.85,1.18,1.18,0,0,1-.6.57,3.79,3.79,0,0,1-.68.26c-.45.12-.89.21-1.32.33a2.93,2.93,0,0,0-1.16.51.7.7,0,0,0-.23.45c0,.1.13.21.33.26a4.64,4.64,0,0,0,1.3.1c.9,0,1.8-.12,2.71-.22A6.94,6.94,0,0,1,40.47,56a4.15,4.15,0,0,1,1.34.35,5,5,0,0,1,2.1,1.75,3.27,3.27,0,0,1,.62,2.61Z" transform="translate(-4.04 -4.18)"/><path class="cls-7" d="M6.57,48.19a2.86,2.86,0,0,0,.6-1.06,1.58,1.58,0,0,1,.29-.56.23.23,0,0,1,.32,0,1.21,1.21,0,0,1,.21.24A3.15,3.15,0,0,1,8.49,48,5.9,5.9,0,0,0,9,49.1a15,15,0,0,0,1.41,2,10.41,10.41,0,0,0,.84.91,2.32,2.32,0,0,0,1,.62,1,1,0,0,0,1-.58,4.25,4.25,0,0,0,.43-1.14,2.65,2.65,0,0,0,0-1.22,2.69,2.69,0,0,0-.6-1c-.26-.32-.62-.53-.9-.86a2.15,2.15,0,0,1-.5-1.14.7.7,0,0,1,.18-.6.54.54,0,0,1,.62.07l.52.34a1.29,1.29,0,0,0,.54.24c.19,0,.21-.28.22-.46s0-.41,0-.62a8.41,8.41,0,0,1-.1-1.24,3.26,3.26,0,0,1,.22-1.23c.08-.18.2-.41.45-.44s.39.21.51.38a7.88,7.88,0,0,1,.71,2.38A15.81,15.81,0,0,1,15.64,48c0,.83,0,1.66-.11,2.48a20.63,20.63,0,0,1-.33,2.47c-.08.4-.18.81-.24,1.21a2.13,2.13,0,0,0,.08,1.2,3.59,3.59,0,0,0,.68,1,5.4,5.4,0,0,0,.91.82,1,1,0,0,0,1.11.17,1.5,1.5,0,0,0,.47-1.06A15.86,15.86,0,0,0,18,53.8a8.7,8.7,0,0,1,0-1.25,2,2,0,0,1,.17-.61c.07-.19.35-.4.57-.21a2.55,2.55,0,0,1,.61,1.1,6.18,6.18,0,0,1,.28,1.22,9,9,0,0,1,0,2.48,5.73,5.73,0,0,0,0,2.44,4.28,4.28,0,0,0,1.54,1.86,11.66,11.66,0,0,0,2.1,1.3c.74.36,1.52.65,2.27,1a5.4,5.4,0,0,1,2,1.4,1.94,1.94,0,0,0,1,.6.83.83,0,0,0,.56-.08.51.51,0,0,0,.21-.49,2.16,2.16,0,0,0-.56-1,10.25,10.25,0,0,0-.89-.85c-1.23-1.09-2.6-2-3.77-3.23a4.53,4.53,0,0,1-1.31-2.11,8.82,8.82,0,0,0-1-2.25,4.87,4.87,0,0,1-.28-.56.77.77,0,0,1,0-.65.67.67,0,0,1,.61-.26.82.82,0,0,1,.52.38,2.6,2.6,0,0,0,.38.47.38.38,0,0,0,.5,0,2.34,2.34,0,0,0,.49-1.08,1.11,1.11,0,0,1,.34-.55.5.5,0,0,1,.33-.09.31.31,0,0,1,.18,0,.39.39,0,0,1,.11.15,3.3,3.3,0,0,1-.1,1.26,7.24,7.24,0,0,0-.16,2.45,3.52,3.52,0,0,0,1.27,2,3.17,3.17,0,0,0,1.06.59,1.46,1.46,0,0,0,1.16-.06c.36-.18.51-.6.7-1a9.57,9.57,0,0,1,.53-1.13.43.43,0,0,1,.28-.19.25.25,0,0,1,.31.15,1.54,1.54,0,0,1,.08.63c0,.42-.06.83-.11,1.25a12.77,12.77,0,0,0-.23,2.45,4.49,4.49,0,0,0,.86,2.27,7,7,0,0,0,.78,1,3.32,3.32,0,0,0,1,.66,3,3,0,0,0,1.17.29,1.1,1.1,0,0,0,1-.47,1.63,1.63,0,0,0,.11-1.17,2.56,2.56,0,0,0-.56-1.07,12.6,12.6,0,0,0-1.84-1.65,3.72,3.72,0,0,1-.46-.43.8.8,0,0,1-.25-.59.49.49,0,0,1,.47-.42,1.41,1.41,0,0,1,.61.19c.18.09.36.2.55.28a.82.82,0,0,0,.56.1.73.73,0,0,0,.36-.44,2.83,2.83,0,0,0,.15-.59,4.47,4.47,0,0,1,.14-.61.61.61,0,0,1,.18-.28.35.35,0,0,1,.34,0,1.08,1.08,0,0,1,.45.45,3.23,3.23,0,0,1,.26.57,7.91,7.91,0,0,1,.39,2.46,4.87,4.87,0,0,0,.69,2.33,5.86,5.86,0,0,0,1.73,1.74,33.8,33.8,0,0,0,4.19,2.63,4.45,4.45,0,0,0,1.17.38,1.18,1.18,0,0,0,.59,0,.66.66,0,0,0,.39-.41A2.73,2.73,0,0,0,45,67.22,10,10,0,0,0,44.82,66a4.59,4.59,0,0,0-1.06-2.19,3.46,3.46,0,0,0-2.21-1c-.82-.07-1.65-.11-2.47-.2a2.88,2.88,0,0,1-1.21-.33.43.43,0,0,1-.13-.59c.13-.2.38-.21.58-.25a1.93,1.93,0,0,0,.59-.11.51.51,0,0,0,.35-.43c.05-.4-.15-.81-.1-1.23a.72.72,0,0,1,.24-.58.53.53,0,0,1,.61.08,2.58,2.58,0,0,1,.71,1,3.18,3.18,0,0,0,1.88,1.49,1.68,1.68,0,0,0,1.19-.06,1.36,1.36,0,0,0,.68-1l.06,0a1.45,1.45,0,0,1-.71,1,1.77,1.77,0,0,1-1.24.08,3.27,3.27,0,0,1-2-1.52,2.46,2.46,0,0,0-.68-1c-.15-.11-.34-.16-.44-.08a.59.59,0,0,0-.17.47,2.32,2.32,0,0,0,0,.58,1.63,1.63,0,0,1,.06.67.67.67,0,0,1-.45.57,2.64,2.64,0,0,1-.64.14c-.2,0-.4.07-.43.16a.22.22,0,0,0,.09.31,2.67,2.67,0,0,0,1.11.27c.81.08,1.64.11,2.47.18a3.66,3.66,0,0,1,2.39,1,4.78,4.78,0,0,1,1.16,2.32,9.17,9.17,0,0,1,.2,1.26,3.09,3.09,0,0,1-.07,1.37,1,1,0,0,1-.59.6,1.45,1.45,0,0,1-.76.07,5.1,5.1,0,0,1-1.27-.4,35.33,35.33,0,0,1-4.26-2.64,6.21,6.21,0,0,1-1.84-1.84,5.44,5.44,0,0,1-.76-2.51,7.76,7.76,0,0,0-.38-2.35,2.54,2.54,0,0,0-.23-.5.73.73,0,0,0-.24-.27h0l.05,0s0,0,0,.08a4.66,4.66,0,0,0-.12.55,3.88,3.88,0,0,1-.17.67,1.62,1.62,0,0,1-.2.36l-.08.1-.07.07a.74.74,0,0,1-.27.16,1.24,1.24,0,0,1-.88-.11l-.57-.29a.94.94,0,0,0-.4-.14h0s0,.08,0,.05a.67.67,0,0,0,.15.23,5.24,5.24,0,0,0,.41.38,12.9,12.9,0,0,1,1.9,1.7,2.52,2.52,0,0,1,.51,2.77,1.4,1.4,0,0,1-.66.57,2,2,0,0,1-.78.14,3.62,3.62,0,0,1-1.37-.32,4.15,4.15,0,0,1-1.16-.76,7.3,7.3,0,0,1-.85-1,5,5,0,0,1-1-2.51,5.27,5.27,0,0,1,0-.69c0-.25,0-.4.07-.65l.16-1.22c.05-.41.1-.81.11-1.19a1.39,1.39,0,0,0,0-.39s0,.06.12.11a.23.23,0,0,0,.11,0h0s.08-.05,0,0a3.66,3.66,0,0,0-.21.46c-.08.19-.17.39-.26.58a6.54,6.54,0,0,1-.3.59,1.72,1.72,0,0,1-.61.62,2,2,0,0,1-1.59.11A3.8,3.8,0,0,1,25.73,59a4.8,4.8,0,0,1-.93-1l-.18-.28a3.7,3.7,0,0,1-.17-.35,3.49,3.49,0,0,1-.2-.7A7.41,7.41,0,0,1,24.4,54c0-.21.07-.41.1-.59s0-.19,0-.26,0-.14,0-.11a.26.26,0,0,0,.1.13l.09,0h0s.11,0,.05,0h0a1,1,0,0,0-.11.26c-.06.17-.11.38-.2.61a1.6,1.6,0,0,1-.49.75l-.14.1-.08,0a1.12,1.12,0,0,1-.33.1,1,1,0,0,1-.68-.19,2.86,2.86,0,0,1-.5-.58c-.11-.16-.18-.17-.12-.15h0s0,0,0,0,0-.1,0-.07a1.2,1.2,0,0,0,.06.17,4.65,4.65,0,0,0,.25.5,9,9,0,0,1,1,2.4A3.91,3.91,0,0,0,24.65,59c1.11,1.12,2.47,2.09,3.73,3.21l.47.43a5.5,5.5,0,0,1,.47.49A2.66,2.66,0,0,1,30,64.5a1.17,1.17,0,0,1-.08.54,1,1,0,0,1-.39.46,1.3,1.3,0,0,1-.95.16,2.38,2.38,0,0,1-1.34-.77,4.77,4.77,0,0,0-1.86-1.28c-.74-.33-1.52-.64-2.29-1a12.62,12.62,0,0,1-2.18-1.36,4.91,4.91,0,0,1-1.7-2.11,6.12,6.12,0,0,1-.06-2.65,8.22,8.22,0,0,0,.05-2.37A6,6,0,0,0,19,53a4,4,0,0,0-.21-.52,1.37,1.37,0,0,0-.24-.36c.17.06.17-.06.11,0a1.55,1.55,0,0,0-.11.46,6.37,6.37,0,0,0,0,1.16c0,.41.07.8.12,1.21a5.35,5.35,0,0,1,0,1.33,2.28,2.28,0,0,1-.16.7,1.35,1.35,0,0,1-.5.68,1.13,1.13,0,0,1-.9.14,2.51,2.51,0,0,1-.68-.31,4.71,4.71,0,0,1-.53-.43l-.23-.23-.23-.24a3.7,3.7,0,0,1-.75-1.14,2.55,2.55,0,0,1-.11-1.41c.08-.44.18-.83.26-1.23a21.35,21.35,0,0,0,.33-2.42c.07-.82.12-1.64.12-2.45a15.11,15.11,0,0,0-.15-2.43,9.33,9.33,0,0,0-.24-1.17,4.57,4.57,0,0,0-.4-1.08.58.58,0,0,0-.19-.21.61.61,0,0,0-.15.23,3,3,0,0,0-.2,1.1A8.25,8.25,0,0,0,14,45.6a4.83,4.83,0,0,1,0,.67,1.48,1.48,0,0,1-.06.38.64.64,0,0,1-.14.25.5.5,0,0,1-.33.15.79.79,0,0,1-.44-.13c-.11-.05-.2-.12-.29-.17l-.51-.35c-.15-.11-.27-.11-.27-.09s-.1.18-.08.34a1.8,1.8,0,0,0,.43,1c.2.27.6.53.87.87a2.75,2.75,0,0,1,.64,1.16,2.85,2.85,0,0,1,0,1.33,4.41,4.41,0,0,1-.47,1.2,1.49,1.49,0,0,1-.46.51,1,1,0,0,1-.71.15,2.44,2.44,0,0,1-1.13-.68,8.3,8.3,0,0,1-.84-.94,14.73,14.73,0,0,1-1.4-2.07A5.32,5.32,0,0,1,8.39,48a3.34,3.34,0,0,0-.48-1.11c-.1-.15-.27-.37-.39-.26a1.67,1.67,0,0,0-.28.53,2.83,2.83,0,0,1-.63,1.07Z" transform="translate(-4.04 -4.18)"/><path class="cls-8" d="M32.13,98.11a.41.41,0,0,1,0-.44,2.93,2.93,0,0,1,.19-.4c.16-.25.33-.48.51-.71l1.06-1.39a15,15,0,0,0,1.78-3,7.67,7.67,0,0,1,.92-1.49,3.26,3.26,0,0,1,1.39-1,4.11,4.11,0,0,1,1.74-.17,10.22,10.22,0,0,0,1.73.16,1.81,1.81,0,0,0,1.43-.83,3.7,3.7,0,0,0,.5-1.63,10.12,10.12,0,0,0,0-1.74,2.33,2.33,0,0,0-2.18-2.27,6.68,6.68,0,0,0-1.73,0,21.52,21.52,0,0,1-3.5.11A7.35,7.35,0,0,1,34.23,83a1.33,1.33,0,0,1-.4-.19.5.5,0,0,1-.24-.39.69.69,0,0,1,.6-.61c.59-.11,1.2.14,1.72-.09a.58.58,0,0,0,.15-.73,5.1,5.1,0,0,0-.38-.78,4.18,4.18,0,0,1-.37-.8.77.77,0,0,1,0-.45.64.64,0,0,1,.32-.33.5.5,0,0,1,.46.05,1.54,1.54,0,0,1,.34.28c.21.21.39.43.6.63a3.08,3.08,0,0,0,1.47.87,4.74,4.74,0,0,0,1.72,0,5.94,5.94,0,0,0,3.15-1.31A4,4,0,0,0,43,73.05a1.59,1.59,0,0,0-1.58-.3c-.26.12-.4.38-.64.57a2.79,2.79,0,0,1-.75.47,10.3,10.3,0,0,1-1.69.45,3.76,3.76,0,0,0-.82.27,1.15,1.15,0,0,0-.33.25,2.11,2.11,0,0,1-.26.35,5.65,5.65,0,0,1-1.45,1,9.57,9.57,0,0,1-1.64.63,2.91,2.91,0,0,1-.88.11.48.48,0,0,1-.42-.22.33.33,0,0,1,0-.24.42.42,0,0,1,.17-.18c.52-.31,1.1-.41,1.61-.69A1.51,1.51,0,0,0,35,75a1,1,0,0,0,.07-.8,1.08,1.08,0,0,0-.59-.56c-.25-.14-.53-.21-.8-.36a.45.45,0,0,1-.26-.38.26.26,0,0,1,.11-.23,1,1,0,0,1,.22-.08,4.4,4.4,0,0,1,.89,0c.58.05,1.16.13,1.74.16a6.19,6.19,0,0,0,.86,0,1.66,1.66,0,0,0,.8-.23.63.63,0,0,0,.19-.73,1.5,1.5,0,0,0-.5-.67,4.59,4.59,0,0,0-3.24-.9,3.74,3.74,0,0,0-1.62.56,3.23,3.23,0,0,1-1.68.5c-.59,0-1.17-.09-1.74-.09a1.76,1.76,0,0,0-.82.18,1.69,1.69,0,0,0-.61.58,11.66,11.66,0,0,1-2.16,2.74,18.53,18.53,0,0,1-2.7,2.22,4.12,4.12,0,0,1-1.61.72.52.52,0,0,1-.45-.15A.56.56,0,0,1,21,77a1.64,1.64,0,0,1,.4-.8A28.49,28.49,0,0,1,24,73.89a3.87,3.87,0,0,0,.59-.63.57.57,0,0,0,.13-.36.43.43,0,0,0-.09-.16.36.36,0,0,0-.15-.12,1.34,1.34,0,0,0-.82-.05,8.45,8.45,0,0,0-.84.19,16.22,16.22,0,0,1-1.7.42,7.43,7.43,0,0,0-.86.12,2.47,2.47,0,0,0-.78.34c-.49.3-.89.73-1.39,1a3,3,0,0,1-.82.35,5.25,5.25,0,0,1-.88.09,12.68,12.68,0,0,0-3.44.33,2.08,2.08,0,0,0-.72.45,3.3,3.3,0,0,1-.77.45,1,1,0,0,1-.46.07.3.3,0,0,1-.22-.13.35.35,0,0,1,0-.26,1.9,1.9,0,0,1,.46-.76,3.64,3.64,0,0,0,.24-.35c.07-.12.13-.26,0-.32s-.54-.17-.81-.29a1.86,1.86,0,0,1-.73-.51.48.48,0,0,1-.14-.45.42.42,0,0,1,.43-.2,6.7,6.7,0,0,1,1.68.52,4.92,4.92,0,0,0,1.7.23,2.15,2.15,0,0,0,1.54-.61,1.68,1.68,0,0,0,.16-1.6,2.18,2.18,0,0,0-1.17-1.18,4.51,4.51,0,0,0-1.67-.37,3.49,3.49,0,0,1-.86-.21,1.9,1.9,0,0,1-.4-.21c-.11-.09-.27-.19-.26-.4s.27-.21.41-.24a3.38,3.38,0,0,1,.45,0,1.73,1.73,0,0,0,.82-.11.59.59,0,0,0,.27-.7,6,6,0,0,0-.27-.82.66.66,0,0,1,0-.46A.37.37,0,0,1,13,66.8a1.29,1.29,0,0,1,.69.56,5.35,5.35,0,0,1,.43.77,8.2,8.2,0,0,0,.43.76,7.35,7.35,0,0,0,1.09,1.34,4.07,4.07,0,0,0,1.44.92,2.42,2.42,0,0,0,.84.13c.28,0,.58-.08.86-.1.58-.07,1.17-.1,1.73-.21a1.57,1.57,0,0,0,.77-.32.66.66,0,0,0,.06-.76,4.74,4.74,0,0,0-1-1.37,1.8,1.8,0,0,1-.5-.73.39.39,0,0,1,0-.24.16.16,0,0,1,.07-.11c.05,0,.09,0,.13,0a1.25,1.25,0,0,1,.44.13c1.06.5,2,1.16,3.06,1.69a7.2,7.2,0,0,0,1.6.66,1,1,0,0,0,.79-.09,1,1,0,0,0,.19-.78,2.47,2.47,0,0,0-.91-1.41,10,10,0,0,0-1.41-1c-1-.6-2.06-1.08-3-1.73a6.87,6.87,0,0,0-.74-.44,1,1,0,0,0-.81,0,13.59,13.59,0,0,1-1.59.74,5.83,5.83,0,0,1-3.46,0,4.92,4.92,0,0,1-.81-.37c-.25-.15-.47-.34-.72-.48A3.38,3.38,0,0,0,11,64a.81.81,0,0,1-.45-.11.49.49,0,0,1-.17-.42.43.43,0,0,1,.3-.35c.14-.06.28-.09.42-.14s.59-.21.52-.5a3.33,3.33,0,0,0-.16-.4,2.07,2.07,0,0,1-.14-.42,1.91,1.91,0,0,1,0-.89.5.5,0,0,1,.28-.36.42.42,0,0,1,.41.2c.34.49.56,1,.88,1.52A5,5,0,0,0,14,63.43a2.37,2.37,0,0,0,1.6.5,4.13,4.13,0,0,0,.85-.17,2.36,2.36,0,0,0,.77-.36.56.56,0,0,0,.11-.74,3.5,3.5,0,0,0-.5-.71c-.76-.87-1.64-1.65-2.39-2.54S13,57.61,12.12,56.8a2.8,2.8,0,0,0-.69-.51.64.64,0,0,0-.4-.08,1.5,1.5,0,0,0-.38.19A3.42,3.42,0,0,1,9,56.82a5.28,5.28,0,0,1-3.2-1.29A7.22,7.22,0,0,1,4.52,54.3a2.66,2.66,0,0,1-.43-.77.63.63,0,0,1,0-.45A.31.31,0,0,1,4.5,53a10.84,10.84,0,0,0,3.14,1.47,1.75,1.75,0,0,0,.85,0A.68.68,0,0,0,9,53.82a2.33,2.33,0,0,0-.46-1.62,5.65,5.65,0,0,0-1.18-1.26A10.74,10.74,0,0,0,5.87,50a3.6,3.6,0,0,1-.71-.52.9.9,0,0,1-.23-.39.63.63,0,0,1,.1-.44.56.56,0,0,1,.33-.29.89.89,0,0,1,.44.07.77.77,0,0,0,.77-.23l0,0a.82.82,0,0,1-.82.26.89.89,0,0,0-.41-.07.54.54,0,0,0-.29.27.55.55,0,0,0,.13.72,3.55,3.55,0,0,0,.7.5,12.27,12.27,0,0,1,1.48.94,5.88,5.88,0,0,1,1.21,1.28,2.43,2.43,0,0,1,.5,1.71A1.21,1.21,0,0,1,9,54.3a.84.84,0,0,1-.41.29,2.09,2.09,0,0,1-.93,0,11,11,0,0,1-3.18-1.45c-.11,0-.16,0-.17,0a.49.49,0,0,0,0,.31,2.48,2.48,0,0,0,.4.7A7.18,7.18,0,0,0,5.9,55.35,5,5,0,0,0,9,56.57a3.36,3.36,0,0,0,1.56-.41l.18-.11a1.06,1.06,0,0,1,.28-.12.93.93,0,0,1,.57.1,3.47,3.47,0,0,1,.77.56c.87.83,1.58,1.75,2.36,2.61s1.6,1.63,2.4,2.53a3.86,3.86,0,0,1,.55.78,1.16,1.16,0,0,1,.12.58.85.85,0,0,1-.31.57,2.46,2.46,0,0,1-.9.43,4.16,4.16,0,0,1-.44.12,4,4,0,0,1-.48.07,2.72,2.72,0,0,1-1.85-.56,5.18,5.18,0,0,1-1.21-1.4q-.24-.39-.45-.78a5.08,5.08,0,0,0-.4-.69l-.08-.08s0,0,0,0,0,0,0,.11a1.5,1.5,0,0,0,0,.7,1.79,1.79,0,0,0,.11.35,2.24,2.24,0,0,1,.19.48.76.76,0,0,1,0,.39.72.72,0,0,1-.25.33,1.86,1.86,0,0,1-.5.22,2.7,2.7,0,0,0-.37.12c-.11.05-.09.07-.08,0a.19.19,0,0,0,0,.08,1.05,1.05,0,0,0,.24,0,3.61,3.61,0,0,1,1.83.42c.3.16.53.36.74.48a3.9,3.9,0,0,0,.72.33,5.44,5.44,0,0,0,3.22,0,4.86,4.86,0,0,0,.74-.32,8.6,8.6,0,0,1,.81-.42,1.65,1.65,0,0,1,.54-.13,1.27,1.27,0,0,1,.59.1,7.27,7.27,0,0,1,.81.47c1,.63,2,1.1,3,1.72a9.75,9.75,0,0,1,1.49,1A2.93,2.93,0,0,1,26.57,69a2.53,2.53,0,0,1,0,.28q0,.18,0,.27a1,1,0,0,1-1,.86,1.87,1.87,0,0,1-.54,0,7.54,7.54,0,0,1-1.72-.69c-1-.54-2.05-1.21-3-1.67a.84.84,0,0,0-.24-.08h0s.07,0,.15-.09,0,0,0,0h0s0,0,0,0a1.7,1.7,0,0,0,.38.5,4.84,4.84,0,0,1,1.14,1.52,1.72,1.72,0,0,1,.13.58,1,1,0,0,1-.29.7,2,2,0,0,1-1,.45,16.75,16.75,0,0,1-1.77.22l-.42,0-.22,0-.26,0a2.9,2.9,0,0,1-1-.14,4.72,4.72,0,0,1-1.63-1,7.68,7.68,0,0,1-1.17-1.44,6.94,6.94,0,0,1-.46-.8,5.48,5.48,0,0,0-.39-.7,1.06,1.06,0,0,0-.37-.35.12.12,0,0,0,.08,0,.19.19,0,0,0,.08-.08s0,0,0,.12a3.74,3.74,0,0,0,.14.36,3.27,3.27,0,0,1,.15.5,1.31,1.31,0,0,1,0,.67,1,1,0,0,1-.51.59,2.17,2.17,0,0,1-1.1.17h-.45s0,0,.05,0a.34.34,0,0,0,.1-.19c0-.18,0-.2,0-.19l.07.06.29.15a3.29,3.29,0,0,0,.72.17,8.75,8.75,0,0,1,.9.11,4.19,4.19,0,0,1,.95.3,2.73,2.73,0,0,1,1.45,1.48A2.63,2.63,0,0,1,16,72.57a1.87,1.87,0,0,1-.41,1.09,2.67,2.67,0,0,1-1.94.82,5.74,5.74,0,0,1-1.9-.25c-.3-.09-.64-.24-.85-.32a2,2,0,0,0-.66-.17h0a.27.27,0,0,0,.16-.17.45.45,0,0,0,0-.17l0,0a1.29,1.29,0,0,0,.51.34l.36.12.23.07a1.27,1.27,0,0,1,.35.18.68.68,0,0,1,.24.33.72.72,0,0,1,0,.38,1.33,1.33,0,0,1-.14.36,4.47,4.47,0,0,1-.3.43,2.45,2.45,0,0,0-.23.31.85.85,0,0,0-.11.2s0,0,0-.17a.34.34,0,0,0-.2-.15.54.54,0,0,0,.16,0,2.39,2.39,0,0,0,.6-.36l.16-.13.23-.17a2.77,2.77,0,0,1,.49-.24,6.22,6.22,0,0,1,1.89-.33l1.74,0a5.78,5.78,0,0,0,.78-.09,1.83,1.83,0,0,0,.62-.26c.41-.26.83-.69,1.4-1a3.37,3.37,0,0,1,.95-.41l.26,0,.25,0c.17,0,.27,0,.41,0a14.15,14.15,0,0,0,1.63-.39,7.61,7.61,0,0,1,.91-.21,2,2,0,0,1,1.19.12,1.05,1.05,0,0,1,.34.28c.07.09.06.09.09.13a.77.77,0,0,1,.11.31,1.08,1.08,0,0,1-.23.77,4.84,4.84,0,0,1-.67.73,28.13,28.13,0,0,0-2.56,2.26,1.17,1.17,0,0,0-.28.5s0,0,0,0,0,0,0,0-.08,0,0,0a2.11,2.11,0,0,0,.64-.22c.23-.12.47-.26.7-.41a18.37,18.37,0,0,0,2.63-2.14c.4-.4.79-.81,1.15-1.24.18-.22.35-.44.5-.66l.21-.33a3.91,3.91,0,0,1,.24-.42,2.23,2.23,0,0,1,.8-.75,2.33,2.33,0,0,1,1.06-.24c.66,0,1.21.12,1.74.1a2.82,2.82,0,0,0,1.42-.41,4,4,0,0,1,1.83-.63,5.29,5.29,0,0,1,1.9.16,4.54,4.54,0,0,1,1.73.86,2.07,2.07,0,0,1,.64.9,1.31,1.31,0,0,1,0,.65,1,1,0,0,1-.4.63,2,2,0,0,1-1.06.31,5.77,5.77,0,0,1-.93,0c-.6,0-1.19-.12-1.75-.17a4,4,0,0,0-.76,0c-.05,0-.08,0-.05,0s.05,0,.1-.13,0,0,0,0h0a.45.45,0,0,0,0-.08s0,0,0,0,.48.2.77.34a1.58,1.58,0,0,1,.82.83,1.08,1.08,0,0,1,.07.31v.28a1.41,1.41,0,0,1-.19.61,2,2,0,0,1-.82.71,6.86,6.86,0,0,1-.86.36,3.44,3.44,0,0,0-.7.29s0,0,0,0a.16.16,0,0,0,0-.1c0-.09,0,0,0,0l0-.07s0,0,0,0h0l.09,0a2.59,2.59,0,0,0,.73-.1,9.13,9.13,0,0,0,1.55-.59,5.15,5.15,0,0,0,1.33-.89,2.52,2.52,0,0,0,.25-.33,1.7,1.7,0,0,1,.46-.36,4.1,4.1,0,0,1,.92-.3,8.88,8.88,0,0,0,1.62-.43,2.07,2.07,0,0,0,.64-.39l.13-.11.14-.16a1.5,1.5,0,0,1,.46-.36,1.59,1.59,0,0,1,1.11-.09,2.52,2.52,0,0,1,.9.44A4.39,4.39,0,0,1,45,76c0,.16,0,.33,0,.49l0,.22c0,.09,0,.16,0,.24a4.89,4.89,0,0,1-.24.91,4.11,4.11,0,0,1-1.07,1.56,6.22,6.22,0,0,1-3.36,1.4c-.29,0-.6.07-.9.09a3.15,3.15,0,0,1-1-.08,3.43,3.43,0,0,1-1.63-1c-.22-.21-.42-.44-.61-.63A1.26,1.26,0,0,0,35.9,79c-.08,0-.11,0-.11,0s-.13.09-.15.13a.5.5,0,0,0,0,.24A5.09,5.09,0,0,0,36,80a4.69,4.69,0,0,1,.41.84,1.26,1.26,0,0,1,.07.57.79.79,0,0,1-.39.57,1.78,1.78,0,0,1-1,.13,3.46,3.46,0,0,0-.79,0c-.23,0-.29.13-.33.28s.16.19.41.26A7.21,7.21,0,0,0,36,83a19.91,19.91,0,0,0,3.45-.07,7.23,7.23,0,0,1,1.8,0,2.59,2.59,0,0,1,2.38,2.53,9.63,9.63,0,0,1,0,1.78A3.92,3.92,0,0,1,43,88.93a2,2,0,0,1-1.58.91,9.78,9.78,0,0,1-1.76-.19A4.07,4.07,0,0,0,38,89.8a4.43,4.43,0,0,0-2.25,2.44,15.56,15.56,0,0,1-1.83,3L32.86,96.6c-.18.23-.35.47-.51.71a2.69,2.69,0,0,0-.19.38.35.35,0,0,0,0,.38Z" transform="translate(-4.04 -4.18)"/><path class="cls-8" d="M82.37,46.53a4.1,4.1,0,0,0,.89-.21.93.93,0,0,1,.47,0,.4.4,0,0,1,.28.38.52.52,0,0,1-.28.38,2.65,2.65,0,0,1-.4.24l-.81.43a4.82,4.82,0,0,0-1.45,1.12,15.9,15.9,0,0,1-1.15,1.45,4.29,4.29,0,0,1-1.57,1,5.13,5.13,0,0,0-1.6.89,2.63,2.63,0,0,0-1,1.5.93.93,0,0,0,.25.83,1.15,1.15,0,0,0,.82.29,8,8,0,0,0,1.81-.32.79.79,0,0,1,.48,0,.15.15,0,0,1,.07.13.21.21,0,0,1,0,.13.73.73,0,0,1-.17.18c-.25.19-.53.31-.79.48s-.56.36-.51.65a.67.67,0,0,0,.23.37l.32.33a11.59,11.59,0,0,1,1.27,1.35.76.76,0,0,1,.16.46.35.35,0,0,1-.35.31,1.89,1.89,0,0,1-.85-.39c-.51-.35-1-.76-1.45-1.15a4.48,4.48,0,0,0-1.53-1,1.89,1.89,0,0,0-1.72.3,3.52,3.52,0,0,0-1,1.47,3.3,3.3,0,0,1-1.08,1.5,9.87,9.87,0,0,1-1.57,1c-.27.15-.54.3-.79.47a1.45,1.45,0,0,0-.57.68,1.22,1.22,0,0,0,.11.87l.33.86a4.45,4.45,0,0,0,1,1.54,1.67,1.67,0,0,0,1.7.31,10.86,10.86,0,0,0,1.68-.74l1.64-.85a9.28,9.28,0,0,1,.85-.39,1.35,1.35,0,0,1,.93-.1.51.51,0,0,1,0,.85,4.12,4.12,0,0,1-.82.45,2.08,2.08,0,0,0-.39.22c-.14.1,0,.21.09.31a5.78,5.78,0,0,1,.66.65,2.66,2.66,0,0,1,.28.38.51.51,0,0,1,.08.48.5.5,0,0,1-.47.15,1.41,1.41,0,0,1-.45-.15,5.59,5.59,0,0,0-.84-.36.8.8,0,0,0-.81.19,2,2,0,0,0-.44.79,1.91,1.91,0,0,0-.08.89,1.6,1.6,0,0,0,1.2,1.21,2.64,2.64,0,0,0,1.77-.16,13.62,13.62,0,0,0,1.56-1,5.51,5.51,0,0,1,1.67-.81.44.44,0,0,1,.25,0,.21.21,0,0,1,.12.24,1.33,1.33,0,0,1-.15.45,2.34,2.34,0,0,0-.27.85c0,.3.38.4.66.46a1.45,1.45,0,0,1,.87.35.39.39,0,0,1,.06.48.92.92,0,0,1-.36.32,3.2,3.2,0,0,1-.89.29c-.62.12-1.23.13-1.84.21s-1.23.13-1.85.14A6,6,0,0,1,73,70.22c-1.07-.68-1.61-1.88-2.52-2.7a1.44,1.44,0,0,0-.75-.43c-.29,0-.35.4-.34.67a2.44,2.44,0,0,1,0,.47.38.38,0,0,1-.11.24.27.27,0,0,1-.26.07,1.29,1.29,0,0,1-.64-.7c-.27-.56-.41-1.17-.63-1.74a7.17,7.17,0,0,0-.34-.85c-.14-.26-.33-.57-.6-.54s-.45.35-.64.58-.39.48-.6.71a9.62,9.62,0,0,1-1.38,1.25,5.28,5.28,0,0,1-1.64.87,1.06,1.06,0,0,0-.38.2c-.09.1,0,.23.1.31a2.11,2.11,0,0,0,.83.34,6.16,6.16,0,0,0,1.82.11,14.13,14.13,0,0,1,1.85-.16,2.17,2.17,0,0,1,.93.18.9.9,0,0,1,.41.85,1.15,1.15,0,0,1-.72.63,4.62,4.62,0,0,1-.9.25,9.56,9.56,0,0,1-3.69-.22,34.84,34.84,0,0,0-3.62-.78,14.11,14.11,0,0,0-1.83-.15,4.1,4.1,0,0,0-1.78.3,1.26,1.26,0,0,0-.64,1.49,3.19,3.19,0,0,0,1,1.47,8.58,8.58,0,0,0,3.23,1.7,1.59,1.59,0,0,0,1.67-.23,2.14,2.14,0,0,0,.44-.78,2,2,0,0,1,.56-.76.93.93,0,0,1,.92-.24.49.49,0,0,1,.23.44,1.49,1.49,0,0,1-.07.47,1.3,1.3,0,0,0,0,.87.73.73,0,0,0,.7.4,2.14,2.14,0,0,0,1.5-.9,13.46,13.46,0,0,1,1.28-1.34,1.42,1.42,0,0,1,.86-.41.41.41,0,0,1,.35.36,1,1,0,0,1-.11.47c-.13.29-.28.55-.41.83a1.58,1.58,0,0,0-.18.86.83.83,0,0,0,.6.57,2.23,2.23,0,0,0,.89.12,17.81,17.81,0,0,0,1.8-.41.7.7,0,0,1,.48.09.58.58,0,0,1,.24.43,1,1,0,0,1-.49.8,3.5,3.5,0,0,1-1.76.6,4.23,4.23,0,0,1-.94,0c-.31,0-.6-.16-.9-.2a7.51,7.51,0,0,0-1.83-.11,2.63,2.63,0,0,0-.88.2c-.13.06-.25.16-.25.29a.62.62,0,0,0,.21.35,8.87,8.87,0,0,1,1.41,1.2,2.1,2.1,0,0,1,.47.82.57.57,0,0,1-.06.49.44.44,0,0,1-.47.15,9.18,9.18,0,0,1-1.58-1,16.94,16.94,0,0,0-1.53-1,3.91,3.91,0,0,0-.83-.39,1,1,0,0,0-.84,0,1.86,1.86,0,0,0-.32,1.69c.1.61.32,1.19.43,1.81a1.29,1.29,0,0,1,0,.48.43.43,0,0,1-.37.32,1.07,1.07,0,0,1-.86-.36,5.48,5.48,0,0,1-1-1.55,13.5,13.5,0,0,1-.68-1.73,3.56,3.56,0,0,0-1-1.49,1.88,1.88,0,0,0-1.65-.54,1.49,1.49,0,0,0-1,1.33,35.15,35.15,0,0,1-.16,3.69c-.27,1.22-.8,2.34-1.16,3.52a7,7,0,0,0-.41,3.61,2.81,2.81,0,0,0,.37.83,3.86,3.86,0,0,0,.62.66,12.41,12.41,0,0,0,1.45,1.15c.5.35,1,.69,1.49,1.09a8.6,8.6,0,0,1,1.29,1.34c.19.25.36.5.54.75a4.37,4.37,0,0,0,.64.65,5.74,5.74,0,0,0,1.59.92,13.3,13.3,0,0,0,1.76.55l.89.23a1.85,1.85,0,0,1,.85.4.32.32,0,0,1-.09.46,1.41,1.41,0,0,1-.4.25,4.14,4.14,0,0,1-.89.27,7.65,7.65,0,0,1-1.85.13,6.27,6.27,0,0,1-1.82-.37,3.88,3.88,0,0,1-.84-.42c-.26-.17-.49-.37-.75-.54A18.76,18.76,0,0,0,54,95a8.49,8.49,0,0,0-1.75-.56,2.48,2.48,0,0,0-.9,0,.72.72,0,0,0-.57.61,3.41,3.41,0,0,1-.31.88,1,1,0,0,1-.74.55,1.34,1.34,0,0,1-.88-.32,5.81,5.81,0,0,1-.67-.64A2.81,2.81,0,0,0,46.43,95c-.61,0-1.23,0-1.85-.1a4.78,4.78,0,0,1-1.76-.56,8,8,0,0,1-.76-.54,5.62,5.62,0,0,0-.79-.46,3.46,3.46,0,0,0-1.79-.31,3.63,3.63,0,0,0-1.7.63,18.26,18.26,0,0,0-2.59,2.61,12.46,12.46,0,0,1-1.37,1.25,5,5,0,0,1-.78.51,1.65,1.65,0,0,1-.44.16.51.51,0,0,1-.46-.1l0,0c.23.19.57,0,.83-.08a4.81,4.81,0,0,0,.76-.51,13.32,13.32,0,0,0,1.35-1.25,18.59,18.59,0,0,1,2.59-2.66,3.94,3.94,0,0,1,1.76-.67,3.59,3.59,0,0,1,1.86.32,4.23,4.23,0,0,1,.83.47c.26.18.49.37.75.52a4.49,4.49,0,0,0,1.7.52,15.81,15.81,0,0,0,1.83.08,3,3,0,0,1,1.88.52,5.19,5.19,0,0,0,.65.61,1.13,1.13,0,0,0,.71.27.75.75,0,0,0,.55-.44A2.86,2.86,0,0,0,50.5,95a1.13,1.13,0,0,1,.25-.52,1,1,0,0,1,.51-.28,2.51,2.51,0,0,1,1,0,8,8,0,0,1,1.81.57,18.8,18.8,0,0,1,3.29,1.81c.26.17.52.38.74.53a4,4,0,0,0,.78.38,5.84,5.84,0,0,0,1.72.34,7,7,0,0,0,1.76-.13,4.34,4.34,0,0,0,.82-.25,1,1,0,0,0,.31-.19c.07-.08,0,0,0,0a.69.69,0,0,0-.26-.14l-.4-.14L62,96.73a13,13,0,0,1-1.81-.56,6.5,6.5,0,0,1-1.69-1,4.78,4.78,0,0,1-.7-.72c-.19-.24-.36-.51-.54-.74A8.23,8.23,0,0,0,56,92.47c-.46-.38-1-.71-1.48-1.07a15.12,15.12,0,0,1-1.49-1.18l-.34-.33a2.18,2.18,0,0,1-.34-.4,3.13,3.13,0,0,1-.43-.95,4.91,4.91,0,0,1,0-2,11.47,11.47,0,0,1,.45-1.86c.36-1.19.89-2.34,1.14-3.47a8.5,8.5,0,0,0,.11-1.76,12.4,12.4,0,0,1,0-1.92,2.28,2.28,0,0,1,.4-1,2.19,2.19,0,0,1,.21-.23l.08-.07.13-.1a1.59,1.59,0,0,1,.54-.26,1.86,1.86,0,0,1,1.15.08,2.81,2.81,0,0,1,.91.55,4.08,4.08,0,0,1,1.15,1.68,13,13,0,0,0,.66,1.68,5.31,5.31,0,0,0,.93,1.41c.19.18.36.26.48.23s0,0,0,0h0s0,0,0,0a1,1,0,0,0,0-.29c-.09-.53-.32-1.15-.43-1.79a3.64,3.64,0,0,1,0-1,1.79,1.79,0,0,1,.15-.57,1.23,1.23,0,0,1,.13-.24.89.89,0,0,1,.27-.3,1.15,1.15,0,0,1,.7-.22,2,2,0,0,1,.58.11,4.85,4.85,0,0,1,.92.42,16.66,16.66,0,0,1,1.58,1l.75.52a3.4,3.4,0,0,0,.68.39s0,0,0,0,0,0,0,0h0l0,0s0,0,0-.06a1.63,1.63,0,0,0-.37-.61,4.19,4.19,0,0,0-.61-.57c-.22-.2-.45-.31-.76-.59A1,1,0,0,1,63.3,77a.76.76,0,0,1,.21-.53,1.21,1.21,0,0,1,.32-.23A3.23,3.23,0,0,1,64.9,76a8,8,0,0,1,2,.11l.49.1a2.25,2.25,0,0,0,.4.09,3.73,3.73,0,0,0,.82,0,2.94,2.94,0,0,0,1.48-.5c.2-.13.3-.34.27-.33v0s0-.08,0,0,0,0,0,0,0,0-.11,0a13.15,13.15,0,0,1-1.83.41,2.68,2.68,0,0,1-1.11-.14,1.76,1.76,0,0,1-.56-.31,1.24,1.24,0,0,1-.4-.67,2,2,0,0,1,.22-1.2c.14-.31.3-.58.4-.82s.07-.24.07-.2,0,.13.14.15,0,0-.12.07a1.75,1.75,0,0,0-.3.22,11.44,11.44,0,0,0-1.21,1.28,2.73,2.73,0,0,1-1.93,1.1,1.45,1.45,0,0,1-.71-.17,1.2,1.2,0,0,1-.53-.58,1.48,1.48,0,0,1-.12-.7c0-.1,0-.2,0-.32s0-.15.07-.24a1.45,1.45,0,0,0,.05-.29c0-.07,0,0,.08.06s0,0,0,0a.93.93,0,0,0-.24.15,1.29,1.29,0,0,0-.39.53,2.82,2.82,0,0,1-.55,1,1.69,1.69,0,0,1-1.18.54A3.4,3.4,0,0,1,59,75.23,9,9,0,0,1,55.5,73.4a3.8,3.8,0,0,1-1.2-1.77,1.93,1.93,0,0,1,.08-1.27.73.73,0,0,1,0-.12l0-.08.05-.08a2.78,2.78,0,0,1,.21-.27,2.17,2.17,0,0,1,.52-.37,4.59,4.59,0,0,1,2.06-.36,12.13,12.13,0,0,1,1.92.17,33,33,0,0,1,3.66.79,9.05,9.05,0,0,0,3.46.22,3.08,3.08,0,0,0,.78-.21,1.06,1.06,0,0,0,.3-.16c.08,0,.1-.12.08,0v0c0,.08,0,0,0,0v0a1,1,0,0,0,0-.12.28.28,0,0,0-.09-.1,1.54,1.54,0,0,0-.66-.11,6.48,6.48,0,0,0-.87,0c-.29,0-.58.08-.92.11a6.75,6.75,0,0,1-2-.13,2.75,2.75,0,0,1-1-.44,1,1,0,0,1-.3-.38.76.76,0,0,1,0-.4.69.69,0,0,1,.16-.31.88.88,0,0,1,.35-.25l.16-.07.11,0a4.81,4.81,0,0,0,1.5-.79,9.63,9.63,0,0,0,1.3-1.18c.2-.21.4-.44.58-.67s.17-.23.31-.39a1.18,1.18,0,0,1,.66-.39.91.91,0,0,1,.81.33,1.92,1.92,0,0,1,.33.49,6.21,6.21,0,0,1,.37.91c.21.59.37,1.22.6,1.69a1.17,1.17,0,0,0,.19.31c.06.09.16.15.11.12a.29.29,0,0,0-.21.07c0,.06,0,.06,0,0s0,0,0,0a.26.26,0,0,0,0-.07c0-.05,0-.17,0-.26a1.79,1.79,0,0,1,.09-.62.83.83,0,0,1,.25-.38.7.7,0,0,1,.5-.19,1.26,1.26,0,0,1,.68.23,3.66,3.66,0,0,1,.42.34A10.6,10.6,0,0,1,72,68.63a5.25,5.25,0,0,0,1.21,1.19,5.46,5.46,0,0,0,3.27.85c.59,0,1.2-.07,1.81-.13s1.26-.1,1.8-.2a2.71,2.71,0,0,0,.76-.24.41.41,0,0,0,.18-.15s0,.1,0,0a.47.47,0,0,0-.22-.12,2.77,2.77,0,0,0-.4-.09,1.68,1.68,0,0,1-.55-.18,1,1,0,0,1-.31-.25,1,1,0,0,1-.16-.43,1.45,1.45,0,0,1,.12-.62c.06-.17.13-.31.19-.45a1.84,1.84,0,0,0,.12-.3.23.23,0,0,0,0,.07.19.19,0,0,0,.11.12c.08,0,0,0,0,0a2.9,2.9,0,0,0-.73.29c-.26.14-.51.29-.77.45l-.75.51a4.63,4.63,0,0,1-.87.51,3.09,3.09,0,0,1-2.06.17,2,2,0,0,1-1.49-1.55,2.21,2.21,0,0,1,.1-1.09,2.32,2.32,0,0,1,.53-1,1.11,1.11,0,0,1,.58-.32,1.32,1.32,0,0,1,.63,0,6.2,6.2,0,0,1,.91.39,1.76,1.76,0,0,0,.34.12h.09s0,0,0,0,0,0-.08-.07a3,3,0,0,0-.24-.32,5.85,5.85,0,0,0-.61-.61.83.83,0,0,1-.25-.3.48.48,0,0,1,0-.39.63.63,0,0,1,.16-.21,2.06,2.06,0,0,1,.49-.29,3.75,3.75,0,0,0,.73-.39c.09-.07.12-.13.12-.15h0s0-.06,0-.08,0,0,0,0a.6.6,0,0,0-.23,0,2.07,2.07,0,0,0-.38.12,7.3,7.3,0,0,0-.82.36l-1.63.85a11.67,11.67,0,0,1-1.76.76,2.48,2.48,0,0,1-1.06.09,1.93,1.93,0,0,1-1-.48,4.81,4.81,0,0,1-1.05-1.68c-.12-.3-.23-.59-.34-.88a1.58,1.58,0,0,1-.11-1.1,1.74,1.74,0,0,1,.71-.85,9,9,0,0,1,.82-.5,9.09,9.09,0,0,0,1.52-.94,3,3,0,0,0,1-1.37,3.78,3.78,0,0,1,1.16-1.6,2.23,2.23,0,0,1,2-.33,2.48,2.48,0,0,1,.9.46c.26.19.49.39.73.59.47.4.93.81,1.42,1.16a1.82,1.82,0,0,0,.69.34s0,0,0,0l0,0h0a.11.11,0,0,0,0-.06.56.56,0,0,0-.11-.28,10.76,10.76,0,0,0-1.23-1.32l-.33-.35a.93.93,0,0,1-.28-.48.66.66,0,0,1,.21-.59,2.33,2.33,0,0,1,.41-.31c.27-.16.56-.29.78-.45a.44.44,0,0,0,.1-.11s0,0,0,0,0,0,0-.05,0,.05,0,.06a1.15,1.15,0,0,0-.32,0,8.31,8.31,0,0,1-1.85.31,1.7,1.7,0,0,1-.5-.09.91.91,0,0,1-.25-.11,1.4,1.4,0,0,1-.2-.16,1.13,1.13,0,0,1-.29-1,2.76,2.76,0,0,1,1-1.6,5.11,5.11,0,0,1,1.65-.9,4.17,4.17,0,0,0,1.53-.94A16.78,16.78,0,0,0,81,48.77a4.82,4.82,0,0,1,1.48-1.13l.82-.42c.14-.08.27-.15.4-.24s.24-.19.24-.32a.32.32,0,0,0-.22-.3.91.91,0,0,0-.43,0,4.77,4.77,0,0,1-.91.2Z" transform="translate(-4.04 -4.18)"/><path class="cls-7" d="M55,63.74a1.1,1.1,0,0,0,.51.72,3.5,3.5,0,0,0,.83.39,8.52,8.52,0,0,0,1.8.4,5.76,5.76,0,0,0,3.59-.58,1.52,1.52,0,0,0,.85-1.49c-.05-.62-.15-1.23-.2-1.85a4.22,4.22,0,0,1,0-.94,1,1,0,0,1,.17-.45.41.41,0,0,1,.45-.19.66.66,0,0,1,.26.41,4.35,4.35,0,0,1,.11.46c0,.31.1.62.17.92a1.77,1.77,0,0,0,.34.82c.23.2.55,0,.77-.2a3,3,0,0,0,.71-1.65,2.29,2.29,0,0,1,.38-.86,1.52,1.52,0,0,1,.82-.49,11,11,0,0,0,1.78-.51,5,5,0,0,0,1.56-1,2.34,2.34,0,0,0,.8-1.58c.07-1.24-.51-2.4-.55-3.67a.85.85,0,0,1,.13-.48.48.48,0,0,1,.86,0,2.35,2.35,0,0,1,.21.42c.12.29.22.59.34.87s.29.59.57.58a2.92,2.92,0,0,0,1.43-1.06,3.52,3.52,0,0,0,.69-1.68,5.62,5.62,0,0,0,0-.92,4.81,4.81,0,0,1,0-.93,6.62,6.62,0,0,1,.43-1.82,8.79,8.79,0,0,1,.84-1.68,4.37,4.37,0,0,1,1.26-1.38.75.75,0,0,1,.47-.11.37.37,0,0,1,.32.36,2.43,2.43,0,0,1-.16.93c-.19.59-.43,1.17-.59,1.76a3.18,3.18,0,0,0-.13.91.87.87,0,0,0,.36.77,2,2,0,0,0,1.75.05,2.88,2.88,0,0,0,1.24-1.32,4.51,4.51,0,0,0,.31-.87c.06-.3.11-.61.19-.91a4.24,4.24,0,0,1,.3-.89c.07-.13.14-.3.32-.35s.27.2.34.33a3.56,3.56,0,0,1,.22.91,1.29,1.29,0,0,0,.11.44.41.41,0,0,0,.39.13v.06a.46.46,0,0,1-.46-.15,1.59,1.59,0,0,1-.14-.47,2.88,2.88,0,0,0-.24-.87c0-.13-.17-.27-.2-.24s-.15.16-.2.28a5.87,5.87,0,0,0-.26.87,4.08,4.08,0,0,1-1.78,3.34,2.17,2.17,0,0,1-1,.24,3.07,3.07,0,0,1-.53-.06l-.11,0-.15,0a1,1,0,0,1-.27-.13,1.29,1.29,0,0,1-.55-1.07,3.7,3.7,0,0,1,.13-1c.16-.63.39-1.22.56-1.8a2.38,2.38,0,0,0,.13-.73s0,0,0,0l0,0a.52.52,0,0,0-.16.07,4,4,0,0,0-1.06,1.24,9,9,0,0,0-.77,1.59,6.32,6.32,0,0,0-.39,1.67,5.36,5.36,0,0,0,0,.87,5.81,5.81,0,0,1,0,1,4,4,0,0,1-.78,1.95,3.6,3.6,0,0,1-.75.76q-.23.17-.45.3l-.24.12a1.24,1.24,0,0,1-.42.12.94.94,0,0,1-.52-.13,1.13,1.13,0,0,1-.32-.28,2.21,2.21,0,0,1-.3-.52c-.15-.32-.24-.62-.35-.88l-.16-.31,0,0a.22.22,0,0,0,.12,0c.11,0,.06-.11,0,.14a9.78,9.78,0,0,0,.3,1.69,7.47,7.47,0,0,1,.23,2,3,3,0,0,1-1,2,5.7,5.7,0,0,1-1.75,1.06c-.31.12-.62.22-.94.31s-.68.16-.91.21c-.48.12-.67.37-.82,1-.08.28-.14.6-.26.94a2.29,2.29,0,0,1-.63,1l-.13.11-.09.06a1.62,1.62,0,0,1-.32.17,1,1,0,0,1-.44,0,.85.85,0,0,1-.46-.21,1.54,1.54,0,0,1-.35-.58,3.83,3.83,0,0,1-.13-.51c-.07-.32-.11-.64-.16-.93a3.73,3.73,0,0,0-.08-.41.91.91,0,0,0-.06-.16s0,0,0,0a.19.19,0,0,0,.15,0h0s0,0,0,0h0a.08.08,0,0,0,0,0,.54.54,0,0,0-.1.26,3.79,3.79,0,0,0,0,.84c0,.6.13,1.21.17,1.85a1.62,1.62,0,0,1-.26,1.08,2.42,2.42,0,0,1-.78.72,6.1,6.1,0,0,1-3.79.5A9,9,0,0,1,56.27,65a3.22,3.22,0,0,1-.84-.44,1.16,1.16,0,0,1-.51-.78Z" transform="translate(-4.04 -4.18)"/><path class="cls-8" d="M75.5,23.49c.14.14,0,.35,0,.47l-.24.4c-.07.13-.14.3-.06.41a.7.7,0,0,0,.41.14,3.15,3.15,0,0,0,1.77-.43,1.71,1.71,0,0,0,.64-.64,1.69,1.69,0,0,0,.13-.89,4,4,0,0,0-.22-.9c0-.15-.13-.3,0-.48a.26.26,0,0,1,.24-.1.69.69,0,0,1,.24.05,1.46,1.46,0,0,1,.64.68,1.17,1.17,0,0,0,.29.33.29.29,0,0,0,.37-.12c.19-.23.27-.56.56-.75a.51.51,0,0,1,.48,0A.6.6,0,0,1,81,22c.07.35-.19.61-.38.85s-.43.45-.65.66a18.38,18.38,0,0,0-1.31,1.34,6.39,6.39,0,0,1-1.4,1.24,3.74,3.74,0,0,1-1.77.57,8.34,8.34,0,0,1-1.87-.15,7.67,7.67,0,0,0-1.85-.07,2.9,2.9,0,0,0-1.62.82c-.45.43-.86.9-1.28,1.36a6.53,6.53,0,0,0-.58.72,1.4,1.4,0,0,0-.21.4c0,.15.06.26.21.27a3.15,3.15,0,0,0,.91-.11q.47-.09.93-.15a4.22,4.22,0,0,1,.94,0,1.07,1.07,0,0,1,.46.14.37.37,0,0,1,.11.47A1.48,1.48,0,0,1,71,31a3.92,3.92,0,0,1-.86.39,35,35,0,0,1-3.64.86,5.89,5.89,0,0,0-1.73.63c-.12.08-.26.19-.25.32s.15.23.27.3a7,7,0,0,0,.86.35,1.85,1.85,0,0,1,.83.46.52.52,0,0,1-.36.78A4.21,4.21,0,0,1,64.26,35a5,5,0,0,1-1.72-.74,2.75,2.75,0,0,0-1.69-.65,3.47,3.47,0,0,0-1.78.4,6.41,6.41,0,0,0-.77.51l-.78.52A18.14,18.14,0,0,0,56,36.1a4,4,0,0,0-.63.67,1.12,1.12,0,0,0-.26.83,1.49,1.49,0,0,0,.5.74,3.29,3.29,0,0,0,.77.5,5,5,0,0,0,1.78.48A3.37,3.37,0,0,0,60,39a5.86,5.86,0,0,0,1.39-1.2,8.36,8.36,0,0,1,1.33-1.33.56.56,0,0,1,.49,0c.19.1.17.32.16.46a6.89,6.89,0,0,1-.24.92,3.47,3.47,0,0,0-.16.9.57.57,0,0,0,.5.6,2.94,2.94,0,0,0,1.81-.06,4.08,4.08,0,0,0,1.37-1.21c.39-.49.72-1,1.1-1.51a15,15,0,0,1,1.2-1.44A5.55,5.55,0,0,1,70.39,34a1.72,1.72,0,0,1,.45-.16,1.45,1.45,0,0,0,.43-.14,3,3,0,0,0,.66-.63l.57-.73a2.41,2.41,0,0,1,.68-.67.39.39,0,0,1,.48.09.57.57,0,0,1,.15.48,5.22,5.22,0,0,1-.27.9c-.1.28-.19.63,0,.82a1.41,1.41,0,0,0,.84.25,4.05,4.05,0,0,1,.48,0,.51.51,0,0,1,.4.28.93.93,0,0,1,.06.49.44.44,0,0,1-.4.3,16.25,16.25,0,0,1-1.87-.16,2.71,2.71,0,0,0-1.77.33,10.09,10.09,0,0,0-1.48,1.12,9.53,9.53,0,0,0-1.28,1.34,3.4,3.4,0,0,0-.77,1.64,1.17,1.17,0,0,0,.26.84,2.44,2.44,0,0,0,.65.63,3.24,3.24,0,0,0,1.73.54,3,3,0,0,0,.9-.12,2.86,2.86,0,0,0,.79-.46l.75-.57a3.34,3.34,0,0,1,.4-.25.65.65,0,0,1,.5-.07.62.62,0,0,1,.08.91,3.55,3.55,0,0,1-.66.68,2.41,2.41,0,0,0-.6.68.32.32,0,0,0,.1.36A2,2,0,0,0,73,43c.25.17.53.31.78.51a.81.81,0,0,1,.3.4.57.57,0,0,1-.12.5.64.64,0,0,1-.5.09,3.45,3.45,0,0,1-.46-.12c-.3-.1-.59-.22-.87-.34a10.4,10.4,0,0,0-1.76-.59,9.13,9.13,0,0,0-.93-.1,7.15,7.15,0,0,1-.92-.19c-.6-.16-1.19-.39-1.79-.54a1.55,1.55,0,0,0-.88,0,.89.89,0,0,0-.44.7A2.78,2.78,0,0,0,66.13,45c.19.25.38.49.59.72a3.11,3.11,0,0,1,.56.77.25.25,0,0,1,0,.28.32.32,0,0,1-.27.06,1.48,1.48,0,0,1-.47-.12,6.06,6.06,0,0,1-.85-.41,9.15,9.15,0,0,1-1.5-1.12,25,25,0,0,0-2.82-2.44,2.44,2.44,0,0,0-1.72-.48,1,1,0,0,0-.76.4c-.17.24-.27.54-.43.82a2.16,2.16,0,0,1-.63.72.87.87,0,0,1-.94,0,3.29,3.29,0,0,1-1.14-1.49,2.62,2.62,0,0,0-1.13-1.38.78.78,0,0,0-.83,0c-.24.17-.25.51-.33.81a7.15,7.15,0,0,1-1.72,3.29,1.88,1.88,0,0,0-.08,1.74,1.84,1.84,0,0,0,1.41,1,6.44,6.44,0,0,1,1.83.39,8.44,8.44,0,0,0,1.73.64,1.88,1.88,0,0,0,1.63-.63,3.55,3.55,0,0,0,.66-1.7,1.85,1.85,0,0,1,1-1.53.45.45,0,0,1,.48.12.84.84,0,0,1,.17.46c0,.32,0,.63.07.93a.71.71,0,0,0,.46.69,2.46,2.46,0,0,0,.9.06,1.16,1.16,0,0,1,.93.2.78.78,0,0,1,.07.92,1.89,1.89,0,0,1-1.53,1,8.63,8.63,0,0,0-1.82.36,8.24,8.24,0,0,0-3.25,1.73,2,2,0,0,0-.72,1.61,3.11,3.11,0,0,0,.72,1.66,2.29,2.29,0,0,0,1.53.92,1.08,1.08,0,0,0,.81-.32,2.81,2.81,0,0,0,.51-.76,6.81,6.81,0,0,0,.49-1.78l.15-.92a2.25,2.25,0,0,1,.31-.9.44.44,0,0,1,.79.17,3.36,3.36,0,0,1,.11.94c0,.31,0,.62,0,.93a1.69,1.69,0,0,0,.07.45c0,.14.12.28.26.28a6.11,6.11,0,0,0,1.67-.76,6.19,6.19,0,0,0,1.41-1.19,3.12,3.12,0,0,0,.75-1.66,6,6,0,0,1,.66-1.76,2.11,2.11,0,0,1,.62-.71A.42.42,0,0,1,67,48c.13.16.07.34.06.49-.12.62-.39,1.19-.45,1.81a.57.57,0,0,0,.09.41c.1.11.25.08.39,0a4.25,4.25,0,0,0,.78-.49,8.28,8.28,0,0,1,.79-.52.81.81,0,0,1,.92-.05.48.48,0,0,1,.18.45.91.91,0,0,1-.21.43,3.8,3.8,0,0,1-.69.64,12.48,12.48,0,0,1-1.62.95,17.53,17.53,0,0,0-3.15,2,11.66,11.66,0,0,0-1.4,1.22,3.27,3.27,0,0,0-.28.37c-.08.13-.09.29.08.31a3.06,3.06,0,0,0,.91.08c.62,0,1.25,0,1.87-.06a5.91,5.91,0,0,1,.94,0,1.57,1.57,0,0,1,.46.12.34.34,0,0,1,.23.41,1.27,1.27,0,0,1-.73.58,4.72,4.72,0,0,1-.9.29,9.44,9.44,0,0,1-3.72.13,6,6,0,0,0-1.85.07,2.89,2.89,0,0,0-.86.33,1,1,0,0,0-.55.68,1.26,1.26,0,0,0,.27.84l.49.8c.16.27.32.54.45.82a1.43,1.43,0,0,1,.18.93.53.53,0,0,1-.35.33.77.77,0,0,1-.47-.12,4.61,4.61,0,0,1-.74-.58c-.46-.42-.88-.88-1.32-1.32a5.77,5.77,0,0,0-.69-.62c-.12-.08-.29-.18-.38-.08a1.23,1.23,0,0,0-.07.44,9.78,9.78,0,0,1-.1,1.87c-.16.61-.69,1.09-.6,1.73h-.06a1.54,1.54,0,0,1,.2-.92A4,4,0,0,0,55.5,62a9.49,9.49,0,0,0,.09-1.85,1,1,0,0,1,.09-.5.24.24,0,0,1,.28-.06.84.84,0,0,1,.23.12,5.26,5.26,0,0,1,.71.62c.45.44.87.89,1.33,1.31a4.16,4.16,0,0,0,.72.55.61.61,0,0,0,.37.1.38.38,0,0,0,.24-.24,1.29,1.29,0,0,0-.17-.81,9.21,9.21,0,0,0-.45-.81l-.5-.79c-.08-.14-.16-.28-.23-.42a1,1,0,0,1-.08-.54,1.28,1.28,0,0,1,.63-.81,3.15,3.15,0,0,1,.92-.36,5.85,5.85,0,0,1,1.91-.08,9.5,9.5,0,0,0,1.84.09,9.17,9.17,0,0,0,1.81-.25,6.08,6.08,0,0,0,.85-.29c.25-.1.55-.29.58-.42s0,0,0,0,0-.07,0,0h0l-.09-.07a1.73,1.73,0,0,0-.39-.09,6.54,6.54,0,0,0-.89,0c-.62,0-1.24.07-1.87.08a3.56,3.56,0,0,1-1-.08l-.09,0-.11-.07a.43.43,0,0,1-.15-.27.62.62,0,0,1,.1-.38,2.37,2.37,0,0,1,.31-.43,13,13,0,0,1,1.43-1.27c.5-.39,1-.75,1.54-1.1l.81-.5c.29-.16.59-.29.85-.42a11.47,11.47,0,0,0,1.56-.93,3.22,3.22,0,0,0,.63-.58.67.67,0,0,0,.14-.26c0-.07,0-.06-.07-.13s-.09-.05-.19,0a1.17,1.17,0,0,0-.34.14,7.26,7.26,0,0,0-.74.49,4.36,4.36,0,0,1-.86.53.83.83,0,0,1-.35.07.48.48,0,0,1-.26-.06l0,0-.13-.1a.91.91,0,0,1-.19-.69c.08-.72.35-1.29.45-1.85a1.11,1.11,0,0,0,0-.17s0-.07,0,0,0,0,0,.05a1.83,1.83,0,0,0-.5.58,5.83,5.83,0,0,0-.61,1.65,3.4,3.4,0,0,1-.27,1,3.56,3.56,0,0,1-.55.87,6.49,6.49,0,0,1-1.5,1.27,7.9,7.9,0,0,1-.85.47l-.45.2a1.79,1.79,0,0,1-.6.16.64.64,0,0,1-.46-.23,1,1,0,0,1-.17-.33,2.28,2.28,0,0,1-.08-.54c0-.34,0-.65,0-1a3.12,3.12,0,0,0-.09-.81c0-.11-.08-.09,0-.08s0,0-.08,0a2,2,0,0,0-.22.71l-.14.92a7.44,7.44,0,0,1-.53,1.89,2.94,2.94,0,0,1-.25.46l-.15.21,0,.05-.05.06L59,56a1.56,1.56,0,0,1-1.13.44,2.65,2.65,0,0,1-1.84-1.07,3.43,3.43,0,0,1-.83-1.91,2.13,2.13,0,0,1,0-.56,1.74,1.74,0,0,1,.07-.29,1.83,1.83,0,0,1,.11-.26,3.19,3.19,0,0,1,.63-.85,8.71,8.71,0,0,1,3.43-1.85,8.4,8.4,0,0,1,1.91-.38,1.45,1.45,0,0,0,1.15-.76c.11-.21.07-.36,0-.38a.46.46,0,0,0-.19-.07h-.15l-.22,0a2.67,2.67,0,0,1-1.1-.09,1.05,1.05,0,0,1-.59-.46,1.37,1.37,0,0,1-.19-.62c0-.35,0-.66-.07-.94a.48.48,0,0,0,0-.18s.08,0,0,0a.93.93,0,0,0-.42.42,1,1,0,0,0-.15.33,1.54,1.54,0,0,0,0,.17l0,.23a4.1,4.1,0,0,1-.76,1.93,2.26,2.26,0,0,1-.95.67,1.72,1.72,0,0,1-.28.08l-.26,0a2.26,2.26,0,0,1-.58,0A8.12,8.12,0,0,1,54.69,49a5.91,5.91,0,0,0-.82-.24c-.29-.06-.52-.06-.92-.12a2.32,2.32,0,0,1-1.79-1.32,2.38,2.38,0,0,1,.1-2.24,2.24,2.24,0,0,1,.35-.43,4,4,0,0,0,.26-.32,6,6,0,0,0,.44-.74A8.29,8.29,0,0,0,52.9,42l.11-.47a1.24,1.24,0,0,1,.42-.65,1.16,1.16,0,0,1,.76-.22,1.59,1.59,0,0,1,.64.17,3.2,3.2,0,0,1,1.4,1.65,2.77,2.77,0,0,0,.9,1.23.3.3,0,0,0,.37,0l.1-.08.13-.13a1.84,1.84,0,0,0,.2-.31c.14-.22.22-.52.47-.88a1.52,1.52,0,0,1,.54-.46,1.87,1.87,0,0,1,.61-.17,2.59,2.59,0,0,1,1.14.09,4.16,4.16,0,0,1,1,.47,25.62,25.62,0,0,1,2.89,2.48A7.82,7.82,0,0,0,66,45.74a5.3,5.3,0,0,0,.76.37,1.41,1.41,0,0,0,.31.08s0,0-.19.1a.47.47,0,0,0-.14.29c0,.06,0,.08,0,.07a2.77,2.77,0,0,0-.45-.57c-.21-.24-.42-.49-.62-.76a4.9,4.9,0,0,1-.54-.89,2.27,2.27,0,0,1-.26-1.18,1.65,1.65,0,0,1,.22-.68l.11-.15.1-.12a1.15,1.15,0,0,1,.38-.27,2.08,2.08,0,0,1,1.27,0c.66.17,1.23.39,1.8.54a5.51,5.51,0,0,0,.84.18c.21,0,.63,0,1,.11a11,11,0,0,1,1.86.63c.29.12.57.24.84.33a2.1,2.1,0,0,0,.36.09h.1s0,0-.09.06.05.15-.15,0-.45-.29-.73-.48a2.25,2.25,0,0,1-.47-.39.84.84,0,0,1-.13-.17l0-.06a.77.77,0,0,1-.06-.15.84.84,0,0,1,0-.57,1.5,1.5,0,0,1,.39-.55l.37-.35a3.81,3.81,0,0,0,.57-.57c.05-.08.06-.14.06-.12s-.06-.06.08.05.1,0,0,.06a2.21,2.21,0,0,0-.33.21l-.74.55a4.43,4.43,0,0,1-.42.29,2.14,2.14,0,0,1-.53.25,3.45,3.45,0,0,1-1.09.15,3.92,3.92,0,0,1-2-.64,3.08,3.08,0,0,1-.79-.78,1.27,1.27,0,0,1-.14-.22,1.3,1.3,0,0,1-.14-.32,1.61,1.61,0,0,1-.08-.64,3.85,3.85,0,0,1,.89-1.93A11.52,11.52,0,0,1,71.05,35a2.77,2.77,0,0,1,1-.39,4.54,4.54,0,0,1,1,0c.33,0,.65.07,1,.11a4.22,4.22,0,0,0,.81.06h0a.16.16,0,0,0-.08.11c0,.07,0,0,0,0s0,0,0,0a.14.14,0,0,0,0-.09s.07,0,0,0a3.29,3.29,0,0,0-.4,0,1.9,1.9,0,0,1-1.16-.38,1,1,0,0,1-.31-.79,2.53,2.53,0,0,1,.13-.57,5.15,5.15,0,0,0,.25-.79c0-.09,0-.1,0-.06l0,0s0,0,0,0h.09a2.27,2.27,0,0,0-.5.52c-.19.24-.37.49-.58.75a3.37,3.37,0,0,1-.8.73l-.15.08-.18.06-.23,0a1.89,1.89,0,0,0-.35.13,5,5,0,0,0-1.34,1,14.32,14.32,0,0,0-1.17,1.39c-.37.48-.7,1-1.11,1.52a4.44,4.44,0,0,1-1.55,1.34,2.42,2.42,0,0,1-1.08.21,6.22,6.22,0,0,1-1-.12,1,1,0,0,1-.64-.36,1.13,1.13,0,0,1-.23-.68,3.88,3.88,0,0,1,.18-1,5.85,5.85,0,0,0,.22-.84.59.59,0,0,0,0-.11v0s.14.1.06.05,0,0-.06,0a3.17,3.17,0,0,0-.6.54l-.63.69a6.09,6.09,0,0,1-1.52,1.3,3.81,3.81,0,0,1-2,.33,5.39,5.39,0,0,1-1.92-.53,3.78,3.78,0,0,1-.86-.57,2.16,2.16,0,0,1-.36-.39,1.24,1.24,0,0,1-.27-.58A1.47,1.47,0,0,1,55,36.53a4.17,4.17,0,0,1,.71-.74,16.43,16.43,0,0,1,1.56-1.11l.77-.51a7.75,7.75,0,0,1,.82-.53,3.86,3.86,0,0,1,2-.44,3.11,3.11,0,0,1,1.91.74,4.76,4.76,0,0,0,1.57.68,4.14,4.14,0,0,0,1.68.15.33.33,0,0,0,.12-.05h0c0,.06,0-.08,0,0,0-.11,0-.12,0-.14a1.75,1.75,0,0,0-.65-.32,7.67,7.67,0,0,1-.91-.38,1.75,1.75,0,0,1-.26-.18.7.7,0,0,1-.2-.43.63.63,0,0,1,.16-.43,1.8,1.8,0,0,1,.24-.2,6.78,6.78,0,0,1,1.86-.68A35.93,35.93,0,0,0,70,31.11c.55-.19,1.14-.47,1.3-.87a.23.23,0,0,0,0-.07h0a.73.73,0,0,0-.3-.08,4.14,4.14,0,0,0-.86,0c-.3,0-.6.08-.9.14a3.19,3.19,0,0,1-1,.11.57.57,0,0,1-.37-.19.51.51,0,0,1-.1-.45,1.52,1.52,0,0,1,.26-.51,9.05,9.05,0,0,1,.61-.75c.43-.46.83-.92,1.31-1.36a3.18,3.18,0,0,1,1.77-.88,7.62,7.62,0,0,1,1.92.09,8.82,8.82,0,0,0,1.82.17,3.61,3.61,0,0,0,1.68-.53,6.4,6.4,0,0,0,1.37-1.19,18.41,18.41,0,0,1,1.32-1.33c.23-.22.45-.43.66-.65s.4-.5.35-.7a.45.45,0,0,0-.25-.24.35.35,0,0,0-.34,0c-.21.12-.32.44-.53.7a.43.43,0,0,1-.54.16,1.11,1.11,0,0,1-.34-.39,1.28,1.28,0,0,0-.58-.63c-.09-.05-.32-.05-.33,0A.86.86,0,0,0,78,22a4,4,0,0,1,.22.93,1.53,1.53,0,0,1-.83,1.62,3.16,3.16,0,0,1-1.83.43.68.68,0,0,1-.45-.18.44.44,0,0,1,.05-.48l.24-.4c.07-.13.15-.3,0-.39Z" transform="translate(-4.04 -4.18)"/><path class="cls-7" d="M50.12,36a3.19,3.19,0,0,0,3.49-1.92,5.44,5.44,0,0,0,.18-1.07c.05-.36.12-.72.2-1.07a14.08,14.08,0,0,1,.66-2.09,6.82,6.82,0,0,1,.48-1,2.3,2.3,0,0,1,.76-.79.73.73,0,0,1,1,.26,1.7,1.7,0,0,1-.09,1.09c-.23.69-.58,1.34-.75,2-.07.34-.09.76.2,1a1,1,0,0,0,1,.06A13.84,13.84,0,0,0,58.76,31a5.6,5.6,0,0,1,.87-.67c.31-.19.68-.29,1-.48A4.26,4.26,0,0,0,62,28.2c.18-.32.33-.65.51-1s.38-.67.77-.79a.83.83,0,0,1,.56.11.51.51,0,0,1,.25.51,2.64,2.64,0,0,1-.43,1c-.19.31-.39.61-.56.93a1.39,1.39,0,0,0-.24,1c.12.31.54.42.86.44a1.92,1.92,0,0,0,1-.26,3.71,3.71,0,0,0,1.48-1.51,1.83,1.83,0,0,0,.25-1,.74.74,0,0,0-.22-.45l-.34-.43A8.36,8.36,0,0,1,64.66,25a2.39,2.39,0,0,1-.23-1.08,6.57,6.57,0,0,1,.27-1.06,10.39,10.39,0,0,0,.07-2.16,2.34,2.34,0,0,1,.16-1.1.49.49,0,0,1,.53-.21.61.61,0,0,1,.48.32,3.86,3.86,0,0,1,.2,1.08.58.58,0,0,0,.22.43.58.58,0,0,0,.48.06,2.6,2.6,0,0,0,.89-.57,2,2,0,0,1,1-.57.43.43,0,0,1,.3.07.33.33,0,0,1,.07.31,1.53,1.53,0,0,1-.21.51,6.34,6.34,0,0,1-.65.89,4.44,4.44,0,0,1-.8.76.94.94,0,0,1-.24.13,1,1,0,0,0-.2.16,1.29,1.29,0,0,0-.25.46,1.73,1.73,0,0,0,.58,1.9,2,2,0,0,0,.92.5.83.83,0,0,0,.79-.55c.34-.64.52-1.35.84-2a3.51,3.51,0,0,1,.61-.92,6.84,6.84,0,0,1,.84-.69c.59-.44,1.22-.81,1.76-1.28a2,2,0,0,0,.62-.86,4,4,0,0,0,.12-.52,1.91,1.91,0,0,1,.19-.52,1.27,1.27,0,0,1,.37-.43.39.39,0,0,1,.54.07,1.9,1.9,0,0,1,.28,1.06l-.06,0A5,5,0,0,1,76,19a1.26,1.26,0,0,1,.84.2.56.56,0,0,1,0,.82,2.27,2.27,0,0,1-.79.36,6.91,6.91,0,0,0-1.59.59,7.06,7.06,0,0,0-1.24,1.15A9.69,9.69,0,0,0,72,23.37a1.17,1.17,0,0,0-.23.78.65.65,0,0,0,.55.52,3.06,3.06,0,0,0,1.58-.52l.75-.41.38-.2c.14,0,.28-.14.44-.05l0,.05c-.09-.06-.25,0-.37.07l-.37.2-.74.44a3.2,3.2,0,0,1-1.65.57.81.81,0,0,1-.7-.64,1.33,1.33,0,0,1,.24-.91A9.12,9.12,0,0,1,73,21.92l.58-.63a2.67,2.67,0,0,1,.69-.6A7,7,0,0,1,75.87,20a2.15,2.15,0,0,0,.66-.3.21.21,0,0,0,0-.31.93.93,0,0,0-.59-.09,3.9,3.9,0,0,0-.76.13l-.42.12v-.43a1.65,1.65,0,0,0-.19-.82s0,0,0,0l0,0a.83.83,0,0,0-.22.28,1.5,1.5,0,0,0-.15.42c0,.06,0,.15,0,.24a1.23,1.23,0,0,1-.08.33,2.57,2.57,0,0,1-.73,1c-.59.53-1.21.9-1.77,1.33a9,9,0,0,0-.78.66,3.12,3.12,0,0,0-.5.8c-.29.61-.44,1.3-.83,2a1.76,1.76,0,0,1-.45.57,1.1,1.1,0,0,1-.86.25,2.36,2.36,0,0,1-1.21-.62,2.48,2.48,0,0,1-.76-1.1,2.11,2.11,0,0,1,0-1.38,2,2,0,0,1,.36-.64,1.26,1.26,0,0,1,.36-.29,1,1,0,0,0,.18-.1,4.21,4.21,0,0,0,.69-.66,7.13,7.13,0,0,0,.58-.81,1.12,1.12,0,0,0,.14-.33s0,.06.11.22l.08.06h0c-.06,0,.06,0,0,0h0a1.94,1.94,0,0,0-.62.44,2.92,2.92,0,0,1-1.12.7,1.2,1.2,0,0,1-.48,0h-.08l-.07,0-.07,0a.9.9,0,0,1-.24-.12,1.14,1.14,0,0,1-.48-.81,5.42,5.42,0,0,1-.07-.59.69.69,0,0,0-.07-.31s0,0,0,0,0,0,0,0,.08-.06.08-.05a.64.64,0,0,0,0,.28,2.62,2.62,0,0,0,0,.49,10.55,10.55,0,0,1-.07,2.29,4,4,0,0,1-.19.61,1.11,1.11,0,0,0-.08.36,1.79,1.79,0,0,0,.17.81,8.38,8.38,0,0,0,1.12,1.69l.35.44a1.51,1.51,0,0,1,.2.29,1.37,1.37,0,0,1,.14.45,2.46,2.46,0,0,1-.33,1.35A4.32,4.32,0,0,1,65,30.69a2.49,2.49,0,0,1-1.31.31,1.81,1.81,0,0,1-.38-.05l-.14,0-.1,0-.09,0a1.23,1.23,0,0,1-.66-.67,1.41,1.41,0,0,1,0-.85,5.48,5.48,0,0,1,.26-.59c.19-.34.4-.65.58-.95a2.39,2.39,0,0,0,.36-.77c0-.07,0,0,0,0a.56.56,0,0,0-.16-.05,1.26,1.26,0,0,0-.44.53l-.51,1a4.75,4.75,0,0,1-1.55,1.81l-.3.16-.26.11a3.76,3.76,0,0,0-1.23.8c-.25.23-.48.49-.72.76a3.85,3.85,0,0,1-.91.81,1.24,1.24,0,0,1-.74.16,1.31,1.31,0,0,1-.38-.09l-.13,0L56,32.81a1,1,0,0,1-.4-.72,1.75,1.75,0,0,1,.06-.66,20.66,20.66,0,0,1,.78-2.08,1.49,1.49,0,0,0,.12-.83c0-.07-.06-.1-.2-.14a.4.4,0,0,0-.32,0,1.79,1.79,0,0,0-.65.66,5.77,5.77,0,0,0-.49.92,12.77,12.77,0,0,0-.69,2c-.1.35-.17.7-.24,1,0,.18,0,.34-.07.53a2.19,2.19,0,0,1-.14.56,3.3,3.3,0,0,1-3.66,1.93Z" transform="translate(-4.04 -4.18)"/><path class="cls-7" d="M43.25,4.77a.53.53,0,0,1,.63-.11,2.4,2.4,0,0,1,.55.34c.34.27.65.58,1,.87a5.81,5.81,0,0,0,1,.77,1.31,1.31,0,0,0,.6.18,1.27,1.27,0,0,0,.6-.18,11.21,11.21,0,0,0,1.8-1.84,3.34,3.34,0,0,1,.48-.44.81.81,0,0,1,.64-.16.5.5,0,0,1,.34.54,2,2,0,0,1-.16.63,11.08,11.08,0,0,1-1.35,2.21q-.39.53-.81,1a1.42,1.42,0,0,0-.19.59c0,.21,0,.43-.06.64a20.23,20.23,0,0,0,.09,2.58A14.35,14.35,0,0,0,48.84,15a3.89,3.89,0,0,0,.22.6,1,1,0,0,0,.38.48,2.21,2.21,0,0,0,1.25,0,6.36,6.36,0,0,0,2.35-1A2.36,2.36,0,0,0,54.29,13V10.41a8,8,0,0,1,.08-1.3,1.32,1.32,0,0,1,.24-.62.34.34,0,0,1,.16-.1.2.2,0,0,1,.18.09,1.2,1.2,0,0,1,.15.3c.23.85.3,1.71.48,2.55a6.29,6.29,0,0,0,.17.62.89.89,0,0,0,.32.5c.16.05.4-.08.58-.16a4.37,4.37,0,0,0,.55-.32A6.34,6.34,0,0,0,59,10.19,2,2,0,0,0,59.24,9c0-.43,0-.87,0-1.3a2.71,2.71,0,0,1,.24-1.28.41.41,0,0,1,.63-.11,1.14,1.14,0,0,1,.28.61c.16.86,0,1.74.21,2.57a.75.75,0,0,0,.13.27A.35.35,0,0,0,61,9.8a2.86,2.86,0,0,0,.62-.13c.41-.12.81-.28,1.23-.4a4.52,4.52,0,0,1,.64-.12.71.71,0,0,1,.64.22.4.4,0,0,1,.08.34A.63.63,0,0,1,64,10a2.17,2.17,0,0,1-.55.36A14.57,14.57,0,0,1,61,11.2a4.2,4.2,0,0,0-1.19.46,2.31,2.31,0,0,0-.92.83.3.3,0,0,0,.16.46,1.37,1.37,0,0,1,.55.38.36.36,0,0,1,0,.36.6.6,0,0,1-.24.26,2.29,2.29,0,0,1-.62.22c-.43.1-.87.09-1.28.2a5.08,5.08,0,0,0-1.2.44,2.41,2.41,0,0,0-.52.36c-.15.13-.31.32-.25.48s.32.22.51.3a6.23,6.23,0,0,0,.62.15c.21,0,.42.07.64.13a1,1,0,0,1,.31.13.24.24,0,0,1,0,.37,3.28,3.28,0,0,1-1.27.33,22.6,22.6,0,0,1-2.59.14,4.79,4.79,0,0,0-4,2.77,7.9,7.9,0,0,0-.44,2.52c0,.43-.05.86-.05,1.29A4.29,4.29,0,0,0,49.45,25l-.05,0a3.52,3.52,0,0,0,2.51-1.13,11,11,0,0,0,1.49-2.44,3.23,3.23,0,0,1,.87-1.17,10.4,10.4,0,0,1,1.24-.74c.86-.45,1.7-.91,2.51-1.42a11.05,11.05,0,0,0,2.28-1.73c.59-.75,1.18-1.52,1.83-2.23a8.28,8.28,0,0,1,1-1,2,2,0,0,1,.65-.35.43.43,0,0,1,.39.1.6.6,0,0,1,.16.35,3.11,3.11,0,0,1-.6,1.33.85.85,0,0,0-.17.63,1.06,1.06,0,0,0,.51.44c.21.11.43.2.65.32a.93.93,0,0,1,.29.24.43.43,0,0,1,.06.38.39.39,0,0,1-.36.19,2.17,2.17,0,0,1-.36,0l-.72-.08a2.85,2.85,0,0,0-1.39.17,1.93,1.93,0,0,0-.57.41l-.52.5a12.68,12.68,0,0,1-2.26,1.8c-.83.51-1.72.87-2.52,1.41a6.84,6.84,0,0,0-1.12.89,1.39,1.39,0,0,0-.5,1.24,1.2,1.2,0,0,0,1.07.75,4,4,0,0,0,1.41-.14,4.09,4.09,0,0,0,1.3-.57A3.07,3.07,0,0,0,59.42,22a2,2,0,0,1,.41-.61.24.24,0,0,1,.37.05,1,1,0,0,1,.11.37,6.3,6.3,0,0,1-.07,1.44l0,0a3.42,3.42,0,0,1,1.5.33.43.43,0,0,1,.23.33.34.34,0,0,1-.22.33,2.22,2.22,0,0,1-.76.18c-.51,0-1,0-1.53,0a5.92,5.92,0,0,0-1.49.27,2.74,2.74,0,0,0-1.29.74c-.17.18-.16.44-.25.7a1.2,1.2,0,0,1-.48.61,2,2,0,0,1-1.51.07,3.65,3.65,0,0,0-1.5-.18,4.87,4.87,0,0,0-2.78,1.08,2.45,2.45,0,0,0-.79,1.26,3.17,3.17,0,0,0-.06.75c0,.26,0,.52,0,.77-.08,1-.2,2-.22,3.05A5.87,5.87,0,0,0,49.16,35a1.25,1.25,0,0,0,1,1v.06a1.12,1.12,0,0,1-.68-.37,1.71,1.71,0,0,1-.35-.7,6.09,6.09,0,0,1-.17-1.53c0-1,.11-2.05.17-3.06,0-.25,0-.51,0-.76a3.6,3.6,0,0,1,.06-.79A2.63,2.63,0,0,1,50,27.53a5.09,5.09,0,0,1,2.89-1.17,3.69,3.69,0,0,1,1.58.17,1.82,1.82,0,0,0,1.31-.06.9.9,0,0,0,.35-.48,2.14,2.14,0,0,0,.08-.34,1.17,1.17,0,0,1,.21-.45,3.09,3.09,0,0,1,1.43-.85A6.34,6.34,0,0,1,59.41,24c.31,0,.53,0,.78,0s.5,0,.74,0a1.61,1.61,0,0,0,.61-.14.07.07,0,0,0,.05,0v0c0,.07,0,0-.07,0a3.34,3.34,0,0,0-1.32-.26l-.37,0,0-.36a6.22,6.22,0,0,0,.06-1.35.51.51,0,0,0,0-.19s.08.07,0,0a.11.11,0,0,0,.06,0,.12.12,0,0,0,.1,0,3.88,3.88,0,0,0-.3.49,7.3,7.3,0,0,1-.37.66,2,2,0,0,1-.58.62,4.75,4.75,0,0,1-1.42.64,4.11,4.11,0,0,1-1.57.16A1.82,1.82,0,0,1,55,24a.93.93,0,0,1-.22-.16l-.07-.07,0-.05,0-.05a1.07,1.07,0,0,1-.23-.45,1.31,1.31,0,0,1,.11-1,2.89,2.89,0,0,1,.49-.68,7.22,7.22,0,0,1,1.19-1c.42-.27.84-.52,1.28-.75a13.06,13.06,0,0,0,1.23-.68,11.7,11.7,0,0,0,2.17-1.76l.52-.5a2.44,2.44,0,0,1,.7-.51,3.23,3.23,0,0,1,1.65-.22l.73.07a1.38,1.38,0,0,0,.28,0h0a.3.3,0,0,0-.15.2s0,.06,0,.07a.55.55,0,0,0-.13-.09c-.16-.09-.39-.18-.63-.31a1.53,1.53,0,0,1-.77-.73,1,1,0,0,1,0-.67,3.22,3.22,0,0,1,.19-.41l.37-.62a1,1,0,0,0,.16-.4h0l0,0,0,0c.07.08.15.06.12.07a1.5,1.5,0,0,0-.43.24,9.51,9.51,0,0,0-1,.94c-.31.34-.61.71-.91,1.08l-.44.55c-.14.19-.27.38-.46.6a11.78,11.78,0,0,1-2.4,1.85c-.83.51-1.68,1-2.54,1.44a7.77,7.77,0,0,0-1.15.69,2.72,2.72,0,0,0-.72,1L53.24,23a6,6,0,0,1-.9,1.29,4.57,4.57,0,0,1-1.33,1,3.82,3.82,0,0,1-1.66.36H49l-.13-.29a1,1,0,0,1-.09-.27l0-.19c0-.12,0-.24-.05-.36a5.53,5.53,0,0,1,0-.69c0-.46,0-.9,0-1.34s.07-.88.12-1.32a5.27,5.27,0,0,1,.37-1.4,4.94,4.94,0,0,1,1.84-2.2,5.56,5.56,0,0,1,2.7-.93,23.08,23.08,0,0,0,2.54-.13c.21,0,.41,0,.6-.09l.26-.07c.07,0,.15-.06.1,0s0,0-.11.17,0,.05,0,0,0,.09,0,.09v0a.38.38,0,0,0,.12.21s0,0-.11,0-.38-.08-.59-.12-.46-.1-.7-.17a2.3,2.3,0,0,1-.37-.16.9.9,0,0,1-.49-.47.88.88,0,0,1,.08-.79,1.66,1.66,0,0,1,.32-.36A3.12,3.12,0,0,1,56,14.3a5.54,5.54,0,0,1,1.34-.49,5.69,5.69,0,0,1,.7-.12,5,5,0,0,0,.59-.08,2,2,0,0,0,.44-.15s0-.05,0,0a.25.25,0,0,0,0,.19L59,13.58l-.24-.11a1,1,0,0,1-.49-.52,1,1,0,0,1,.06-.7,2.07,2.07,0,0,1,.55-.66,3.91,3.91,0,0,1,.61-.42,4,4,0,0,1,.66-.31,4.14,4.14,0,0,1,.67-.2,13.5,13.5,0,0,0,2.35-.79,1.6,1.6,0,0,0,.42-.27s.06-.08,0,0a.17.17,0,0,0,0,.1s0,.07,0,0l0,0s0,0,0,0h0c.05,0,0,0-.16,0a3,3,0,0,0-.53.1c-.39.11-.79.26-1.23.39a3.4,3.4,0,0,1-.76.15,1,1,0,0,1-.28,0,1,1,0,0,1-.23-.08l0,0-.07,0,0,0a1.11,1.11,0,0,1-.28-.52A7.22,7.22,0,0,1,60,8.2,7.64,7.64,0,0,0,59.87,7a1.41,1.41,0,0,0-.1-.31l0,0h.06s.08-.06.06,0a1.27,1.27,0,0,0-.12.41c0,.19,0,.39,0,.6,0,.41,0,.83,0,1.27,0,.22,0,.44,0,.69a1.9,1.9,0,0,1-.28.8,6.88,6.88,0,0,1-2,1.92,4,4,0,0,1-.61.35,2.17,2.17,0,0,1-.35.15l-.2.05a.69.69,0,0,1-.42,0,.88.88,0,0,1-.42-.42,1.82,1.82,0,0,1-.16-.36,4.92,4.92,0,0,1-.18-.68c-.18-.87-.25-1.77-.46-2.51a.64.64,0,0,0-.06-.16s0,.09.25.06q.06,0,.06,0a1.47,1.47,0,0,0-.12.39,9.61,9.61,0,0,0-.09,1.23V13c0,.12,0,.21,0,.34a1.67,1.67,0,0,1-.06.39,2.22,2.22,0,0,1-.34.69,3.91,3.91,0,0,1-1,1,6.81,6.81,0,0,1-2.51,1,2.46,2.46,0,0,1-1.46-.07,1.3,1.3,0,0,1-.55-.65,5.61,5.61,0,0,1-.23-.65,14.78,14.78,0,0,1-.42-2.61A19.07,19.07,0,0,1,48,9.82a5.26,5.26,0,0,1,.07-.67,1.47,1.47,0,0,1,.26-.72c.27-.32.54-.65.8-1A10.58,10.58,0,0,0,50.53,5.3c.16-.37.27-.85-.05-.92s-.66.25-.94.54a10.41,10.41,0,0,1-1.86,1.83,1.34,1.34,0,0,1-.66.19,1.31,1.31,0,0,1-.65-.2,5.43,5.43,0,0,1-1-.8c-.31-.3-.62-.6-.95-.88a2.09,2.09,0,0,0-.53-.34.49.49,0,0,0-.56.09Z" transform="translate(-4.04 -4.18)"/><path class="cls-8" d="M47.55,54.21a1.47,1.47,0,0,1-.83,0,6.86,6.86,0,0,1-.78-.2,9.61,9.61,0,0,1-1.47-.64,10.84,10.84,0,0,1-2.63-1.88,3.33,3.33,0,0,1-.56-.76,1,1,0,0,1-.09-.79.92.92,0,0,1,.34-.42,1.15,1.15,0,0,1,.35-.14c.34,0,.5-.06.75-.12l.69-.19a9.11,9.11,0,0,0,1.38-.61,2.6,2.6,0,0,1,.83-.24.69.69,0,0,1,.45.16,1,1,0,0,1,.25.35l0,0a.66.66,0,0,0-.62-.33,1.86,1.86,0,0,0-.69.31,10.11,10.11,0,0,1-1.36.77A5.62,5.62,0,0,1,42,50a.34.34,0,0,0-.26.18.46.46,0,0,0,.07.33,2.66,2.66,0,0,0,.46.6A14.13,14.13,0,0,0,44.72,53c.44.27.89.53,1.36.76a6.22,6.22,0,0,0,.71.29,1.47,1.47,0,0,0,.74.11Z" transform="translate(-4.04 -4.18)"/><path class="cls-7" d="M46.23,48.76a3.64,3.64,0,0,1,1.1,1.11,6.11,6.11,0,0,1,.7,1.37,4.69,4.69,0,0,1,.3,1.55,2.55,2.55,0,0,1-.11.85A1.22,1.22,0,0,1,48,54a.54.54,0,0,1-.42.17l0-.06a.61.61,0,0,0,.36-.56,2.49,2.49,0,0,0,0-.72,7.67,7.67,0,0,0-.4-1.42,14.59,14.59,0,0,0-.56-1.37,9.55,9.55,0,0,0-.71-1.29Z" transform="translate(-4.04 -4.18)"/><path class="cls-7" d="M49.66,54.51c.23,0,.34.24.45.4a3.08,3.08,0,0,1,.24.52,5.71,5.71,0,0,1,.28,1.08,6.79,6.79,0,0,1,0,2.25,5,5,0,0,1-.35,1.14,4.08,4.08,0,0,1-.65,1,3.58,3.58,0,0,1-.89.75,2.09,2.09,0,0,1-.55.24.78.78,0,0,1-.34,0,.28.28,0,0,1-.21-.27h.06c0,.18.25.16.4.09a1.84,1.84,0,0,0,.43-.3,4.77,4.77,0,0,0,.71-.78A4.45,4.45,0,0,0,50,58.66a9.4,9.4,0,0,0,.11-2.12,7.33,7.33,0,0,0-.11-1,4.37,4.37,0,0,0-.12-.52c-.06-.15-.12-.35-.27-.4Z" transform="translate(-4.04 -4.18)"/><path class="cls-8" d="M47.65,61.6a1.2,1.2,0,0,1-.12-.52c0-.17,0-.32,0-.48l-.1-1a14.19,14.19,0,0,1-.07-2,5.61,5.61,0,0,1,.14-1.05,2.94,2.94,0,0,1,.47-1,4,4,0,0,1,.68-.81,1.78,1.78,0,0,1,.48-.3.72.72,0,0,1,.56,0v.06a.91.91,0,0,0-.79.44,4.61,4.61,0,0,0-.5.82,3.89,3.89,0,0,0-.43,1.87c0,.65,0,1.3,0,1.95,0,.33,0,.65-.07,1a5.4,5.4,0,0,0-.1,1Z" transform="translate(-4.04 -4.18)"/></g></g></svg>