<svg xmlns="http://www.w3.org/2000/svg" viewBox="0 0 112.83 56.39"><defs><style>.cls-1{isolation:isolate;}.cls-2{fill:#004f90;}.cls-3{fill:#d4d6d7;mix-blend-mode:multiply;}.cls-4{fill:#8098c1;}.cls-5{fill:#fff;opacity:0.3;}.cls-6{fill:#9f2f33;}.cls-7{fill:#e6e6e0;}.cls-8{fill:#132a45;}</style></defs><g class="cls-1"><g id="Layer_1" data-name="Layer 1"><path class="cls-2" d="M54.72,48.45c0,.17,4.11,9.74,5.13,10.37s1.43-.85,1.71-3.53.06-6.38-1.37-7.41S54.72,48.45,54.72,48.45Z" transform="translate(-0.17 -2.57)"/><path class="cls-3" d="M60.19,47.88c-1.42-1-5.47.57-5.47.57s1.41,3.43,2.78,6.29a16.34,16.34,0,0,1,4.17-1.26C61.69,51.16,61.32,48.69,60.19,47.88Z" transform="translate(-0.17 -2.57)"/><path class="cls-2" d="M39.28,57.62c-7.74.5-18.24-2.22-28.21-8.77S-.33,35.29.3,33.29s1.88-1.59,4-.63,5.7,1.6,9.91-1.14,12.48-5.47,21.37-7,11.29-1.31,11.74-2.39,2.28-8.32,6.44-13.33,7.13-6.56,7.47-6.16S58.6,7,58.77,11.86s.8,6.67-.4,7.24S54.27,20,53.7,21s-1.2,1.83.51,1.83,14.53-1.26,26.21,1.25,19,3.25,20.41,2.68,1.25-6,3.93-12,7.75-9.51,8.2-8.89-3.53,8.49-2.79,13.45,0,6.16-2.16,7.52-3.42,1.26-3.25,1.6,2.39,1.31,1.71,5-.17,8.6.51,10.08.74,1.94-.06,1.94-4.27-1.59-5.87-5.75-.62-8.27-1.59-8.55-7-.23-16.42,3.53S69,43.6,62.87,48.39A41.84,41.84,0,0,1,39.28,57.62Z" transform="translate(-0.17 -2.57)"/><path class="cls-4" d="M90.33,31.31a23.85,23.85,0,0,0-4.87.6c-7.48,1.75-14.28,3.8-21.8,4.75a35.31,35.31,0,0,1-15.2-1.06C47.05,35.14,46,34,44.7,33.32a8.3,8.3,0,0,0-7,.11c-3.91,1.83-7.67,3.69-11.62,5.4a36.37,36.37,0,0,1-9.2,2.09,14.51,14.51,0,0,1-9.76-2,3.17,3.17,0,0,0-3-.38,1.85,1.85,0,0,0-.88,1.33,3.94,3.94,0,0,0,0,1.9,30.66,30.66,0,0,0,7.8,7.06c10,6.55,20.47,9.27,28.21,8.77a41.84,41.84,0,0,0,23.59-9.23C69,43.6,73.58,38.36,83,34.6A56.52,56.52,0,0,1,93.7,31.44,20,20,0,0,0,90.33,31.31Z" transform="translate(-0.17 -2.57)"/><path class="cls-3" d="M62,35.79a43.76,43.76,0,0,1-2.29,14.87c1.09-.72,2.14-1.48,3.14-2.27,1.59-1.25,3.08-2.53,4.59-3.81-.45-1.3-.94-2.58-1.37-3.84A9.89,9.89,0,0,0,62,35.79Z" transform="translate(-0.17 -2.57)"/><path class="cls-3" d="M52.65,21.54a1.24,1.24,0,0,0,.47.87c-.11-.34.24-.86.58-1.43.57-1,3.47-1.31,4.67-1.88a1.29,1.29,0,0,0,.69-1.2,17.48,17.48,0,0,1-2.94.68C54.49,18.81,52.28,19.47,52.65,21.54Z" transform="translate(-0.17 -2.57)"/><path class="cls-3" d="M104.56,27.59c-.25.4-.07.68.27.89a.28.28,0,0,1-.07-.09c-.17-.34,1.08-.23,3.25-1.6a4.39,4.39,0,0,0,2.2-2.52,13.62,13.62,0,0,1-2.7,1.92C106.48,26.71,105.15,26.71,104.56,27.59Z" transform="translate(-0.17 -2.57)"/><path class="cls-5" d="M24.84,27l-.45.14v0a1.28,1.28,0,0,0,0,.19c0,.06,0,.13,0,.19v.06a1.29,1.29,0,0,0,.08.28h0l0-.07a3.63,3.63,0,0,0,.31-.78Z" transform="translate(-0.17 -2.57)"/><path class="cls-5" d="M100.94,27.81a1.49,1.49,0,0,0-.72-.94c-2.3.27-9.3-.56-19.8-2.81-9.31-2-19.34-1.61-23.9-1.37-2.22.53-4.45,1.09-6.68.32-1.18-.44-1.25-1.62-.81-2.73s1.18-2.51,1.84-3.69A17.55,17.55,0,0,1,51.76,15a37.58,37.58,0,0,0,2.88-5.1,13.41,13.41,0,0,1,.81-1.32c.74-1,1.18-2.44,2.44-2.37.44,0,.44.89.52,1.33a24.2,24.2,0,0,0,.38,3c.3-4.3,2.74-7.6,2.43-8s-3.31,1.14-7.47,6.16-6,12.25-6.44,13.33-2.85.86-11.74,2.39c-3.08.54-6.08,1.21-8.87,2a4.23,4.23,0,0,1-.05,1.94,2.23,2.23,0,0,1-2.27,1.67,2,2,0,0,1-1.84-1.74c0-.17-.06-.37-.08-.57a39,39,0,0,0-8.26,3.72C10,34.26,6.4,33.63,4.29,32.66a12,12,0,0,0-1.8-.7c.75.61,1.27,1.68,2.23,2.13.3.15.59.22.89.37,6.72,4,14.55,2.58,21.64.44a165.38,165.38,0,0,1,32.19-6.2c12.41-1,24.59-.52,36.92.22C97.91,29.07,101.46,29.88,100.94,27.81ZM35.21,31.39a3,3,0,0,1-2,1.43,1.94,1.94,0,0,1-2-.91c-.6-1.08-.84-3.09.36-3.87a.63.63,0,0,1,1,.39,1.92,1.92,0,0,1,1.64-1,1.76,1.76,0,0,1,1.62,1.7A3.38,3.38,0,0,1,35.21,31.39Z" transform="translate(-0.17 -2.57)"/><path class="cls-5" d="M103.15,21.1c1.7-4.44,3.92-9,7.61-12.11a3.23,3.23,0,0,1,0,1.69,7.88,7.88,0,0,0-.1,3.06c.93-3.85,2.61-7.5,2.3-7.92-.45-.62-5.52,2.91-8.2,8.89a38.16,38.16,0,0,0-2.35,7.53A2.57,2.57,0,0,0,103.15,21.1Z" transform="translate(-0.17 -2.57)"/><path class="cls-5" d="M104.63,28.77c-.22.15-.15.67.08.89a12.2,12.2,0,0,1,1.62,4.54c0-.29.09-.58.14-.85.53-2.85-.71-4.07-1.36-4.62A1.3,1.3,0,0,0,104.63,28.77Z" transform="translate(-0.17 -2.57)"/><path class="cls-3" d="M105.89,42.8c-1.92-.66-3-2.95-3.62-4.8-.08-.14-.15-.36-.22-.51-1-1.92-.59-4.14-1.85-5.91a.46.46,0,0,0-.43-.17c.43,1.12-.08,4.64,1.28,8.21,1.6,4.16,5.08,5.75,5.87,5.75s.74-.45.06-1.94a15.83,15.83,0,0,1-.81-4.85l-.21.75C105.67,40.44,106.11,41.62,105.89,42.8Z" transform="translate(-0.17 -2.57)"/><path class="cls-6" d="M16.26,50.9c-3.44-1.36-7.41-5-7.7-7.12s1.31-1,6.16-.63S28.85,40.53,34,37.22s7.18-4.21,8.89-3.07.68,9-5.81,14S21.44,53,16.26,50.9Z" transform="translate(-0.17 -2.57)"/><path class="cls-3" d="M42.87,34.15C41.16,33,39.11,33.92,34,37.22s-14.42,6.33-19.26,5.93-6.44-1.48-6.16.63,4.26,5.76,7.7,7.12a17.76,17.76,0,0,0,2.9.85c-.24-.09-.47-.2-.7-.31-.81-2.51,1.7-3.32,3.69-3.47,6.57-.59,13.37-1.62,18.46-6.35a1.19,1.19,0,0,1,1-.14,1.3,1.3,0,0,1,.5.45C43.94,38.27,44,34.87,42.87,34.15Z" transform="translate(-0.17 -2.57)"/><path class="cls-7" d="M11.72,45.82c.64-.3.8-1.18.95-1.9.23,1.44,1.25,3,2.7,2.66.87-.15.38-1.44.49-2.2.57,1.33,1.56,2.85,3.19,2.66a4.69,4.69,0,0,0,.53-2.89c.72,1.18,1.71,3,3.23,2.47,1-.34.69-2,.69-3,0,0,.19,0,.22.07.57.88,1.07,1.79,2,2.09.64.19,1.59.53,1.9-.23a3.16,3.16,0,0,0-.27-2.66c0-.07-.19-.3-.07-.38s.22.16.3.23c.8.84,1.48,1.9,2.62,2.24a.81.81,0,0,0,1-.38,4.08,4.08,0,0,0-.42-3c1.14.68,2.32,1.56,3.73,1.44a.47.47,0,0,0,.41-.38,4,4,0,0,0,0-1.82c-.11-.42-.53-.8-.57-1.29.88.45,1.83,1.37,2.66.87,1-.6.16-2.12-.53-2.92a.71.71,0,0,1,.31.11,6.63,6.63,0,0,0,2.66,1.1,2.75,2.75,0,0,0-.23-2.88c.64.34,1.25,1.17,1.94.83A1.26,1.26,0,0,0,41.51,35a8.21,8.21,0,0,0-.79-1.25c-1.47.25-3.49,1.39-6.74,3.48-5.13,3.31-14.42,6.33-19.26,5.93-3.28-.27-5.07-.85-5.8-.55a12.07,12.07,0,0,0,1.2,2.27C10.5,45.44,11,46.16,11.72,45.82Z" transform="translate(-0.17 -2.57)"/><path class="cls-3" d="M41.13,36.7A1.26,1.26,0,0,0,41.51,35a8.21,8.21,0,0,0-.79-1.25c-1.47.25-3.49,1.39-6.74,3.48-5.13,3.31-14.42,6.33-19.26,5.93-3.28-.27-5.07-.85-5.8-.55a12.07,12.07,0,0,0,1.2,2.27c.33.49.77,1.09,1.32,1a1,1,0,0,1,.74-1.62l.42,0c0-.11,0-.23.07-.34,0,.11,0,.23.07.34,4.54-.18,9.07,0,13.47-1.46a54.82,54.82,0,0,0,10.36-5.11l-.12-.15a.49.49,0,0,1,.24.08l1.93-1.09a1.37,1.37,0,0,1,.86-.19,3.31,3.31,0,0,0-.29-.47C39.83,36.21,40.44,37,41.13,36.7Z" transform="translate(-0.17 -2.57)"/><path class="cls-8" d="M1.84,34.77v0h0c0-.09-.05-.19-.08-.28a2.41,2.41,0,0,0-.2-.53.4.4,0,0,0-.75.2c0,.39,0,1,.39,1.3a.48.48,0,0,0,.67,0A.46.46,0,0,0,1.84,34.77Z" transform="translate(-0.17 -2.57)"/><path class="cls-8" d="M3.12,34.84A4,4,0,0,0,3,34.36a1.23,1.23,0,0,0-.27-.59.28.28,0,0,0-.47.12,1.25,1.25,0,0,0,0,.51,3.37,3.37,0,0,1,0,.55.42.42,0,0,0,.62.36A.41.41,0,0,0,3.12,34.84Z" transform="translate(-0.17 -2.57)"/><path class="cls-2" d="M60.08,34.12s3,8.06,4.79,13.42,3.57,10.74,4.41,9.53,3.11-7.3,1.9-12.09-4.1-5.69-5.7-7.37a24.83,24.83,0,0,1-2.43-3.49A7.59,7.59,0,0,0,60.08,34.12Z" transform="translate(-0.17 -2.57)"/><path class="cls-7" d="M26.07,27.18c0-1.37-.77-2.48-1.71-2.48s-1.7,1.11-1.7,2.48.76,2.48,1.7,2.48S26.07,28.55,26.07,27.18Z" transform="translate(-0.17 -2.57)"/><path class="cls-7" d="M34.78,29.18c0-1.55-.85-2.81-1.9-2.81S31,27.63,31,29.18,31.83,32,32.88,32,34.78,30.73,34.78,29.18Z" transform="translate(-0.17 -2.57)"/><path class="cls-8" d="M23.64,26.92l-.09-.05c-.21-.09-.43.13-.44.33,0,.49-.15,1.3.49,1.46a.32.32,0,0,0,.37-.15C24.22,28.08,24.2,27.1,23.64,26.92Z" transform="translate(-0.17 -2.57)"/><path class="cls-8" d="M32.55,29.06c-.25-.27-.58-.09-.75.16a1.06,1.06,0,0,0-.17.9.91.91,0,0,0,.16.35.33.33,0,0,0,.5.29.4.4,0,0,0,.15-.1.87.87,0,0,0,.32-.77A1.22,1.22,0,0,0,32.55,29.06Z" transform="translate(-0.17 -2.57)"/></g></g></svg>