<svg xmlns="http://www.w3.org/2000/svg" viewBox="0 0 109.79 66.06"><defs><style>.cls-1{isolation:isolate;}.cls-2{fill:#004f90;}.cls-3{fill:#d4d6d7;mix-blend-mode:multiply;}.cls-4{fill:#8098c1;}.cls-5{fill:#fff;opacity:0.3;}.cls-6{fill:#e6e6e0;}.cls-7{fill:#132a45;}</style></defs><g class="cls-1"><g id="Layer_1" data-name="Layer 1"><path class="cls-2" d="M45.36,60.1s-.18,7.61.71,7.86,4.79-6.68,4.92-7.25S45.36,60.1,45.36,60.1Z" transform="translate(-2.21 -1.92)"/><path class="cls-3" d="M45.36,60.1s-.06,2.37,0,4.51a22,22,0,0,1,3.17.41A34.49,34.49,0,0,0,51,60.71C51.12,60.14,45.36,60.1,45.36,60.1Z" transform="translate(-2.21 -1.92)"/><path class="cls-2" d="M48.42,24.59a3.27,3.27,0,0,0,3.28-2.2c.65-1.83,2.73-9.67,5.48-14.66s4.8-6.3,5.43-5.66-1.65,9.36.16,14.06.84,5.9-.74,6-5.24,1.74-4.18,2.26,9.1.44,22.57,3.32S102.24,34,103.2,32.63s1.52-10.26,4-15.43,4.48-7.51,4.53-5.74-.82,9.63-.09,14,.54,4.63-1.43,5.44-3,2.7-2.12,3.22,1.71,1,.93,3.36a14.52,14.52,0,0,0-.12,7.86c.69,1.77.88,2.22.5,2.22s-2.4-1.48-3.64-5.29-1.61-5.46-2.12-5.46S95.86,40,88,44.11s-8.35,7.68-16.31,13.13S52.3,63.89,39.51,62.79s-21.24-6.36-28.1-13S.87,34.9,2.65,33.33s3.73,1.23,8.69-.7S32.54,25.55,48.42,24.59Z" transform="translate(-2.21 -1.92)"/><path class="cls-4" d="M93.35,38.36C86.24,40.08,80,42.53,72.7,43.87c-2,.37-3.77.74-5.67,1a51.59,51.59,0,0,1-20.94-1.41c-4.17-1.21-7.41-3.64-11-6.29-4.62-3.41-9.72-.1-14.29,1.55a17.64,17.64,0,0,1-13-.47A1.53,1.53,0,0,0,6,38.64a5.09,5.09,0,0,0-.65,3.62,42.23,42.23,0,0,0,6.1,7.48c6.86,6.69,15.31,11.95,28.1,13s24.2-.09,32.16-5.55,8.42-9,16.31-13.13c5.58-2.92,10.83-5.36,13.61-6.54A28.8,28.8,0,0,0,93.35,38.36Z" transform="translate(-2.21 -1.92)"/><path class="cls-3" d="M57.65,42.75c-.48,6.77-1,13.82-3.59,20.13a46.68,46.68,0,0,0,8.57-1.53c0-.42,0-.85-.06-1.28C62.25,54.08,61.59,47.6,57.65,42.75Z" transform="translate(-2.21 -1.92)"/><path class="cls-3" d="M107.56,33.32a.37.37,0,0,0,.22.44c-.23-.75.75-2.18,2.4-2.86,1.26-.52,1.79-.81,1.82-2.1C109.75,29.38,107.78,30.82,107.56,33.32Z" transform="translate(-2.21 -1.92)"/><path class="cls-3" d="M107.31,44.15a7,7,0,0,1-1.23-2.3A36.9,36.9,0,0,0,104,36.68c-.06.06-.11.13-.17.2.43.34.85,2,2,5.39,1.24,3.81,3.26,5.28,3.64,5.29s.19-.45-.5-2.22a13.67,13.67,0,0,1-.32-5.89A6.92,6.92,0,0,0,107.31,44.15Z" transform="translate(-2.21 -1.92)"/><path class="cls-5" d="M102.71,33.15l-.17-.24c-2.37.25-10.25-2.66-22.12-5.19a154.4,154.4,0,0,0-19.1-2.86c-1.23.22-2.48.48-3.75.74s-3.45.66-3.45-1c0-6.81,2.54-13.21,5.91-19.29.25-.41.82-1,.9-.82a28.91,28.91,0,0,1,1.18,4.81c.21-3.58.87-6.86.5-7.24-.63-.64-2.67.67-5.43,5.66S52.35,20.56,51.7,22.39a3.27,3.27,0,0,1-3.28,2.2c-3.51.21-7,.63-10.44,1.17a7.11,7.11,0,0,1-.26,2.94c-.44,1.49-1.51,3.66-3.44,3.2a2.2,2.2,0,0,1-1.6-2.07,7.18,7.18,0,0,1,.2-1.79c.07-.35.16-.9.31-1.43-1.56.3-3.09.63-4.56,1a3.58,3.58,0,0,1-1.31,3,2.29,2.29,0,0,1-2.84-.35,2.82,2.82,0,0,1-.57-1.52,125.84,125.84,0,0,0-12.57,3.91c-5,1.93-6.9-.87-8.69.7a1.2,1.2,0,0,0-.25.33c2.77,1.19,5.82,1,8.87,1.79l2,.49a16.79,16.79,0,0,0,7.55.41c10.1-2.3,19.62-4.35,29.64-3.61,5.33.33,10.67,1.15,16,1.4,11.82.49,23.56-.41,35.38,0C102.14,34.14,103,33.64,102.71,33.15Z" transform="translate(-2.21 -1.92)"/><path class="cls-5" d="M108.27,34.24a2,2,0,0,0,1,1.39A1.78,1.78,0,0,0,108.27,34.24Z" transform="translate(-2.21 -1.92)"/><path class="cls-5" d="M111.7,11.46c0-1.77-2.09.56-4.53,5.74-1.41,3-2.2,7.22-2.79,10.52,1.56-4.64,2.68-9.56,5.64-13.53.52,4.18-.36,8.83,1.78,12.5,0-.37-.12-.78-.19-1.23C110.88,21.09,111.76,13.24,111.7,11.46Z" transform="translate(-2.21 -1.92)"/><path class="cls-3" d="M56.83,23.3c-.48.57.1.76.83.86,0-.66,3-1.91,4.37-2a1.61,1.61,0,0,0,1.67-1.47C61.14,20.92,58.37,21.33,56.83,23.3Z" transform="translate(-2.21 -1.92)"/><path class="cls-6" d="M10.94,44.84s1.45-1.82,2-1.39-.69,2.67-.69,2.67A5.48,5.48,0,0,1,10.94,44.84Z" transform="translate(-2.21 -1.92)"/><path class="cls-6" d="M13.77,46.69s.8-2.07,1.43-2.44.55,1,.46,1.67A5.47,5.47,0,0,1,15.4,47Z" transform="translate(-2.21 -1.92)"/><path class="cls-6" d="M17.12,47a9.65,9.65,0,0,1,.58-2.59c.34-.42.73.17.9.82A10.52,10.52,0,0,1,18.78,47S17.68,47,17.12,47Z" transform="translate(-2.21 -1.92)"/><path class="cls-6" d="M20.62,46.43s-.67-2,0-2.42,1.57,2,1.57,2Z" transform="translate(-2.21 -1.92)"/><path class="cls-6" d="M23.64,45.52s-.75-2-.38-2.22,1.79,1.54,1.79,1.54Z" transform="translate(-2.21 -1.92)"/><path class="cls-6" d="M26.23,44.27S25,42.35,25.63,42s2.07,1.5,2.07,1.5Z" transform="translate(-2.21 -1.92)"/><path class="cls-6" d="M28.84,42.63s-1.37-1.47-.86-1.84,2,.93,2,.93Z" transform="translate(-2.21 -1.92)"/><path class="cls-6" d="M30.76,40.75s-1.43-1.1-1.06-1.52,1.75.35,1.75.35Z" transform="translate(-2.21 -1.92)"/><path class="cls-2" d="M32.15,37.13a.24.24,0,0,0-.47,0A5.79,5.79,0,0,1,31.39,39a6.8,6.8,0,0,1-.39.76,8.68,8.68,0,0,1-.48.84,7.73,7.73,0,0,1-.6.67c-.23.24-.47.49-.72.71a13.71,13.71,0,0,1-1.51,1.12c-.54.34-1.11.62-1.68.91s-1.07.66-1.64.93a22.1,22.1,0,0,1-3.58,1.19c-.54.15-1.09.26-1.63.38a11.81,11.81,0,0,1-1.67.25,13.45,13.45,0,0,1-1.68,0,5.93,5.93,0,0,1-1.62-.23,8.74,8.74,0,0,1-1.56-.62,5.52,5.52,0,0,1-.62-.46,3.65,3.65,0,0,1-.57-.47,3.8,3.8,0,0,1-.67-1.35,4.39,4.39,0,0,1-.21-.79c0-.29-.1-.58-.12-.88a.13.13,0,0,0-.25,0,7.47,7.47,0,0,0-.09.94,2.74,2.74,0,0,0,.17.94,4.77,4.77,0,0,0,.82,1.58,4.65,4.65,0,0,0,.63.53,5,5,0,0,0,.74.53,13.71,13.71,0,0,0,1.88.71,3.65,3.65,0,0,0,.88.1c.32,0,.65.06,1,.07a13.26,13.26,0,0,0,2-.09c.67-.09,1.32-.24,2-.39s1.27-.34,1.91-.49a14.09,14.09,0,0,0,1.7-.56,13.3,13.3,0,0,0,1.62-.76c.26-.15.51-.32.78-.47s.54-.28.81-.42a10.63,10.63,0,0,0,1.64-1A12.45,12.45,0,0,0,30,42a6.61,6.61,0,0,0,1.21-1.43A11.41,11.41,0,0,0,32,39,5.39,5.39,0,0,0,32.15,37.13Z" transform="translate(-2.21 -1.92)"/><path class="cls-7" d="M4.38,35.29l0,0v0s0-.08,0,0l0-.08a.83.83,0,0,0-.23-.43.34.34,0,0,0-.47,0,.69.69,0,0,0-.17.66.85.85,0,0,0,.12.39.5.5,0,0,0,.65.17A.48.48,0,0,0,4.38,35.29Z" transform="translate(-2.21 -1.92)"/><path class="cls-7" d="M5.67,35.55h0a1,1,0,0,0-.11-.46.38.38,0,0,0-.65,0,.64.64,0,0,0-.06.45.47.47,0,0,0,.43.37.28.28,0,0,0,.2,0A.36.36,0,0,0,5.67,35.55Z" transform="translate(-2.21 -1.92)"/><path class="cls-2" d="M56.25,42.34a54.38,54.38,0,0,1,4.6,13.25c1.34,7,1.82,11.79,2.64,11.61s2.78-7.74,3.19-12.38S66,48,64.14,47.35s-3-1.53-2.61-2.69a2.53,2.53,0,0,0,0-1.81Z" transform="translate(-2.21 -1.92)"/><path class="cls-6" d="M36.57,27.58c0-2-.9-3.56-2-3.57s-2.08,1.58-2.09,3.54.9,3.55,2,3.56S36.56,29.54,36.57,27.58Z" transform="translate(-2.21 -1.92)"/><path class="cls-6" d="M27.53,27.73c0-1.43-.7-2.59-1.59-2.59s-1.61,1.14-1.62,2.56.7,2.59,1.59,2.59S27.52,29.15,27.53,27.73Z" transform="translate(-2.21 -1.92)"/><path class="cls-7" d="M34.16,27.77c0-.86-.31-1.56-.71-1.57s-.72.7-.72,1.56.31,1.57.7,1.57S34.16,28.63,34.16,27.77Z" transform="translate(-2.21 -1.92)"/><path class="cls-7" d="M25.71,27.71c0-.53-.24-1-.54-1s-.55.43-.55,1,.24,1,.54,1S25.71,28.25,25.71,27.71Z" transform="translate(-2.21 -1.92)"/><path class="cls-7" d="M27.65,23.09,27.54,23a1.41,1.41,0,0,0-1.54-.2,2,2,0,0,0-.75.7,1.27,1.27,0,0,0-.25,1,.11.11,0,0,0,.18.05c.36-.34.58-.81,1-1.08a.48.48,0,0,1,.41-.08.62.62,0,0,1,.22.1s0,0,0,0a.47.47,0,0,1,.05.1.41.41,0,0,0,.38.22.53.53,0,0,0,.39-.15A.41.41,0,0,0,27.65,23.09Z" transform="translate(-2.21 -1.92)"/><path class="cls-7" d="M36.34,21.81a1.21,1.21,0,0,1-.05-.18l-.1-.21a1.48,1.48,0,0,0-.29-.37,1.85,1.85,0,0,0-.79-.46,2.41,2.41,0,0,0-1.1-.06,2.28,2.28,0,0,0-.58.17.76.76,0,0,0-.45.48.44.44,0,0,0,.53.54c.26-.09.45-.3.72-.38a1.9,1.9,0,0,1,.75-.07,1.84,1.84,0,0,1,.64.24,1.78,1.78,0,0,1,.27.21,1,1,0,0,1,.23.22C36.2,22.08,36.42,22,36.34,21.81Z" transform="translate(-2.21 -1.92)"/></g></g></svg>